M48
; DRILL file {KiCad 7.0.9} date Thu Dec 21 11:10:15 2023
; FORMAT={-:-/ absolute / inch / decimal}
; #@! TF.CreationDate,2023-12-21T11:10:15+01:00
; #@! TF.GenerationSoftware,Kicad,Pcbnew,7.0.9
; #@! TF.FileFunction,Plated,1,2,PTH
FMAT,2
INCH
; #@! TA.AperFunction,Plated,PTH,ComponentDrill
T1C0.0276
; #@! TA.AperFunction,Plated,PTH,ComponentDrill
T2C0.0315
; #@! TA.AperFunction,Plated,PTH,ComponentDrill
T3C0.0354
; #@! TA.AperFunction,Plated,PTH,ComponentDrill
T4C0.0394
; #@! TA.AperFunction,Plated,PTH,ComponentDrill
T5C0.0400
; #@! TA.AperFunction,Plated,PTH,ComponentDrill
T6C0.0512
%
G90
G05
T1
X5.0Y-3.3
X5.0Y-3.5
X5.0Y-3.7
X5.3Y-3.3
X5.3Y-3.5
X5.3Y-3.7
T2
X4.5Y-3.2
X4.5Y-3.3
X4.5Y-3.4
X4.5Y-3.5
X4.8Y-3.2
X4.8Y-3.3
X4.8Y-3.4
X4.8Y-3.5
X5.3Y-2.7
X5.3Y-2.8
X5.3Y-2.9
X6.9Y-2.5
X7.0Y-2.5
X7.1Y-2.5
T3
X4.55Y-2.7
X4.55Y-2.8673
X5.05Y-2.7
X5.05Y-2.8673
T4
X5.5752Y-3.25
X5.6752Y-3.25
X6.8Y-3.1
X6.8Y-3.2
X6.8Y-3.3
X6.8Y-3.4
T5
X4.54Y-2.3
X4.64Y-2.3
X4.74Y-2.3
X4.84Y-2.3
X4.9Y-4.2
X4.94Y-2.3
X5.0Y-4.2
X5.04Y-2.3
X5.1Y-4.2
X5.14Y-2.3
X5.2Y-4.2
X5.24Y-2.3
X5.3Y-4.2
X5.34Y-2.3
X5.4Y-4.2
X5.44Y-2.3
X5.5Y-4.2
X5.6Y-2.3
X5.6Y-4.2
X5.7Y-2.3
X5.8Y-2.3
X5.8Y-4.2
X5.9Y-2.3
X5.9Y-4.2
X6.0Y-2.3
X6.0Y-4.2
X6.1Y-2.3
X6.1Y-4.2
X6.2Y-2.3
X6.2Y-4.2
X6.3Y-2.3
X6.3Y-4.2
X6.305Y-3.1
X6.305Y-3.2
X6.305Y-3.3
X6.4Y-4.2
X6.405Y-3.1
X6.405Y-3.2
X6.405Y-3.3
X6.5Y-2.3
X6.5Y-4.2
X6.6Y-2.3
X6.7Y-2.3
X6.7Y-4.2
X6.8Y-2.3
X6.8Y-4.2
X6.9Y-2.3
X6.9Y-4.2
X7.0Y-2.3
X7.0Y-4.2
X7.1Y-2.3
X7.1Y-4.2
X7.2Y-2.3
X7.2Y-4.2
X7.3Y-4.2
X7.4Y-4.2
X7.5Y-2.3
X7.5Y-2.4
X7.5Y-2.5
X7.5Y-2.6
X7.5Y-2.7
X7.5Y-2.8
X7.5Y-2.9
X7.5Y-3.0
X7.5Y-3.1
X7.5Y-3.2
X7.5Y-3.3
X7.5Y-3.4
X7.5Y-3.5
X7.5Y-3.6
X7.5Y-3.7
X7.5Y-3.8
X7.5Y-3.9
X7.5Y-4.0
X7.6Y-2.3
X7.6Y-2.4
X7.6Y-2.5
X7.6Y-2.6
X7.6Y-2.7
X7.6Y-2.8
X7.6Y-2.9
X7.6Y-3.0
X7.6Y-3.1
X7.6Y-3.2
X7.6Y-3.3
X7.6Y-3.4
X7.6Y-3.5
X7.6Y-3.6
X7.6Y-3.7
X7.6Y-3.8
X7.6Y-3.9
X7.6Y-4.0
T6
X8.1Y-2.1
X8.1Y-2.3
X8.1Y-2.5
X8.1Y-2.7
X8.1Y-2.9
X8.1Y-3.1
X8.1Y-3.4
X8.1Y-3.6
X8.1Y-3.8
X8.1Y-4.1
X8.1Y-4.3
T0
M30
