%TF.GenerationSoftware,KiCad,Pcbnew,7.0.9*%
%TF.CreationDate,2023-12-21T11:10:13+01:00*%
%TF.ProjectId,OptiprodV2,4f707469-7072-46f6-9456-322e6b696361,rev?*%
%TF.SameCoordinates,Original*%
%TF.FileFunction,Drillmap*%
%TF.FilePolarity,Positive*%
%FSLAX45Y45*%
G04 Gerber Fmt 4.5, Leading zero omitted, Abs format (unit mm)*
G04 Created by KiCad (PCBNEW 7.0.9) date 2023-12-21 11:10:13*
%MOMM*%
%LPD*%
G01*
G04 APERTURE LIST*
%ADD10C,0.100000*%
%ADD11C,0.200000*%
%ADD12C,0.101600*%
%ADD13C,0.130000*%
G04 APERTURE END LIST*
D10*
X11176000Y-4318000D02*
X21082000Y-4318000D01*
X21082000Y-11938000D01*
X11176000Y-11938000D01*
X11176000Y-4318000D01*
D11*
D10*
X12665000Y-8347000D02*
X12735000Y-8417000D01*
X12735000Y-8347000D02*
X12665000Y-8417000D01*
X12665000Y-8855000D02*
X12735000Y-8925000D01*
X12735000Y-8855000D02*
X12665000Y-8925000D01*
X12665000Y-9363000D02*
X12735000Y-9433000D01*
X12735000Y-9363000D02*
X12665000Y-9433000D01*
X13427000Y-8347000D02*
X13497000Y-8417000D01*
X13497000Y-8347000D02*
X13427000Y-8417000D01*
X13427000Y-8855000D02*
X13497000Y-8925000D01*
X13497000Y-8855000D02*
X13427000Y-8925000D01*
X13427000Y-9363000D02*
X13497000Y-9433000D01*
X13497000Y-9363000D02*
X13427000Y-9433000D01*
X11470000Y-8128000D02*
G75*
G03*
X11470000Y-8128000I-40000J0D01*
G01*
X11470000Y-8382000D02*
G75*
G03*
X11470000Y-8382000I-40000J0D01*
G01*
X11470000Y-8636000D02*
G75*
G03*
X11470000Y-8636000I-40000J0D01*
G01*
X11470000Y-8890000D02*
G75*
G03*
X11470000Y-8890000I-40000J0D01*
G01*
X12232000Y-8128000D02*
G75*
G03*
X12232000Y-8128000I-40000J0D01*
G01*
X12232000Y-8382000D02*
G75*
G03*
X12232000Y-8382000I-40000J0D01*
G01*
X12232000Y-8636000D02*
G75*
G03*
X12232000Y-8636000I-40000J0D01*
G01*
X12232000Y-8890000D02*
G75*
G03*
X12232000Y-8890000I-40000J0D01*
G01*
X13502000Y-6858000D02*
G75*
G03*
X13502000Y-6858000I-40000J0D01*
G01*
X13502000Y-7112000D02*
G75*
G03*
X13502000Y-7112000I-40000J0D01*
G01*
X13502000Y-7366000D02*
G75*
G03*
X13502000Y-7366000I-40000J0D01*
G01*
X17566000Y-6350000D02*
G75*
G03*
X17566000Y-6350000I-40000J0D01*
G01*
X17820000Y-6350000D02*
G75*
G03*
X17820000Y-6350000I-40000J0D01*
G01*
X18074000Y-6350000D02*
G75*
G03*
X18074000Y-6350000I-40000J0D01*
G01*
X11557000Y-6813000D02*
X11557000Y-6903000D01*
X11512000Y-6858000D02*
X11602000Y-6858000D01*
X11557000Y-7238000D02*
X11557000Y-7328000D01*
X11512000Y-7283000D02*
X11602000Y-7283000D01*
X12827000Y-6813000D02*
X12827000Y-6903000D01*
X12782000Y-6858000D02*
X12872000Y-6858000D01*
X12827000Y-7238000D02*
X12827000Y-7328000D01*
X12782000Y-7283000D02*
X12872000Y-7283000D01*
X14196356Y-8290356D02*
X14196356Y-8219644D01*
X14125644Y-8219644D01*
X14125644Y-8290356D01*
X14196356Y-8290356D01*
X14450356Y-8290356D02*
X14450356Y-8219644D01*
X14379644Y-8219644D01*
X14379644Y-8290356D01*
X14450356Y-8290356D01*
X17307356Y-7909356D02*
X17307356Y-7838644D01*
X17236644Y-7838644D01*
X17236644Y-7909356D01*
X17307356Y-7909356D01*
X17307356Y-8163356D02*
X17307356Y-8092644D01*
X17236644Y-8092644D01*
X17236644Y-8163356D01*
X17307356Y-8163356D01*
X17307356Y-8417356D02*
X17307356Y-8346644D01*
X17236644Y-8346644D01*
X17236644Y-8417356D01*
X17307356Y-8417356D01*
X17307356Y-8671356D02*
X17307356Y-8600644D01*
X17236644Y-8600644D01*
X17236644Y-8671356D01*
X17307356Y-8671356D01*
D12*
X11531600Y-5892800D02*
X11582400Y-5842000D01*
X11531600Y-5791200D01*
X11480800Y-5842000D01*
X11531600Y-5892800D01*
X11785600Y-5892800D02*
X11836400Y-5842000D01*
X11785600Y-5791200D01*
X11734800Y-5842000D01*
X11785600Y-5892800D01*
X12039600Y-5892800D02*
X12090400Y-5842000D01*
X12039600Y-5791200D01*
X11988800Y-5842000D01*
X12039600Y-5892800D01*
X12293600Y-5892800D02*
X12344400Y-5842000D01*
X12293600Y-5791200D01*
X12242800Y-5842000D01*
X12293600Y-5892800D01*
X12446000Y-10718800D02*
X12496800Y-10668000D01*
X12446000Y-10617200D01*
X12395200Y-10668000D01*
X12446000Y-10718800D01*
X12547600Y-5892800D02*
X12598400Y-5842000D01*
X12547600Y-5791200D01*
X12496800Y-5842000D01*
X12547600Y-5892800D01*
X12700000Y-10718800D02*
X12750800Y-10668000D01*
X12700000Y-10617200D01*
X12649200Y-10668000D01*
X12700000Y-10718800D01*
X12801600Y-5892800D02*
X12852400Y-5842000D01*
X12801600Y-5791200D01*
X12750800Y-5842000D01*
X12801600Y-5892800D01*
X12954000Y-10718800D02*
X13004800Y-10668000D01*
X12954000Y-10617200D01*
X12903200Y-10668000D01*
X12954000Y-10718800D01*
X13055600Y-5892800D02*
X13106400Y-5842000D01*
X13055600Y-5791200D01*
X13004800Y-5842000D01*
X13055600Y-5892800D01*
X13208000Y-10718800D02*
X13258800Y-10668000D01*
X13208000Y-10617200D01*
X13157200Y-10668000D01*
X13208000Y-10718800D01*
X13309600Y-5892800D02*
X13360400Y-5842000D01*
X13309600Y-5791200D01*
X13258800Y-5842000D01*
X13309600Y-5892800D01*
X13462000Y-10718800D02*
X13512800Y-10668000D01*
X13462000Y-10617200D01*
X13411200Y-10668000D01*
X13462000Y-10718800D01*
X13563600Y-5892800D02*
X13614400Y-5842000D01*
X13563600Y-5791200D01*
X13512800Y-5842000D01*
X13563600Y-5892800D01*
X13716000Y-10718800D02*
X13766800Y-10668000D01*
X13716000Y-10617200D01*
X13665200Y-10668000D01*
X13716000Y-10718800D01*
X13817600Y-5892800D02*
X13868400Y-5842000D01*
X13817600Y-5791200D01*
X13766800Y-5842000D01*
X13817600Y-5892800D01*
X13970000Y-10718800D02*
X14020800Y-10668000D01*
X13970000Y-10617200D01*
X13919200Y-10668000D01*
X13970000Y-10718800D01*
X14224000Y-5892800D02*
X14274800Y-5842000D01*
X14224000Y-5791200D01*
X14173200Y-5842000D01*
X14224000Y-5892800D01*
X14224000Y-10718800D02*
X14274800Y-10668000D01*
X14224000Y-10617200D01*
X14173200Y-10668000D01*
X14224000Y-10718800D01*
X14478000Y-5892800D02*
X14528800Y-5842000D01*
X14478000Y-5791200D01*
X14427200Y-5842000D01*
X14478000Y-5892800D01*
X14732000Y-5892800D02*
X14782800Y-5842000D01*
X14732000Y-5791200D01*
X14681200Y-5842000D01*
X14732000Y-5892800D01*
X14732000Y-10718800D02*
X14782800Y-10668000D01*
X14732000Y-10617200D01*
X14681200Y-10668000D01*
X14732000Y-10718800D01*
X14986000Y-5892800D02*
X15036800Y-5842000D01*
X14986000Y-5791200D01*
X14935200Y-5842000D01*
X14986000Y-5892800D01*
X14986000Y-10718800D02*
X15036800Y-10668000D01*
X14986000Y-10617200D01*
X14935200Y-10668000D01*
X14986000Y-10718800D01*
X15240000Y-5892800D02*
X15290800Y-5842000D01*
X15240000Y-5791200D01*
X15189200Y-5842000D01*
X15240000Y-5892800D01*
X15240000Y-10718800D02*
X15290800Y-10668000D01*
X15240000Y-10617200D01*
X15189200Y-10668000D01*
X15240000Y-10718800D01*
X15494000Y-5892800D02*
X15544800Y-5842000D01*
X15494000Y-5791200D01*
X15443200Y-5842000D01*
X15494000Y-5892800D01*
X15494000Y-10718800D02*
X15544800Y-10668000D01*
X15494000Y-10617200D01*
X15443200Y-10668000D01*
X15494000Y-10718800D01*
X15748000Y-5892800D02*
X15798800Y-5842000D01*
X15748000Y-5791200D01*
X15697200Y-5842000D01*
X15748000Y-5892800D01*
X15748000Y-10718800D02*
X15798800Y-10668000D01*
X15748000Y-10617200D01*
X15697200Y-10668000D01*
X15748000Y-10718800D01*
X16002000Y-5892800D02*
X16052800Y-5842000D01*
X16002000Y-5791200D01*
X15951200Y-5842000D01*
X16002000Y-5892800D01*
X16002000Y-10718800D02*
X16052800Y-10668000D01*
X16002000Y-10617200D01*
X15951200Y-10668000D01*
X16002000Y-10718800D01*
X16014700Y-7924800D02*
X16065500Y-7874000D01*
X16014700Y-7823200D01*
X15963900Y-7874000D01*
X16014700Y-7924800D01*
X16014700Y-8178800D02*
X16065500Y-8128000D01*
X16014700Y-8077200D01*
X15963900Y-8128000D01*
X16014700Y-8178800D01*
X16014700Y-8432800D02*
X16065500Y-8382000D01*
X16014700Y-8331200D01*
X15963900Y-8382000D01*
X16014700Y-8432800D01*
X16256000Y-10718800D02*
X16306800Y-10668000D01*
X16256000Y-10617200D01*
X16205200Y-10668000D01*
X16256000Y-10718800D01*
X16268700Y-7924800D02*
X16319500Y-7874000D01*
X16268700Y-7823200D01*
X16217900Y-7874000D01*
X16268700Y-7924800D01*
X16268700Y-8178800D02*
X16319500Y-8128000D01*
X16268700Y-8077200D01*
X16217900Y-8128000D01*
X16268700Y-8178800D01*
X16268700Y-8432800D02*
X16319500Y-8382000D01*
X16268700Y-8331200D01*
X16217900Y-8382000D01*
X16268700Y-8432800D01*
X16510000Y-5892800D02*
X16560800Y-5842000D01*
X16510000Y-5791200D01*
X16459200Y-5842000D01*
X16510000Y-5892800D01*
X16510000Y-10718800D02*
X16560800Y-10668000D01*
X16510000Y-10617200D01*
X16459200Y-10668000D01*
X16510000Y-10718800D01*
X16764000Y-5892800D02*
X16814800Y-5842000D01*
X16764000Y-5791200D01*
X16713200Y-5842000D01*
X16764000Y-5892800D01*
X17018000Y-5892800D02*
X17068800Y-5842000D01*
X17018000Y-5791200D01*
X16967200Y-5842000D01*
X17018000Y-5892800D01*
X17018000Y-10718800D02*
X17068800Y-10668000D01*
X17018000Y-10617200D01*
X16967200Y-10668000D01*
X17018000Y-10718800D01*
X17272000Y-5892800D02*
X17322800Y-5842000D01*
X17272000Y-5791200D01*
X17221200Y-5842000D01*
X17272000Y-5892800D01*
X17272000Y-10718800D02*
X17322800Y-10668000D01*
X17272000Y-10617200D01*
X17221200Y-10668000D01*
X17272000Y-10718800D01*
X17526000Y-5892800D02*
X17576800Y-5842000D01*
X17526000Y-5791200D01*
X17475200Y-5842000D01*
X17526000Y-5892800D01*
X17526000Y-10718800D02*
X17576800Y-10668000D01*
X17526000Y-10617200D01*
X17475200Y-10668000D01*
X17526000Y-10718800D01*
X17780000Y-5892800D02*
X17830800Y-5842000D01*
X17780000Y-5791200D01*
X17729200Y-5842000D01*
X17780000Y-5892800D01*
X17780000Y-10718800D02*
X17830800Y-10668000D01*
X17780000Y-10617200D01*
X17729200Y-10668000D01*
X17780000Y-10718800D01*
X18034000Y-5892800D02*
X18084800Y-5842000D01*
X18034000Y-5791200D01*
X17983200Y-5842000D01*
X18034000Y-5892800D01*
X18034000Y-10718800D02*
X18084800Y-10668000D01*
X18034000Y-10617200D01*
X17983200Y-10668000D01*
X18034000Y-10718800D01*
X18288000Y-5892800D02*
X18338800Y-5842000D01*
X18288000Y-5791200D01*
X18237200Y-5842000D01*
X18288000Y-5892800D01*
X18288000Y-10718800D02*
X18338800Y-10668000D01*
X18288000Y-10617200D01*
X18237200Y-10668000D01*
X18288000Y-10718800D01*
X18542000Y-10718800D02*
X18592800Y-10668000D01*
X18542000Y-10617200D01*
X18491200Y-10668000D01*
X18542000Y-10718800D01*
X18796000Y-10718800D02*
X18846800Y-10668000D01*
X18796000Y-10617200D01*
X18745200Y-10668000D01*
X18796000Y-10718800D01*
X19050000Y-5892800D02*
X19100800Y-5842000D01*
X19050000Y-5791200D01*
X18999200Y-5842000D01*
X19050000Y-5892800D01*
X19050000Y-6146800D02*
X19100800Y-6096000D01*
X19050000Y-6045200D01*
X18999200Y-6096000D01*
X19050000Y-6146800D01*
X19050000Y-6400800D02*
X19100800Y-6350000D01*
X19050000Y-6299200D01*
X18999200Y-6350000D01*
X19050000Y-6400800D01*
X19050000Y-6654800D02*
X19100800Y-6604000D01*
X19050000Y-6553200D01*
X18999200Y-6604000D01*
X19050000Y-6654800D01*
X19050000Y-6908800D02*
X19100800Y-6858000D01*
X19050000Y-6807200D01*
X18999200Y-6858000D01*
X19050000Y-6908800D01*
X19050000Y-7162800D02*
X19100800Y-7112000D01*
X19050000Y-7061200D01*
X18999200Y-7112000D01*
X19050000Y-7162800D01*
X19050000Y-7416800D02*
X19100800Y-7366000D01*
X19050000Y-7315200D01*
X18999200Y-7366000D01*
X19050000Y-7416800D01*
X19050000Y-7670800D02*
X19100800Y-7620000D01*
X19050000Y-7569200D01*
X18999200Y-7620000D01*
X19050000Y-7670800D01*
X19050000Y-7924800D02*
X19100800Y-7874000D01*
X19050000Y-7823200D01*
X18999200Y-7874000D01*
X19050000Y-7924800D01*
X19050000Y-8178800D02*
X19100800Y-8128000D01*
X19050000Y-8077200D01*
X18999200Y-8128000D01*
X19050000Y-8178800D01*
X19050000Y-8432800D02*
X19100800Y-8382000D01*
X19050000Y-8331200D01*
X18999200Y-8382000D01*
X19050000Y-8432800D01*
X19050000Y-8686800D02*
X19100800Y-8636000D01*
X19050000Y-8585200D01*
X18999200Y-8636000D01*
X19050000Y-8686800D01*
X19050000Y-8940800D02*
X19100800Y-8890000D01*
X19050000Y-8839200D01*
X18999200Y-8890000D01*
X19050000Y-8940800D01*
X19050000Y-9194800D02*
X19100800Y-9144000D01*
X19050000Y-9093200D01*
X18999200Y-9144000D01*
X19050000Y-9194800D01*
X19050000Y-9448800D02*
X19100800Y-9398000D01*
X19050000Y-9347200D01*
X18999200Y-9398000D01*
X19050000Y-9448800D01*
X19050000Y-9702800D02*
X19100800Y-9652000D01*
X19050000Y-9601200D01*
X18999200Y-9652000D01*
X19050000Y-9702800D01*
X19050000Y-9956800D02*
X19100800Y-9906000D01*
X19050000Y-9855200D01*
X18999200Y-9906000D01*
X19050000Y-9956800D01*
X19050000Y-10210800D02*
X19100800Y-10160000D01*
X19050000Y-10109200D01*
X18999200Y-10160000D01*
X19050000Y-10210800D01*
X19304000Y-5892800D02*
X19354800Y-5842000D01*
X19304000Y-5791200D01*
X19253200Y-5842000D01*
X19304000Y-5892800D01*
X19304000Y-6146800D02*
X19354800Y-6096000D01*
X19304000Y-6045200D01*
X19253200Y-6096000D01*
X19304000Y-6146800D01*
X19304000Y-6400800D02*
X19354800Y-6350000D01*
X19304000Y-6299200D01*
X19253200Y-6350000D01*
X19304000Y-6400800D01*
X19304000Y-6654800D02*
X19354800Y-6604000D01*
X19304000Y-6553200D01*
X19253200Y-6604000D01*
X19304000Y-6654800D01*
X19304000Y-6908800D02*
X19354800Y-6858000D01*
X19304000Y-6807200D01*
X19253200Y-6858000D01*
X19304000Y-6908800D01*
X19304000Y-7162800D02*
X19354800Y-7112000D01*
X19304000Y-7061200D01*
X19253200Y-7112000D01*
X19304000Y-7162800D01*
X19304000Y-7416800D02*
X19354800Y-7366000D01*
X19304000Y-7315200D01*
X19253200Y-7366000D01*
X19304000Y-7416800D01*
X19304000Y-7670800D02*
X19354800Y-7620000D01*
X19304000Y-7569200D01*
X19253200Y-7620000D01*
X19304000Y-7670800D01*
X19304000Y-7924800D02*
X19354800Y-7874000D01*
X19304000Y-7823200D01*
X19253200Y-7874000D01*
X19304000Y-7924800D01*
X19304000Y-8178800D02*
X19354800Y-8128000D01*
X19304000Y-8077200D01*
X19253200Y-8128000D01*
X19304000Y-8178800D01*
X19304000Y-8432800D02*
X19354800Y-8382000D01*
X19304000Y-8331200D01*
X19253200Y-8382000D01*
X19304000Y-8432800D01*
X19304000Y-8686800D02*
X19354800Y-8636000D01*
X19304000Y-8585200D01*
X19253200Y-8636000D01*
X19304000Y-8686800D01*
X19304000Y-8940800D02*
X19354800Y-8890000D01*
X19304000Y-8839200D01*
X19253200Y-8890000D01*
X19304000Y-8940800D01*
X19304000Y-9194800D02*
X19354800Y-9144000D01*
X19304000Y-9093200D01*
X19253200Y-9144000D01*
X19304000Y-9194800D01*
X19304000Y-9448800D02*
X19354800Y-9398000D01*
X19304000Y-9347200D01*
X19253200Y-9398000D01*
X19304000Y-9448800D01*
X19304000Y-9702800D02*
X19354800Y-9652000D01*
X19304000Y-9601200D01*
X19253200Y-9652000D01*
X19304000Y-9702800D01*
X19304000Y-9956800D02*
X19354800Y-9906000D01*
X19304000Y-9855200D01*
X19253200Y-9906000D01*
X19304000Y-9956800D01*
X19304000Y-10210800D02*
X19354800Y-10160000D01*
X19304000Y-10109200D01*
X19253200Y-10160000D01*
X19304000Y-10210800D01*
D13*
X20509000Y-5269000D02*
X20639000Y-5399000D01*
X20639000Y-5269000D02*
X20509000Y-5399000D01*
X20639000Y-5334000D02*
G75*
G03*
X20639000Y-5334000I-65000J0D01*
G01*
X20509000Y-5777000D02*
X20639000Y-5907000D01*
X20639000Y-5777000D02*
X20509000Y-5907000D01*
X20639000Y-5842000D02*
G75*
G03*
X20639000Y-5842000I-65000J0D01*
G01*
X20509000Y-6285000D02*
X20639000Y-6415000D01*
X20639000Y-6285000D02*
X20509000Y-6415000D01*
X20639000Y-6350000D02*
G75*
G03*
X20639000Y-6350000I-65000J0D01*
G01*
X20509000Y-6793000D02*
X20639000Y-6923000D01*
X20639000Y-6793000D02*
X20509000Y-6923000D01*
X20639000Y-6858000D02*
G75*
G03*
X20639000Y-6858000I-65000J0D01*
G01*
X20509000Y-7301000D02*
X20639000Y-7431000D01*
X20639000Y-7301000D02*
X20509000Y-7431000D01*
X20639000Y-7366000D02*
G75*
G03*
X20639000Y-7366000I-65000J0D01*
G01*
X20509000Y-7809000D02*
X20639000Y-7939000D01*
X20639000Y-7809000D02*
X20509000Y-7939000D01*
X20639000Y-7874000D02*
G75*
G03*
X20639000Y-7874000I-65000J0D01*
G01*
X20509000Y-8571000D02*
X20639000Y-8701000D01*
X20639000Y-8571000D02*
X20509000Y-8701000D01*
X20639000Y-8636000D02*
G75*
G03*
X20639000Y-8636000I-65000J0D01*
G01*
X20509000Y-9079000D02*
X20639000Y-9209000D01*
X20639000Y-9079000D02*
X20509000Y-9209000D01*
X20639000Y-9144000D02*
G75*
G03*
X20639000Y-9144000I-65000J0D01*
G01*
X20509000Y-9587000D02*
X20639000Y-9717000D01*
X20639000Y-9587000D02*
X20509000Y-9717000D01*
X20639000Y-9652000D02*
G75*
G03*
X20639000Y-9652000I-65000J0D01*
G01*
X20509000Y-10349000D02*
X20639000Y-10479000D01*
X20639000Y-10349000D02*
X20509000Y-10479000D01*
X20639000Y-10414000D02*
G75*
G03*
X20639000Y-10414000I-65000J0D01*
G01*
X20509000Y-10857000D02*
X20639000Y-10987000D01*
X20639000Y-10857000D02*
X20509000Y-10987000D01*
X20639000Y-10922000D02*
G75*
G03*
X20639000Y-10922000I-65000J0D01*
G01*
D11*
X11431777Y-12254484D02*
X11431777Y-12054484D01*
X11431777Y-12054484D02*
X11479396Y-12054484D01*
X11479396Y-12054484D02*
X11507967Y-12064008D01*
X11507967Y-12064008D02*
X11527015Y-12083055D01*
X11527015Y-12083055D02*
X11536539Y-12102103D01*
X11536539Y-12102103D02*
X11546062Y-12140198D01*
X11546062Y-12140198D02*
X11546062Y-12168769D01*
X11546062Y-12168769D02*
X11536539Y-12206865D01*
X11536539Y-12206865D02*
X11527015Y-12225912D01*
X11527015Y-12225912D02*
X11507967Y-12244960D01*
X11507967Y-12244960D02*
X11479396Y-12254484D01*
X11479396Y-12254484D02*
X11431777Y-12254484D01*
X11631777Y-12254484D02*
X11631777Y-12121150D01*
X11631777Y-12159246D02*
X11641301Y-12140198D01*
X11641301Y-12140198D02*
X11650824Y-12130674D01*
X11650824Y-12130674D02*
X11669872Y-12121150D01*
X11669872Y-12121150D02*
X11688920Y-12121150D01*
X11755586Y-12254484D02*
X11755586Y-12121150D01*
X11755586Y-12054484D02*
X11746062Y-12064008D01*
X11746062Y-12064008D02*
X11755586Y-12073531D01*
X11755586Y-12073531D02*
X11765110Y-12064008D01*
X11765110Y-12064008D02*
X11755586Y-12054484D01*
X11755586Y-12054484D02*
X11755586Y-12073531D01*
X11879396Y-12254484D02*
X11860348Y-12244960D01*
X11860348Y-12244960D02*
X11850824Y-12225912D01*
X11850824Y-12225912D02*
X11850824Y-12054484D01*
X11984158Y-12254484D02*
X11965110Y-12244960D01*
X11965110Y-12244960D02*
X11955586Y-12225912D01*
X11955586Y-12225912D02*
X11955586Y-12054484D01*
X12212729Y-12254484D02*
X12212729Y-12054484D01*
X12212729Y-12054484D02*
X12279396Y-12197341D01*
X12279396Y-12197341D02*
X12346062Y-12054484D01*
X12346062Y-12054484D02*
X12346062Y-12254484D01*
X12527015Y-12254484D02*
X12527015Y-12149722D01*
X12527015Y-12149722D02*
X12517491Y-12130674D01*
X12517491Y-12130674D02*
X12498443Y-12121150D01*
X12498443Y-12121150D02*
X12460348Y-12121150D01*
X12460348Y-12121150D02*
X12441301Y-12130674D01*
X12527015Y-12244960D02*
X12507967Y-12254484D01*
X12507967Y-12254484D02*
X12460348Y-12254484D01*
X12460348Y-12254484D02*
X12441301Y-12244960D01*
X12441301Y-12244960D02*
X12431777Y-12225912D01*
X12431777Y-12225912D02*
X12431777Y-12206865D01*
X12431777Y-12206865D02*
X12441301Y-12187817D01*
X12441301Y-12187817D02*
X12460348Y-12178293D01*
X12460348Y-12178293D02*
X12507967Y-12178293D01*
X12507967Y-12178293D02*
X12527015Y-12168769D01*
X12622253Y-12121150D02*
X12622253Y-12321150D01*
X12622253Y-12130674D02*
X12641301Y-12121150D01*
X12641301Y-12121150D02*
X12679396Y-12121150D01*
X12679396Y-12121150D02*
X12698443Y-12130674D01*
X12698443Y-12130674D02*
X12707967Y-12140198D01*
X12707967Y-12140198D02*
X12717491Y-12159246D01*
X12717491Y-12159246D02*
X12717491Y-12216388D01*
X12717491Y-12216388D02*
X12707967Y-12235436D01*
X12707967Y-12235436D02*
X12698443Y-12244960D01*
X12698443Y-12244960D02*
X12679396Y-12254484D01*
X12679396Y-12254484D02*
X12641301Y-12254484D01*
X12641301Y-12254484D02*
X12622253Y-12244960D01*
X12803205Y-12235436D02*
X12812729Y-12244960D01*
X12812729Y-12244960D02*
X12803205Y-12254484D01*
X12803205Y-12254484D02*
X12793682Y-12244960D01*
X12793682Y-12244960D02*
X12803205Y-12235436D01*
X12803205Y-12235436D02*
X12803205Y-12254484D01*
X12803205Y-12130674D02*
X12812729Y-12140198D01*
X12812729Y-12140198D02*
X12803205Y-12149722D01*
X12803205Y-12149722D02*
X12793682Y-12140198D01*
X12793682Y-12140198D02*
X12803205Y-12130674D01*
X12803205Y-12130674D02*
X12803205Y-12149722D01*
D10*
X11101000Y-12548000D02*
X11171000Y-12618000D01*
X11171000Y-12548000D02*
X11101000Y-12618000D01*
D11*
X11469872Y-12474484D02*
X11488920Y-12474484D01*
X11488920Y-12474484D02*
X11507967Y-12484008D01*
X11507967Y-12484008D02*
X11517491Y-12493531D01*
X11517491Y-12493531D02*
X11527015Y-12512579D01*
X11527015Y-12512579D02*
X11536539Y-12550674D01*
X11536539Y-12550674D02*
X11536539Y-12598293D01*
X11536539Y-12598293D02*
X11527015Y-12636388D01*
X11527015Y-12636388D02*
X11517491Y-12655436D01*
X11517491Y-12655436D02*
X11507967Y-12664960D01*
X11507967Y-12664960D02*
X11488920Y-12674484D01*
X11488920Y-12674484D02*
X11469872Y-12674484D01*
X11469872Y-12674484D02*
X11450824Y-12664960D01*
X11450824Y-12664960D02*
X11441301Y-12655436D01*
X11441301Y-12655436D02*
X11431777Y-12636388D01*
X11431777Y-12636388D02*
X11422253Y-12598293D01*
X11422253Y-12598293D02*
X11422253Y-12550674D01*
X11422253Y-12550674D02*
X11431777Y-12512579D01*
X11431777Y-12512579D02*
X11441301Y-12493531D01*
X11441301Y-12493531D02*
X11450824Y-12484008D01*
X11450824Y-12484008D02*
X11469872Y-12474484D01*
X11622253Y-12655436D02*
X11631777Y-12664960D01*
X11631777Y-12664960D02*
X11622253Y-12674484D01*
X11622253Y-12674484D02*
X11612729Y-12664960D01*
X11612729Y-12664960D02*
X11622253Y-12655436D01*
X11622253Y-12655436D02*
X11622253Y-12674484D01*
X11698443Y-12474484D02*
X11831777Y-12474484D01*
X11831777Y-12474484D02*
X11746062Y-12674484D01*
X11946062Y-12474484D02*
X11965110Y-12474484D01*
X11965110Y-12474484D02*
X11984158Y-12484008D01*
X11984158Y-12484008D02*
X11993682Y-12493531D01*
X11993682Y-12493531D02*
X12003205Y-12512579D01*
X12003205Y-12512579D02*
X12012729Y-12550674D01*
X12012729Y-12550674D02*
X12012729Y-12598293D01*
X12012729Y-12598293D02*
X12003205Y-12636388D01*
X12003205Y-12636388D02*
X11993682Y-12655436D01*
X11993682Y-12655436D02*
X11984158Y-12664960D01*
X11984158Y-12664960D02*
X11965110Y-12674484D01*
X11965110Y-12674484D02*
X11946062Y-12674484D01*
X11946062Y-12674484D02*
X11927015Y-12664960D01*
X11927015Y-12664960D02*
X11917491Y-12655436D01*
X11917491Y-12655436D02*
X11907967Y-12636388D01*
X11907967Y-12636388D02*
X11898443Y-12598293D01*
X11898443Y-12598293D02*
X11898443Y-12550674D01*
X11898443Y-12550674D02*
X11907967Y-12512579D01*
X11907967Y-12512579D02*
X11917491Y-12493531D01*
X11917491Y-12493531D02*
X11927015Y-12484008D01*
X11927015Y-12484008D02*
X11946062Y-12474484D01*
X12136539Y-12474484D02*
X12155586Y-12474484D01*
X12155586Y-12474484D02*
X12174634Y-12484008D01*
X12174634Y-12484008D02*
X12184158Y-12493531D01*
X12184158Y-12493531D02*
X12193682Y-12512579D01*
X12193682Y-12512579D02*
X12203205Y-12550674D01*
X12203205Y-12550674D02*
X12203205Y-12598293D01*
X12203205Y-12598293D02*
X12193682Y-12636388D01*
X12193682Y-12636388D02*
X12184158Y-12655436D01*
X12184158Y-12655436D02*
X12174634Y-12664960D01*
X12174634Y-12664960D02*
X12155586Y-12674484D01*
X12155586Y-12674484D02*
X12136539Y-12674484D01*
X12136539Y-12674484D02*
X12117491Y-12664960D01*
X12117491Y-12664960D02*
X12107967Y-12655436D01*
X12107967Y-12655436D02*
X12098443Y-12636388D01*
X12098443Y-12636388D02*
X12088920Y-12598293D01*
X12088920Y-12598293D02*
X12088920Y-12550674D01*
X12088920Y-12550674D02*
X12098443Y-12512579D01*
X12098443Y-12512579D02*
X12107967Y-12493531D01*
X12107967Y-12493531D02*
X12117491Y-12484008D01*
X12117491Y-12484008D02*
X12136539Y-12474484D01*
X12288920Y-12674484D02*
X12288920Y-12541150D01*
X12288920Y-12560198D02*
X12298443Y-12550674D01*
X12298443Y-12550674D02*
X12317491Y-12541150D01*
X12317491Y-12541150D02*
X12346063Y-12541150D01*
X12346063Y-12541150D02*
X12365110Y-12550674D01*
X12365110Y-12550674D02*
X12374634Y-12569722D01*
X12374634Y-12569722D02*
X12374634Y-12674484D01*
X12374634Y-12569722D02*
X12384158Y-12550674D01*
X12384158Y-12550674D02*
X12403205Y-12541150D01*
X12403205Y-12541150D02*
X12431777Y-12541150D01*
X12431777Y-12541150D02*
X12450824Y-12550674D01*
X12450824Y-12550674D02*
X12460348Y-12569722D01*
X12460348Y-12569722D02*
X12460348Y-12674484D01*
X12555586Y-12674484D02*
X12555586Y-12541150D01*
X12555586Y-12560198D02*
X12565110Y-12550674D01*
X12565110Y-12550674D02*
X12584158Y-12541150D01*
X12584158Y-12541150D02*
X12612729Y-12541150D01*
X12612729Y-12541150D02*
X12631777Y-12550674D01*
X12631777Y-12550674D02*
X12641301Y-12569722D01*
X12641301Y-12569722D02*
X12641301Y-12674484D01*
X12641301Y-12569722D02*
X12650824Y-12550674D01*
X12650824Y-12550674D02*
X12669872Y-12541150D01*
X12669872Y-12541150D02*
X12698443Y-12541150D01*
X12698443Y-12541150D02*
X12717491Y-12550674D01*
X12717491Y-12550674D02*
X12727015Y-12569722D01*
X12727015Y-12569722D02*
X12727015Y-12674484D01*
X13117491Y-12464960D02*
X12946063Y-12722103D01*
X13374634Y-12474484D02*
X13393682Y-12474484D01*
X13393682Y-12474484D02*
X13412729Y-12484008D01*
X13412729Y-12484008D02*
X13422253Y-12493531D01*
X13422253Y-12493531D02*
X13431777Y-12512579D01*
X13431777Y-12512579D02*
X13441301Y-12550674D01*
X13441301Y-12550674D02*
X13441301Y-12598293D01*
X13441301Y-12598293D02*
X13431777Y-12636388D01*
X13431777Y-12636388D02*
X13422253Y-12655436D01*
X13422253Y-12655436D02*
X13412729Y-12664960D01*
X13412729Y-12664960D02*
X13393682Y-12674484D01*
X13393682Y-12674484D02*
X13374634Y-12674484D01*
X13374634Y-12674484D02*
X13355586Y-12664960D01*
X13355586Y-12664960D02*
X13346063Y-12655436D01*
X13346063Y-12655436D02*
X13336539Y-12636388D01*
X13336539Y-12636388D02*
X13327015Y-12598293D01*
X13327015Y-12598293D02*
X13327015Y-12550674D01*
X13327015Y-12550674D02*
X13336539Y-12512579D01*
X13336539Y-12512579D02*
X13346063Y-12493531D01*
X13346063Y-12493531D02*
X13355586Y-12484008D01*
X13355586Y-12484008D02*
X13374634Y-12474484D01*
X13527015Y-12655436D02*
X13536539Y-12664960D01*
X13536539Y-12664960D02*
X13527015Y-12674484D01*
X13527015Y-12674484D02*
X13517491Y-12664960D01*
X13517491Y-12664960D02*
X13527015Y-12655436D01*
X13527015Y-12655436D02*
X13527015Y-12674484D01*
X13660348Y-12474484D02*
X13679396Y-12474484D01*
X13679396Y-12474484D02*
X13698444Y-12484008D01*
X13698444Y-12484008D02*
X13707967Y-12493531D01*
X13707967Y-12493531D02*
X13717491Y-12512579D01*
X13717491Y-12512579D02*
X13727015Y-12550674D01*
X13727015Y-12550674D02*
X13727015Y-12598293D01*
X13727015Y-12598293D02*
X13717491Y-12636388D01*
X13717491Y-12636388D02*
X13707967Y-12655436D01*
X13707967Y-12655436D02*
X13698444Y-12664960D01*
X13698444Y-12664960D02*
X13679396Y-12674484D01*
X13679396Y-12674484D02*
X13660348Y-12674484D01*
X13660348Y-12674484D02*
X13641301Y-12664960D01*
X13641301Y-12664960D02*
X13631777Y-12655436D01*
X13631777Y-12655436D02*
X13622253Y-12636388D01*
X13622253Y-12636388D02*
X13612729Y-12598293D01*
X13612729Y-12598293D02*
X13612729Y-12550674D01*
X13612729Y-12550674D02*
X13622253Y-12512579D01*
X13622253Y-12512579D02*
X13631777Y-12493531D01*
X13631777Y-12493531D02*
X13641301Y-12484008D01*
X13641301Y-12484008D02*
X13660348Y-12474484D01*
X13803206Y-12493531D02*
X13812729Y-12484008D01*
X13812729Y-12484008D02*
X13831777Y-12474484D01*
X13831777Y-12474484D02*
X13879396Y-12474484D01*
X13879396Y-12474484D02*
X13898444Y-12484008D01*
X13898444Y-12484008D02*
X13907967Y-12493531D01*
X13907967Y-12493531D02*
X13917491Y-12512579D01*
X13917491Y-12512579D02*
X13917491Y-12531627D01*
X13917491Y-12531627D02*
X13907967Y-12560198D01*
X13907967Y-12560198D02*
X13793682Y-12674484D01*
X13793682Y-12674484D02*
X13917491Y-12674484D01*
X13984158Y-12474484D02*
X14117491Y-12474484D01*
X14117491Y-12474484D02*
X14031777Y-12674484D01*
X14279396Y-12474484D02*
X14241301Y-12474484D01*
X14241301Y-12474484D02*
X14222253Y-12484008D01*
X14222253Y-12484008D02*
X14212729Y-12493531D01*
X14212729Y-12493531D02*
X14193682Y-12522103D01*
X14193682Y-12522103D02*
X14184158Y-12560198D01*
X14184158Y-12560198D02*
X14184158Y-12636388D01*
X14184158Y-12636388D02*
X14193682Y-12655436D01*
X14193682Y-12655436D02*
X14203206Y-12664960D01*
X14203206Y-12664960D02*
X14222253Y-12674484D01*
X14222253Y-12674484D02*
X14260348Y-12674484D01*
X14260348Y-12674484D02*
X14279396Y-12664960D01*
X14279396Y-12664960D02*
X14288920Y-12655436D01*
X14288920Y-12655436D02*
X14298444Y-12636388D01*
X14298444Y-12636388D02*
X14298444Y-12588769D01*
X14298444Y-12588769D02*
X14288920Y-12569722D01*
X14288920Y-12569722D02*
X14279396Y-12560198D01*
X14279396Y-12560198D02*
X14260348Y-12550674D01*
X14260348Y-12550674D02*
X14222253Y-12550674D01*
X14222253Y-12550674D02*
X14203206Y-12560198D01*
X14203206Y-12560198D02*
X14193682Y-12569722D01*
X14193682Y-12569722D02*
X14184158Y-12588769D01*
X14374634Y-12474484D02*
X14374634Y-12512579D01*
X14450825Y-12474484D02*
X14450825Y-12512579D01*
X14746063Y-12750674D02*
X14736539Y-12741150D01*
X14736539Y-12741150D02*
X14717491Y-12712579D01*
X14717491Y-12712579D02*
X14707968Y-12693531D01*
X14707968Y-12693531D02*
X14698444Y-12664960D01*
X14698444Y-12664960D02*
X14688920Y-12617341D01*
X14688920Y-12617341D02*
X14688920Y-12579246D01*
X14688920Y-12579246D02*
X14698444Y-12531627D01*
X14698444Y-12531627D02*
X14707968Y-12503055D01*
X14707968Y-12503055D02*
X14717491Y-12484008D01*
X14717491Y-12484008D02*
X14736539Y-12455436D01*
X14736539Y-12455436D02*
X14746063Y-12445912D01*
X14907968Y-12474484D02*
X14869872Y-12474484D01*
X14869872Y-12474484D02*
X14850825Y-12484008D01*
X14850825Y-12484008D02*
X14841301Y-12493531D01*
X14841301Y-12493531D02*
X14822253Y-12522103D01*
X14822253Y-12522103D02*
X14812729Y-12560198D01*
X14812729Y-12560198D02*
X14812729Y-12636388D01*
X14812729Y-12636388D02*
X14822253Y-12655436D01*
X14822253Y-12655436D02*
X14831777Y-12664960D01*
X14831777Y-12664960D02*
X14850825Y-12674484D01*
X14850825Y-12674484D02*
X14888920Y-12674484D01*
X14888920Y-12674484D02*
X14907968Y-12664960D01*
X14907968Y-12664960D02*
X14917491Y-12655436D01*
X14917491Y-12655436D02*
X14927015Y-12636388D01*
X14927015Y-12636388D02*
X14927015Y-12588769D01*
X14927015Y-12588769D02*
X14917491Y-12569722D01*
X14917491Y-12569722D02*
X14907968Y-12560198D01*
X14907968Y-12560198D02*
X14888920Y-12550674D01*
X14888920Y-12550674D02*
X14850825Y-12550674D01*
X14850825Y-12550674D02*
X14831777Y-12560198D01*
X14831777Y-12560198D02*
X14822253Y-12569722D01*
X14822253Y-12569722D02*
X14812729Y-12588769D01*
X15165110Y-12674484D02*
X15165110Y-12474484D01*
X15250825Y-12674484D02*
X15250825Y-12569722D01*
X15250825Y-12569722D02*
X15241301Y-12550674D01*
X15241301Y-12550674D02*
X15222253Y-12541150D01*
X15222253Y-12541150D02*
X15193682Y-12541150D01*
X15193682Y-12541150D02*
X15174634Y-12550674D01*
X15174634Y-12550674D02*
X15165110Y-12560198D01*
X15374634Y-12674484D02*
X15355587Y-12664960D01*
X15355587Y-12664960D02*
X15346063Y-12655436D01*
X15346063Y-12655436D02*
X15336539Y-12636388D01*
X15336539Y-12636388D02*
X15336539Y-12579246D01*
X15336539Y-12579246D02*
X15346063Y-12560198D01*
X15346063Y-12560198D02*
X15355587Y-12550674D01*
X15355587Y-12550674D02*
X15374634Y-12541150D01*
X15374634Y-12541150D02*
X15403206Y-12541150D01*
X15403206Y-12541150D02*
X15422253Y-12550674D01*
X15422253Y-12550674D02*
X15431777Y-12560198D01*
X15431777Y-12560198D02*
X15441301Y-12579246D01*
X15441301Y-12579246D02*
X15441301Y-12636388D01*
X15441301Y-12636388D02*
X15431777Y-12655436D01*
X15431777Y-12655436D02*
X15422253Y-12664960D01*
X15422253Y-12664960D02*
X15403206Y-12674484D01*
X15403206Y-12674484D02*
X15374634Y-12674484D01*
X15555587Y-12674484D02*
X15536539Y-12664960D01*
X15536539Y-12664960D02*
X15527015Y-12645912D01*
X15527015Y-12645912D02*
X15527015Y-12474484D01*
X15707968Y-12664960D02*
X15688920Y-12674484D01*
X15688920Y-12674484D02*
X15650825Y-12674484D01*
X15650825Y-12674484D02*
X15631777Y-12664960D01*
X15631777Y-12664960D02*
X15622253Y-12645912D01*
X15622253Y-12645912D02*
X15622253Y-12569722D01*
X15622253Y-12569722D02*
X15631777Y-12550674D01*
X15631777Y-12550674D02*
X15650825Y-12541150D01*
X15650825Y-12541150D02*
X15688920Y-12541150D01*
X15688920Y-12541150D02*
X15707968Y-12550674D01*
X15707968Y-12550674D02*
X15717491Y-12569722D01*
X15717491Y-12569722D02*
X15717491Y-12588769D01*
X15717491Y-12588769D02*
X15622253Y-12607817D01*
X15793682Y-12664960D02*
X15812730Y-12674484D01*
X15812730Y-12674484D02*
X15850825Y-12674484D01*
X15850825Y-12674484D02*
X15869872Y-12664960D01*
X15869872Y-12664960D02*
X15879396Y-12645912D01*
X15879396Y-12645912D02*
X15879396Y-12636388D01*
X15879396Y-12636388D02*
X15869872Y-12617341D01*
X15869872Y-12617341D02*
X15850825Y-12607817D01*
X15850825Y-12607817D02*
X15822253Y-12607817D01*
X15822253Y-12607817D02*
X15803206Y-12598293D01*
X15803206Y-12598293D02*
X15793682Y-12579246D01*
X15793682Y-12579246D02*
X15793682Y-12569722D01*
X15793682Y-12569722D02*
X15803206Y-12550674D01*
X15803206Y-12550674D02*
X15822253Y-12541150D01*
X15822253Y-12541150D02*
X15850825Y-12541150D01*
X15850825Y-12541150D02*
X15869872Y-12550674D01*
X15946063Y-12750674D02*
X15955587Y-12741150D01*
X15955587Y-12741150D02*
X15974634Y-12712579D01*
X15974634Y-12712579D02*
X15984158Y-12693531D01*
X15984158Y-12693531D02*
X15993682Y-12664960D01*
X15993682Y-12664960D02*
X16003206Y-12617341D01*
X16003206Y-12617341D02*
X16003206Y-12579246D01*
X16003206Y-12579246D02*
X15993682Y-12531627D01*
X15993682Y-12531627D02*
X15984158Y-12503055D01*
X15984158Y-12503055D02*
X15974634Y-12484008D01*
X15974634Y-12484008D02*
X15955587Y-12455436D01*
X15955587Y-12455436D02*
X15946063Y-12445912D01*
D10*
X11171000Y-12847000D02*
G75*
G03*
X11171000Y-12847000I-40000J0D01*
G01*
D11*
X11469872Y-12738484D02*
X11488920Y-12738484D01*
X11488920Y-12738484D02*
X11507967Y-12748008D01*
X11507967Y-12748008D02*
X11517491Y-12757531D01*
X11517491Y-12757531D02*
X11527015Y-12776579D01*
X11527015Y-12776579D02*
X11536539Y-12814674D01*
X11536539Y-12814674D02*
X11536539Y-12862293D01*
X11536539Y-12862293D02*
X11527015Y-12900388D01*
X11527015Y-12900388D02*
X11517491Y-12919436D01*
X11517491Y-12919436D02*
X11507967Y-12928960D01*
X11507967Y-12928960D02*
X11488920Y-12938484D01*
X11488920Y-12938484D02*
X11469872Y-12938484D01*
X11469872Y-12938484D02*
X11450824Y-12928960D01*
X11450824Y-12928960D02*
X11441301Y-12919436D01*
X11441301Y-12919436D02*
X11431777Y-12900388D01*
X11431777Y-12900388D02*
X11422253Y-12862293D01*
X11422253Y-12862293D02*
X11422253Y-12814674D01*
X11422253Y-12814674D02*
X11431777Y-12776579D01*
X11431777Y-12776579D02*
X11441301Y-12757531D01*
X11441301Y-12757531D02*
X11450824Y-12748008D01*
X11450824Y-12748008D02*
X11469872Y-12738484D01*
X11622253Y-12919436D02*
X11631777Y-12928960D01*
X11631777Y-12928960D02*
X11622253Y-12938484D01*
X11622253Y-12938484D02*
X11612729Y-12928960D01*
X11612729Y-12928960D02*
X11622253Y-12919436D01*
X11622253Y-12919436D02*
X11622253Y-12938484D01*
X11746062Y-12824198D02*
X11727015Y-12814674D01*
X11727015Y-12814674D02*
X11717491Y-12805150D01*
X11717491Y-12805150D02*
X11707967Y-12786103D01*
X11707967Y-12786103D02*
X11707967Y-12776579D01*
X11707967Y-12776579D02*
X11717491Y-12757531D01*
X11717491Y-12757531D02*
X11727015Y-12748008D01*
X11727015Y-12748008D02*
X11746062Y-12738484D01*
X11746062Y-12738484D02*
X11784158Y-12738484D01*
X11784158Y-12738484D02*
X11803205Y-12748008D01*
X11803205Y-12748008D02*
X11812729Y-12757531D01*
X11812729Y-12757531D02*
X11822253Y-12776579D01*
X11822253Y-12776579D02*
X11822253Y-12786103D01*
X11822253Y-12786103D02*
X11812729Y-12805150D01*
X11812729Y-12805150D02*
X11803205Y-12814674D01*
X11803205Y-12814674D02*
X11784158Y-12824198D01*
X11784158Y-12824198D02*
X11746062Y-12824198D01*
X11746062Y-12824198D02*
X11727015Y-12833722D01*
X11727015Y-12833722D02*
X11717491Y-12843246D01*
X11717491Y-12843246D02*
X11707967Y-12862293D01*
X11707967Y-12862293D02*
X11707967Y-12900388D01*
X11707967Y-12900388D02*
X11717491Y-12919436D01*
X11717491Y-12919436D02*
X11727015Y-12928960D01*
X11727015Y-12928960D02*
X11746062Y-12938484D01*
X11746062Y-12938484D02*
X11784158Y-12938484D01*
X11784158Y-12938484D02*
X11803205Y-12928960D01*
X11803205Y-12928960D02*
X11812729Y-12919436D01*
X11812729Y-12919436D02*
X11822253Y-12900388D01*
X11822253Y-12900388D02*
X11822253Y-12862293D01*
X11822253Y-12862293D02*
X11812729Y-12843246D01*
X11812729Y-12843246D02*
X11803205Y-12833722D01*
X11803205Y-12833722D02*
X11784158Y-12824198D01*
X11946062Y-12738484D02*
X11965110Y-12738484D01*
X11965110Y-12738484D02*
X11984158Y-12748008D01*
X11984158Y-12748008D02*
X11993682Y-12757531D01*
X11993682Y-12757531D02*
X12003205Y-12776579D01*
X12003205Y-12776579D02*
X12012729Y-12814674D01*
X12012729Y-12814674D02*
X12012729Y-12862293D01*
X12012729Y-12862293D02*
X12003205Y-12900388D01*
X12003205Y-12900388D02*
X11993682Y-12919436D01*
X11993682Y-12919436D02*
X11984158Y-12928960D01*
X11984158Y-12928960D02*
X11965110Y-12938484D01*
X11965110Y-12938484D02*
X11946062Y-12938484D01*
X11946062Y-12938484D02*
X11927015Y-12928960D01*
X11927015Y-12928960D02*
X11917491Y-12919436D01*
X11917491Y-12919436D02*
X11907967Y-12900388D01*
X11907967Y-12900388D02*
X11898443Y-12862293D01*
X11898443Y-12862293D02*
X11898443Y-12814674D01*
X11898443Y-12814674D02*
X11907967Y-12776579D01*
X11907967Y-12776579D02*
X11917491Y-12757531D01*
X11917491Y-12757531D02*
X11927015Y-12748008D01*
X11927015Y-12748008D02*
X11946062Y-12738484D01*
X12136539Y-12738484D02*
X12155586Y-12738484D01*
X12155586Y-12738484D02*
X12174634Y-12748008D01*
X12174634Y-12748008D02*
X12184158Y-12757531D01*
X12184158Y-12757531D02*
X12193682Y-12776579D01*
X12193682Y-12776579D02*
X12203205Y-12814674D01*
X12203205Y-12814674D02*
X12203205Y-12862293D01*
X12203205Y-12862293D02*
X12193682Y-12900388D01*
X12193682Y-12900388D02*
X12184158Y-12919436D01*
X12184158Y-12919436D02*
X12174634Y-12928960D01*
X12174634Y-12928960D02*
X12155586Y-12938484D01*
X12155586Y-12938484D02*
X12136539Y-12938484D01*
X12136539Y-12938484D02*
X12117491Y-12928960D01*
X12117491Y-12928960D02*
X12107967Y-12919436D01*
X12107967Y-12919436D02*
X12098443Y-12900388D01*
X12098443Y-12900388D02*
X12088920Y-12862293D01*
X12088920Y-12862293D02*
X12088920Y-12814674D01*
X12088920Y-12814674D02*
X12098443Y-12776579D01*
X12098443Y-12776579D02*
X12107967Y-12757531D01*
X12107967Y-12757531D02*
X12117491Y-12748008D01*
X12117491Y-12748008D02*
X12136539Y-12738484D01*
X12288920Y-12938484D02*
X12288920Y-12805150D01*
X12288920Y-12824198D02*
X12298443Y-12814674D01*
X12298443Y-12814674D02*
X12317491Y-12805150D01*
X12317491Y-12805150D02*
X12346063Y-12805150D01*
X12346063Y-12805150D02*
X12365110Y-12814674D01*
X12365110Y-12814674D02*
X12374634Y-12833722D01*
X12374634Y-12833722D02*
X12374634Y-12938484D01*
X12374634Y-12833722D02*
X12384158Y-12814674D01*
X12384158Y-12814674D02*
X12403205Y-12805150D01*
X12403205Y-12805150D02*
X12431777Y-12805150D01*
X12431777Y-12805150D02*
X12450824Y-12814674D01*
X12450824Y-12814674D02*
X12460348Y-12833722D01*
X12460348Y-12833722D02*
X12460348Y-12938484D01*
X12555586Y-12938484D02*
X12555586Y-12805150D01*
X12555586Y-12824198D02*
X12565110Y-12814674D01*
X12565110Y-12814674D02*
X12584158Y-12805150D01*
X12584158Y-12805150D02*
X12612729Y-12805150D01*
X12612729Y-12805150D02*
X12631777Y-12814674D01*
X12631777Y-12814674D02*
X12641301Y-12833722D01*
X12641301Y-12833722D02*
X12641301Y-12938484D01*
X12641301Y-12833722D02*
X12650824Y-12814674D01*
X12650824Y-12814674D02*
X12669872Y-12805150D01*
X12669872Y-12805150D02*
X12698443Y-12805150D01*
X12698443Y-12805150D02*
X12717491Y-12814674D01*
X12717491Y-12814674D02*
X12727015Y-12833722D01*
X12727015Y-12833722D02*
X12727015Y-12938484D01*
X13117491Y-12728960D02*
X12946063Y-12986103D01*
X13374634Y-12738484D02*
X13393682Y-12738484D01*
X13393682Y-12738484D02*
X13412729Y-12748008D01*
X13412729Y-12748008D02*
X13422253Y-12757531D01*
X13422253Y-12757531D02*
X13431777Y-12776579D01*
X13431777Y-12776579D02*
X13441301Y-12814674D01*
X13441301Y-12814674D02*
X13441301Y-12862293D01*
X13441301Y-12862293D02*
X13431777Y-12900388D01*
X13431777Y-12900388D02*
X13422253Y-12919436D01*
X13422253Y-12919436D02*
X13412729Y-12928960D01*
X13412729Y-12928960D02*
X13393682Y-12938484D01*
X13393682Y-12938484D02*
X13374634Y-12938484D01*
X13374634Y-12938484D02*
X13355586Y-12928960D01*
X13355586Y-12928960D02*
X13346063Y-12919436D01*
X13346063Y-12919436D02*
X13336539Y-12900388D01*
X13336539Y-12900388D02*
X13327015Y-12862293D01*
X13327015Y-12862293D02*
X13327015Y-12814674D01*
X13327015Y-12814674D02*
X13336539Y-12776579D01*
X13336539Y-12776579D02*
X13346063Y-12757531D01*
X13346063Y-12757531D02*
X13355586Y-12748008D01*
X13355586Y-12748008D02*
X13374634Y-12738484D01*
X13527015Y-12919436D02*
X13536539Y-12928960D01*
X13536539Y-12928960D02*
X13527015Y-12938484D01*
X13527015Y-12938484D02*
X13517491Y-12928960D01*
X13517491Y-12928960D02*
X13527015Y-12919436D01*
X13527015Y-12919436D02*
X13527015Y-12938484D01*
X13660348Y-12738484D02*
X13679396Y-12738484D01*
X13679396Y-12738484D02*
X13698444Y-12748008D01*
X13698444Y-12748008D02*
X13707967Y-12757531D01*
X13707967Y-12757531D02*
X13717491Y-12776579D01*
X13717491Y-12776579D02*
X13727015Y-12814674D01*
X13727015Y-12814674D02*
X13727015Y-12862293D01*
X13727015Y-12862293D02*
X13717491Y-12900388D01*
X13717491Y-12900388D02*
X13707967Y-12919436D01*
X13707967Y-12919436D02*
X13698444Y-12928960D01*
X13698444Y-12928960D02*
X13679396Y-12938484D01*
X13679396Y-12938484D02*
X13660348Y-12938484D01*
X13660348Y-12938484D02*
X13641301Y-12928960D01*
X13641301Y-12928960D02*
X13631777Y-12919436D01*
X13631777Y-12919436D02*
X13622253Y-12900388D01*
X13622253Y-12900388D02*
X13612729Y-12862293D01*
X13612729Y-12862293D02*
X13612729Y-12814674D01*
X13612729Y-12814674D02*
X13622253Y-12776579D01*
X13622253Y-12776579D02*
X13631777Y-12757531D01*
X13631777Y-12757531D02*
X13641301Y-12748008D01*
X13641301Y-12748008D02*
X13660348Y-12738484D01*
X13793682Y-12738484D02*
X13917491Y-12738484D01*
X13917491Y-12738484D02*
X13850825Y-12814674D01*
X13850825Y-12814674D02*
X13879396Y-12814674D01*
X13879396Y-12814674D02*
X13898444Y-12824198D01*
X13898444Y-12824198D02*
X13907967Y-12833722D01*
X13907967Y-12833722D02*
X13917491Y-12852769D01*
X13917491Y-12852769D02*
X13917491Y-12900388D01*
X13917491Y-12900388D02*
X13907967Y-12919436D01*
X13907967Y-12919436D02*
X13898444Y-12928960D01*
X13898444Y-12928960D02*
X13879396Y-12938484D01*
X13879396Y-12938484D02*
X13822253Y-12938484D01*
X13822253Y-12938484D02*
X13803206Y-12928960D01*
X13803206Y-12928960D02*
X13793682Y-12919436D01*
X14107967Y-12938484D02*
X13993682Y-12938484D01*
X14050825Y-12938484D02*
X14050825Y-12738484D01*
X14050825Y-12738484D02*
X14031777Y-12767055D01*
X14031777Y-12767055D02*
X14012729Y-12786103D01*
X14012729Y-12786103D02*
X13993682Y-12795627D01*
X14288920Y-12738484D02*
X14193682Y-12738484D01*
X14193682Y-12738484D02*
X14184158Y-12833722D01*
X14184158Y-12833722D02*
X14193682Y-12824198D01*
X14193682Y-12824198D02*
X14212729Y-12814674D01*
X14212729Y-12814674D02*
X14260348Y-12814674D01*
X14260348Y-12814674D02*
X14279396Y-12824198D01*
X14279396Y-12824198D02*
X14288920Y-12833722D01*
X14288920Y-12833722D02*
X14298444Y-12852769D01*
X14298444Y-12852769D02*
X14298444Y-12900388D01*
X14298444Y-12900388D02*
X14288920Y-12919436D01*
X14288920Y-12919436D02*
X14279396Y-12928960D01*
X14279396Y-12928960D02*
X14260348Y-12938484D01*
X14260348Y-12938484D02*
X14212729Y-12938484D01*
X14212729Y-12938484D02*
X14193682Y-12928960D01*
X14193682Y-12928960D02*
X14184158Y-12919436D01*
X14374634Y-12738484D02*
X14374634Y-12776579D01*
X14450825Y-12738484D02*
X14450825Y-12776579D01*
X14746063Y-13014674D02*
X14736539Y-13005150D01*
X14736539Y-13005150D02*
X14717491Y-12976579D01*
X14717491Y-12976579D02*
X14707968Y-12957531D01*
X14707968Y-12957531D02*
X14698444Y-12928960D01*
X14698444Y-12928960D02*
X14688920Y-12881341D01*
X14688920Y-12881341D02*
X14688920Y-12843246D01*
X14688920Y-12843246D02*
X14698444Y-12795627D01*
X14698444Y-12795627D02*
X14707968Y-12767055D01*
X14707968Y-12767055D02*
X14717491Y-12748008D01*
X14717491Y-12748008D02*
X14736539Y-12719436D01*
X14736539Y-12719436D02*
X14746063Y-12709912D01*
X14927015Y-12938484D02*
X14812729Y-12938484D01*
X14869872Y-12938484D02*
X14869872Y-12738484D01*
X14869872Y-12738484D02*
X14850825Y-12767055D01*
X14850825Y-12767055D02*
X14831777Y-12786103D01*
X14831777Y-12786103D02*
X14812729Y-12795627D01*
X15098444Y-12805150D02*
X15098444Y-12938484D01*
X15050825Y-12728960D02*
X15003206Y-12871817D01*
X15003206Y-12871817D02*
X15127015Y-12871817D01*
X15355587Y-12938484D02*
X15355587Y-12738484D01*
X15441301Y-12938484D02*
X15441301Y-12833722D01*
X15441301Y-12833722D02*
X15431777Y-12814674D01*
X15431777Y-12814674D02*
X15412730Y-12805150D01*
X15412730Y-12805150D02*
X15384158Y-12805150D01*
X15384158Y-12805150D02*
X15365110Y-12814674D01*
X15365110Y-12814674D02*
X15355587Y-12824198D01*
X15565110Y-12938484D02*
X15546063Y-12928960D01*
X15546063Y-12928960D02*
X15536539Y-12919436D01*
X15536539Y-12919436D02*
X15527015Y-12900388D01*
X15527015Y-12900388D02*
X15527015Y-12843246D01*
X15527015Y-12843246D02*
X15536539Y-12824198D01*
X15536539Y-12824198D02*
X15546063Y-12814674D01*
X15546063Y-12814674D02*
X15565110Y-12805150D01*
X15565110Y-12805150D02*
X15593682Y-12805150D01*
X15593682Y-12805150D02*
X15612730Y-12814674D01*
X15612730Y-12814674D02*
X15622253Y-12824198D01*
X15622253Y-12824198D02*
X15631777Y-12843246D01*
X15631777Y-12843246D02*
X15631777Y-12900388D01*
X15631777Y-12900388D02*
X15622253Y-12919436D01*
X15622253Y-12919436D02*
X15612730Y-12928960D01*
X15612730Y-12928960D02*
X15593682Y-12938484D01*
X15593682Y-12938484D02*
X15565110Y-12938484D01*
X15746063Y-12938484D02*
X15727015Y-12928960D01*
X15727015Y-12928960D02*
X15717491Y-12909912D01*
X15717491Y-12909912D02*
X15717491Y-12738484D01*
X15898444Y-12928960D02*
X15879396Y-12938484D01*
X15879396Y-12938484D02*
X15841301Y-12938484D01*
X15841301Y-12938484D02*
X15822253Y-12928960D01*
X15822253Y-12928960D02*
X15812730Y-12909912D01*
X15812730Y-12909912D02*
X15812730Y-12833722D01*
X15812730Y-12833722D02*
X15822253Y-12814674D01*
X15822253Y-12814674D02*
X15841301Y-12805150D01*
X15841301Y-12805150D02*
X15879396Y-12805150D01*
X15879396Y-12805150D02*
X15898444Y-12814674D01*
X15898444Y-12814674D02*
X15907968Y-12833722D01*
X15907968Y-12833722D02*
X15907968Y-12852769D01*
X15907968Y-12852769D02*
X15812730Y-12871817D01*
X15984158Y-12928960D02*
X16003206Y-12938484D01*
X16003206Y-12938484D02*
X16041301Y-12938484D01*
X16041301Y-12938484D02*
X16060349Y-12928960D01*
X16060349Y-12928960D02*
X16069872Y-12909912D01*
X16069872Y-12909912D02*
X16069872Y-12900388D01*
X16069872Y-12900388D02*
X16060349Y-12881341D01*
X16060349Y-12881341D02*
X16041301Y-12871817D01*
X16041301Y-12871817D02*
X16012730Y-12871817D01*
X16012730Y-12871817D02*
X15993682Y-12862293D01*
X15993682Y-12862293D02*
X15984158Y-12843246D01*
X15984158Y-12843246D02*
X15984158Y-12833722D01*
X15984158Y-12833722D02*
X15993682Y-12814674D01*
X15993682Y-12814674D02*
X16012730Y-12805150D01*
X16012730Y-12805150D02*
X16041301Y-12805150D01*
X16041301Y-12805150D02*
X16060349Y-12814674D01*
X16136539Y-13014674D02*
X16146063Y-13005150D01*
X16146063Y-13005150D02*
X16165111Y-12976579D01*
X16165111Y-12976579D02*
X16174634Y-12957531D01*
X16174634Y-12957531D02*
X16184158Y-12928960D01*
X16184158Y-12928960D02*
X16193682Y-12881341D01*
X16193682Y-12881341D02*
X16193682Y-12843246D01*
X16193682Y-12843246D02*
X16184158Y-12795627D01*
X16184158Y-12795627D02*
X16174634Y-12767055D01*
X16174634Y-12767055D02*
X16165111Y-12748008D01*
X16165111Y-12748008D02*
X16146063Y-12719436D01*
X16146063Y-12719436D02*
X16136539Y-12709912D01*
D10*
X11126000Y-13066000D02*
X11126000Y-13156000D01*
X11081000Y-13111000D02*
X11171000Y-13111000D01*
D11*
X11469872Y-13002484D02*
X11488920Y-13002484D01*
X11488920Y-13002484D02*
X11507967Y-13012008D01*
X11507967Y-13012008D02*
X11517491Y-13021531D01*
X11517491Y-13021531D02*
X11527015Y-13040579D01*
X11527015Y-13040579D02*
X11536539Y-13078674D01*
X11536539Y-13078674D02*
X11536539Y-13126293D01*
X11536539Y-13126293D02*
X11527015Y-13164388D01*
X11527015Y-13164388D02*
X11517491Y-13183436D01*
X11517491Y-13183436D02*
X11507967Y-13192960D01*
X11507967Y-13192960D02*
X11488920Y-13202484D01*
X11488920Y-13202484D02*
X11469872Y-13202484D01*
X11469872Y-13202484D02*
X11450824Y-13192960D01*
X11450824Y-13192960D02*
X11441301Y-13183436D01*
X11441301Y-13183436D02*
X11431777Y-13164388D01*
X11431777Y-13164388D02*
X11422253Y-13126293D01*
X11422253Y-13126293D02*
X11422253Y-13078674D01*
X11422253Y-13078674D02*
X11431777Y-13040579D01*
X11431777Y-13040579D02*
X11441301Y-13021531D01*
X11441301Y-13021531D02*
X11450824Y-13012008D01*
X11450824Y-13012008D02*
X11469872Y-13002484D01*
X11622253Y-13183436D02*
X11631777Y-13192960D01*
X11631777Y-13192960D02*
X11622253Y-13202484D01*
X11622253Y-13202484D02*
X11612729Y-13192960D01*
X11612729Y-13192960D02*
X11622253Y-13183436D01*
X11622253Y-13183436D02*
X11622253Y-13202484D01*
X11727015Y-13202484D02*
X11765110Y-13202484D01*
X11765110Y-13202484D02*
X11784158Y-13192960D01*
X11784158Y-13192960D02*
X11793682Y-13183436D01*
X11793682Y-13183436D02*
X11812729Y-13154865D01*
X11812729Y-13154865D02*
X11822253Y-13116769D01*
X11822253Y-13116769D02*
X11822253Y-13040579D01*
X11822253Y-13040579D02*
X11812729Y-13021531D01*
X11812729Y-13021531D02*
X11803205Y-13012008D01*
X11803205Y-13012008D02*
X11784158Y-13002484D01*
X11784158Y-13002484D02*
X11746062Y-13002484D01*
X11746062Y-13002484D02*
X11727015Y-13012008D01*
X11727015Y-13012008D02*
X11717491Y-13021531D01*
X11717491Y-13021531D02*
X11707967Y-13040579D01*
X11707967Y-13040579D02*
X11707967Y-13088198D01*
X11707967Y-13088198D02*
X11717491Y-13107246D01*
X11717491Y-13107246D02*
X11727015Y-13116769D01*
X11727015Y-13116769D02*
X11746062Y-13126293D01*
X11746062Y-13126293D02*
X11784158Y-13126293D01*
X11784158Y-13126293D02*
X11803205Y-13116769D01*
X11803205Y-13116769D02*
X11812729Y-13107246D01*
X11812729Y-13107246D02*
X11822253Y-13088198D01*
X11946062Y-13002484D02*
X11965110Y-13002484D01*
X11965110Y-13002484D02*
X11984158Y-13012008D01*
X11984158Y-13012008D02*
X11993682Y-13021531D01*
X11993682Y-13021531D02*
X12003205Y-13040579D01*
X12003205Y-13040579D02*
X12012729Y-13078674D01*
X12012729Y-13078674D02*
X12012729Y-13126293D01*
X12012729Y-13126293D02*
X12003205Y-13164388D01*
X12003205Y-13164388D02*
X11993682Y-13183436D01*
X11993682Y-13183436D02*
X11984158Y-13192960D01*
X11984158Y-13192960D02*
X11965110Y-13202484D01*
X11965110Y-13202484D02*
X11946062Y-13202484D01*
X11946062Y-13202484D02*
X11927015Y-13192960D01*
X11927015Y-13192960D02*
X11917491Y-13183436D01*
X11917491Y-13183436D02*
X11907967Y-13164388D01*
X11907967Y-13164388D02*
X11898443Y-13126293D01*
X11898443Y-13126293D02*
X11898443Y-13078674D01*
X11898443Y-13078674D02*
X11907967Y-13040579D01*
X11907967Y-13040579D02*
X11917491Y-13021531D01*
X11917491Y-13021531D02*
X11927015Y-13012008D01*
X11927015Y-13012008D02*
X11946062Y-13002484D01*
X12136539Y-13002484D02*
X12155586Y-13002484D01*
X12155586Y-13002484D02*
X12174634Y-13012008D01*
X12174634Y-13012008D02*
X12184158Y-13021531D01*
X12184158Y-13021531D02*
X12193682Y-13040579D01*
X12193682Y-13040579D02*
X12203205Y-13078674D01*
X12203205Y-13078674D02*
X12203205Y-13126293D01*
X12203205Y-13126293D02*
X12193682Y-13164388D01*
X12193682Y-13164388D02*
X12184158Y-13183436D01*
X12184158Y-13183436D02*
X12174634Y-13192960D01*
X12174634Y-13192960D02*
X12155586Y-13202484D01*
X12155586Y-13202484D02*
X12136539Y-13202484D01*
X12136539Y-13202484D02*
X12117491Y-13192960D01*
X12117491Y-13192960D02*
X12107967Y-13183436D01*
X12107967Y-13183436D02*
X12098443Y-13164388D01*
X12098443Y-13164388D02*
X12088920Y-13126293D01*
X12088920Y-13126293D02*
X12088920Y-13078674D01*
X12088920Y-13078674D02*
X12098443Y-13040579D01*
X12098443Y-13040579D02*
X12107967Y-13021531D01*
X12107967Y-13021531D02*
X12117491Y-13012008D01*
X12117491Y-13012008D02*
X12136539Y-13002484D01*
X12288920Y-13202484D02*
X12288920Y-13069150D01*
X12288920Y-13088198D02*
X12298443Y-13078674D01*
X12298443Y-13078674D02*
X12317491Y-13069150D01*
X12317491Y-13069150D02*
X12346063Y-13069150D01*
X12346063Y-13069150D02*
X12365110Y-13078674D01*
X12365110Y-13078674D02*
X12374634Y-13097722D01*
X12374634Y-13097722D02*
X12374634Y-13202484D01*
X12374634Y-13097722D02*
X12384158Y-13078674D01*
X12384158Y-13078674D02*
X12403205Y-13069150D01*
X12403205Y-13069150D02*
X12431777Y-13069150D01*
X12431777Y-13069150D02*
X12450824Y-13078674D01*
X12450824Y-13078674D02*
X12460348Y-13097722D01*
X12460348Y-13097722D02*
X12460348Y-13202484D01*
X12555586Y-13202484D02*
X12555586Y-13069150D01*
X12555586Y-13088198D02*
X12565110Y-13078674D01*
X12565110Y-13078674D02*
X12584158Y-13069150D01*
X12584158Y-13069150D02*
X12612729Y-13069150D01*
X12612729Y-13069150D02*
X12631777Y-13078674D01*
X12631777Y-13078674D02*
X12641301Y-13097722D01*
X12641301Y-13097722D02*
X12641301Y-13202484D01*
X12641301Y-13097722D02*
X12650824Y-13078674D01*
X12650824Y-13078674D02*
X12669872Y-13069150D01*
X12669872Y-13069150D02*
X12698443Y-13069150D01*
X12698443Y-13069150D02*
X12717491Y-13078674D01*
X12717491Y-13078674D02*
X12727015Y-13097722D01*
X12727015Y-13097722D02*
X12727015Y-13202484D01*
X13117491Y-12992960D02*
X12946063Y-13250103D01*
X13374634Y-13002484D02*
X13393682Y-13002484D01*
X13393682Y-13002484D02*
X13412729Y-13012008D01*
X13412729Y-13012008D02*
X13422253Y-13021531D01*
X13422253Y-13021531D02*
X13431777Y-13040579D01*
X13431777Y-13040579D02*
X13441301Y-13078674D01*
X13441301Y-13078674D02*
X13441301Y-13126293D01*
X13441301Y-13126293D02*
X13431777Y-13164388D01*
X13431777Y-13164388D02*
X13422253Y-13183436D01*
X13422253Y-13183436D02*
X13412729Y-13192960D01*
X13412729Y-13192960D02*
X13393682Y-13202484D01*
X13393682Y-13202484D02*
X13374634Y-13202484D01*
X13374634Y-13202484D02*
X13355586Y-13192960D01*
X13355586Y-13192960D02*
X13346063Y-13183436D01*
X13346063Y-13183436D02*
X13336539Y-13164388D01*
X13336539Y-13164388D02*
X13327015Y-13126293D01*
X13327015Y-13126293D02*
X13327015Y-13078674D01*
X13327015Y-13078674D02*
X13336539Y-13040579D01*
X13336539Y-13040579D02*
X13346063Y-13021531D01*
X13346063Y-13021531D02*
X13355586Y-13012008D01*
X13355586Y-13012008D02*
X13374634Y-13002484D01*
X13527015Y-13183436D02*
X13536539Y-13192960D01*
X13536539Y-13192960D02*
X13527015Y-13202484D01*
X13527015Y-13202484D02*
X13517491Y-13192960D01*
X13517491Y-13192960D02*
X13527015Y-13183436D01*
X13527015Y-13183436D02*
X13527015Y-13202484D01*
X13660348Y-13002484D02*
X13679396Y-13002484D01*
X13679396Y-13002484D02*
X13698444Y-13012008D01*
X13698444Y-13012008D02*
X13707967Y-13021531D01*
X13707967Y-13021531D02*
X13717491Y-13040579D01*
X13717491Y-13040579D02*
X13727015Y-13078674D01*
X13727015Y-13078674D02*
X13727015Y-13126293D01*
X13727015Y-13126293D02*
X13717491Y-13164388D01*
X13717491Y-13164388D02*
X13707967Y-13183436D01*
X13707967Y-13183436D02*
X13698444Y-13192960D01*
X13698444Y-13192960D02*
X13679396Y-13202484D01*
X13679396Y-13202484D02*
X13660348Y-13202484D01*
X13660348Y-13202484D02*
X13641301Y-13192960D01*
X13641301Y-13192960D02*
X13631777Y-13183436D01*
X13631777Y-13183436D02*
X13622253Y-13164388D01*
X13622253Y-13164388D02*
X13612729Y-13126293D01*
X13612729Y-13126293D02*
X13612729Y-13078674D01*
X13612729Y-13078674D02*
X13622253Y-13040579D01*
X13622253Y-13040579D02*
X13631777Y-13021531D01*
X13631777Y-13021531D02*
X13641301Y-13012008D01*
X13641301Y-13012008D02*
X13660348Y-13002484D01*
X13793682Y-13002484D02*
X13917491Y-13002484D01*
X13917491Y-13002484D02*
X13850825Y-13078674D01*
X13850825Y-13078674D02*
X13879396Y-13078674D01*
X13879396Y-13078674D02*
X13898444Y-13088198D01*
X13898444Y-13088198D02*
X13907967Y-13097722D01*
X13907967Y-13097722D02*
X13917491Y-13116769D01*
X13917491Y-13116769D02*
X13917491Y-13164388D01*
X13917491Y-13164388D02*
X13907967Y-13183436D01*
X13907967Y-13183436D02*
X13898444Y-13192960D01*
X13898444Y-13192960D02*
X13879396Y-13202484D01*
X13879396Y-13202484D02*
X13822253Y-13202484D01*
X13822253Y-13202484D02*
X13803206Y-13192960D01*
X13803206Y-13192960D02*
X13793682Y-13183436D01*
X14098444Y-13002484D02*
X14003206Y-13002484D01*
X14003206Y-13002484D02*
X13993682Y-13097722D01*
X13993682Y-13097722D02*
X14003206Y-13088198D01*
X14003206Y-13088198D02*
X14022253Y-13078674D01*
X14022253Y-13078674D02*
X14069872Y-13078674D01*
X14069872Y-13078674D02*
X14088920Y-13088198D01*
X14088920Y-13088198D02*
X14098444Y-13097722D01*
X14098444Y-13097722D02*
X14107967Y-13116769D01*
X14107967Y-13116769D02*
X14107967Y-13164388D01*
X14107967Y-13164388D02*
X14098444Y-13183436D01*
X14098444Y-13183436D02*
X14088920Y-13192960D01*
X14088920Y-13192960D02*
X14069872Y-13202484D01*
X14069872Y-13202484D02*
X14022253Y-13202484D01*
X14022253Y-13202484D02*
X14003206Y-13192960D01*
X14003206Y-13192960D02*
X13993682Y-13183436D01*
X14279396Y-13069150D02*
X14279396Y-13202484D01*
X14231777Y-12992960D02*
X14184158Y-13135817D01*
X14184158Y-13135817D02*
X14307967Y-13135817D01*
X14374634Y-13002484D02*
X14374634Y-13040579D01*
X14450825Y-13002484D02*
X14450825Y-13040579D01*
X14746063Y-13278674D02*
X14736539Y-13269150D01*
X14736539Y-13269150D02*
X14717491Y-13240579D01*
X14717491Y-13240579D02*
X14707968Y-13221531D01*
X14707968Y-13221531D02*
X14698444Y-13192960D01*
X14698444Y-13192960D02*
X14688920Y-13145341D01*
X14688920Y-13145341D02*
X14688920Y-13107246D01*
X14688920Y-13107246D02*
X14698444Y-13059627D01*
X14698444Y-13059627D02*
X14707968Y-13031055D01*
X14707968Y-13031055D02*
X14717491Y-13012008D01*
X14717491Y-13012008D02*
X14736539Y-12983436D01*
X14736539Y-12983436D02*
X14746063Y-12973912D01*
X14907968Y-13069150D02*
X14907968Y-13202484D01*
X14860348Y-12992960D02*
X14812729Y-13135817D01*
X14812729Y-13135817D02*
X14936539Y-13135817D01*
X15165110Y-13202484D02*
X15165110Y-13002484D01*
X15250825Y-13202484D02*
X15250825Y-13097722D01*
X15250825Y-13097722D02*
X15241301Y-13078674D01*
X15241301Y-13078674D02*
X15222253Y-13069150D01*
X15222253Y-13069150D02*
X15193682Y-13069150D01*
X15193682Y-13069150D02*
X15174634Y-13078674D01*
X15174634Y-13078674D02*
X15165110Y-13088198D01*
X15374634Y-13202484D02*
X15355587Y-13192960D01*
X15355587Y-13192960D02*
X15346063Y-13183436D01*
X15346063Y-13183436D02*
X15336539Y-13164388D01*
X15336539Y-13164388D02*
X15336539Y-13107246D01*
X15336539Y-13107246D02*
X15346063Y-13088198D01*
X15346063Y-13088198D02*
X15355587Y-13078674D01*
X15355587Y-13078674D02*
X15374634Y-13069150D01*
X15374634Y-13069150D02*
X15403206Y-13069150D01*
X15403206Y-13069150D02*
X15422253Y-13078674D01*
X15422253Y-13078674D02*
X15431777Y-13088198D01*
X15431777Y-13088198D02*
X15441301Y-13107246D01*
X15441301Y-13107246D02*
X15441301Y-13164388D01*
X15441301Y-13164388D02*
X15431777Y-13183436D01*
X15431777Y-13183436D02*
X15422253Y-13192960D01*
X15422253Y-13192960D02*
X15403206Y-13202484D01*
X15403206Y-13202484D02*
X15374634Y-13202484D01*
X15555587Y-13202484D02*
X15536539Y-13192960D01*
X15536539Y-13192960D02*
X15527015Y-13173912D01*
X15527015Y-13173912D02*
X15527015Y-13002484D01*
X15707968Y-13192960D02*
X15688920Y-13202484D01*
X15688920Y-13202484D02*
X15650825Y-13202484D01*
X15650825Y-13202484D02*
X15631777Y-13192960D01*
X15631777Y-13192960D02*
X15622253Y-13173912D01*
X15622253Y-13173912D02*
X15622253Y-13097722D01*
X15622253Y-13097722D02*
X15631777Y-13078674D01*
X15631777Y-13078674D02*
X15650825Y-13069150D01*
X15650825Y-13069150D02*
X15688920Y-13069150D01*
X15688920Y-13069150D02*
X15707968Y-13078674D01*
X15707968Y-13078674D02*
X15717491Y-13097722D01*
X15717491Y-13097722D02*
X15717491Y-13116769D01*
X15717491Y-13116769D02*
X15622253Y-13135817D01*
X15793682Y-13192960D02*
X15812730Y-13202484D01*
X15812730Y-13202484D02*
X15850825Y-13202484D01*
X15850825Y-13202484D02*
X15869872Y-13192960D01*
X15869872Y-13192960D02*
X15879396Y-13173912D01*
X15879396Y-13173912D02*
X15879396Y-13164388D01*
X15879396Y-13164388D02*
X15869872Y-13145341D01*
X15869872Y-13145341D02*
X15850825Y-13135817D01*
X15850825Y-13135817D02*
X15822253Y-13135817D01*
X15822253Y-13135817D02*
X15803206Y-13126293D01*
X15803206Y-13126293D02*
X15793682Y-13107246D01*
X15793682Y-13107246D02*
X15793682Y-13097722D01*
X15793682Y-13097722D02*
X15803206Y-13078674D01*
X15803206Y-13078674D02*
X15822253Y-13069150D01*
X15822253Y-13069150D02*
X15850825Y-13069150D01*
X15850825Y-13069150D02*
X15869872Y-13078674D01*
X15946063Y-13278674D02*
X15955587Y-13269150D01*
X15955587Y-13269150D02*
X15974634Y-13240579D01*
X15974634Y-13240579D02*
X15984158Y-13221531D01*
X15984158Y-13221531D02*
X15993682Y-13192960D01*
X15993682Y-13192960D02*
X16003206Y-13145341D01*
X16003206Y-13145341D02*
X16003206Y-13107246D01*
X16003206Y-13107246D02*
X15993682Y-13059627D01*
X15993682Y-13059627D02*
X15984158Y-13031055D01*
X15984158Y-13031055D02*
X15974634Y-13012008D01*
X15974634Y-13012008D02*
X15955587Y-12983436D01*
X15955587Y-12983436D02*
X15946063Y-12973912D01*
D10*
X11156356Y-13410356D02*
X11156356Y-13339644D01*
X11085644Y-13339644D01*
X11085644Y-13410356D01*
X11156356Y-13410356D01*
D11*
X11536539Y-13466484D02*
X11422253Y-13466484D01*
X11479396Y-13466484D02*
X11479396Y-13266484D01*
X11479396Y-13266484D02*
X11460348Y-13295055D01*
X11460348Y-13295055D02*
X11441301Y-13314103D01*
X11441301Y-13314103D02*
X11422253Y-13323627D01*
X11622253Y-13447436D02*
X11631777Y-13456960D01*
X11631777Y-13456960D02*
X11622253Y-13466484D01*
X11622253Y-13466484D02*
X11612729Y-13456960D01*
X11612729Y-13456960D02*
X11622253Y-13447436D01*
X11622253Y-13447436D02*
X11622253Y-13466484D01*
X11755586Y-13266484D02*
X11774634Y-13266484D01*
X11774634Y-13266484D02*
X11793682Y-13276008D01*
X11793682Y-13276008D02*
X11803205Y-13285531D01*
X11803205Y-13285531D02*
X11812729Y-13304579D01*
X11812729Y-13304579D02*
X11822253Y-13342674D01*
X11822253Y-13342674D02*
X11822253Y-13390293D01*
X11822253Y-13390293D02*
X11812729Y-13428388D01*
X11812729Y-13428388D02*
X11803205Y-13447436D01*
X11803205Y-13447436D02*
X11793682Y-13456960D01*
X11793682Y-13456960D02*
X11774634Y-13466484D01*
X11774634Y-13466484D02*
X11755586Y-13466484D01*
X11755586Y-13466484D02*
X11736539Y-13456960D01*
X11736539Y-13456960D02*
X11727015Y-13447436D01*
X11727015Y-13447436D02*
X11717491Y-13428388D01*
X11717491Y-13428388D02*
X11707967Y-13390293D01*
X11707967Y-13390293D02*
X11707967Y-13342674D01*
X11707967Y-13342674D02*
X11717491Y-13304579D01*
X11717491Y-13304579D02*
X11727015Y-13285531D01*
X11727015Y-13285531D02*
X11736539Y-13276008D01*
X11736539Y-13276008D02*
X11755586Y-13266484D01*
X11946062Y-13266484D02*
X11965110Y-13266484D01*
X11965110Y-13266484D02*
X11984158Y-13276008D01*
X11984158Y-13276008D02*
X11993682Y-13285531D01*
X11993682Y-13285531D02*
X12003205Y-13304579D01*
X12003205Y-13304579D02*
X12012729Y-13342674D01*
X12012729Y-13342674D02*
X12012729Y-13390293D01*
X12012729Y-13390293D02*
X12003205Y-13428388D01*
X12003205Y-13428388D02*
X11993682Y-13447436D01*
X11993682Y-13447436D02*
X11984158Y-13456960D01*
X11984158Y-13456960D02*
X11965110Y-13466484D01*
X11965110Y-13466484D02*
X11946062Y-13466484D01*
X11946062Y-13466484D02*
X11927015Y-13456960D01*
X11927015Y-13456960D02*
X11917491Y-13447436D01*
X11917491Y-13447436D02*
X11907967Y-13428388D01*
X11907967Y-13428388D02*
X11898443Y-13390293D01*
X11898443Y-13390293D02*
X11898443Y-13342674D01*
X11898443Y-13342674D02*
X11907967Y-13304579D01*
X11907967Y-13304579D02*
X11917491Y-13285531D01*
X11917491Y-13285531D02*
X11927015Y-13276008D01*
X11927015Y-13276008D02*
X11946062Y-13266484D01*
X12136539Y-13266484D02*
X12155586Y-13266484D01*
X12155586Y-13266484D02*
X12174634Y-13276008D01*
X12174634Y-13276008D02*
X12184158Y-13285531D01*
X12184158Y-13285531D02*
X12193682Y-13304579D01*
X12193682Y-13304579D02*
X12203205Y-13342674D01*
X12203205Y-13342674D02*
X12203205Y-13390293D01*
X12203205Y-13390293D02*
X12193682Y-13428388D01*
X12193682Y-13428388D02*
X12184158Y-13447436D01*
X12184158Y-13447436D02*
X12174634Y-13456960D01*
X12174634Y-13456960D02*
X12155586Y-13466484D01*
X12155586Y-13466484D02*
X12136539Y-13466484D01*
X12136539Y-13466484D02*
X12117491Y-13456960D01*
X12117491Y-13456960D02*
X12107967Y-13447436D01*
X12107967Y-13447436D02*
X12098443Y-13428388D01*
X12098443Y-13428388D02*
X12088920Y-13390293D01*
X12088920Y-13390293D02*
X12088920Y-13342674D01*
X12088920Y-13342674D02*
X12098443Y-13304579D01*
X12098443Y-13304579D02*
X12107967Y-13285531D01*
X12107967Y-13285531D02*
X12117491Y-13276008D01*
X12117491Y-13276008D02*
X12136539Y-13266484D01*
X12288920Y-13466484D02*
X12288920Y-13333150D01*
X12288920Y-13352198D02*
X12298443Y-13342674D01*
X12298443Y-13342674D02*
X12317491Y-13333150D01*
X12317491Y-13333150D02*
X12346063Y-13333150D01*
X12346063Y-13333150D02*
X12365110Y-13342674D01*
X12365110Y-13342674D02*
X12374634Y-13361722D01*
X12374634Y-13361722D02*
X12374634Y-13466484D01*
X12374634Y-13361722D02*
X12384158Y-13342674D01*
X12384158Y-13342674D02*
X12403205Y-13333150D01*
X12403205Y-13333150D02*
X12431777Y-13333150D01*
X12431777Y-13333150D02*
X12450824Y-13342674D01*
X12450824Y-13342674D02*
X12460348Y-13361722D01*
X12460348Y-13361722D02*
X12460348Y-13466484D01*
X12555586Y-13466484D02*
X12555586Y-13333150D01*
X12555586Y-13352198D02*
X12565110Y-13342674D01*
X12565110Y-13342674D02*
X12584158Y-13333150D01*
X12584158Y-13333150D02*
X12612729Y-13333150D01*
X12612729Y-13333150D02*
X12631777Y-13342674D01*
X12631777Y-13342674D02*
X12641301Y-13361722D01*
X12641301Y-13361722D02*
X12641301Y-13466484D01*
X12641301Y-13361722D02*
X12650824Y-13342674D01*
X12650824Y-13342674D02*
X12669872Y-13333150D01*
X12669872Y-13333150D02*
X12698443Y-13333150D01*
X12698443Y-13333150D02*
X12717491Y-13342674D01*
X12717491Y-13342674D02*
X12727015Y-13361722D01*
X12727015Y-13361722D02*
X12727015Y-13466484D01*
X13117491Y-13256960D02*
X12946063Y-13514103D01*
X13374634Y-13266484D02*
X13393682Y-13266484D01*
X13393682Y-13266484D02*
X13412729Y-13276008D01*
X13412729Y-13276008D02*
X13422253Y-13285531D01*
X13422253Y-13285531D02*
X13431777Y-13304579D01*
X13431777Y-13304579D02*
X13441301Y-13342674D01*
X13441301Y-13342674D02*
X13441301Y-13390293D01*
X13441301Y-13390293D02*
X13431777Y-13428388D01*
X13431777Y-13428388D02*
X13422253Y-13447436D01*
X13422253Y-13447436D02*
X13412729Y-13456960D01*
X13412729Y-13456960D02*
X13393682Y-13466484D01*
X13393682Y-13466484D02*
X13374634Y-13466484D01*
X13374634Y-13466484D02*
X13355586Y-13456960D01*
X13355586Y-13456960D02*
X13346063Y-13447436D01*
X13346063Y-13447436D02*
X13336539Y-13428388D01*
X13336539Y-13428388D02*
X13327015Y-13390293D01*
X13327015Y-13390293D02*
X13327015Y-13342674D01*
X13327015Y-13342674D02*
X13336539Y-13304579D01*
X13336539Y-13304579D02*
X13346063Y-13285531D01*
X13346063Y-13285531D02*
X13355586Y-13276008D01*
X13355586Y-13276008D02*
X13374634Y-13266484D01*
X13527015Y-13447436D02*
X13536539Y-13456960D01*
X13536539Y-13456960D02*
X13527015Y-13466484D01*
X13527015Y-13466484D02*
X13517491Y-13456960D01*
X13517491Y-13456960D02*
X13527015Y-13447436D01*
X13527015Y-13447436D02*
X13527015Y-13466484D01*
X13660348Y-13266484D02*
X13679396Y-13266484D01*
X13679396Y-13266484D02*
X13698444Y-13276008D01*
X13698444Y-13276008D02*
X13707967Y-13285531D01*
X13707967Y-13285531D02*
X13717491Y-13304579D01*
X13717491Y-13304579D02*
X13727015Y-13342674D01*
X13727015Y-13342674D02*
X13727015Y-13390293D01*
X13727015Y-13390293D02*
X13717491Y-13428388D01*
X13717491Y-13428388D02*
X13707967Y-13447436D01*
X13707967Y-13447436D02*
X13698444Y-13456960D01*
X13698444Y-13456960D02*
X13679396Y-13466484D01*
X13679396Y-13466484D02*
X13660348Y-13466484D01*
X13660348Y-13466484D02*
X13641301Y-13456960D01*
X13641301Y-13456960D02*
X13631777Y-13447436D01*
X13631777Y-13447436D02*
X13622253Y-13428388D01*
X13622253Y-13428388D02*
X13612729Y-13390293D01*
X13612729Y-13390293D02*
X13612729Y-13342674D01*
X13612729Y-13342674D02*
X13622253Y-13304579D01*
X13622253Y-13304579D02*
X13631777Y-13285531D01*
X13631777Y-13285531D02*
X13641301Y-13276008D01*
X13641301Y-13276008D02*
X13660348Y-13266484D01*
X13793682Y-13266484D02*
X13917491Y-13266484D01*
X13917491Y-13266484D02*
X13850825Y-13342674D01*
X13850825Y-13342674D02*
X13879396Y-13342674D01*
X13879396Y-13342674D02*
X13898444Y-13352198D01*
X13898444Y-13352198D02*
X13907967Y-13361722D01*
X13907967Y-13361722D02*
X13917491Y-13380769D01*
X13917491Y-13380769D02*
X13917491Y-13428388D01*
X13917491Y-13428388D02*
X13907967Y-13447436D01*
X13907967Y-13447436D02*
X13898444Y-13456960D01*
X13898444Y-13456960D02*
X13879396Y-13466484D01*
X13879396Y-13466484D02*
X13822253Y-13466484D01*
X13822253Y-13466484D02*
X13803206Y-13456960D01*
X13803206Y-13456960D02*
X13793682Y-13447436D01*
X14012729Y-13466484D02*
X14050825Y-13466484D01*
X14050825Y-13466484D02*
X14069872Y-13456960D01*
X14069872Y-13456960D02*
X14079396Y-13447436D01*
X14079396Y-13447436D02*
X14098444Y-13418865D01*
X14098444Y-13418865D02*
X14107967Y-13380769D01*
X14107967Y-13380769D02*
X14107967Y-13304579D01*
X14107967Y-13304579D02*
X14098444Y-13285531D01*
X14098444Y-13285531D02*
X14088920Y-13276008D01*
X14088920Y-13276008D02*
X14069872Y-13266484D01*
X14069872Y-13266484D02*
X14031777Y-13266484D01*
X14031777Y-13266484D02*
X14012729Y-13276008D01*
X14012729Y-13276008D02*
X14003206Y-13285531D01*
X14003206Y-13285531D02*
X13993682Y-13304579D01*
X13993682Y-13304579D02*
X13993682Y-13352198D01*
X13993682Y-13352198D02*
X14003206Y-13371246D01*
X14003206Y-13371246D02*
X14012729Y-13380769D01*
X14012729Y-13380769D02*
X14031777Y-13390293D01*
X14031777Y-13390293D02*
X14069872Y-13390293D01*
X14069872Y-13390293D02*
X14088920Y-13380769D01*
X14088920Y-13380769D02*
X14098444Y-13371246D01*
X14098444Y-13371246D02*
X14107967Y-13352198D01*
X14279396Y-13333150D02*
X14279396Y-13466484D01*
X14231777Y-13256960D02*
X14184158Y-13399817D01*
X14184158Y-13399817D02*
X14307967Y-13399817D01*
X14374634Y-13266484D02*
X14374634Y-13304579D01*
X14450825Y-13266484D02*
X14450825Y-13304579D01*
X14746063Y-13542674D02*
X14736539Y-13533150D01*
X14736539Y-13533150D02*
X14717491Y-13504579D01*
X14717491Y-13504579D02*
X14707968Y-13485531D01*
X14707968Y-13485531D02*
X14698444Y-13456960D01*
X14698444Y-13456960D02*
X14688920Y-13409341D01*
X14688920Y-13409341D02*
X14688920Y-13371246D01*
X14688920Y-13371246D02*
X14698444Y-13323627D01*
X14698444Y-13323627D02*
X14707968Y-13295055D01*
X14707968Y-13295055D02*
X14717491Y-13276008D01*
X14717491Y-13276008D02*
X14736539Y-13247436D01*
X14736539Y-13247436D02*
X14746063Y-13237912D01*
X14907968Y-13266484D02*
X14869872Y-13266484D01*
X14869872Y-13266484D02*
X14850825Y-13276008D01*
X14850825Y-13276008D02*
X14841301Y-13285531D01*
X14841301Y-13285531D02*
X14822253Y-13314103D01*
X14822253Y-13314103D02*
X14812729Y-13352198D01*
X14812729Y-13352198D02*
X14812729Y-13428388D01*
X14812729Y-13428388D02*
X14822253Y-13447436D01*
X14822253Y-13447436D02*
X14831777Y-13456960D01*
X14831777Y-13456960D02*
X14850825Y-13466484D01*
X14850825Y-13466484D02*
X14888920Y-13466484D01*
X14888920Y-13466484D02*
X14907968Y-13456960D01*
X14907968Y-13456960D02*
X14917491Y-13447436D01*
X14917491Y-13447436D02*
X14927015Y-13428388D01*
X14927015Y-13428388D02*
X14927015Y-13380769D01*
X14927015Y-13380769D02*
X14917491Y-13361722D01*
X14917491Y-13361722D02*
X14907968Y-13352198D01*
X14907968Y-13352198D02*
X14888920Y-13342674D01*
X14888920Y-13342674D02*
X14850825Y-13342674D01*
X14850825Y-13342674D02*
X14831777Y-13352198D01*
X14831777Y-13352198D02*
X14822253Y-13361722D01*
X14822253Y-13361722D02*
X14812729Y-13380769D01*
X15165110Y-13466484D02*
X15165110Y-13266484D01*
X15250825Y-13466484D02*
X15250825Y-13361722D01*
X15250825Y-13361722D02*
X15241301Y-13342674D01*
X15241301Y-13342674D02*
X15222253Y-13333150D01*
X15222253Y-13333150D02*
X15193682Y-13333150D01*
X15193682Y-13333150D02*
X15174634Y-13342674D01*
X15174634Y-13342674D02*
X15165110Y-13352198D01*
X15374634Y-13466484D02*
X15355587Y-13456960D01*
X15355587Y-13456960D02*
X15346063Y-13447436D01*
X15346063Y-13447436D02*
X15336539Y-13428388D01*
X15336539Y-13428388D02*
X15336539Y-13371246D01*
X15336539Y-13371246D02*
X15346063Y-13352198D01*
X15346063Y-13352198D02*
X15355587Y-13342674D01*
X15355587Y-13342674D02*
X15374634Y-13333150D01*
X15374634Y-13333150D02*
X15403206Y-13333150D01*
X15403206Y-13333150D02*
X15422253Y-13342674D01*
X15422253Y-13342674D02*
X15431777Y-13352198D01*
X15431777Y-13352198D02*
X15441301Y-13371246D01*
X15441301Y-13371246D02*
X15441301Y-13428388D01*
X15441301Y-13428388D02*
X15431777Y-13447436D01*
X15431777Y-13447436D02*
X15422253Y-13456960D01*
X15422253Y-13456960D02*
X15403206Y-13466484D01*
X15403206Y-13466484D02*
X15374634Y-13466484D01*
X15555587Y-13466484D02*
X15536539Y-13456960D01*
X15536539Y-13456960D02*
X15527015Y-13437912D01*
X15527015Y-13437912D02*
X15527015Y-13266484D01*
X15707968Y-13456960D02*
X15688920Y-13466484D01*
X15688920Y-13466484D02*
X15650825Y-13466484D01*
X15650825Y-13466484D02*
X15631777Y-13456960D01*
X15631777Y-13456960D02*
X15622253Y-13437912D01*
X15622253Y-13437912D02*
X15622253Y-13361722D01*
X15622253Y-13361722D02*
X15631777Y-13342674D01*
X15631777Y-13342674D02*
X15650825Y-13333150D01*
X15650825Y-13333150D02*
X15688920Y-13333150D01*
X15688920Y-13333150D02*
X15707968Y-13342674D01*
X15707968Y-13342674D02*
X15717491Y-13361722D01*
X15717491Y-13361722D02*
X15717491Y-13380769D01*
X15717491Y-13380769D02*
X15622253Y-13399817D01*
X15793682Y-13456960D02*
X15812730Y-13466484D01*
X15812730Y-13466484D02*
X15850825Y-13466484D01*
X15850825Y-13466484D02*
X15869872Y-13456960D01*
X15869872Y-13456960D02*
X15879396Y-13437912D01*
X15879396Y-13437912D02*
X15879396Y-13428388D01*
X15879396Y-13428388D02*
X15869872Y-13409341D01*
X15869872Y-13409341D02*
X15850825Y-13399817D01*
X15850825Y-13399817D02*
X15822253Y-13399817D01*
X15822253Y-13399817D02*
X15803206Y-13390293D01*
X15803206Y-13390293D02*
X15793682Y-13371246D01*
X15793682Y-13371246D02*
X15793682Y-13361722D01*
X15793682Y-13361722D02*
X15803206Y-13342674D01*
X15803206Y-13342674D02*
X15822253Y-13333150D01*
X15822253Y-13333150D02*
X15850825Y-13333150D01*
X15850825Y-13333150D02*
X15869872Y-13342674D01*
X15946063Y-13542674D02*
X15955587Y-13533150D01*
X15955587Y-13533150D02*
X15974634Y-13504579D01*
X15974634Y-13504579D02*
X15984158Y-13485531D01*
X15984158Y-13485531D02*
X15993682Y-13456960D01*
X15993682Y-13456960D02*
X16003206Y-13409341D01*
X16003206Y-13409341D02*
X16003206Y-13371246D01*
X16003206Y-13371246D02*
X15993682Y-13323627D01*
X15993682Y-13323627D02*
X15984158Y-13295055D01*
X15984158Y-13295055D02*
X15974634Y-13276008D01*
X15974634Y-13276008D02*
X15955587Y-13247436D01*
X15955587Y-13247436D02*
X15946063Y-13237912D01*
D12*
X11120200Y-13689800D02*
X11171000Y-13639000D01*
X11120200Y-13588200D01*
X11069400Y-13639000D01*
X11120200Y-13689800D01*
D11*
X11536539Y-13730484D02*
X11422253Y-13730484D01*
X11479396Y-13730484D02*
X11479396Y-13530484D01*
X11479396Y-13530484D02*
X11460348Y-13559055D01*
X11460348Y-13559055D02*
X11441301Y-13578103D01*
X11441301Y-13578103D02*
X11422253Y-13587627D01*
X11622253Y-13711436D02*
X11631777Y-13720960D01*
X11631777Y-13720960D02*
X11622253Y-13730484D01*
X11622253Y-13730484D02*
X11612729Y-13720960D01*
X11612729Y-13720960D02*
X11622253Y-13711436D01*
X11622253Y-13711436D02*
X11622253Y-13730484D01*
X11755586Y-13530484D02*
X11774634Y-13530484D01*
X11774634Y-13530484D02*
X11793682Y-13540008D01*
X11793682Y-13540008D02*
X11803205Y-13549531D01*
X11803205Y-13549531D02*
X11812729Y-13568579D01*
X11812729Y-13568579D02*
X11822253Y-13606674D01*
X11822253Y-13606674D02*
X11822253Y-13654293D01*
X11822253Y-13654293D02*
X11812729Y-13692388D01*
X11812729Y-13692388D02*
X11803205Y-13711436D01*
X11803205Y-13711436D02*
X11793682Y-13720960D01*
X11793682Y-13720960D02*
X11774634Y-13730484D01*
X11774634Y-13730484D02*
X11755586Y-13730484D01*
X11755586Y-13730484D02*
X11736539Y-13720960D01*
X11736539Y-13720960D02*
X11727015Y-13711436D01*
X11727015Y-13711436D02*
X11717491Y-13692388D01*
X11717491Y-13692388D02*
X11707967Y-13654293D01*
X11707967Y-13654293D02*
X11707967Y-13606674D01*
X11707967Y-13606674D02*
X11717491Y-13568579D01*
X11717491Y-13568579D02*
X11727015Y-13549531D01*
X11727015Y-13549531D02*
X11736539Y-13540008D01*
X11736539Y-13540008D02*
X11755586Y-13530484D01*
X12012729Y-13730484D02*
X11898443Y-13730484D01*
X11955586Y-13730484D02*
X11955586Y-13530484D01*
X11955586Y-13530484D02*
X11936539Y-13559055D01*
X11936539Y-13559055D02*
X11917491Y-13578103D01*
X11917491Y-13578103D02*
X11898443Y-13587627D01*
X12184158Y-13530484D02*
X12146062Y-13530484D01*
X12146062Y-13530484D02*
X12127015Y-13540008D01*
X12127015Y-13540008D02*
X12117491Y-13549531D01*
X12117491Y-13549531D02*
X12098443Y-13578103D01*
X12098443Y-13578103D02*
X12088920Y-13616198D01*
X12088920Y-13616198D02*
X12088920Y-13692388D01*
X12088920Y-13692388D02*
X12098443Y-13711436D01*
X12098443Y-13711436D02*
X12107967Y-13720960D01*
X12107967Y-13720960D02*
X12127015Y-13730484D01*
X12127015Y-13730484D02*
X12165110Y-13730484D01*
X12165110Y-13730484D02*
X12184158Y-13720960D01*
X12184158Y-13720960D02*
X12193682Y-13711436D01*
X12193682Y-13711436D02*
X12203205Y-13692388D01*
X12203205Y-13692388D02*
X12203205Y-13644769D01*
X12203205Y-13644769D02*
X12193682Y-13625722D01*
X12193682Y-13625722D02*
X12184158Y-13616198D01*
X12184158Y-13616198D02*
X12165110Y-13606674D01*
X12165110Y-13606674D02*
X12127015Y-13606674D01*
X12127015Y-13606674D02*
X12107967Y-13616198D01*
X12107967Y-13616198D02*
X12098443Y-13625722D01*
X12098443Y-13625722D02*
X12088920Y-13644769D01*
X12288920Y-13730484D02*
X12288920Y-13597150D01*
X12288920Y-13616198D02*
X12298443Y-13606674D01*
X12298443Y-13606674D02*
X12317491Y-13597150D01*
X12317491Y-13597150D02*
X12346063Y-13597150D01*
X12346063Y-13597150D02*
X12365110Y-13606674D01*
X12365110Y-13606674D02*
X12374634Y-13625722D01*
X12374634Y-13625722D02*
X12374634Y-13730484D01*
X12374634Y-13625722D02*
X12384158Y-13606674D01*
X12384158Y-13606674D02*
X12403205Y-13597150D01*
X12403205Y-13597150D02*
X12431777Y-13597150D01*
X12431777Y-13597150D02*
X12450824Y-13606674D01*
X12450824Y-13606674D02*
X12460348Y-13625722D01*
X12460348Y-13625722D02*
X12460348Y-13730484D01*
X12555586Y-13730484D02*
X12555586Y-13597150D01*
X12555586Y-13616198D02*
X12565110Y-13606674D01*
X12565110Y-13606674D02*
X12584158Y-13597150D01*
X12584158Y-13597150D02*
X12612729Y-13597150D01*
X12612729Y-13597150D02*
X12631777Y-13606674D01*
X12631777Y-13606674D02*
X12641301Y-13625722D01*
X12641301Y-13625722D02*
X12641301Y-13730484D01*
X12641301Y-13625722D02*
X12650824Y-13606674D01*
X12650824Y-13606674D02*
X12669872Y-13597150D01*
X12669872Y-13597150D02*
X12698443Y-13597150D01*
X12698443Y-13597150D02*
X12717491Y-13606674D01*
X12717491Y-13606674D02*
X12727015Y-13625722D01*
X12727015Y-13625722D02*
X12727015Y-13730484D01*
X13117491Y-13520960D02*
X12946063Y-13778103D01*
X13374634Y-13530484D02*
X13393682Y-13530484D01*
X13393682Y-13530484D02*
X13412729Y-13540008D01*
X13412729Y-13540008D02*
X13422253Y-13549531D01*
X13422253Y-13549531D02*
X13431777Y-13568579D01*
X13431777Y-13568579D02*
X13441301Y-13606674D01*
X13441301Y-13606674D02*
X13441301Y-13654293D01*
X13441301Y-13654293D02*
X13431777Y-13692388D01*
X13431777Y-13692388D02*
X13422253Y-13711436D01*
X13422253Y-13711436D02*
X13412729Y-13720960D01*
X13412729Y-13720960D02*
X13393682Y-13730484D01*
X13393682Y-13730484D02*
X13374634Y-13730484D01*
X13374634Y-13730484D02*
X13355586Y-13720960D01*
X13355586Y-13720960D02*
X13346063Y-13711436D01*
X13346063Y-13711436D02*
X13336539Y-13692388D01*
X13336539Y-13692388D02*
X13327015Y-13654293D01*
X13327015Y-13654293D02*
X13327015Y-13606674D01*
X13327015Y-13606674D02*
X13336539Y-13568579D01*
X13336539Y-13568579D02*
X13346063Y-13549531D01*
X13346063Y-13549531D02*
X13355586Y-13540008D01*
X13355586Y-13540008D02*
X13374634Y-13530484D01*
X13527015Y-13711436D02*
X13536539Y-13720960D01*
X13536539Y-13720960D02*
X13527015Y-13730484D01*
X13527015Y-13730484D02*
X13517491Y-13720960D01*
X13517491Y-13720960D02*
X13527015Y-13711436D01*
X13527015Y-13711436D02*
X13527015Y-13730484D01*
X13660348Y-13530484D02*
X13679396Y-13530484D01*
X13679396Y-13530484D02*
X13698444Y-13540008D01*
X13698444Y-13540008D02*
X13707967Y-13549531D01*
X13707967Y-13549531D02*
X13717491Y-13568579D01*
X13717491Y-13568579D02*
X13727015Y-13606674D01*
X13727015Y-13606674D02*
X13727015Y-13654293D01*
X13727015Y-13654293D02*
X13717491Y-13692388D01*
X13717491Y-13692388D02*
X13707967Y-13711436D01*
X13707967Y-13711436D02*
X13698444Y-13720960D01*
X13698444Y-13720960D02*
X13679396Y-13730484D01*
X13679396Y-13730484D02*
X13660348Y-13730484D01*
X13660348Y-13730484D02*
X13641301Y-13720960D01*
X13641301Y-13720960D02*
X13631777Y-13711436D01*
X13631777Y-13711436D02*
X13622253Y-13692388D01*
X13622253Y-13692388D02*
X13612729Y-13654293D01*
X13612729Y-13654293D02*
X13612729Y-13606674D01*
X13612729Y-13606674D02*
X13622253Y-13568579D01*
X13622253Y-13568579D02*
X13631777Y-13549531D01*
X13631777Y-13549531D02*
X13641301Y-13540008D01*
X13641301Y-13540008D02*
X13660348Y-13530484D01*
X13898444Y-13597150D02*
X13898444Y-13730484D01*
X13850825Y-13520960D02*
X13803206Y-13663817D01*
X13803206Y-13663817D02*
X13927015Y-13663817D01*
X14041301Y-13530484D02*
X14060348Y-13530484D01*
X14060348Y-13530484D02*
X14079396Y-13540008D01*
X14079396Y-13540008D02*
X14088920Y-13549531D01*
X14088920Y-13549531D02*
X14098444Y-13568579D01*
X14098444Y-13568579D02*
X14107967Y-13606674D01*
X14107967Y-13606674D02*
X14107967Y-13654293D01*
X14107967Y-13654293D02*
X14098444Y-13692388D01*
X14098444Y-13692388D02*
X14088920Y-13711436D01*
X14088920Y-13711436D02*
X14079396Y-13720960D01*
X14079396Y-13720960D02*
X14060348Y-13730484D01*
X14060348Y-13730484D02*
X14041301Y-13730484D01*
X14041301Y-13730484D02*
X14022253Y-13720960D01*
X14022253Y-13720960D02*
X14012729Y-13711436D01*
X14012729Y-13711436D02*
X14003206Y-13692388D01*
X14003206Y-13692388D02*
X13993682Y-13654293D01*
X13993682Y-13654293D02*
X13993682Y-13606674D01*
X13993682Y-13606674D02*
X14003206Y-13568579D01*
X14003206Y-13568579D02*
X14012729Y-13549531D01*
X14012729Y-13549531D02*
X14022253Y-13540008D01*
X14022253Y-13540008D02*
X14041301Y-13530484D01*
X14231777Y-13530484D02*
X14250825Y-13530484D01*
X14250825Y-13530484D02*
X14269872Y-13540008D01*
X14269872Y-13540008D02*
X14279396Y-13549531D01*
X14279396Y-13549531D02*
X14288920Y-13568579D01*
X14288920Y-13568579D02*
X14298444Y-13606674D01*
X14298444Y-13606674D02*
X14298444Y-13654293D01*
X14298444Y-13654293D02*
X14288920Y-13692388D01*
X14288920Y-13692388D02*
X14279396Y-13711436D01*
X14279396Y-13711436D02*
X14269872Y-13720960D01*
X14269872Y-13720960D02*
X14250825Y-13730484D01*
X14250825Y-13730484D02*
X14231777Y-13730484D01*
X14231777Y-13730484D02*
X14212729Y-13720960D01*
X14212729Y-13720960D02*
X14203206Y-13711436D01*
X14203206Y-13711436D02*
X14193682Y-13692388D01*
X14193682Y-13692388D02*
X14184158Y-13654293D01*
X14184158Y-13654293D02*
X14184158Y-13606674D01*
X14184158Y-13606674D02*
X14193682Y-13568579D01*
X14193682Y-13568579D02*
X14203206Y-13549531D01*
X14203206Y-13549531D02*
X14212729Y-13540008D01*
X14212729Y-13540008D02*
X14231777Y-13530484D01*
X14374634Y-13530484D02*
X14374634Y-13568579D01*
X14450825Y-13530484D02*
X14450825Y-13568579D01*
X14746063Y-13806674D02*
X14736539Y-13797150D01*
X14736539Y-13797150D02*
X14717491Y-13768579D01*
X14717491Y-13768579D02*
X14707968Y-13749531D01*
X14707968Y-13749531D02*
X14698444Y-13720960D01*
X14698444Y-13720960D02*
X14688920Y-13673341D01*
X14688920Y-13673341D02*
X14688920Y-13635246D01*
X14688920Y-13635246D02*
X14698444Y-13587627D01*
X14698444Y-13587627D02*
X14707968Y-13559055D01*
X14707968Y-13559055D02*
X14717491Y-13540008D01*
X14717491Y-13540008D02*
X14736539Y-13511436D01*
X14736539Y-13511436D02*
X14746063Y-13501912D01*
X14831777Y-13730484D02*
X14869872Y-13730484D01*
X14869872Y-13730484D02*
X14888920Y-13720960D01*
X14888920Y-13720960D02*
X14898444Y-13711436D01*
X14898444Y-13711436D02*
X14917491Y-13682865D01*
X14917491Y-13682865D02*
X14927015Y-13644769D01*
X14927015Y-13644769D02*
X14927015Y-13568579D01*
X14927015Y-13568579D02*
X14917491Y-13549531D01*
X14917491Y-13549531D02*
X14907968Y-13540008D01*
X14907968Y-13540008D02*
X14888920Y-13530484D01*
X14888920Y-13530484D02*
X14850825Y-13530484D01*
X14850825Y-13530484D02*
X14831777Y-13540008D01*
X14831777Y-13540008D02*
X14822253Y-13549531D01*
X14822253Y-13549531D02*
X14812729Y-13568579D01*
X14812729Y-13568579D02*
X14812729Y-13616198D01*
X14812729Y-13616198D02*
X14822253Y-13635246D01*
X14822253Y-13635246D02*
X14831777Y-13644769D01*
X14831777Y-13644769D02*
X14850825Y-13654293D01*
X14850825Y-13654293D02*
X14888920Y-13654293D01*
X14888920Y-13654293D02*
X14907968Y-13644769D01*
X14907968Y-13644769D02*
X14917491Y-13635246D01*
X14917491Y-13635246D02*
X14927015Y-13616198D01*
X15003206Y-13549531D02*
X15012729Y-13540008D01*
X15012729Y-13540008D02*
X15031777Y-13530484D01*
X15031777Y-13530484D02*
X15079396Y-13530484D01*
X15079396Y-13530484D02*
X15098444Y-13540008D01*
X15098444Y-13540008D02*
X15107968Y-13549531D01*
X15107968Y-13549531D02*
X15117491Y-13568579D01*
X15117491Y-13568579D02*
X15117491Y-13587627D01*
X15117491Y-13587627D02*
X15107968Y-13616198D01*
X15107968Y-13616198D02*
X14993682Y-13730484D01*
X14993682Y-13730484D02*
X15117491Y-13730484D01*
X15355587Y-13730484D02*
X15355587Y-13530484D01*
X15441301Y-13730484D02*
X15441301Y-13625722D01*
X15441301Y-13625722D02*
X15431777Y-13606674D01*
X15431777Y-13606674D02*
X15412730Y-13597150D01*
X15412730Y-13597150D02*
X15384158Y-13597150D01*
X15384158Y-13597150D02*
X15365110Y-13606674D01*
X15365110Y-13606674D02*
X15355587Y-13616198D01*
X15565110Y-13730484D02*
X15546063Y-13720960D01*
X15546063Y-13720960D02*
X15536539Y-13711436D01*
X15536539Y-13711436D02*
X15527015Y-13692388D01*
X15527015Y-13692388D02*
X15527015Y-13635246D01*
X15527015Y-13635246D02*
X15536539Y-13616198D01*
X15536539Y-13616198D02*
X15546063Y-13606674D01*
X15546063Y-13606674D02*
X15565110Y-13597150D01*
X15565110Y-13597150D02*
X15593682Y-13597150D01*
X15593682Y-13597150D02*
X15612730Y-13606674D01*
X15612730Y-13606674D02*
X15622253Y-13616198D01*
X15622253Y-13616198D02*
X15631777Y-13635246D01*
X15631777Y-13635246D02*
X15631777Y-13692388D01*
X15631777Y-13692388D02*
X15622253Y-13711436D01*
X15622253Y-13711436D02*
X15612730Y-13720960D01*
X15612730Y-13720960D02*
X15593682Y-13730484D01*
X15593682Y-13730484D02*
X15565110Y-13730484D01*
X15746063Y-13730484D02*
X15727015Y-13720960D01*
X15727015Y-13720960D02*
X15717491Y-13701912D01*
X15717491Y-13701912D02*
X15717491Y-13530484D01*
X15898444Y-13720960D02*
X15879396Y-13730484D01*
X15879396Y-13730484D02*
X15841301Y-13730484D01*
X15841301Y-13730484D02*
X15822253Y-13720960D01*
X15822253Y-13720960D02*
X15812730Y-13701912D01*
X15812730Y-13701912D02*
X15812730Y-13625722D01*
X15812730Y-13625722D02*
X15822253Y-13606674D01*
X15822253Y-13606674D02*
X15841301Y-13597150D01*
X15841301Y-13597150D02*
X15879396Y-13597150D01*
X15879396Y-13597150D02*
X15898444Y-13606674D01*
X15898444Y-13606674D02*
X15907968Y-13625722D01*
X15907968Y-13625722D02*
X15907968Y-13644769D01*
X15907968Y-13644769D02*
X15812730Y-13663817D01*
X15984158Y-13720960D02*
X16003206Y-13730484D01*
X16003206Y-13730484D02*
X16041301Y-13730484D01*
X16041301Y-13730484D02*
X16060349Y-13720960D01*
X16060349Y-13720960D02*
X16069872Y-13701912D01*
X16069872Y-13701912D02*
X16069872Y-13692388D01*
X16069872Y-13692388D02*
X16060349Y-13673341D01*
X16060349Y-13673341D02*
X16041301Y-13663817D01*
X16041301Y-13663817D02*
X16012730Y-13663817D01*
X16012730Y-13663817D02*
X15993682Y-13654293D01*
X15993682Y-13654293D02*
X15984158Y-13635246D01*
X15984158Y-13635246D02*
X15984158Y-13625722D01*
X15984158Y-13625722D02*
X15993682Y-13606674D01*
X15993682Y-13606674D02*
X16012730Y-13597150D01*
X16012730Y-13597150D02*
X16041301Y-13597150D01*
X16041301Y-13597150D02*
X16060349Y-13606674D01*
X16136539Y-13806674D02*
X16146063Y-13797150D01*
X16146063Y-13797150D02*
X16165111Y-13768579D01*
X16165111Y-13768579D02*
X16174634Y-13749531D01*
X16174634Y-13749531D02*
X16184158Y-13720960D01*
X16184158Y-13720960D02*
X16193682Y-13673341D01*
X16193682Y-13673341D02*
X16193682Y-13635246D01*
X16193682Y-13635246D02*
X16184158Y-13587627D01*
X16184158Y-13587627D02*
X16174634Y-13559055D01*
X16174634Y-13559055D02*
X16165111Y-13540008D01*
X16165111Y-13540008D02*
X16146063Y-13511436D01*
X16146063Y-13511436D02*
X16136539Y-13501912D01*
D13*
X11041000Y-13838000D02*
X11171000Y-13968000D01*
X11171000Y-13838000D02*
X11041000Y-13968000D01*
X11171000Y-13903000D02*
G75*
G03*
X11171000Y-13903000I-65000J0D01*
G01*
D11*
X11536539Y-13994484D02*
X11422253Y-13994484D01*
X11479396Y-13994484D02*
X11479396Y-13794484D01*
X11479396Y-13794484D02*
X11460348Y-13823055D01*
X11460348Y-13823055D02*
X11441301Y-13842103D01*
X11441301Y-13842103D02*
X11422253Y-13851627D01*
X11622253Y-13975436D02*
X11631777Y-13984960D01*
X11631777Y-13984960D02*
X11622253Y-13994484D01*
X11622253Y-13994484D02*
X11612729Y-13984960D01*
X11612729Y-13984960D02*
X11622253Y-13975436D01*
X11622253Y-13975436D02*
X11622253Y-13994484D01*
X11698443Y-13794484D02*
X11822253Y-13794484D01*
X11822253Y-13794484D02*
X11755586Y-13870674D01*
X11755586Y-13870674D02*
X11784158Y-13870674D01*
X11784158Y-13870674D02*
X11803205Y-13880198D01*
X11803205Y-13880198D02*
X11812729Y-13889722D01*
X11812729Y-13889722D02*
X11822253Y-13908769D01*
X11822253Y-13908769D02*
X11822253Y-13956388D01*
X11822253Y-13956388D02*
X11812729Y-13975436D01*
X11812729Y-13975436D02*
X11803205Y-13984960D01*
X11803205Y-13984960D02*
X11784158Y-13994484D01*
X11784158Y-13994484D02*
X11727015Y-13994484D01*
X11727015Y-13994484D02*
X11707967Y-13984960D01*
X11707967Y-13984960D02*
X11698443Y-13975436D01*
X11946062Y-13794484D02*
X11965110Y-13794484D01*
X11965110Y-13794484D02*
X11984158Y-13804008D01*
X11984158Y-13804008D02*
X11993682Y-13813531D01*
X11993682Y-13813531D02*
X12003205Y-13832579D01*
X12003205Y-13832579D02*
X12012729Y-13870674D01*
X12012729Y-13870674D02*
X12012729Y-13918293D01*
X12012729Y-13918293D02*
X12003205Y-13956388D01*
X12003205Y-13956388D02*
X11993682Y-13975436D01*
X11993682Y-13975436D02*
X11984158Y-13984960D01*
X11984158Y-13984960D02*
X11965110Y-13994484D01*
X11965110Y-13994484D02*
X11946062Y-13994484D01*
X11946062Y-13994484D02*
X11927015Y-13984960D01*
X11927015Y-13984960D02*
X11917491Y-13975436D01*
X11917491Y-13975436D02*
X11907967Y-13956388D01*
X11907967Y-13956388D02*
X11898443Y-13918293D01*
X11898443Y-13918293D02*
X11898443Y-13870674D01*
X11898443Y-13870674D02*
X11907967Y-13832579D01*
X11907967Y-13832579D02*
X11917491Y-13813531D01*
X11917491Y-13813531D02*
X11927015Y-13804008D01*
X11927015Y-13804008D02*
X11946062Y-13794484D01*
X12136539Y-13794484D02*
X12155586Y-13794484D01*
X12155586Y-13794484D02*
X12174634Y-13804008D01*
X12174634Y-13804008D02*
X12184158Y-13813531D01*
X12184158Y-13813531D02*
X12193682Y-13832579D01*
X12193682Y-13832579D02*
X12203205Y-13870674D01*
X12203205Y-13870674D02*
X12203205Y-13918293D01*
X12203205Y-13918293D02*
X12193682Y-13956388D01*
X12193682Y-13956388D02*
X12184158Y-13975436D01*
X12184158Y-13975436D02*
X12174634Y-13984960D01*
X12174634Y-13984960D02*
X12155586Y-13994484D01*
X12155586Y-13994484D02*
X12136539Y-13994484D01*
X12136539Y-13994484D02*
X12117491Y-13984960D01*
X12117491Y-13984960D02*
X12107967Y-13975436D01*
X12107967Y-13975436D02*
X12098443Y-13956388D01*
X12098443Y-13956388D02*
X12088920Y-13918293D01*
X12088920Y-13918293D02*
X12088920Y-13870674D01*
X12088920Y-13870674D02*
X12098443Y-13832579D01*
X12098443Y-13832579D02*
X12107967Y-13813531D01*
X12107967Y-13813531D02*
X12117491Y-13804008D01*
X12117491Y-13804008D02*
X12136539Y-13794484D01*
X12288920Y-13994484D02*
X12288920Y-13861150D01*
X12288920Y-13880198D02*
X12298443Y-13870674D01*
X12298443Y-13870674D02*
X12317491Y-13861150D01*
X12317491Y-13861150D02*
X12346063Y-13861150D01*
X12346063Y-13861150D02*
X12365110Y-13870674D01*
X12365110Y-13870674D02*
X12374634Y-13889722D01*
X12374634Y-13889722D02*
X12374634Y-13994484D01*
X12374634Y-13889722D02*
X12384158Y-13870674D01*
X12384158Y-13870674D02*
X12403205Y-13861150D01*
X12403205Y-13861150D02*
X12431777Y-13861150D01*
X12431777Y-13861150D02*
X12450824Y-13870674D01*
X12450824Y-13870674D02*
X12460348Y-13889722D01*
X12460348Y-13889722D02*
X12460348Y-13994484D01*
X12555586Y-13994484D02*
X12555586Y-13861150D01*
X12555586Y-13880198D02*
X12565110Y-13870674D01*
X12565110Y-13870674D02*
X12584158Y-13861150D01*
X12584158Y-13861150D02*
X12612729Y-13861150D01*
X12612729Y-13861150D02*
X12631777Y-13870674D01*
X12631777Y-13870674D02*
X12641301Y-13889722D01*
X12641301Y-13889722D02*
X12641301Y-13994484D01*
X12641301Y-13889722D02*
X12650824Y-13870674D01*
X12650824Y-13870674D02*
X12669872Y-13861150D01*
X12669872Y-13861150D02*
X12698443Y-13861150D01*
X12698443Y-13861150D02*
X12717491Y-13870674D01*
X12717491Y-13870674D02*
X12727015Y-13889722D01*
X12727015Y-13889722D02*
X12727015Y-13994484D01*
X13117491Y-13784960D02*
X12946063Y-14042103D01*
X13374634Y-13794484D02*
X13393682Y-13794484D01*
X13393682Y-13794484D02*
X13412729Y-13804008D01*
X13412729Y-13804008D02*
X13422253Y-13813531D01*
X13422253Y-13813531D02*
X13431777Y-13832579D01*
X13431777Y-13832579D02*
X13441301Y-13870674D01*
X13441301Y-13870674D02*
X13441301Y-13918293D01*
X13441301Y-13918293D02*
X13431777Y-13956388D01*
X13431777Y-13956388D02*
X13422253Y-13975436D01*
X13422253Y-13975436D02*
X13412729Y-13984960D01*
X13412729Y-13984960D02*
X13393682Y-13994484D01*
X13393682Y-13994484D02*
X13374634Y-13994484D01*
X13374634Y-13994484D02*
X13355586Y-13984960D01*
X13355586Y-13984960D02*
X13346063Y-13975436D01*
X13346063Y-13975436D02*
X13336539Y-13956388D01*
X13336539Y-13956388D02*
X13327015Y-13918293D01*
X13327015Y-13918293D02*
X13327015Y-13870674D01*
X13327015Y-13870674D02*
X13336539Y-13832579D01*
X13336539Y-13832579D02*
X13346063Y-13813531D01*
X13346063Y-13813531D02*
X13355586Y-13804008D01*
X13355586Y-13804008D02*
X13374634Y-13794484D01*
X13527015Y-13975436D02*
X13536539Y-13984960D01*
X13536539Y-13984960D02*
X13527015Y-13994484D01*
X13527015Y-13994484D02*
X13517491Y-13984960D01*
X13517491Y-13984960D02*
X13527015Y-13975436D01*
X13527015Y-13975436D02*
X13527015Y-13994484D01*
X13660348Y-13794484D02*
X13679396Y-13794484D01*
X13679396Y-13794484D02*
X13698444Y-13804008D01*
X13698444Y-13804008D02*
X13707967Y-13813531D01*
X13707967Y-13813531D02*
X13717491Y-13832579D01*
X13717491Y-13832579D02*
X13727015Y-13870674D01*
X13727015Y-13870674D02*
X13727015Y-13918293D01*
X13727015Y-13918293D02*
X13717491Y-13956388D01*
X13717491Y-13956388D02*
X13707967Y-13975436D01*
X13707967Y-13975436D02*
X13698444Y-13984960D01*
X13698444Y-13984960D02*
X13679396Y-13994484D01*
X13679396Y-13994484D02*
X13660348Y-13994484D01*
X13660348Y-13994484D02*
X13641301Y-13984960D01*
X13641301Y-13984960D02*
X13631777Y-13975436D01*
X13631777Y-13975436D02*
X13622253Y-13956388D01*
X13622253Y-13956388D02*
X13612729Y-13918293D01*
X13612729Y-13918293D02*
X13612729Y-13870674D01*
X13612729Y-13870674D02*
X13622253Y-13832579D01*
X13622253Y-13832579D02*
X13631777Y-13813531D01*
X13631777Y-13813531D02*
X13641301Y-13804008D01*
X13641301Y-13804008D02*
X13660348Y-13794484D01*
X13907967Y-13794484D02*
X13812729Y-13794484D01*
X13812729Y-13794484D02*
X13803206Y-13889722D01*
X13803206Y-13889722D02*
X13812729Y-13880198D01*
X13812729Y-13880198D02*
X13831777Y-13870674D01*
X13831777Y-13870674D02*
X13879396Y-13870674D01*
X13879396Y-13870674D02*
X13898444Y-13880198D01*
X13898444Y-13880198D02*
X13907967Y-13889722D01*
X13907967Y-13889722D02*
X13917491Y-13908769D01*
X13917491Y-13908769D02*
X13917491Y-13956388D01*
X13917491Y-13956388D02*
X13907967Y-13975436D01*
X13907967Y-13975436D02*
X13898444Y-13984960D01*
X13898444Y-13984960D02*
X13879396Y-13994484D01*
X13879396Y-13994484D02*
X13831777Y-13994484D01*
X13831777Y-13994484D02*
X13812729Y-13984960D01*
X13812729Y-13984960D02*
X13803206Y-13975436D01*
X14107967Y-13994484D02*
X13993682Y-13994484D01*
X14050825Y-13994484D02*
X14050825Y-13794484D01*
X14050825Y-13794484D02*
X14031777Y-13823055D01*
X14031777Y-13823055D02*
X14012729Y-13842103D01*
X14012729Y-13842103D02*
X13993682Y-13851627D01*
X14184158Y-13813531D02*
X14193682Y-13804008D01*
X14193682Y-13804008D02*
X14212729Y-13794484D01*
X14212729Y-13794484D02*
X14260348Y-13794484D01*
X14260348Y-13794484D02*
X14279396Y-13804008D01*
X14279396Y-13804008D02*
X14288920Y-13813531D01*
X14288920Y-13813531D02*
X14298444Y-13832579D01*
X14298444Y-13832579D02*
X14298444Y-13851627D01*
X14298444Y-13851627D02*
X14288920Y-13880198D01*
X14288920Y-13880198D02*
X14174634Y-13994484D01*
X14174634Y-13994484D02*
X14298444Y-13994484D01*
X14374634Y-13794484D02*
X14374634Y-13832579D01*
X14450825Y-13794484D02*
X14450825Y-13832579D01*
X14746063Y-14070674D02*
X14736539Y-14061150D01*
X14736539Y-14061150D02*
X14717491Y-14032579D01*
X14717491Y-14032579D02*
X14707968Y-14013531D01*
X14707968Y-14013531D02*
X14698444Y-13984960D01*
X14698444Y-13984960D02*
X14688920Y-13937341D01*
X14688920Y-13937341D02*
X14688920Y-13899246D01*
X14688920Y-13899246D02*
X14698444Y-13851627D01*
X14698444Y-13851627D02*
X14707968Y-13823055D01*
X14707968Y-13823055D02*
X14717491Y-13804008D01*
X14717491Y-13804008D02*
X14736539Y-13775436D01*
X14736539Y-13775436D02*
X14746063Y-13765912D01*
X14927015Y-13994484D02*
X14812729Y-13994484D01*
X14869872Y-13994484D02*
X14869872Y-13794484D01*
X14869872Y-13794484D02*
X14850825Y-13823055D01*
X14850825Y-13823055D02*
X14831777Y-13842103D01*
X14831777Y-13842103D02*
X14812729Y-13851627D01*
X15117491Y-13994484D02*
X15003206Y-13994484D01*
X15060348Y-13994484D02*
X15060348Y-13794484D01*
X15060348Y-13794484D02*
X15041301Y-13823055D01*
X15041301Y-13823055D02*
X15022253Y-13842103D01*
X15022253Y-13842103D02*
X15003206Y-13851627D01*
X15355587Y-13994484D02*
X15355587Y-13794484D01*
X15441301Y-13994484D02*
X15441301Y-13889722D01*
X15441301Y-13889722D02*
X15431777Y-13870674D01*
X15431777Y-13870674D02*
X15412730Y-13861150D01*
X15412730Y-13861150D02*
X15384158Y-13861150D01*
X15384158Y-13861150D02*
X15365110Y-13870674D01*
X15365110Y-13870674D02*
X15355587Y-13880198D01*
X15565110Y-13994484D02*
X15546063Y-13984960D01*
X15546063Y-13984960D02*
X15536539Y-13975436D01*
X15536539Y-13975436D02*
X15527015Y-13956388D01*
X15527015Y-13956388D02*
X15527015Y-13899246D01*
X15527015Y-13899246D02*
X15536539Y-13880198D01*
X15536539Y-13880198D02*
X15546063Y-13870674D01*
X15546063Y-13870674D02*
X15565110Y-13861150D01*
X15565110Y-13861150D02*
X15593682Y-13861150D01*
X15593682Y-13861150D02*
X15612730Y-13870674D01*
X15612730Y-13870674D02*
X15622253Y-13880198D01*
X15622253Y-13880198D02*
X15631777Y-13899246D01*
X15631777Y-13899246D02*
X15631777Y-13956388D01*
X15631777Y-13956388D02*
X15622253Y-13975436D01*
X15622253Y-13975436D02*
X15612730Y-13984960D01*
X15612730Y-13984960D02*
X15593682Y-13994484D01*
X15593682Y-13994484D02*
X15565110Y-13994484D01*
X15746063Y-13994484D02*
X15727015Y-13984960D01*
X15727015Y-13984960D02*
X15717491Y-13965912D01*
X15717491Y-13965912D02*
X15717491Y-13794484D01*
X15898444Y-13984960D02*
X15879396Y-13994484D01*
X15879396Y-13994484D02*
X15841301Y-13994484D01*
X15841301Y-13994484D02*
X15822253Y-13984960D01*
X15822253Y-13984960D02*
X15812730Y-13965912D01*
X15812730Y-13965912D02*
X15812730Y-13889722D01*
X15812730Y-13889722D02*
X15822253Y-13870674D01*
X15822253Y-13870674D02*
X15841301Y-13861150D01*
X15841301Y-13861150D02*
X15879396Y-13861150D01*
X15879396Y-13861150D02*
X15898444Y-13870674D01*
X15898444Y-13870674D02*
X15907968Y-13889722D01*
X15907968Y-13889722D02*
X15907968Y-13908769D01*
X15907968Y-13908769D02*
X15812730Y-13927817D01*
X15984158Y-13984960D02*
X16003206Y-13994484D01*
X16003206Y-13994484D02*
X16041301Y-13994484D01*
X16041301Y-13994484D02*
X16060349Y-13984960D01*
X16060349Y-13984960D02*
X16069872Y-13965912D01*
X16069872Y-13965912D02*
X16069872Y-13956388D01*
X16069872Y-13956388D02*
X16060349Y-13937341D01*
X16060349Y-13937341D02*
X16041301Y-13927817D01*
X16041301Y-13927817D02*
X16012730Y-13927817D01*
X16012730Y-13927817D02*
X15993682Y-13918293D01*
X15993682Y-13918293D02*
X15984158Y-13899246D01*
X15984158Y-13899246D02*
X15984158Y-13889722D01*
X15984158Y-13889722D02*
X15993682Y-13870674D01*
X15993682Y-13870674D02*
X16012730Y-13861150D01*
X16012730Y-13861150D02*
X16041301Y-13861150D01*
X16041301Y-13861150D02*
X16060349Y-13870674D01*
X16136539Y-14070674D02*
X16146063Y-14061150D01*
X16146063Y-14061150D02*
X16165111Y-14032579D01*
X16165111Y-14032579D02*
X16174634Y-14013531D01*
X16174634Y-14013531D02*
X16184158Y-13984960D01*
X16184158Y-13984960D02*
X16193682Y-13937341D01*
X16193682Y-13937341D02*
X16193682Y-13899246D01*
X16193682Y-13899246D02*
X16184158Y-13851627D01*
X16184158Y-13851627D02*
X16174634Y-13823055D01*
X16174634Y-13823055D02*
X16165111Y-13804008D01*
X16165111Y-13804008D02*
X16146063Y-13775436D01*
X16146063Y-13775436D02*
X16136539Y-13765912D01*
M02*
