%TF.GenerationSoftware,KiCad,Pcbnew,7.0.9*%
%TF.CreationDate,2023-12-21T11:10:09+01:00*%
%TF.ProjectId,OptiprodV2,4f707469-7072-46f6-9456-322e6b696361,rev?*%
%TF.SameCoordinates,Original*%
%TF.FileFunction,Copper,L1,Top*%
%TF.FilePolarity,Positive*%
%FSLAX46Y46*%
G04 Gerber Fmt 4.6, Leading zero omitted, Abs format (unit mm)*
G04 Created by KiCad (PCBNEW 7.0.9) date 2023-12-21 11:10:09*
%MOMM*%
%LPD*%
G01*
G04 APERTURE LIST*
%TA.AperFunction,ComponentPad*%
%ADD10C,2.000000*%
%TD*%
%TA.AperFunction,ComponentPad*%
%ADD11C,2.600000*%
%TD*%
%TA.AperFunction,ComponentPad*%
%ADD12R,1.800000X1.800000*%
%TD*%
%TA.AperFunction,ComponentPad*%
%ADD13O,1.800000X1.800000*%
%TD*%
%TA.AperFunction,ComponentPad*%
%ADD14O,1.727200X1.727200*%
%TD*%
%TA.AperFunction,ComponentPad*%
%ADD15R,1.727200X1.727200*%
%TD*%
%TA.AperFunction,ComponentPad*%
%ADD16C,1.400000*%
%TD*%
%TA.AperFunction,ComponentPad*%
%ADD17O,1.400000X1.400000*%
%TD*%
%TA.AperFunction,ComponentPad*%
%ADD18R,1.600000X1.600000*%
%TD*%
%TA.AperFunction,ComponentPad*%
%ADD19O,1.600000X1.600000*%
%TD*%
%TA.AperFunction,ComponentPad*%
%ADD20R,1.500000X1.500000*%
%TD*%
%TA.AperFunction,ComponentPad*%
%ADD21C,1.500000*%
%TD*%
%TA.AperFunction,ComponentPad*%
%ADD22C,1.440000*%
%TD*%
%TA.AperFunction,Conductor*%
%ADD23C,0.250000*%
%TD*%
G04 APERTURE END LIST*
D10*
%TO.P,SDA2,1,1*%
%TO.N,Net-(A2-PadSDA)*%
X172720000Y-78740000D03*
%TD*%
D11*
%TO.P,SCL1,1,1*%
%TO.N,Net-(A2-D21{slash}SCL)*%
X205740000Y-63500000D03*
%TD*%
%TO.P,SDA1,1,1*%
%TO.N,Net-(A2-D20{slash}SDA)*%
X205740000Y-68580000D03*
%TD*%
%TO.P,SDO1,1,1*%
%TO.N,unconnected-(SDO1-Pad1)*%
X205740000Y-73660000D03*
%TD*%
D12*
%TO.P,DZ6,1,K*%
%TO.N,GND*%
X115570000Y-72830000D03*
D13*
%TO.P,DZ6,2,A*%
%TO.N,Net-(DZ5-A)*%
X128270000Y-72830000D03*
%TD*%
D14*
%TO.P,A2,*%
%TO.N,*%
X124460000Y-106680000D03*
%TO.P,A2,3V3,3.3V*%
%TO.N,VCC*%
X132080000Y-106680000D03*
%TO.P,A2,5V1,5V*%
%TO.N,VCCQ*%
X134620000Y-106680000D03*
%TO.P,A2,5V2,SPI_5V*%
%TO.N,unconnected-(A2-SPI_5V-Pad5V2)*%
X162687000Y-78740000D03*
%TO.P,A2,5V3,5V*%
%TO.N,VCCQ*%
X190500000Y-58420000D03*
%TO.P,A2,5V4,5V*%
X193040000Y-58420000D03*
%TO.P,A2,A0,A0*%
%TO.N,Net-(MCP602B--)*%
X147320000Y-106680000D03*
%TO.P,A2,A1,A1*%
%TO.N,Net-(DS18B20-DQ)*%
X149860000Y-106680000D03*
%TO.P,A2,A2,A2*%
%TO.N,unconnected-(A2-PadA2)*%
X152400000Y-106680000D03*
%TO.P,A2,A3,A3*%
%TO.N,unconnected-(A2-PadA3)*%
X154940000Y-106680000D03*
%TO.P,A2,A4,A4*%
%TO.N,unconnected-(A2-PadA4)*%
X157480000Y-106680000D03*
%TO.P,A2,A5,A5*%
%TO.N,unconnected-(A2-PadA5)*%
X160020000Y-106680000D03*
%TO.P,A2,A6,A6*%
%TO.N,unconnected-(A2-PadA6)*%
X162560000Y-106680000D03*
%TO.P,A2,A7,A7*%
%TO.N,unconnected-(A2-PadA7)*%
X165100000Y-106680000D03*
%TO.P,A2,A8,A8*%
%TO.N,unconnected-(A2-PadA8)*%
X170180000Y-106680000D03*
%TO.P,A2,A9,A9*%
%TO.N,unconnected-(A2-PadA9)*%
X172720000Y-106680000D03*
%TO.P,A2,A10,A10*%
%TO.N,unconnected-(A2-PadA10)*%
X175260000Y-106680000D03*
%TO.P,A2,A11,A11*%
%TO.N,unconnected-(A2-PadA11)*%
X177800000Y-106680000D03*
%TO.P,A2,A12,A12*%
%TO.N,unconnected-(A2-PadA12)*%
X180340000Y-106680000D03*
%TO.P,A2,A13,A13*%
%TO.N,unconnected-(A2-PadA13)*%
X182880000Y-106680000D03*
%TO.P,A2,A14,A14*%
%TO.N,unconnected-(A2-PadA14)*%
X185420000Y-106680000D03*
%TO.P,A2,A15,A15*%
%TO.N,unconnected-(A2-PadA15)*%
X187960000Y-106680000D03*
%TO.P,A2,AREF,AREF*%
%TO.N,unconnected-(A2-PadAREF)*%
X120396000Y-58420000D03*
%TO.P,A2,D0,D0/RX0*%
%TO.N,unconnected-(A2-D0{slash}RX0-PadD0)*%
X160020000Y-58420000D03*
%TO.P,A2,D1,D1/TX0*%
%TO.N,unconnected-(A2-D1{slash}TX0-PadD1)*%
X157480000Y-58420000D03*
%TO.P,A2,D2,D2_INT0*%
%TO.N,unconnected-(A2-D2_INT0-PadD2)*%
X154940000Y-58420000D03*
%TO.P,A2,D3,D3_INT1*%
%TO.N,unconnected-(A2-D3_INT1-PadD3)*%
X152400000Y-58420000D03*
%TO.P,A2,D4,D4*%
%TO.N,unconnected-(A2-PadD4)*%
X149860000Y-58420000D03*
%TO.P,A2,D5,D5*%
%TO.N,unconnected-(A2-PadD5)*%
X147320000Y-58420000D03*
%TO.P,A2,D6,D6*%
%TO.N,unconnected-(A2-PadD6)*%
X144780000Y-58420000D03*
%TO.P,A2,D7,D7*%
%TO.N,unconnected-(A2-PadD7)*%
X142240000Y-58420000D03*
%TO.P,A2,D8,D8*%
%TO.N,unconnected-(A2-PadD8)*%
X138176000Y-58420000D03*
%TO.P,A2,D9,D9*%
%TO.N,unconnected-(A2-PadD9)*%
X135636000Y-58420000D03*
%TO.P,A2,D10,D10*%
%TO.N,unconnected-(A2-PadD10)*%
X133096000Y-58420000D03*
%TO.P,A2,D11,D11*%
%TO.N,unconnected-(A2-PadD11)*%
X130556000Y-58420000D03*
%TO.P,A2,D12,D12*%
%TO.N,unconnected-(A2-PadD12)*%
X128016000Y-58420000D03*
%TO.P,A2,D13,D13*%
%TO.N,unconnected-(A2-PadD13)*%
X125476000Y-58420000D03*
%TO.P,A2,D14,D14/TX3*%
%TO.N,unconnected-(A2-D14{slash}TX3-PadD14)*%
X165100000Y-58420000D03*
%TO.P,A2,D15,D15/RX3*%
%TO.N,unconnected-(A2-D15{slash}RX3-PadD15)*%
X167640000Y-58420000D03*
%TO.P,A2,D16,D16/TX2*%
%TO.N,unconnected-(A2-D16{slash}TX2-PadD16)*%
X170180000Y-58420000D03*
%TO.P,A2,D17,D17/RX2*%
%TO.N,unconnected-(A2-D17{slash}RX2-PadD17)*%
X172720000Y-58420000D03*
%TO.P,A2,D18,D18/TX1*%
%TO.N,unconnected-(A2-D18{slash}TX1-PadD18)*%
X175260000Y-58420000D03*
%TO.P,A2,D19,D19/RX1*%
%TO.N,unconnected-(A2-D19{slash}RX1-PadD19)*%
X177800000Y-58420000D03*
%TO.P,A2,D20,D20/SDA*%
%TO.N,Net-(A2-D20{slash}SDA)*%
X180340000Y-58420000D03*
%TO.P,A2,D21,D21/SCL*%
%TO.N,Net-(A2-D21{slash}SCL)*%
X182880000Y-58420000D03*
%TO.P,A2,D22,D22*%
%TO.N,unconnected-(A2-PadD22)*%
X190500000Y-60960000D03*
%TO.P,A2,D23,D23*%
%TO.N,unconnected-(A2-PadD23)*%
X193040000Y-60960000D03*
%TO.P,A2,D24,D24*%
%TO.N,unconnected-(A2-PadD24)*%
X190500000Y-63500000D03*
%TO.P,A2,D25,D25*%
%TO.N,unconnected-(A2-PadD25)*%
X193040000Y-63500000D03*
%TO.P,A2,D26,D26*%
%TO.N,unconnected-(A2-PadD26)*%
X190500000Y-66040000D03*
%TO.P,A2,D27,D27*%
%TO.N,unconnected-(A2-PadD27)*%
X193040000Y-66040000D03*
%TO.P,A2,D28,D28*%
%TO.N,unconnected-(A2-PadD28)*%
X190500000Y-68580000D03*
%TO.P,A2,D29,D29*%
%TO.N,unconnected-(A2-PadD29)*%
X193040000Y-68580000D03*
%TO.P,A2,D30,D30*%
%TO.N,unconnected-(A2-PadD30)*%
X190500000Y-71120000D03*
%TO.P,A2,D31,D31*%
%TO.N,unconnected-(A2-PadD31)*%
X193040000Y-71120000D03*
%TO.P,A2,D32,D32*%
%TO.N,unconnected-(A2-PadD32)*%
X190500000Y-73660000D03*
%TO.P,A2,D33,D33*%
%TO.N,unconnected-(A2-PadD33)*%
X193040000Y-73660000D03*
%TO.P,A2,D34,D34*%
%TO.N,unconnected-(A2-PadD34)*%
X190500000Y-76200000D03*
%TO.P,A2,D35,D35*%
%TO.N,unconnected-(A2-PadD35)*%
X193040000Y-76200000D03*
%TO.P,A2,D36,D36*%
%TO.N,unconnected-(A2-PadD36)*%
X190500000Y-78740000D03*
%TO.P,A2,D37,D37*%
%TO.N,unconnected-(A2-PadD37)*%
X193040000Y-78740000D03*
%TO.P,A2,D38,D38*%
%TO.N,unconnected-(A2-PadD38)*%
X190500000Y-81280000D03*
%TO.P,A2,D39,D39*%
%TO.N,unconnected-(A2-PadD39)*%
X193040000Y-81280000D03*
%TO.P,A2,D40,D40*%
%TO.N,unconnected-(A2-PadD40)*%
X190500000Y-83820000D03*
%TO.P,A2,D41,D41*%
%TO.N,unconnected-(A2-PadD41)*%
X193040000Y-83820000D03*
%TO.P,A2,D42,D42*%
%TO.N,unconnected-(A2-PadD42)*%
X190500000Y-86360000D03*
%TO.P,A2,D43,D43*%
%TO.N,unconnected-(A2-PadD43)*%
X193040000Y-86360000D03*
%TO.P,A2,D44,D44*%
%TO.N,unconnected-(A2-PadD44)*%
X190500000Y-88900000D03*
%TO.P,A2,D45,D45*%
%TO.N,unconnected-(A2-PadD45)*%
X193040000Y-88900000D03*
%TO.P,A2,D46,D46*%
%TO.N,unconnected-(A2-PadD46)*%
X190500000Y-91440000D03*
%TO.P,A2,D47,D47*%
%TO.N,unconnected-(A2-PadD47)*%
X193040000Y-91440000D03*
%TO.P,A2,D48,D48*%
%TO.N,unconnected-(A2-PadD48)*%
X190500000Y-93980000D03*
%TO.P,A2,D49,D49*%
%TO.N,unconnected-(A2-PadD49)*%
X193040000Y-93980000D03*
%TO.P,A2,D50,D50_MISO*%
%TO.N,unconnected-(A2-D50_MISO-PadD50)*%
X190500000Y-96520000D03*
%TO.P,A2,D51,D51_MOSI*%
%TO.N,unconnected-(A2-D51_MOSI-PadD51)*%
X193040000Y-96520000D03*
%TO.P,A2,D52,D52_SCK*%
%TO.N,unconnected-(A2-D52_SCK-PadD52)*%
X190500000Y-99060000D03*
%TO.P,A2,D53,D53_CS*%
%TO.N,unconnected-(A2-D53_CS-PadD53)*%
X193040000Y-99060000D03*
D15*
%TO.P,A2,GND1,GND*%
%TO.N,GND*%
X122936000Y-58420000D03*
%TO.P,A2,GND2,GND*%
X137160000Y-106680000D03*
%TO.P,A2,GND3,GND*%
X139700000Y-106680000D03*
%TO.P,A2,GND4,SPI_GND*%
%TO.N,unconnected-(A2-SPI_GND-PadGND4)*%
X162687000Y-83820000D03*
%TO.P,A2,GND5,GND*%
%TO.N,GND*%
X190500000Y-101600000D03*
%TO.P,A2,GND6,GND*%
X193040000Y-101600000D03*
D14*
%TO.P,A2,IORF,IOREF*%
%TO.N,unconnected-(A2-IOREF-PadIORF)*%
X127000000Y-106680000D03*
%TO.P,A2,MISO,SPI_MISO*%
%TO.N,unconnected-(A2-SPI_MISO-PadMISO)*%
X160147000Y-78740000D03*
%TO.P,A2,MOSI,SPI_MOSI*%
%TO.N,unconnected-(A2-SPI_MOSI-PadMOSI)*%
X162687000Y-81280000D03*
%TO.P,A2,RST1,RESET*%
%TO.N,unconnected-(A2-RESET-PadRST1)*%
X129540000Y-106680000D03*
%TO.P,A2,RST2,SPI_RESET*%
%TO.N,unconnected-(A2-SPI_RESET-PadRST2)*%
X160147000Y-83820000D03*
%TO.P,A2,SCK,SPI_SCK*%
%TO.N,unconnected-(A2-SPI_SCK-PadSCK)*%
X160147000Y-81280000D03*
%TO.P,A2,SCL,SCL*%
%TO.N,Net-(A2-PadSCL)*%
X115316000Y-58420000D03*
%TO.P,A2,SDA,SDA*%
%TO.N,Net-(A2-PadSDA)*%
X117856000Y-58420000D03*
%TO.P,A2,VIN,VIN*%
%TO.N,unconnected-(A2-PadVIN)*%
X142240000Y-106680000D03*
%TD*%
D10*
%TO.P,GNDS1,1,1*%
%TO.N,GND*%
X172720000Y-86360000D03*
%TD*%
D11*
%TO.P,GNDIN2,1,1*%
%TO.N,GND*%
X205740000Y-58420000D03*
%TD*%
D16*
%TO.P,4.7K1,1*%
%TO.N,VCC*%
X127000000Y-88900000D03*
D17*
%TO.P,4.7K1,2*%
%TO.N,Net-(DS18B20-DQ)*%
X134620000Y-88900000D03*
%TD*%
D11*
%TO.P,A1,1,1*%
%TO.N,Net-(DS18B20-DQ)*%
X205740000Y-104140000D03*
%TD*%
D16*
%TO.P,1K2,1*%
%TO.N,GND*%
X127000000Y-83820000D03*
D17*
%TO.P,1K2,2*%
%TO.N,Net-(1K1-Right)*%
X134620000Y-83820000D03*
%TD*%
D16*
%TO.P,51K1,1*%
%TO.N,Net-(1K1-Center)*%
X127000000Y-93980000D03*
D17*
%TO.P,51K1,2*%
%TO.N,Net-(MCP602B-+)*%
X134620000Y-93980000D03*
%TD*%
D11*
%TO.P,GND1,1,1*%
%TO.N,GND*%
X205740000Y-109220000D03*
%TD*%
D18*
%TO.P,MCP602,1*%
%TO.N,Net-(MCP602B-+)*%
X114300000Y-81280000D03*
D19*
%TO.P,MCP602,2,-*%
%TO.N,Net-(1K1-Center)*%
X114300000Y-83820000D03*
%TO.P,MCP602,3,+*%
%TO.N,Net-(DZ5-K)*%
X114300000Y-86360000D03*
%TO.P,MCP602,4,V-*%
%TO.N,GND*%
X114300000Y-88900000D03*
%TO.P,MCP602,5,+*%
%TO.N,Net-(MCP602B-+)*%
X121920000Y-88900000D03*
%TO.P,MCP602,6,-*%
%TO.N,Net-(MCP602B--)*%
X121920000Y-86360000D03*
%TO.P,MCP602,7*%
X121920000Y-83820000D03*
%TO.P,MCP602,8,V+*%
%TO.N,VCCQ*%
X121920000Y-81280000D03*
%TD*%
D11*
%TO.P,CS1,1,1*%
%TO.N,unconnected-(CS1-Pad1)*%
X205740000Y-78740000D03*
%TD*%
D20*
%TO.P,DS18B20,1,GND*%
%TO.N,GND*%
X134620000Y-73660000D03*
D21*
%TO.P,DS18B20,2,DQ*%
%TO.N,Net-(DS18B20-DQ)*%
X134620000Y-71120000D03*
%TO.P,DS18B20,3,V_{DD}*%
%TO.N,VCC*%
X134620000Y-68580000D03*
%TD*%
D11*
%TO.P,VCC1,1,1*%
%TO.N,VCC*%
X205740000Y-53340000D03*
%TD*%
D12*
%TO.P,DZ5,1,K*%
%TO.N,Net-(DZ5-K)*%
X115570000Y-68580000D03*
D13*
%TO.P,DZ5,2,A*%
%TO.N,Net-(DZ5-A)*%
X128270000Y-68580000D03*
%TD*%
D10*
%TO.P,Follower1,1,1*%
%TO.N,Net-(MCP602B--)*%
X141610000Y-82550000D03*
%TD*%
%TO.P,SCL2,1,1*%
%TO.N,Net-(A2-PadSCL)*%
X172720000Y-81280000D03*
%TD*%
%TO.P,Follower2,1,1*%
%TO.N,Net-(MCP602B-+)*%
X144150000Y-82550000D03*
%TD*%
%TO.P,VCCS1,1,1*%
%TO.N,VCCQ*%
X172720000Y-83820000D03*
%TD*%
D11*
%TO.P,3.3V1,1,1*%
%TO.N,VCC*%
X205740000Y-96520000D03*
%TD*%
%TO.P,GNDIN1,1,1*%
%TO.N,GND*%
X205740000Y-86360000D03*
%TD*%
%TO.P,IN1,1,1*%
%TO.N,Net-(DZ5-K)*%
X205740000Y-91440000D03*
%TD*%
D22*
%TO.P,1K1,1,Left*%
%TO.N,unconnected-(1K1-Left-Pad1)*%
X180340000Y-63500000D03*
%TO.P,1K1,2,Center*%
%TO.N,Net-(1K1-Center)*%
X177800000Y-63500000D03*
%TO.P,1K1,3,Right*%
%TO.N,Net-(1K1-Right)*%
X175260000Y-63500000D03*
%TD*%
D23*
%TO.N,GND*%
X116795000Y-71605000D02*
X115570000Y-72830000D01*
X116795000Y-67355000D02*
X116795000Y-71605000D01*
X112725000Y-87325000D02*
X112725000Y-68975000D01*
X112725000Y-68975000D02*
X114345000Y-67355000D01*
X114345000Y-67355000D02*
X116795000Y-67355000D01*
X114300000Y-88900000D02*
X112725000Y-87325000D01*
X114300000Y-98935000D02*
X114300000Y-88900000D01*
X123233600Y-107868600D02*
X114300000Y-98935000D01*
X135971400Y-107868600D02*
X123233600Y-107868600D01*
X137160000Y-106680000D02*
X135971400Y-107868600D01*
X116010000Y-72830000D02*
X115570000Y-72830000D01*
X127000000Y-83820000D02*
X116010000Y-72830000D01*
%TO.N,Net-(DS18B20-DQ)*%
X152400000Y-104140000D02*
X149860000Y-106680000D01*
X205740000Y-104140000D02*
X152400000Y-104140000D01*
%TO.N,VCC*%
X207365000Y-94895000D02*
X205740000Y-96520000D01*
X205740000Y-53340000D02*
X207365000Y-54965000D01*
X207365000Y-54965000D02*
X207365000Y-94895000D01*
%TO.N,VCCQ*%
X156291400Y-85008600D02*
X134620000Y-106680000D01*
X172720000Y-83820000D02*
X171531400Y-85008600D01*
X171531400Y-85008600D02*
X156291400Y-85008600D01*
%TO.N,Net-(MCP602B-+)*%
X128449569Y-93980000D02*
X134620000Y-93980000D01*
X123369569Y-88900000D02*
X128449569Y-93980000D01*
X121920000Y-88900000D02*
X123369569Y-88900000D01*
X144150000Y-84450000D02*
X144150000Y-82550000D01*
X134620000Y-93980000D02*
X144150000Y-84450000D01*
%TO.N,Net-(MCP602B--)*%
X126575431Y-89925000D02*
X121920000Y-85269569D01*
X121920000Y-85269569D02*
X121920000Y-83820000D01*
X141610000Y-83964213D02*
X135649213Y-89925000D01*
X135649213Y-89925000D02*
X126575431Y-89925000D01*
X141610000Y-82550000D02*
X141610000Y-83964213D01*
%TO.N,VCC*%
X131630000Y-84270000D02*
X131630000Y-71570000D01*
X127000000Y-88900000D02*
X131630000Y-84270000D01*
X131630000Y-71570000D02*
X134620000Y-68580000D01*
%TO.N,Net-(DS18B20-DQ)*%
X132080000Y-86360000D02*
X134620000Y-88900000D01*
X132080000Y-73660000D02*
X132080000Y-86360000D01*
X134620000Y-71120000D02*
X132080000Y-73660000D01*
%TO.N,Net-(A2-D20{slash}SDA)*%
X186608600Y-64688600D02*
X201848600Y-64688600D01*
X180340000Y-58420000D02*
X186608600Y-64688600D01*
X201848600Y-64688600D02*
X205740000Y-68580000D01*
%TO.N,Net-(A2-D21{slash}SCL)*%
X205740000Y-63500000D02*
X204440000Y-62200000D01*
X204440000Y-62200000D02*
X186660000Y-62200000D01*
X186660000Y-62200000D02*
X182880000Y-58420000D01*
%TO.N,VCC*%
X114127400Y-58912335D02*
X114127400Y-57927665D01*
X116175065Y-60960000D02*
X114127400Y-58912335D01*
X114127400Y-57927665D02*
X118715065Y-53340000D01*
X127000000Y-60960000D02*
X116175065Y-60960000D01*
X118715065Y-53340000D02*
X205740000Y-53340000D01*
X134620000Y-68580000D02*
X127000000Y-60960000D01*
%TO.N,Net-(A2-PadSDA)*%
X151048600Y-58912335D02*
X170876265Y-78740000D01*
X150352335Y-57231400D02*
X151048600Y-57927665D01*
X151048600Y-57927665D02*
X151048600Y-58912335D01*
X119044600Y-57231400D02*
X150352335Y-57231400D01*
X117856000Y-58420000D02*
X119044600Y-57231400D01*
X170876265Y-78740000D02*
X172720000Y-78740000D01*
%TO.N,Net-(A2-PadSCL)*%
X167386928Y-81280000D02*
X172720000Y-81280000D01*
X116504600Y-59608600D02*
X145715528Y-59608600D01*
X145715528Y-59608600D02*
X167386928Y-81280000D01*
X115316000Y-58420000D02*
X116504600Y-59608600D01*
%TO.N,Net-(DZ5-K)*%
X114300000Y-86360000D02*
X113175000Y-85235000D01*
%TO.N,Net-(DZ5-A)*%
X128270000Y-68580000D02*
X128270000Y-72830000D01*
%TO.N,Net-(DZ5-K)*%
X113175000Y-70975000D02*
X115570000Y-68580000D01*
X113175000Y-85235000D02*
X113175000Y-70975000D01*
%TO.N,Net-(1K1-Center)*%
X124460000Y-93980000D02*
X127000000Y-93980000D01*
X114300000Y-83820000D02*
X124460000Y-93980000D01*
%TO.N,Net-(MCP602B-+)*%
X114300000Y-81280000D02*
X121920000Y-88900000D01*
%TO.N,Net-(MCP602B--)*%
X121920000Y-86360000D02*
X121920000Y-83820000D01*
%TD*%
M02*
