%TF.GenerationSoftware,KiCad,Pcbnew,7.0.5*%
%TF.CreationDate,2023-10-27T13:43:41+01:00*%
%TF.ProjectId,OptiprodV2,4f707469-7072-46f6-9456-322e6b696361,rev?*%
%TF.SameCoordinates,Original*%
%TF.FileFunction,Drillmap*%
%TF.FilePolarity,Positive*%
%FSLAX45Y45*%
G04 Gerber Fmt 4.5, Leading zero omitted, Abs format (unit mm)*
G04 Created by KiCad (PCBNEW 7.0.5) date 2023-10-27 13:43:41*
%MOMM*%
%LPD*%
G01*
G04 APERTURE LIST*
%ADD10C,0.100000*%
%ADD11C,0.200000*%
%ADD12C,0.070000*%
%ADD13C,0.075000*%
%ADD14C,0.080000*%
%ADD15C,0.090000*%
%ADD16C,0.101600*%
G04 APERTURE END LIST*
D10*
X10668000Y-5588000D02*
X19558000Y-5588000D01*
X19558000Y-10922000D01*
X10668000Y-10922000D01*
X10668000Y-5588000D01*
D11*
D12*
X12309400Y-6696000D02*
X12379400Y-6766000D01*
X12379400Y-6696000D02*
X12309400Y-6766000D01*
X12309400Y-7458000D02*
X12379400Y-7528000D01*
X12379400Y-7458000D02*
X12309400Y-7528000D01*
X12436400Y-9109000D02*
X12506400Y-9179000D01*
X12506400Y-9109000D02*
X12436400Y-9179000D01*
X12436400Y-9617000D02*
X12506400Y-9687000D01*
X12506400Y-9617000D02*
X12436400Y-9687000D01*
X13198400Y-9109000D02*
X13268400Y-9179000D01*
X13268400Y-9109000D02*
X13198400Y-9179000D01*
X13198400Y-9617000D02*
X13268400Y-9687000D01*
X13268400Y-9617000D02*
X13198400Y-9687000D01*
D13*
X16445900Y-6350000D02*
G75*
G03*
X16445900Y-6350000I-37500J0D01*
G01*
X16572900Y-6350000D02*
G75*
G03*
X16572900Y-6350000I-37500J0D01*
G01*
X16699900Y-6350000D02*
G75*
G03*
X16699900Y-6350000I-37500J0D01*
G01*
D14*
X11074400Y-8850000D02*
X11074400Y-8930000D01*
X11034400Y-8890000D02*
X11114400Y-8890000D01*
X11074400Y-9612000D02*
X11074400Y-9692000D01*
X11034400Y-9652000D02*
X11114400Y-9652000D01*
X11328400Y-8850000D02*
X11328400Y-8930000D01*
X11288400Y-8890000D02*
X11368400Y-8890000D01*
X11328400Y-9612000D02*
X11328400Y-9692000D01*
X11288400Y-9652000D02*
X11368400Y-9652000D01*
X11582400Y-8850000D02*
X11582400Y-8930000D01*
X11542400Y-8890000D02*
X11622400Y-8890000D01*
X11582400Y-9612000D02*
X11582400Y-9692000D01*
X11542400Y-9652000D02*
X11622400Y-9652000D01*
X11836400Y-8850000D02*
X11836400Y-8930000D01*
X11796400Y-8890000D02*
X11876400Y-8890000D01*
X11836400Y-9612000D02*
X11836400Y-9692000D01*
X11796400Y-9652000D02*
X11876400Y-9652000D01*
X17678400Y-10120000D02*
X17678400Y-10200000D01*
X17638400Y-10160000D02*
X17718400Y-10160000D01*
X17932400Y-10120000D02*
X17932400Y-10200000D01*
X17892400Y-10160000D02*
X17972400Y-10160000D01*
X18186400Y-10120000D02*
X18186400Y-10200000D01*
X18146400Y-10160000D02*
X18226400Y-10160000D01*
D15*
X11189220Y-6668820D02*
X11189220Y-6605180D01*
X11125580Y-6605180D01*
X11125580Y-6668820D01*
X11189220Y-6668820D01*
X11189220Y-7938820D02*
X11189220Y-7875180D01*
X11125580Y-7875180D01*
X11125580Y-7938820D01*
X11189220Y-7938820D01*
X11614220Y-6668820D02*
X11614220Y-6605180D01*
X11550580Y-6605180D01*
X11550580Y-6668820D01*
X11614220Y-6668820D01*
X11614220Y-7938820D02*
X11614220Y-7875180D01*
X11550580Y-7875180D01*
X11550580Y-7938820D01*
X11614220Y-7938820D01*
D10*
X11836400Y-8432000D02*
X11886400Y-8382000D01*
X11836400Y-8332000D01*
X11786400Y-8382000D01*
X11836400Y-8432000D01*
X12090400Y-8432000D02*
X12140400Y-8382000D01*
X12090400Y-8332000D01*
X12040400Y-8382000D01*
X12090400Y-8432000D01*
X17018000Y-9956000D02*
X17068000Y-9906000D01*
X17018000Y-9856000D01*
X16968000Y-9906000D01*
X17018000Y-9956000D01*
X17018000Y-10210000D02*
X17068000Y-10160000D01*
X17018000Y-10110000D01*
X16968000Y-10160000D01*
X17018000Y-10210000D01*
X17170400Y-6397000D02*
X17220400Y-6347000D01*
X17170400Y-6297000D01*
X17120400Y-6347000D01*
X17170400Y-6397000D01*
X17424400Y-6397000D02*
X17474400Y-6347000D01*
X17424400Y-6297000D01*
X17374400Y-6347000D01*
X17424400Y-6397000D01*
X17678400Y-6397000D02*
X17728400Y-6347000D01*
X17678400Y-6297000D01*
X17628400Y-6347000D01*
X17678400Y-6397000D01*
X17678400Y-7670000D02*
X17728400Y-7620000D01*
X17678400Y-7570000D01*
X17628400Y-7620000D01*
X17678400Y-7670000D01*
X17678400Y-7924000D02*
X17728400Y-7874000D01*
X17678400Y-7824000D01*
X17628400Y-7874000D01*
X17678400Y-7924000D01*
X17678400Y-8188000D02*
X17728400Y-8138000D01*
X17678400Y-8088000D01*
X17628400Y-8138000D01*
X17678400Y-8188000D01*
X17678400Y-8432000D02*
X17728400Y-8382000D01*
X17678400Y-8332000D01*
X17628400Y-8382000D01*
X17678400Y-8432000D01*
X17932400Y-6400000D02*
X17982400Y-6350000D01*
X17932400Y-6300000D01*
X17882400Y-6350000D01*
X17932400Y-6400000D01*
X18186400Y-6400000D02*
X18236400Y-6350000D01*
X18186400Y-6300000D01*
X18136400Y-6350000D01*
X18186400Y-6400000D01*
X18440400Y-6397000D02*
X18490400Y-6347000D01*
X18440400Y-6297000D01*
X18390400Y-6347000D01*
X18440400Y-6397000D01*
D16*
X11379200Y-5791200D02*
X11480800Y-5892800D01*
X11480800Y-5791200D02*
X11379200Y-5892800D01*
X11480800Y-5842000D02*
G75*
G03*
X11480800Y-5842000I-50800J0D01*
G01*
X11633200Y-5791200D02*
X11734800Y-5892800D01*
X11734800Y-5791200D02*
X11633200Y-5892800D01*
X11734800Y-5842000D02*
G75*
G03*
X11734800Y-5842000I-50800J0D01*
G01*
X11887200Y-5791200D02*
X11988800Y-5892800D01*
X11988800Y-5791200D02*
X11887200Y-5892800D01*
X11988800Y-5842000D02*
G75*
G03*
X11988800Y-5842000I-50800J0D01*
G01*
X12141200Y-5791200D02*
X12242800Y-5892800D01*
X12242800Y-5791200D02*
X12141200Y-5892800D01*
X12242800Y-5842000D02*
G75*
G03*
X12242800Y-5842000I-50800J0D01*
G01*
X12293600Y-10617200D02*
X12395200Y-10718800D01*
X12395200Y-10617200D02*
X12293600Y-10718800D01*
X12395200Y-10668000D02*
G75*
G03*
X12395200Y-10668000I-50800J0D01*
G01*
X12395200Y-5791200D02*
X12496800Y-5892800D01*
X12496800Y-5791200D02*
X12395200Y-5892800D01*
X12496800Y-5842000D02*
G75*
G03*
X12496800Y-5842000I-50800J0D01*
G01*
X12547600Y-10617200D02*
X12649200Y-10718800D01*
X12649200Y-10617200D02*
X12547600Y-10718800D01*
X12649200Y-10668000D02*
G75*
G03*
X12649200Y-10668000I-50800J0D01*
G01*
X12649200Y-5791200D02*
X12750800Y-5892800D01*
X12750800Y-5791200D02*
X12649200Y-5892800D01*
X12750800Y-5842000D02*
G75*
G03*
X12750800Y-5842000I-50800J0D01*
G01*
X12801600Y-10617200D02*
X12903200Y-10718800D01*
X12903200Y-10617200D02*
X12801600Y-10718800D01*
X12903200Y-10668000D02*
G75*
G03*
X12903200Y-10668000I-50800J0D01*
G01*
X12903200Y-5791200D02*
X13004800Y-5892800D01*
X13004800Y-5791200D02*
X12903200Y-5892800D01*
X13004800Y-5842000D02*
G75*
G03*
X13004800Y-5842000I-50800J0D01*
G01*
X13055600Y-10617200D02*
X13157200Y-10718800D01*
X13157200Y-10617200D02*
X13055600Y-10718800D01*
X13157200Y-10668000D02*
G75*
G03*
X13157200Y-10668000I-50800J0D01*
G01*
X13157200Y-5791200D02*
X13258800Y-5892800D01*
X13258800Y-5791200D02*
X13157200Y-5892800D01*
X13258800Y-5842000D02*
G75*
G03*
X13258800Y-5842000I-50800J0D01*
G01*
X13309600Y-10617200D02*
X13411200Y-10718800D01*
X13411200Y-10617200D02*
X13309600Y-10718800D01*
X13411200Y-10668000D02*
G75*
G03*
X13411200Y-10668000I-50800J0D01*
G01*
X13411200Y-5791200D02*
X13512800Y-5892800D01*
X13512800Y-5791200D02*
X13411200Y-5892800D01*
X13512800Y-5842000D02*
G75*
G03*
X13512800Y-5842000I-50800J0D01*
G01*
X13563600Y-10617200D02*
X13665200Y-10718800D01*
X13665200Y-10617200D02*
X13563600Y-10718800D01*
X13665200Y-10668000D02*
G75*
G03*
X13665200Y-10668000I-50800J0D01*
G01*
X13665200Y-5791200D02*
X13766800Y-5892800D01*
X13766800Y-5791200D02*
X13665200Y-5892800D01*
X13766800Y-5842000D02*
G75*
G03*
X13766800Y-5842000I-50800J0D01*
G01*
X13817600Y-10617200D02*
X13919200Y-10718800D01*
X13919200Y-10617200D02*
X13817600Y-10718800D01*
X13919200Y-10668000D02*
G75*
G03*
X13919200Y-10668000I-50800J0D01*
G01*
X14071600Y-5791200D02*
X14173200Y-5892800D01*
X14173200Y-5791200D02*
X14071600Y-5892800D01*
X14173200Y-5842000D02*
G75*
G03*
X14173200Y-5842000I-50800J0D01*
G01*
X14071600Y-10617200D02*
X14173200Y-10718800D01*
X14173200Y-10617200D02*
X14071600Y-10718800D01*
X14173200Y-10668000D02*
G75*
G03*
X14173200Y-10668000I-50800J0D01*
G01*
X14325600Y-5791200D02*
X14427200Y-5892800D01*
X14427200Y-5791200D02*
X14325600Y-5892800D01*
X14427200Y-5842000D02*
G75*
G03*
X14427200Y-5842000I-50800J0D01*
G01*
X14579600Y-5791200D02*
X14681200Y-5892800D01*
X14681200Y-5791200D02*
X14579600Y-5892800D01*
X14681200Y-5842000D02*
G75*
G03*
X14681200Y-5842000I-50800J0D01*
G01*
X14579600Y-10617200D02*
X14681200Y-10718800D01*
X14681200Y-10617200D02*
X14579600Y-10718800D01*
X14681200Y-10668000D02*
G75*
G03*
X14681200Y-10668000I-50800J0D01*
G01*
X14833600Y-5791200D02*
X14935200Y-5892800D01*
X14935200Y-5791200D02*
X14833600Y-5892800D01*
X14935200Y-5842000D02*
G75*
G03*
X14935200Y-5842000I-50800J0D01*
G01*
X14833600Y-10617200D02*
X14935200Y-10718800D01*
X14935200Y-10617200D02*
X14833600Y-10718800D01*
X14935200Y-10668000D02*
G75*
G03*
X14935200Y-10668000I-50800J0D01*
G01*
X15087600Y-5791200D02*
X15189200Y-5892800D01*
X15189200Y-5791200D02*
X15087600Y-5892800D01*
X15189200Y-5842000D02*
G75*
G03*
X15189200Y-5842000I-50800J0D01*
G01*
X15087600Y-10617200D02*
X15189200Y-10718800D01*
X15189200Y-10617200D02*
X15087600Y-10718800D01*
X15189200Y-10668000D02*
G75*
G03*
X15189200Y-10668000I-50800J0D01*
G01*
X15341600Y-5791200D02*
X15443200Y-5892800D01*
X15443200Y-5791200D02*
X15341600Y-5892800D01*
X15443200Y-5842000D02*
G75*
G03*
X15443200Y-5842000I-50800J0D01*
G01*
X15341600Y-10617200D02*
X15443200Y-10718800D01*
X15443200Y-10617200D02*
X15341600Y-10718800D01*
X15443200Y-10668000D02*
G75*
G03*
X15443200Y-10668000I-50800J0D01*
G01*
X15595600Y-5791200D02*
X15697200Y-5892800D01*
X15697200Y-5791200D02*
X15595600Y-5892800D01*
X15697200Y-5842000D02*
G75*
G03*
X15697200Y-5842000I-50800J0D01*
G01*
X15595600Y-10617200D02*
X15697200Y-10718800D01*
X15697200Y-10617200D02*
X15595600Y-10718800D01*
X15697200Y-10668000D02*
G75*
G03*
X15697200Y-10668000I-50800J0D01*
G01*
X15849600Y-5791200D02*
X15951200Y-5892800D01*
X15951200Y-5791200D02*
X15849600Y-5892800D01*
X15951200Y-5842000D02*
G75*
G03*
X15951200Y-5842000I-50800J0D01*
G01*
X15849600Y-10617200D02*
X15951200Y-10718800D01*
X15951200Y-10617200D02*
X15849600Y-10718800D01*
X15951200Y-10668000D02*
G75*
G03*
X15951200Y-10668000I-50800J0D01*
G01*
X15862300Y-7823200D02*
X15963900Y-7924800D01*
X15963900Y-7823200D02*
X15862300Y-7924800D01*
X15963900Y-7874000D02*
G75*
G03*
X15963900Y-7874000I-50800J0D01*
G01*
X15862300Y-8077200D02*
X15963900Y-8178800D01*
X15963900Y-8077200D02*
X15862300Y-8178800D01*
X15963900Y-8128000D02*
G75*
G03*
X15963900Y-8128000I-50800J0D01*
G01*
X15862300Y-8331200D02*
X15963900Y-8432800D01*
X15963900Y-8331200D02*
X15862300Y-8432800D01*
X15963900Y-8382000D02*
G75*
G03*
X15963900Y-8382000I-50800J0D01*
G01*
X16103600Y-10617200D02*
X16205200Y-10718800D01*
X16205200Y-10617200D02*
X16103600Y-10718800D01*
X16205200Y-10668000D02*
G75*
G03*
X16205200Y-10668000I-50800J0D01*
G01*
X16116300Y-7823200D02*
X16217900Y-7924800D01*
X16217900Y-7823200D02*
X16116300Y-7924800D01*
X16217900Y-7874000D02*
G75*
G03*
X16217900Y-7874000I-50800J0D01*
G01*
X16116300Y-8077200D02*
X16217900Y-8178800D01*
X16217900Y-8077200D02*
X16116300Y-8178800D01*
X16217900Y-8128000D02*
G75*
G03*
X16217900Y-8128000I-50800J0D01*
G01*
X16116300Y-8331200D02*
X16217900Y-8432800D01*
X16217900Y-8331200D02*
X16116300Y-8432800D01*
X16217900Y-8382000D02*
G75*
G03*
X16217900Y-8382000I-50800J0D01*
G01*
X16357600Y-5791200D02*
X16459200Y-5892800D01*
X16459200Y-5791200D02*
X16357600Y-5892800D01*
X16459200Y-5842000D02*
G75*
G03*
X16459200Y-5842000I-50800J0D01*
G01*
X16357600Y-10617200D02*
X16459200Y-10718800D01*
X16459200Y-10617200D02*
X16357600Y-10718800D01*
X16459200Y-10668000D02*
G75*
G03*
X16459200Y-10668000I-50800J0D01*
G01*
X16611600Y-5791200D02*
X16713200Y-5892800D01*
X16713200Y-5791200D02*
X16611600Y-5892800D01*
X16713200Y-5842000D02*
G75*
G03*
X16713200Y-5842000I-50800J0D01*
G01*
X16865600Y-5791200D02*
X16967200Y-5892800D01*
X16967200Y-5791200D02*
X16865600Y-5892800D01*
X16967200Y-5842000D02*
G75*
G03*
X16967200Y-5842000I-50800J0D01*
G01*
X16865600Y-10617200D02*
X16967200Y-10718800D01*
X16967200Y-10617200D02*
X16865600Y-10718800D01*
X16967200Y-10668000D02*
G75*
G03*
X16967200Y-10668000I-50800J0D01*
G01*
X17119600Y-5791200D02*
X17221200Y-5892800D01*
X17221200Y-5791200D02*
X17119600Y-5892800D01*
X17221200Y-5842000D02*
G75*
G03*
X17221200Y-5842000I-50800J0D01*
G01*
X17119600Y-10617200D02*
X17221200Y-10718800D01*
X17221200Y-10617200D02*
X17119600Y-10718800D01*
X17221200Y-10668000D02*
G75*
G03*
X17221200Y-10668000I-50800J0D01*
G01*
X17373600Y-5791200D02*
X17475200Y-5892800D01*
X17475200Y-5791200D02*
X17373600Y-5892800D01*
X17475200Y-5842000D02*
G75*
G03*
X17475200Y-5842000I-50800J0D01*
G01*
X17373600Y-10617200D02*
X17475200Y-10718800D01*
X17475200Y-10617200D02*
X17373600Y-10718800D01*
X17475200Y-10668000D02*
G75*
G03*
X17475200Y-10668000I-50800J0D01*
G01*
X17627600Y-5791200D02*
X17729200Y-5892800D01*
X17729200Y-5791200D02*
X17627600Y-5892800D01*
X17729200Y-5842000D02*
G75*
G03*
X17729200Y-5842000I-50800J0D01*
G01*
X17627600Y-10617200D02*
X17729200Y-10718800D01*
X17729200Y-10617200D02*
X17627600Y-10718800D01*
X17729200Y-10668000D02*
G75*
G03*
X17729200Y-10668000I-50800J0D01*
G01*
X17881600Y-5791200D02*
X17983200Y-5892800D01*
X17983200Y-5791200D02*
X17881600Y-5892800D01*
X17983200Y-5842000D02*
G75*
G03*
X17983200Y-5842000I-50800J0D01*
G01*
X17881600Y-10617200D02*
X17983200Y-10718800D01*
X17983200Y-10617200D02*
X17881600Y-10718800D01*
X17983200Y-10668000D02*
G75*
G03*
X17983200Y-10668000I-50800J0D01*
G01*
X18135600Y-5791200D02*
X18237200Y-5892800D01*
X18237200Y-5791200D02*
X18135600Y-5892800D01*
X18237200Y-5842000D02*
G75*
G03*
X18237200Y-5842000I-50800J0D01*
G01*
X18135600Y-10617200D02*
X18237200Y-10718800D01*
X18237200Y-10617200D02*
X18135600Y-10718800D01*
X18237200Y-10668000D02*
G75*
G03*
X18237200Y-10668000I-50800J0D01*
G01*
X18389600Y-10617200D02*
X18491200Y-10718800D01*
X18491200Y-10617200D02*
X18389600Y-10718800D01*
X18491200Y-10668000D02*
G75*
G03*
X18491200Y-10668000I-50800J0D01*
G01*
X18643600Y-10617200D02*
X18745200Y-10718800D01*
X18745200Y-10617200D02*
X18643600Y-10718800D01*
X18745200Y-10668000D02*
G75*
G03*
X18745200Y-10668000I-50800J0D01*
G01*
X18897600Y-5791200D02*
X18999200Y-5892800D01*
X18999200Y-5791200D02*
X18897600Y-5892800D01*
X18999200Y-5842000D02*
G75*
G03*
X18999200Y-5842000I-50800J0D01*
G01*
X18897600Y-6045200D02*
X18999200Y-6146800D01*
X18999200Y-6045200D02*
X18897600Y-6146800D01*
X18999200Y-6096000D02*
G75*
G03*
X18999200Y-6096000I-50800J0D01*
G01*
X18897600Y-6299200D02*
X18999200Y-6400800D01*
X18999200Y-6299200D02*
X18897600Y-6400800D01*
X18999200Y-6350000D02*
G75*
G03*
X18999200Y-6350000I-50800J0D01*
G01*
X18897600Y-6553200D02*
X18999200Y-6654800D01*
X18999200Y-6553200D02*
X18897600Y-6654800D01*
X18999200Y-6604000D02*
G75*
G03*
X18999200Y-6604000I-50800J0D01*
G01*
X18897600Y-6807200D02*
X18999200Y-6908800D01*
X18999200Y-6807200D02*
X18897600Y-6908800D01*
X18999200Y-6858000D02*
G75*
G03*
X18999200Y-6858000I-50800J0D01*
G01*
X18897600Y-7061200D02*
X18999200Y-7162800D01*
X18999200Y-7061200D02*
X18897600Y-7162800D01*
X18999200Y-7112000D02*
G75*
G03*
X18999200Y-7112000I-50800J0D01*
G01*
X18897600Y-7315200D02*
X18999200Y-7416800D01*
X18999200Y-7315200D02*
X18897600Y-7416800D01*
X18999200Y-7366000D02*
G75*
G03*
X18999200Y-7366000I-50800J0D01*
G01*
X18897600Y-7569200D02*
X18999200Y-7670800D01*
X18999200Y-7569200D02*
X18897600Y-7670800D01*
X18999200Y-7620000D02*
G75*
G03*
X18999200Y-7620000I-50800J0D01*
G01*
X18897600Y-7823200D02*
X18999200Y-7924800D01*
X18999200Y-7823200D02*
X18897600Y-7924800D01*
X18999200Y-7874000D02*
G75*
G03*
X18999200Y-7874000I-50800J0D01*
G01*
X18897600Y-8077200D02*
X18999200Y-8178800D01*
X18999200Y-8077200D02*
X18897600Y-8178800D01*
X18999200Y-8128000D02*
G75*
G03*
X18999200Y-8128000I-50800J0D01*
G01*
X18897600Y-8331200D02*
X18999200Y-8432800D01*
X18999200Y-8331200D02*
X18897600Y-8432800D01*
X18999200Y-8382000D02*
G75*
G03*
X18999200Y-8382000I-50800J0D01*
G01*
X18897600Y-8585200D02*
X18999200Y-8686800D01*
X18999200Y-8585200D02*
X18897600Y-8686800D01*
X18999200Y-8636000D02*
G75*
G03*
X18999200Y-8636000I-50800J0D01*
G01*
X18897600Y-8839200D02*
X18999200Y-8940800D01*
X18999200Y-8839200D02*
X18897600Y-8940800D01*
X18999200Y-8890000D02*
G75*
G03*
X18999200Y-8890000I-50800J0D01*
G01*
X18897600Y-9093200D02*
X18999200Y-9194800D01*
X18999200Y-9093200D02*
X18897600Y-9194800D01*
X18999200Y-9144000D02*
G75*
G03*
X18999200Y-9144000I-50800J0D01*
G01*
X18897600Y-9347200D02*
X18999200Y-9448800D01*
X18999200Y-9347200D02*
X18897600Y-9448800D01*
X18999200Y-9398000D02*
G75*
G03*
X18999200Y-9398000I-50800J0D01*
G01*
X18897600Y-9601200D02*
X18999200Y-9702800D01*
X18999200Y-9601200D02*
X18897600Y-9702800D01*
X18999200Y-9652000D02*
G75*
G03*
X18999200Y-9652000I-50800J0D01*
G01*
X18897600Y-9855200D02*
X18999200Y-9956800D01*
X18999200Y-9855200D02*
X18897600Y-9956800D01*
X18999200Y-9906000D02*
G75*
G03*
X18999200Y-9906000I-50800J0D01*
G01*
X18897600Y-10109200D02*
X18999200Y-10210800D01*
X18999200Y-10109200D02*
X18897600Y-10210800D01*
X18999200Y-10160000D02*
G75*
G03*
X18999200Y-10160000I-50800J0D01*
G01*
X19151600Y-5791200D02*
X19253200Y-5892800D01*
X19253200Y-5791200D02*
X19151600Y-5892800D01*
X19253200Y-5842000D02*
G75*
G03*
X19253200Y-5842000I-50800J0D01*
G01*
X19151600Y-6045200D02*
X19253200Y-6146800D01*
X19253200Y-6045200D02*
X19151600Y-6146800D01*
X19253200Y-6096000D02*
G75*
G03*
X19253200Y-6096000I-50800J0D01*
G01*
X19151600Y-6299200D02*
X19253200Y-6400800D01*
X19253200Y-6299200D02*
X19151600Y-6400800D01*
X19253200Y-6350000D02*
G75*
G03*
X19253200Y-6350000I-50800J0D01*
G01*
X19151600Y-6553200D02*
X19253200Y-6654800D01*
X19253200Y-6553200D02*
X19151600Y-6654800D01*
X19253200Y-6604000D02*
G75*
G03*
X19253200Y-6604000I-50800J0D01*
G01*
X19151600Y-6807200D02*
X19253200Y-6908800D01*
X19253200Y-6807200D02*
X19151600Y-6908800D01*
X19253200Y-6858000D02*
G75*
G03*
X19253200Y-6858000I-50800J0D01*
G01*
X19151600Y-7061200D02*
X19253200Y-7162800D01*
X19253200Y-7061200D02*
X19151600Y-7162800D01*
X19253200Y-7112000D02*
G75*
G03*
X19253200Y-7112000I-50800J0D01*
G01*
X19151600Y-7315200D02*
X19253200Y-7416800D01*
X19253200Y-7315200D02*
X19151600Y-7416800D01*
X19253200Y-7366000D02*
G75*
G03*
X19253200Y-7366000I-50800J0D01*
G01*
X19151600Y-7569200D02*
X19253200Y-7670800D01*
X19253200Y-7569200D02*
X19151600Y-7670800D01*
X19253200Y-7620000D02*
G75*
G03*
X19253200Y-7620000I-50800J0D01*
G01*
X19151600Y-7823200D02*
X19253200Y-7924800D01*
X19253200Y-7823200D02*
X19151600Y-7924800D01*
X19253200Y-7874000D02*
G75*
G03*
X19253200Y-7874000I-50800J0D01*
G01*
X19151600Y-8077200D02*
X19253200Y-8178800D01*
X19253200Y-8077200D02*
X19151600Y-8178800D01*
X19253200Y-8128000D02*
G75*
G03*
X19253200Y-8128000I-50800J0D01*
G01*
X19151600Y-8331200D02*
X19253200Y-8432800D01*
X19253200Y-8331200D02*
X19151600Y-8432800D01*
X19253200Y-8382000D02*
G75*
G03*
X19253200Y-8382000I-50800J0D01*
G01*
X19151600Y-8585200D02*
X19253200Y-8686800D01*
X19253200Y-8585200D02*
X19151600Y-8686800D01*
X19253200Y-8636000D02*
G75*
G03*
X19253200Y-8636000I-50800J0D01*
G01*
X19151600Y-8839200D02*
X19253200Y-8940800D01*
X19253200Y-8839200D02*
X19151600Y-8940800D01*
X19253200Y-8890000D02*
G75*
G03*
X19253200Y-8890000I-50800J0D01*
G01*
X19151600Y-9093200D02*
X19253200Y-9194800D01*
X19253200Y-9093200D02*
X19151600Y-9194800D01*
X19253200Y-9144000D02*
G75*
G03*
X19253200Y-9144000I-50800J0D01*
G01*
X19151600Y-9347200D02*
X19253200Y-9448800D01*
X19253200Y-9347200D02*
X19151600Y-9448800D01*
X19253200Y-9398000D02*
G75*
G03*
X19253200Y-9398000I-50800J0D01*
G01*
X19151600Y-9601200D02*
X19253200Y-9702800D01*
X19253200Y-9601200D02*
X19151600Y-9702800D01*
X19253200Y-9652000D02*
G75*
G03*
X19253200Y-9652000I-50800J0D01*
G01*
X19151600Y-9855200D02*
X19253200Y-9956800D01*
X19253200Y-9855200D02*
X19151600Y-9956800D01*
X19253200Y-9906000D02*
G75*
G03*
X19253200Y-9906000I-50800J0D01*
G01*
X19151600Y-10109200D02*
X19253200Y-10210800D01*
X19253200Y-10109200D02*
X19151600Y-10210800D01*
X19253200Y-10160000D02*
G75*
G03*
X19253200Y-10160000I-50800J0D01*
G01*
D11*
X10923777Y-11238484D02*
X10923777Y-11038484D01*
X10923777Y-11038484D02*
X10971396Y-11038484D01*
X10971396Y-11038484D02*
X10999967Y-11048008D01*
X10999967Y-11048008D02*
X11019015Y-11067055D01*
X11019015Y-11067055D02*
X11028539Y-11086103D01*
X11028539Y-11086103D02*
X11038063Y-11124198D01*
X11038063Y-11124198D02*
X11038063Y-11152770D01*
X11038063Y-11152770D02*
X11028539Y-11190865D01*
X11028539Y-11190865D02*
X11019015Y-11209912D01*
X11019015Y-11209912D02*
X10999967Y-11228960D01*
X10999967Y-11228960D02*
X10971396Y-11238484D01*
X10971396Y-11238484D02*
X10923777Y-11238484D01*
X11123777Y-11238484D02*
X11123777Y-11105150D01*
X11123777Y-11143246D02*
X11133301Y-11124198D01*
X11133301Y-11124198D02*
X11142824Y-11114674D01*
X11142824Y-11114674D02*
X11161872Y-11105150D01*
X11161872Y-11105150D02*
X11180920Y-11105150D01*
X11247586Y-11238484D02*
X11247586Y-11105150D01*
X11247586Y-11038484D02*
X11238062Y-11048008D01*
X11238062Y-11048008D02*
X11247586Y-11057531D01*
X11247586Y-11057531D02*
X11257110Y-11048008D01*
X11257110Y-11048008D02*
X11247586Y-11038484D01*
X11247586Y-11038484D02*
X11247586Y-11057531D01*
X11371396Y-11238484D02*
X11352348Y-11228960D01*
X11352348Y-11228960D02*
X11342824Y-11209912D01*
X11342824Y-11209912D02*
X11342824Y-11038484D01*
X11476158Y-11238484D02*
X11457110Y-11228960D01*
X11457110Y-11228960D02*
X11447586Y-11209912D01*
X11447586Y-11209912D02*
X11447586Y-11038484D01*
X11704729Y-11238484D02*
X11704729Y-11038484D01*
X11704729Y-11038484D02*
X11771396Y-11181341D01*
X11771396Y-11181341D02*
X11838062Y-11038484D01*
X11838062Y-11038484D02*
X11838062Y-11238484D01*
X12019015Y-11238484D02*
X12019015Y-11133722D01*
X12019015Y-11133722D02*
X12009491Y-11114674D01*
X12009491Y-11114674D02*
X11990443Y-11105150D01*
X11990443Y-11105150D02*
X11952348Y-11105150D01*
X11952348Y-11105150D02*
X11933301Y-11114674D01*
X12019015Y-11228960D02*
X11999967Y-11238484D01*
X11999967Y-11238484D02*
X11952348Y-11238484D01*
X11952348Y-11238484D02*
X11933301Y-11228960D01*
X11933301Y-11228960D02*
X11923777Y-11209912D01*
X11923777Y-11209912D02*
X11923777Y-11190865D01*
X11923777Y-11190865D02*
X11933301Y-11171817D01*
X11933301Y-11171817D02*
X11952348Y-11162293D01*
X11952348Y-11162293D02*
X11999967Y-11162293D01*
X11999967Y-11162293D02*
X12019015Y-11152770D01*
X12114253Y-11105150D02*
X12114253Y-11305150D01*
X12114253Y-11114674D02*
X12133301Y-11105150D01*
X12133301Y-11105150D02*
X12171396Y-11105150D01*
X12171396Y-11105150D02*
X12190443Y-11114674D01*
X12190443Y-11114674D02*
X12199967Y-11124198D01*
X12199967Y-11124198D02*
X12209491Y-11143246D01*
X12209491Y-11143246D02*
X12209491Y-11200388D01*
X12209491Y-11200388D02*
X12199967Y-11219436D01*
X12199967Y-11219436D02*
X12190443Y-11228960D01*
X12190443Y-11228960D02*
X12171396Y-11238484D01*
X12171396Y-11238484D02*
X12133301Y-11238484D01*
X12133301Y-11238484D02*
X12114253Y-11228960D01*
X12295205Y-11219436D02*
X12304729Y-11228960D01*
X12304729Y-11228960D02*
X12295205Y-11238484D01*
X12295205Y-11238484D02*
X12285682Y-11228960D01*
X12285682Y-11228960D02*
X12295205Y-11219436D01*
X12295205Y-11219436D02*
X12295205Y-11238484D01*
X12295205Y-11114674D02*
X12304729Y-11124198D01*
X12304729Y-11124198D02*
X12295205Y-11133722D01*
X12295205Y-11133722D02*
X12285682Y-11124198D01*
X12285682Y-11124198D02*
X12295205Y-11114674D01*
X12295205Y-11114674D02*
X12295205Y-11133722D01*
D12*
X10593000Y-11532000D02*
X10663000Y-11602000D01*
X10663000Y-11532000D02*
X10593000Y-11602000D01*
D11*
X10961872Y-11458484D02*
X10980920Y-11458484D01*
X10980920Y-11458484D02*
X10999967Y-11468008D01*
X10999967Y-11468008D02*
X11009491Y-11477531D01*
X11009491Y-11477531D02*
X11019015Y-11496579D01*
X11019015Y-11496579D02*
X11028539Y-11534674D01*
X11028539Y-11534674D02*
X11028539Y-11582293D01*
X11028539Y-11582293D02*
X11019015Y-11620388D01*
X11019015Y-11620388D02*
X11009491Y-11639436D01*
X11009491Y-11639436D02*
X10999967Y-11648960D01*
X10999967Y-11648960D02*
X10980920Y-11658484D01*
X10980920Y-11658484D02*
X10961872Y-11658484D01*
X10961872Y-11658484D02*
X10942824Y-11648960D01*
X10942824Y-11648960D02*
X10933301Y-11639436D01*
X10933301Y-11639436D02*
X10923777Y-11620388D01*
X10923777Y-11620388D02*
X10914253Y-11582293D01*
X10914253Y-11582293D02*
X10914253Y-11534674D01*
X10914253Y-11534674D02*
X10923777Y-11496579D01*
X10923777Y-11496579D02*
X10933301Y-11477531D01*
X10933301Y-11477531D02*
X10942824Y-11468008D01*
X10942824Y-11468008D02*
X10961872Y-11458484D01*
X11114253Y-11639436D02*
X11123777Y-11648960D01*
X11123777Y-11648960D02*
X11114253Y-11658484D01*
X11114253Y-11658484D02*
X11104729Y-11648960D01*
X11104729Y-11648960D02*
X11114253Y-11639436D01*
X11114253Y-11639436D02*
X11114253Y-11658484D01*
X11190443Y-11458484D02*
X11323777Y-11458484D01*
X11323777Y-11458484D02*
X11238062Y-11658484D01*
X11438062Y-11458484D02*
X11457110Y-11458484D01*
X11457110Y-11458484D02*
X11476158Y-11468008D01*
X11476158Y-11468008D02*
X11485682Y-11477531D01*
X11485682Y-11477531D02*
X11495205Y-11496579D01*
X11495205Y-11496579D02*
X11504729Y-11534674D01*
X11504729Y-11534674D02*
X11504729Y-11582293D01*
X11504729Y-11582293D02*
X11495205Y-11620388D01*
X11495205Y-11620388D02*
X11485682Y-11639436D01*
X11485682Y-11639436D02*
X11476158Y-11648960D01*
X11476158Y-11648960D02*
X11457110Y-11658484D01*
X11457110Y-11658484D02*
X11438062Y-11658484D01*
X11438062Y-11658484D02*
X11419015Y-11648960D01*
X11419015Y-11648960D02*
X11409491Y-11639436D01*
X11409491Y-11639436D02*
X11399967Y-11620388D01*
X11399967Y-11620388D02*
X11390443Y-11582293D01*
X11390443Y-11582293D02*
X11390443Y-11534674D01*
X11390443Y-11534674D02*
X11399967Y-11496579D01*
X11399967Y-11496579D02*
X11409491Y-11477531D01*
X11409491Y-11477531D02*
X11419015Y-11468008D01*
X11419015Y-11468008D02*
X11438062Y-11458484D01*
X11628539Y-11458484D02*
X11647586Y-11458484D01*
X11647586Y-11458484D02*
X11666634Y-11468008D01*
X11666634Y-11468008D02*
X11676158Y-11477531D01*
X11676158Y-11477531D02*
X11685682Y-11496579D01*
X11685682Y-11496579D02*
X11695205Y-11534674D01*
X11695205Y-11534674D02*
X11695205Y-11582293D01*
X11695205Y-11582293D02*
X11685682Y-11620388D01*
X11685682Y-11620388D02*
X11676158Y-11639436D01*
X11676158Y-11639436D02*
X11666634Y-11648960D01*
X11666634Y-11648960D02*
X11647586Y-11658484D01*
X11647586Y-11658484D02*
X11628539Y-11658484D01*
X11628539Y-11658484D02*
X11609491Y-11648960D01*
X11609491Y-11648960D02*
X11599967Y-11639436D01*
X11599967Y-11639436D02*
X11590443Y-11620388D01*
X11590443Y-11620388D02*
X11580920Y-11582293D01*
X11580920Y-11582293D02*
X11580920Y-11534674D01*
X11580920Y-11534674D02*
X11590443Y-11496579D01*
X11590443Y-11496579D02*
X11599967Y-11477531D01*
X11599967Y-11477531D02*
X11609491Y-11468008D01*
X11609491Y-11468008D02*
X11628539Y-11458484D01*
X11780920Y-11658484D02*
X11780920Y-11525150D01*
X11780920Y-11544198D02*
X11790443Y-11534674D01*
X11790443Y-11534674D02*
X11809491Y-11525150D01*
X11809491Y-11525150D02*
X11838063Y-11525150D01*
X11838063Y-11525150D02*
X11857110Y-11534674D01*
X11857110Y-11534674D02*
X11866634Y-11553722D01*
X11866634Y-11553722D02*
X11866634Y-11658484D01*
X11866634Y-11553722D02*
X11876158Y-11534674D01*
X11876158Y-11534674D02*
X11895205Y-11525150D01*
X11895205Y-11525150D02*
X11923777Y-11525150D01*
X11923777Y-11525150D02*
X11942824Y-11534674D01*
X11942824Y-11534674D02*
X11952348Y-11553722D01*
X11952348Y-11553722D02*
X11952348Y-11658484D01*
X12047586Y-11658484D02*
X12047586Y-11525150D01*
X12047586Y-11544198D02*
X12057110Y-11534674D01*
X12057110Y-11534674D02*
X12076158Y-11525150D01*
X12076158Y-11525150D02*
X12104729Y-11525150D01*
X12104729Y-11525150D02*
X12123777Y-11534674D01*
X12123777Y-11534674D02*
X12133301Y-11553722D01*
X12133301Y-11553722D02*
X12133301Y-11658484D01*
X12133301Y-11553722D02*
X12142824Y-11534674D01*
X12142824Y-11534674D02*
X12161872Y-11525150D01*
X12161872Y-11525150D02*
X12190443Y-11525150D01*
X12190443Y-11525150D02*
X12209491Y-11534674D01*
X12209491Y-11534674D02*
X12219015Y-11553722D01*
X12219015Y-11553722D02*
X12219015Y-11658484D01*
X12609491Y-11448960D02*
X12438063Y-11706103D01*
X12866634Y-11458484D02*
X12885682Y-11458484D01*
X12885682Y-11458484D02*
X12904729Y-11468008D01*
X12904729Y-11468008D02*
X12914253Y-11477531D01*
X12914253Y-11477531D02*
X12923777Y-11496579D01*
X12923777Y-11496579D02*
X12933301Y-11534674D01*
X12933301Y-11534674D02*
X12933301Y-11582293D01*
X12933301Y-11582293D02*
X12923777Y-11620388D01*
X12923777Y-11620388D02*
X12914253Y-11639436D01*
X12914253Y-11639436D02*
X12904729Y-11648960D01*
X12904729Y-11648960D02*
X12885682Y-11658484D01*
X12885682Y-11658484D02*
X12866634Y-11658484D01*
X12866634Y-11658484D02*
X12847586Y-11648960D01*
X12847586Y-11648960D02*
X12838063Y-11639436D01*
X12838063Y-11639436D02*
X12828539Y-11620388D01*
X12828539Y-11620388D02*
X12819015Y-11582293D01*
X12819015Y-11582293D02*
X12819015Y-11534674D01*
X12819015Y-11534674D02*
X12828539Y-11496579D01*
X12828539Y-11496579D02*
X12838063Y-11477531D01*
X12838063Y-11477531D02*
X12847586Y-11468008D01*
X12847586Y-11468008D02*
X12866634Y-11458484D01*
X13019015Y-11639436D02*
X13028539Y-11648960D01*
X13028539Y-11648960D02*
X13019015Y-11658484D01*
X13019015Y-11658484D02*
X13009491Y-11648960D01*
X13009491Y-11648960D02*
X13019015Y-11639436D01*
X13019015Y-11639436D02*
X13019015Y-11658484D01*
X13152348Y-11458484D02*
X13171396Y-11458484D01*
X13171396Y-11458484D02*
X13190444Y-11468008D01*
X13190444Y-11468008D02*
X13199967Y-11477531D01*
X13199967Y-11477531D02*
X13209491Y-11496579D01*
X13209491Y-11496579D02*
X13219015Y-11534674D01*
X13219015Y-11534674D02*
X13219015Y-11582293D01*
X13219015Y-11582293D02*
X13209491Y-11620388D01*
X13209491Y-11620388D02*
X13199967Y-11639436D01*
X13199967Y-11639436D02*
X13190444Y-11648960D01*
X13190444Y-11648960D02*
X13171396Y-11658484D01*
X13171396Y-11658484D02*
X13152348Y-11658484D01*
X13152348Y-11658484D02*
X13133301Y-11648960D01*
X13133301Y-11648960D02*
X13123777Y-11639436D01*
X13123777Y-11639436D02*
X13114253Y-11620388D01*
X13114253Y-11620388D02*
X13104729Y-11582293D01*
X13104729Y-11582293D02*
X13104729Y-11534674D01*
X13104729Y-11534674D02*
X13114253Y-11496579D01*
X13114253Y-11496579D02*
X13123777Y-11477531D01*
X13123777Y-11477531D02*
X13133301Y-11468008D01*
X13133301Y-11468008D02*
X13152348Y-11458484D01*
X13295206Y-11477531D02*
X13304729Y-11468008D01*
X13304729Y-11468008D02*
X13323777Y-11458484D01*
X13323777Y-11458484D02*
X13371396Y-11458484D01*
X13371396Y-11458484D02*
X13390444Y-11468008D01*
X13390444Y-11468008D02*
X13399967Y-11477531D01*
X13399967Y-11477531D02*
X13409491Y-11496579D01*
X13409491Y-11496579D02*
X13409491Y-11515627D01*
X13409491Y-11515627D02*
X13399967Y-11544198D01*
X13399967Y-11544198D02*
X13285682Y-11658484D01*
X13285682Y-11658484D02*
X13409491Y-11658484D01*
X13476158Y-11458484D02*
X13609491Y-11458484D01*
X13609491Y-11458484D02*
X13523777Y-11658484D01*
X13771396Y-11458484D02*
X13733301Y-11458484D01*
X13733301Y-11458484D02*
X13714253Y-11468008D01*
X13714253Y-11468008D02*
X13704729Y-11477531D01*
X13704729Y-11477531D02*
X13685682Y-11506103D01*
X13685682Y-11506103D02*
X13676158Y-11544198D01*
X13676158Y-11544198D02*
X13676158Y-11620388D01*
X13676158Y-11620388D02*
X13685682Y-11639436D01*
X13685682Y-11639436D02*
X13695206Y-11648960D01*
X13695206Y-11648960D02*
X13714253Y-11658484D01*
X13714253Y-11658484D02*
X13752348Y-11658484D01*
X13752348Y-11658484D02*
X13771396Y-11648960D01*
X13771396Y-11648960D02*
X13780920Y-11639436D01*
X13780920Y-11639436D02*
X13790444Y-11620388D01*
X13790444Y-11620388D02*
X13790444Y-11572769D01*
X13790444Y-11572769D02*
X13780920Y-11553722D01*
X13780920Y-11553722D02*
X13771396Y-11544198D01*
X13771396Y-11544198D02*
X13752348Y-11534674D01*
X13752348Y-11534674D02*
X13714253Y-11534674D01*
X13714253Y-11534674D02*
X13695206Y-11544198D01*
X13695206Y-11544198D02*
X13685682Y-11553722D01*
X13685682Y-11553722D02*
X13676158Y-11572769D01*
X13866634Y-11458484D02*
X13866634Y-11496579D01*
X13942825Y-11458484D02*
X13942825Y-11496579D01*
X14238063Y-11734674D02*
X14228539Y-11725150D01*
X14228539Y-11725150D02*
X14209491Y-11696579D01*
X14209491Y-11696579D02*
X14199968Y-11677531D01*
X14199968Y-11677531D02*
X14190444Y-11648960D01*
X14190444Y-11648960D02*
X14180920Y-11601341D01*
X14180920Y-11601341D02*
X14180920Y-11563246D01*
X14180920Y-11563246D02*
X14190444Y-11515627D01*
X14190444Y-11515627D02*
X14199968Y-11487055D01*
X14199968Y-11487055D02*
X14209491Y-11468008D01*
X14209491Y-11468008D02*
X14228539Y-11439436D01*
X14228539Y-11439436D02*
X14238063Y-11429912D01*
X14399968Y-11458484D02*
X14361872Y-11458484D01*
X14361872Y-11458484D02*
X14342825Y-11468008D01*
X14342825Y-11468008D02*
X14333301Y-11477531D01*
X14333301Y-11477531D02*
X14314253Y-11506103D01*
X14314253Y-11506103D02*
X14304729Y-11544198D01*
X14304729Y-11544198D02*
X14304729Y-11620388D01*
X14304729Y-11620388D02*
X14314253Y-11639436D01*
X14314253Y-11639436D02*
X14323777Y-11648960D01*
X14323777Y-11648960D02*
X14342825Y-11658484D01*
X14342825Y-11658484D02*
X14380920Y-11658484D01*
X14380920Y-11658484D02*
X14399968Y-11648960D01*
X14399968Y-11648960D02*
X14409491Y-11639436D01*
X14409491Y-11639436D02*
X14419015Y-11620388D01*
X14419015Y-11620388D02*
X14419015Y-11572769D01*
X14419015Y-11572769D02*
X14409491Y-11553722D01*
X14409491Y-11553722D02*
X14399968Y-11544198D01*
X14399968Y-11544198D02*
X14380920Y-11534674D01*
X14380920Y-11534674D02*
X14342825Y-11534674D01*
X14342825Y-11534674D02*
X14323777Y-11544198D01*
X14323777Y-11544198D02*
X14314253Y-11553722D01*
X14314253Y-11553722D02*
X14304729Y-11572769D01*
X14657110Y-11658484D02*
X14657110Y-11458484D01*
X14742825Y-11658484D02*
X14742825Y-11553722D01*
X14742825Y-11553722D02*
X14733301Y-11534674D01*
X14733301Y-11534674D02*
X14714253Y-11525150D01*
X14714253Y-11525150D02*
X14685682Y-11525150D01*
X14685682Y-11525150D02*
X14666634Y-11534674D01*
X14666634Y-11534674D02*
X14657110Y-11544198D01*
X14866634Y-11658484D02*
X14847587Y-11648960D01*
X14847587Y-11648960D02*
X14838063Y-11639436D01*
X14838063Y-11639436D02*
X14828539Y-11620388D01*
X14828539Y-11620388D02*
X14828539Y-11563246D01*
X14828539Y-11563246D02*
X14838063Y-11544198D01*
X14838063Y-11544198D02*
X14847587Y-11534674D01*
X14847587Y-11534674D02*
X14866634Y-11525150D01*
X14866634Y-11525150D02*
X14895206Y-11525150D01*
X14895206Y-11525150D02*
X14914253Y-11534674D01*
X14914253Y-11534674D02*
X14923777Y-11544198D01*
X14923777Y-11544198D02*
X14933301Y-11563246D01*
X14933301Y-11563246D02*
X14933301Y-11620388D01*
X14933301Y-11620388D02*
X14923777Y-11639436D01*
X14923777Y-11639436D02*
X14914253Y-11648960D01*
X14914253Y-11648960D02*
X14895206Y-11658484D01*
X14895206Y-11658484D02*
X14866634Y-11658484D01*
X15047587Y-11658484D02*
X15028539Y-11648960D01*
X15028539Y-11648960D02*
X15019015Y-11629912D01*
X15019015Y-11629912D02*
X15019015Y-11458484D01*
X15199968Y-11648960D02*
X15180920Y-11658484D01*
X15180920Y-11658484D02*
X15142825Y-11658484D01*
X15142825Y-11658484D02*
X15123777Y-11648960D01*
X15123777Y-11648960D02*
X15114253Y-11629912D01*
X15114253Y-11629912D02*
X15114253Y-11553722D01*
X15114253Y-11553722D02*
X15123777Y-11534674D01*
X15123777Y-11534674D02*
X15142825Y-11525150D01*
X15142825Y-11525150D02*
X15180920Y-11525150D01*
X15180920Y-11525150D02*
X15199968Y-11534674D01*
X15199968Y-11534674D02*
X15209491Y-11553722D01*
X15209491Y-11553722D02*
X15209491Y-11572769D01*
X15209491Y-11572769D02*
X15114253Y-11591817D01*
X15285682Y-11648960D02*
X15304730Y-11658484D01*
X15304730Y-11658484D02*
X15342825Y-11658484D01*
X15342825Y-11658484D02*
X15361872Y-11648960D01*
X15361872Y-11648960D02*
X15371396Y-11629912D01*
X15371396Y-11629912D02*
X15371396Y-11620388D01*
X15371396Y-11620388D02*
X15361872Y-11601341D01*
X15361872Y-11601341D02*
X15342825Y-11591817D01*
X15342825Y-11591817D02*
X15314253Y-11591817D01*
X15314253Y-11591817D02*
X15295206Y-11582293D01*
X15295206Y-11582293D02*
X15285682Y-11563246D01*
X15285682Y-11563246D02*
X15285682Y-11553722D01*
X15285682Y-11553722D02*
X15295206Y-11534674D01*
X15295206Y-11534674D02*
X15314253Y-11525150D01*
X15314253Y-11525150D02*
X15342825Y-11525150D01*
X15342825Y-11525150D02*
X15361872Y-11534674D01*
X15438063Y-11734674D02*
X15447587Y-11725150D01*
X15447587Y-11725150D02*
X15466634Y-11696579D01*
X15466634Y-11696579D02*
X15476158Y-11677531D01*
X15476158Y-11677531D02*
X15485682Y-11648960D01*
X15485682Y-11648960D02*
X15495206Y-11601341D01*
X15495206Y-11601341D02*
X15495206Y-11563246D01*
X15495206Y-11563246D02*
X15485682Y-11515627D01*
X15485682Y-11515627D02*
X15476158Y-11487055D01*
X15476158Y-11487055D02*
X15466634Y-11468008D01*
X15466634Y-11468008D02*
X15447587Y-11439436D01*
X15447587Y-11439436D02*
X15438063Y-11429912D01*
D13*
X10663000Y-11831000D02*
G75*
G03*
X10663000Y-11831000I-37500J0D01*
G01*
D11*
X10961872Y-11722484D02*
X10980920Y-11722484D01*
X10980920Y-11722484D02*
X10999967Y-11732008D01*
X10999967Y-11732008D02*
X11009491Y-11741531D01*
X11009491Y-11741531D02*
X11019015Y-11760579D01*
X11019015Y-11760579D02*
X11028539Y-11798674D01*
X11028539Y-11798674D02*
X11028539Y-11846293D01*
X11028539Y-11846293D02*
X11019015Y-11884388D01*
X11019015Y-11884388D02*
X11009491Y-11903436D01*
X11009491Y-11903436D02*
X10999967Y-11912960D01*
X10999967Y-11912960D02*
X10980920Y-11922484D01*
X10980920Y-11922484D02*
X10961872Y-11922484D01*
X10961872Y-11922484D02*
X10942824Y-11912960D01*
X10942824Y-11912960D02*
X10933301Y-11903436D01*
X10933301Y-11903436D02*
X10923777Y-11884388D01*
X10923777Y-11884388D02*
X10914253Y-11846293D01*
X10914253Y-11846293D02*
X10914253Y-11798674D01*
X10914253Y-11798674D02*
X10923777Y-11760579D01*
X10923777Y-11760579D02*
X10933301Y-11741531D01*
X10933301Y-11741531D02*
X10942824Y-11732008D01*
X10942824Y-11732008D02*
X10961872Y-11722484D01*
X11114253Y-11903436D02*
X11123777Y-11912960D01*
X11123777Y-11912960D02*
X11114253Y-11922484D01*
X11114253Y-11922484D02*
X11104729Y-11912960D01*
X11104729Y-11912960D02*
X11114253Y-11903436D01*
X11114253Y-11903436D02*
X11114253Y-11922484D01*
X11190443Y-11722484D02*
X11323777Y-11722484D01*
X11323777Y-11722484D02*
X11238062Y-11922484D01*
X11495205Y-11722484D02*
X11399967Y-11722484D01*
X11399967Y-11722484D02*
X11390443Y-11817722D01*
X11390443Y-11817722D02*
X11399967Y-11808198D01*
X11399967Y-11808198D02*
X11419015Y-11798674D01*
X11419015Y-11798674D02*
X11466634Y-11798674D01*
X11466634Y-11798674D02*
X11485682Y-11808198D01*
X11485682Y-11808198D02*
X11495205Y-11817722D01*
X11495205Y-11817722D02*
X11504729Y-11836769D01*
X11504729Y-11836769D02*
X11504729Y-11884388D01*
X11504729Y-11884388D02*
X11495205Y-11903436D01*
X11495205Y-11903436D02*
X11485682Y-11912960D01*
X11485682Y-11912960D02*
X11466634Y-11922484D01*
X11466634Y-11922484D02*
X11419015Y-11922484D01*
X11419015Y-11922484D02*
X11399967Y-11912960D01*
X11399967Y-11912960D02*
X11390443Y-11903436D01*
X11628539Y-11722484D02*
X11647586Y-11722484D01*
X11647586Y-11722484D02*
X11666634Y-11732008D01*
X11666634Y-11732008D02*
X11676158Y-11741531D01*
X11676158Y-11741531D02*
X11685682Y-11760579D01*
X11685682Y-11760579D02*
X11695205Y-11798674D01*
X11695205Y-11798674D02*
X11695205Y-11846293D01*
X11695205Y-11846293D02*
X11685682Y-11884388D01*
X11685682Y-11884388D02*
X11676158Y-11903436D01*
X11676158Y-11903436D02*
X11666634Y-11912960D01*
X11666634Y-11912960D02*
X11647586Y-11922484D01*
X11647586Y-11922484D02*
X11628539Y-11922484D01*
X11628539Y-11922484D02*
X11609491Y-11912960D01*
X11609491Y-11912960D02*
X11599967Y-11903436D01*
X11599967Y-11903436D02*
X11590443Y-11884388D01*
X11590443Y-11884388D02*
X11580920Y-11846293D01*
X11580920Y-11846293D02*
X11580920Y-11798674D01*
X11580920Y-11798674D02*
X11590443Y-11760579D01*
X11590443Y-11760579D02*
X11599967Y-11741531D01*
X11599967Y-11741531D02*
X11609491Y-11732008D01*
X11609491Y-11732008D02*
X11628539Y-11722484D01*
X11780920Y-11922484D02*
X11780920Y-11789150D01*
X11780920Y-11808198D02*
X11790443Y-11798674D01*
X11790443Y-11798674D02*
X11809491Y-11789150D01*
X11809491Y-11789150D02*
X11838063Y-11789150D01*
X11838063Y-11789150D02*
X11857110Y-11798674D01*
X11857110Y-11798674D02*
X11866634Y-11817722D01*
X11866634Y-11817722D02*
X11866634Y-11922484D01*
X11866634Y-11817722D02*
X11876158Y-11798674D01*
X11876158Y-11798674D02*
X11895205Y-11789150D01*
X11895205Y-11789150D02*
X11923777Y-11789150D01*
X11923777Y-11789150D02*
X11942824Y-11798674D01*
X11942824Y-11798674D02*
X11952348Y-11817722D01*
X11952348Y-11817722D02*
X11952348Y-11922484D01*
X12047586Y-11922484D02*
X12047586Y-11789150D01*
X12047586Y-11808198D02*
X12057110Y-11798674D01*
X12057110Y-11798674D02*
X12076158Y-11789150D01*
X12076158Y-11789150D02*
X12104729Y-11789150D01*
X12104729Y-11789150D02*
X12123777Y-11798674D01*
X12123777Y-11798674D02*
X12133301Y-11817722D01*
X12133301Y-11817722D02*
X12133301Y-11922484D01*
X12133301Y-11817722D02*
X12142824Y-11798674D01*
X12142824Y-11798674D02*
X12161872Y-11789150D01*
X12161872Y-11789150D02*
X12190443Y-11789150D01*
X12190443Y-11789150D02*
X12209491Y-11798674D01*
X12209491Y-11798674D02*
X12219015Y-11817722D01*
X12219015Y-11817722D02*
X12219015Y-11922484D01*
X12609491Y-11712960D02*
X12438063Y-11970103D01*
X12866634Y-11722484D02*
X12885682Y-11722484D01*
X12885682Y-11722484D02*
X12904729Y-11732008D01*
X12904729Y-11732008D02*
X12914253Y-11741531D01*
X12914253Y-11741531D02*
X12923777Y-11760579D01*
X12923777Y-11760579D02*
X12933301Y-11798674D01*
X12933301Y-11798674D02*
X12933301Y-11846293D01*
X12933301Y-11846293D02*
X12923777Y-11884388D01*
X12923777Y-11884388D02*
X12914253Y-11903436D01*
X12914253Y-11903436D02*
X12904729Y-11912960D01*
X12904729Y-11912960D02*
X12885682Y-11922484D01*
X12885682Y-11922484D02*
X12866634Y-11922484D01*
X12866634Y-11922484D02*
X12847586Y-11912960D01*
X12847586Y-11912960D02*
X12838063Y-11903436D01*
X12838063Y-11903436D02*
X12828539Y-11884388D01*
X12828539Y-11884388D02*
X12819015Y-11846293D01*
X12819015Y-11846293D02*
X12819015Y-11798674D01*
X12819015Y-11798674D02*
X12828539Y-11760579D01*
X12828539Y-11760579D02*
X12838063Y-11741531D01*
X12838063Y-11741531D02*
X12847586Y-11732008D01*
X12847586Y-11732008D02*
X12866634Y-11722484D01*
X13019015Y-11903436D02*
X13028539Y-11912960D01*
X13028539Y-11912960D02*
X13019015Y-11922484D01*
X13019015Y-11922484D02*
X13009491Y-11912960D01*
X13009491Y-11912960D02*
X13019015Y-11903436D01*
X13019015Y-11903436D02*
X13019015Y-11922484D01*
X13152348Y-11722484D02*
X13171396Y-11722484D01*
X13171396Y-11722484D02*
X13190444Y-11732008D01*
X13190444Y-11732008D02*
X13199967Y-11741531D01*
X13199967Y-11741531D02*
X13209491Y-11760579D01*
X13209491Y-11760579D02*
X13219015Y-11798674D01*
X13219015Y-11798674D02*
X13219015Y-11846293D01*
X13219015Y-11846293D02*
X13209491Y-11884388D01*
X13209491Y-11884388D02*
X13199967Y-11903436D01*
X13199967Y-11903436D02*
X13190444Y-11912960D01*
X13190444Y-11912960D02*
X13171396Y-11922484D01*
X13171396Y-11922484D02*
X13152348Y-11922484D01*
X13152348Y-11922484D02*
X13133301Y-11912960D01*
X13133301Y-11912960D02*
X13123777Y-11903436D01*
X13123777Y-11903436D02*
X13114253Y-11884388D01*
X13114253Y-11884388D02*
X13104729Y-11846293D01*
X13104729Y-11846293D02*
X13104729Y-11798674D01*
X13104729Y-11798674D02*
X13114253Y-11760579D01*
X13114253Y-11760579D02*
X13123777Y-11741531D01*
X13123777Y-11741531D02*
X13133301Y-11732008D01*
X13133301Y-11732008D02*
X13152348Y-11722484D01*
X13295206Y-11741531D02*
X13304729Y-11732008D01*
X13304729Y-11732008D02*
X13323777Y-11722484D01*
X13323777Y-11722484D02*
X13371396Y-11722484D01*
X13371396Y-11722484D02*
X13390444Y-11732008D01*
X13390444Y-11732008D02*
X13399967Y-11741531D01*
X13399967Y-11741531D02*
X13409491Y-11760579D01*
X13409491Y-11760579D02*
X13409491Y-11779627D01*
X13409491Y-11779627D02*
X13399967Y-11808198D01*
X13399967Y-11808198D02*
X13285682Y-11922484D01*
X13285682Y-11922484D02*
X13409491Y-11922484D01*
X13504729Y-11922484D02*
X13542825Y-11922484D01*
X13542825Y-11922484D02*
X13561872Y-11912960D01*
X13561872Y-11912960D02*
X13571396Y-11903436D01*
X13571396Y-11903436D02*
X13590444Y-11874865D01*
X13590444Y-11874865D02*
X13599967Y-11836769D01*
X13599967Y-11836769D02*
X13599967Y-11760579D01*
X13599967Y-11760579D02*
X13590444Y-11741531D01*
X13590444Y-11741531D02*
X13580920Y-11732008D01*
X13580920Y-11732008D02*
X13561872Y-11722484D01*
X13561872Y-11722484D02*
X13523777Y-11722484D01*
X13523777Y-11722484D02*
X13504729Y-11732008D01*
X13504729Y-11732008D02*
X13495206Y-11741531D01*
X13495206Y-11741531D02*
X13485682Y-11760579D01*
X13485682Y-11760579D02*
X13485682Y-11808198D01*
X13485682Y-11808198D02*
X13495206Y-11827246D01*
X13495206Y-11827246D02*
X13504729Y-11836769D01*
X13504729Y-11836769D02*
X13523777Y-11846293D01*
X13523777Y-11846293D02*
X13561872Y-11846293D01*
X13561872Y-11846293D02*
X13580920Y-11836769D01*
X13580920Y-11836769D02*
X13590444Y-11827246D01*
X13590444Y-11827246D02*
X13599967Y-11808198D01*
X13780920Y-11722484D02*
X13685682Y-11722484D01*
X13685682Y-11722484D02*
X13676158Y-11817722D01*
X13676158Y-11817722D02*
X13685682Y-11808198D01*
X13685682Y-11808198D02*
X13704729Y-11798674D01*
X13704729Y-11798674D02*
X13752348Y-11798674D01*
X13752348Y-11798674D02*
X13771396Y-11808198D01*
X13771396Y-11808198D02*
X13780920Y-11817722D01*
X13780920Y-11817722D02*
X13790444Y-11836769D01*
X13790444Y-11836769D02*
X13790444Y-11884388D01*
X13790444Y-11884388D02*
X13780920Y-11903436D01*
X13780920Y-11903436D02*
X13771396Y-11912960D01*
X13771396Y-11912960D02*
X13752348Y-11922484D01*
X13752348Y-11922484D02*
X13704729Y-11922484D01*
X13704729Y-11922484D02*
X13685682Y-11912960D01*
X13685682Y-11912960D02*
X13676158Y-11903436D01*
X13866634Y-11722484D02*
X13866634Y-11760579D01*
X13942825Y-11722484D02*
X13942825Y-11760579D01*
X14238063Y-11998674D02*
X14228539Y-11989150D01*
X14228539Y-11989150D02*
X14209491Y-11960579D01*
X14209491Y-11960579D02*
X14199968Y-11941531D01*
X14199968Y-11941531D02*
X14190444Y-11912960D01*
X14190444Y-11912960D02*
X14180920Y-11865341D01*
X14180920Y-11865341D02*
X14180920Y-11827246D01*
X14180920Y-11827246D02*
X14190444Y-11779627D01*
X14190444Y-11779627D02*
X14199968Y-11751055D01*
X14199968Y-11751055D02*
X14209491Y-11732008D01*
X14209491Y-11732008D02*
X14228539Y-11703436D01*
X14228539Y-11703436D02*
X14238063Y-11693912D01*
X14295206Y-11722484D02*
X14419015Y-11722484D01*
X14419015Y-11722484D02*
X14352348Y-11798674D01*
X14352348Y-11798674D02*
X14380920Y-11798674D01*
X14380920Y-11798674D02*
X14399968Y-11808198D01*
X14399968Y-11808198D02*
X14409491Y-11817722D01*
X14409491Y-11817722D02*
X14419015Y-11836769D01*
X14419015Y-11836769D02*
X14419015Y-11884388D01*
X14419015Y-11884388D02*
X14409491Y-11903436D01*
X14409491Y-11903436D02*
X14399968Y-11912960D01*
X14399968Y-11912960D02*
X14380920Y-11922484D01*
X14380920Y-11922484D02*
X14323777Y-11922484D01*
X14323777Y-11922484D02*
X14304729Y-11912960D01*
X14304729Y-11912960D02*
X14295206Y-11903436D01*
X14657110Y-11922484D02*
X14657110Y-11722484D01*
X14742825Y-11922484D02*
X14742825Y-11817722D01*
X14742825Y-11817722D02*
X14733301Y-11798674D01*
X14733301Y-11798674D02*
X14714253Y-11789150D01*
X14714253Y-11789150D02*
X14685682Y-11789150D01*
X14685682Y-11789150D02*
X14666634Y-11798674D01*
X14666634Y-11798674D02*
X14657110Y-11808198D01*
X14866634Y-11922484D02*
X14847587Y-11912960D01*
X14847587Y-11912960D02*
X14838063Y-11903436D01*
X14838063Y-11903436D02*
X14828539Y-11884388D01*
X14828539Y-11884388D02*
X14828539Y-11827246D01*
X14828539Y-11827246D02*
X14838063Y-11808198D01*
X14838063Y-11808198D02*
X14847587Y-11798674D01*
X14847587Y-11798674D02*
X14866634Y-11789150D01*
X14866634Y-11789150D02*
X14895206Y-11789150D01*
X14895206Y-11789150D02*
X14914253Y-11798674D01*
X14914253Y-11798674D02*
X14923777Y-11808198D01*
X14923777Y-11808198D02*
X14933301Y-11827246D01*
X14933301Y-11827246D02*
X14933301Y-11884388D01*
X14933301Y-11884388D02*
X14923777Y-11903436D01*
X14923777Y-11903436D02*
X14914253Y-11912960D01*
X14914253Y-11912960D02*
X14895206Y-11922484D01*
X14895206Y-11922484D02*
X14866634Y-11922484D01*
X15047587Y-11922484D02*
X15028539Y-11912960D01*
X15028539Y-11912960D02*
X15019015Y-11893912D01*
X15019015Y-11893912D02*
X15019015Y-11722484D01*
X15199968Y-11912960D02*
X15180920Y-11922484D01*
X15180920Y-11922484D02*
X15142825Y-11922484D01*
X15142825Y-11922484D02*
X15123777Y-11912960D01*
X15123777Y-11912960D02*
X15114253Y-11893912D01*
X15114253Y-11893912D02*
X15114253Y-11817722D01*
X15114253Y-11817722D02*
X15123777Y-11798674D01*
X15123777Y-11798674D02*
X15142825Y-11789150D01*
X15142825Y-11789150D02*
X15180920Y-11789150D01*
X15180920Y-11789150D02*
X15199968Y-11798674D01*
X15199968Y-11798674D02*
X15209491Y-11817722D01*
X15209491Y-11817722D02*
X15209491Y-11836769D01*
X15209491Y-11836769D02*
X15114253Y-11855817D01*
X15285682Y-11912960D02*
X15304730Y-11922484D01*
X15304730Y-11922484D02*
X15342825Y-11922484D01*
X15342825Y-11922484D02*
X15361872Y-11912960D01*
X15361872Y-11912960D02*
X15371396Y-11893912D01*
X15371396Y-11893912D02*
X15371396Y-11884388D01*
X15371396Y-11884388D02*
X15361872Y-11865341D01*
X15361872Y-11865341D02*
X15342825Y-11855817D01*
X15342825Y-11855817D02*
X15314253Y-11855817D01*
X15314253Y-11855817D02*
X15295206Y-11846293D01*
X15295206Y-11846293D02*
X15285682Y-11827246D01*
X15285682Y-11827246D02*
X15285682Y-11817722D01*
X15285682Y-11817722D02*
X15295206Y-11798674D01*
X15295206Y-11798674D02*
X15314253Y-11789150D01*
X15314253Y-11789150D02*
X15342825Y-11789150D01*
X15342825Y-11789150D02*
X15361872Y-11798674D01*
X15438063Y-11998674D02*
X15447587Y-11989150D01*
X15447587Y-11989150D02*
X15466634Y-11960579D01*
X15466634Y-11960579D02*
X15476158Y-11941531D01*
X15476158Y-11941531D02*
X15485682Y-11912960D01*
X15485682Y-11912960D02*
X15495206Y-11865341D01*
X15495206Y-11865341D02*
X15495206Y-11827246D01*
X15495206Y-11827246D02*
X15485682Y-11779627D01*
X15485682Y-11779627D02*
X15476158Y-11751055D01*
X15476158Y-11751055D02*
X15466634Y-11732008D01*
X15466634Y-11732008D02*
X15447587Y-11703436D01*
X15447587Y-11703436D02*
X15438063Y-11693912D01*
D14*
X10623000Y-12055000D02*
X10623000Y-12135000D01*
X10583000Y-12095000D02*
X10663000Y-12095000D01*
D11*
X10961872Y-11986484D02*
X10980920Y-11986484D01*
X10980920Y-11986484D02*
X10999967Y-11996008D01*
X10999967Y-11996008D02*
X11009491Y-12005531D01*
X11009491Y-12005531D02*
X11019015Y-12024579D01*
X11019015Y-12024579D02*
X11028539Y-12062674D01*
X11028539Y-12062674D02*
X11028539Y-12110293D01*
X11028539Y-12110293D02*
X11019015Y-12148388D01*
X11019015Y-12148388D02*
X11009491Y-12167436D01*
X11009491Y-12167436D02*
X10999967Y-12176960D01*
X10999967Y-12176960D02*
X10980920Y-12186484D01*
X10980920Y-12186484D02*
X10961872Y-12186484D01*
X10961872Y-12186484D02*
X10942824Y-12176960D01*
X10942824Y-12176960D02*
X10933301Y-12167436D01*
X10933301Y-12167436D02*
X10923777Y-12148388D01*
X10923777Y-12148388D02*
X10914253Y-12110293D01*
X10914253Y-12110293D02*
X10914253Y-12062674D01*
X10914253Y-12062674D02*
X10923777Y-12024579D01*
X10923777Y-12024579D02*
X10933301Y-12005531D01*
X10933301Y-12005531D02*
X10942824Y-11996008D01*
X10942824Y-11996008D02*
X10961872Y-11986484D01*
X11114253Y-12167436D02*
X11123777Y-12176960D01*
X11123777Y-12176960D02*
X11114253Y-12186484D01*
X11114253Y-12186484D02*
X11104729Y-12176960D01*
X11104729Y-12176960D02*
X11114253Y-12167436D01*
X11114253Y-12167436D02*
X11114253Y-12186484D01*
X11238062Y-12072198D02*
X11219015Y-12062674D01*
X11219015Y-12062674D02*
X11209491Y-12053150D01*
X11209491Y-12053150D02*
X11199967Y-12034103D01*
X11199967Y-12034103D02*
X11199967Y-12024579D01*
X11199967Y-12024579D02*
X11209491Y-12005531D01*
X11209491Y-12005531D02*
X11219015Y-11996008D01*
X11219015Y-11996008D02*
X11238062Y-11986484D01*
X11238062Y-11986484D02*
X11276158Y-11986484D01*
X11276158Y-11986484D02*
X11295205Y-11996008D01*
X11295205Y-11996008D02*
X11304729Y-12005531D01*
X11304729Y-12005531D02*
X11314253Y-12024579D01*
X11314253Y-12024579D02*
X11314253Y-12034103D01*
X11314253Y-12034103D02*
X11304729Y-12053150D01*
X11304729Y-12053150D02*
X11295205Y-12062674D01*
X11295205Y-12062674D02*
X11276158Y-12072198D01*
X11276158Y-12072198D02*
X11238062Y-12072198D01*
X11238062Y-12072198D02*
X11219015Y-12081722D01*
X11219015Y-12081722D02*
X11209491Y-12091246D01*
X11209491Y-12091246D02*
X11199967Y-12110293D01*
X11199967Y-12110293D02*
X11199967Y-12148388D01*
X11199967Y-12148388D02*
X11209491Y-12167436D01*
X11209491Y-12167436D02*
X11219015Y-12176960D01*
X11219015Y-12176960D02*
X11238062Y-12186484D01*
X11238062Y-12186484D02*
X11276158Y-12186484D01*
X11276158Y-12186484D02*
X11295205Y-12176960D01*
X11295205Y-12176960D02*
X11304729Y-12167436D01*
X11304729Y-12167436D02*
X11314253Y-12148388D01*
X11314253Y-12148388D02*
X11314253Y-12110293D01*
X11314253Y-12110293D02*
X11304729Y-12091246D01*
X11304729Y-12091246D02*
X11295205Y-12081722D01*
X11295205Y-12081722D02*
X11276158Y-12072198D01*
X11438062Y-11986484D02*
X11457110Y-11986484D01*
X11457110Y-11986484D02*
X11476158Y-11996008D01*
X11476158Y-11996008D02*
X11485682Y-12005531D01*
X11485682Y-12005531D02*
X11495205Y-12024579D01*
X11495205Y-12024579D02*
X11504729Y-12062674D01*
X11504729Y-12062674D02*
X11504729Y-12110293D01*
X11504729Y-12110293D02*
X11495205Y-12148388D01*
X11495205Y-12148388D02*
X11485682Y-12167436D01*
X11485682Y-12167436D02*
X11476158Y-12176960D01*
X11476158Y-12176960D02*
X11457110Y-12186484D01*
X11457110Y-12186484D02*
X11438062Y-12186484D01*
X11438062Y-12186484D02*
X11419015Y-12176960D01*
X11419015Y-12176960D02*
X11409491Y-12167436D01*
X11409491Y-12167436D02*
X11399967Y-12148388D01*
X11399967Y-12148388D02*
X11390443Y-12110293D01*
X11390443Y-12110293D02*
X11390443Y-12062674D01*
X11390443Y-12062674D02*
X11399967Y-12024579D01*
X11399967Y-12024579D02*
X11409491Y-12005531D01*
X11409491Y-12005531D02*
X11419015Y-11996008D01*
X11419015Y-11996008D02*
X11438062Y-11986484D01*
X11628539Y-11986484D02*
X11647586Y-11986484D01*
X11647586Y-11986484D02*
X11666634Y-11996008D01*
X11666634Y-11996008D02*
X11676158Y-12005531D01*
X11676158Y-12005531D02*
X11685682Y-12024579D01*
X11685682Y-12024579D02*
X11695205Y-12062674D01*
X11695205Y-12062674D02*
X11695205Y-12110293D01*
X11695205Y-12110293D02*
X11685682Y-12148388D01*
X11685682Y-12148388D02*
X11676158Y-12167436D01*
X11676158Y-12167436D02*
X11666634Y-12176960D01*
X11666634Y-12176960D02*
X11647586Y-12186484D01*
X11647586Y-12186484D02*
X11628539Y-12186484D01*
X11628539Y-12186484D02*
X11609491Y-12176960D01*
X11609491Y-12176960D02*
X11599967Y-12167436D01*
X11599967Y-12167436D02*
X11590443Y-12148388D01*
X11590443Y-12148388D02*
X11580920Y-12110293D01*
X11580920Y-12110293D02*
X11580920Y-12062674D01*
X11580920Y-12062674D02*
X11590443Y-12024579D01*
X11590443Y-12024579D02*
X11599967Y-12005531D01*
X11599967Y-12005531D02*
X11609491Y-11996008D01*
X11609491Y-11996008D02*
X11628539Y-11986484D01*
X11780920Y-12186484D02*
X11780920Y-12053150D01*
X11780920Y-12072198D02*
X11790443Y-12062674D01*
X11790443Y-12062674D02*
X11809491Y-12053150D01*
X11809491Y-12053150D02*
X11838063Y-12053150D01*
X11838063Y-12053150D02*
X11857110Y-12062674D01*
X11857110Y-12062674D02*
X11866634Y-12081722D01*
X11866634Y-12081722D02*
X11866634Y-12186484D01*
X11866634Y-12081722D02*
X11876158Y-12062674D01*
X11876158Y-12062674D02*
X11895205Y-12053150D01*
X11895205Y-12053150D02*
X11923777Y-12053150D01*
X11923777Y-12053150D02*
X11942824Y-12062674D01*
X11942824Y-12062674D02*
X11952348Y-12081722D01*
X11952348Y-12081722D02*
X11952348Y-12186484D01*
X12047586Y-12186484D02*
X12047586Y-12053150D01*
X12047586Y-12072198D02*
X12057110Y-12062674D01*
X12057110Y-12062674D02*
X12076158Y-12053150D01*
X12076158Y-12053150D02*
X12104729Y-12053150D01*
X12104729Y-12053150D02*
X12123777Y-12062674D01*
X12123777Y-12062674D02*
X12133301Y-12081722D01*
X12133301Y-12081722D02*
X12133301Y-12186484D01*
X12133301Y-12081722D02*
X12142824Y-12062674D01*
X12142824Y-12062674D02*
X12161872Y-12053150D01*
X12161872Y-12053150D02*
X12190443Y-12053150D01*
X12190443Y-12053150D02*
X12209491Y-12062674D01*
X12209491Y-12062674D02*
X12219015Y-12081722D01*
X12219015Y-12081722D02*
X12219015Y-12186484D01*
X12609491Y-11976960D02*
X12438063Y-12234103D01*
X12866634Y-11986484D02*
X12885682Y-11986484D01*
X12885682Y-11986484D02*
X12904729Y-11996008D01*
X12904729Y-11996008D02*
X12914253Y-12005531D01*
X12914253Y-12005531D02*
X12923777Y-12024579D01*
X12923777Y-12024579D02*
X12933301Y-12062674D01*
X12933301Y-12062674D02*
X12933301Y-12110293D01*
X12933301Y-12110293D02*
X12923777Y-12148388D01*
X12923777Y-12148388D02*
X12914253Y-12167436D01*
X12914253Y-12167436D02*
X12904729Y-12176960D01*
X12904729Y-12176960D02*
X12885682Y-12186484D01*
X12885682Y-12186484D02*
X12866634Y-12186484D01*
X12866634Y-12186484D02*
X12847586Y-12176960D01*
X12847586Y-12176960D02*
X12838063Y-12167436D01*
X12838063Y-12167436D02*
X12828539Y-12148388D01*
X12828539Y-12148388D02*
X12819015Y-12110293D01*
X12819015Y-12110293D02*
X12819015Y-12062674D01*
X12819015Y-12062674D02*
X12828539Y-12024579D01*
X12828539Y-12024579D02*
X12838063Y-12005531D01*
X12838063Y-12005531D02*
X12847586Y-11996008D01*
X12847586Y-11996008D02*
X12866634Y-11986484D01*
X13019015Y-12167436D02*
X13028539Y-12176960D01*
X13028539Y-12176960D02*
X13019015Y-12186484D01*
X13019015Y-12186484D02*
X13009491Y-12176960D01*
X13009491Y-12176960D02*
X13019015Y-12167436D01*
X13019015Y-12167436D02*
X13019015Y-12186484D01*
X13152348Y-11986484D02*
X13171396Y-11986484D01*
X13171396Y-11986484D02*
X13190444Y-11996008D01*
X13190444Y-11996008D02*
X13199967Y-12005531D01*
X13199967Y-12005531D02*
X13209491Y-12024579D01*
X13209491Y-12024579D02*
X13219015Y-12062674D01*
X13219015Y-12062674D02*
X13219015Y-12110293D01*
X13219015Y-12110293D02*
X13209491Y-12148388D01*
X13209491Y-12148388D02*
X13199967Y-12167436D01*
X13199967Y-12167436D02*
X13190444Y-12176960D01*
X13190444Y-12176960D02*
X13171396Y-12186484D01*
X13171396Y-12186484D02*
X13152348Y-12186484D01*
X13152348Y-12186484D02*
X13133301Y-12176960D01*
X13133301Y-12176960D02*
X13123777Y-12167436D01*
X13123777Y-12167436D02*
X13114253Y-12148388D01*
X13114253Y-12148388D02*
X13104729Y-12110293D01*
X13104729Y-12110293D02*
X13104729Y-12062674D01*
X13104729Y-12062674D02*
X13114253Y-12024579D01*
X13114253Y-12024579D02*
X13123777Y-12005531D01*
X13123777Y-12005531D02*
X13133301Y-11996008D01*
X13133301Y-11996008D02*
X13152348Y-11986484D01*
X13285682Y-11986484D02*
X13409491Y-11986484D01*
X13409491Y-11986484D02*
X13342825Y-12062674D01*
X13342825Y-12062674D02*
X13371396Y-12062674D01*
X13371396Y-12062674D02*
X13390444Y-12072198D01*
X13390444Y-12072198D02*
X13399967Y-12081722D01*
X13399967Y-12081722D02*
X13409491Y-12100769D01*
X13409491Y-12100769D02*
X13409491Y-12148388D01*
X13409491Y-12148388D02*
X13399967Y-12167436D01*
X13399967Y-12167436D02*
X13390444Y-12176960D01*
X13390444Y-12176960D02*
X13371396Y-12186484D01*
X13371396Y-12186484D02*
X13314253Y-12186484D01*
X13314253Y-12186484D02*
X13295206Y-12176960D01*
X13295206Y-12176960D02*
X13285682Y-12167436D01*
X13599967Y-12186484D02*
X13485682Y-12186484D01*
X13542825Y-12186484D02*
X13542825Y-11986484D01*
X13542825Y-11986484D02*
X13523777Y-12015055D01*
X13523777Y-12015055D02*
X13504729Y-12034103D01*
X13504729Y-12034103D02*
X13485682Y-12043627D01*
X13780920Y-11986484D02*
X13685682Y-11986484D01*
X13685682Y-11986484D02*
X13676158Y-12081722D01*
X13676158Y-12081722D02*
X13685682Y-12072198D01*
X13685682Y-12072198D02*
X13704729Y-12062674D01*
X13704729Y-12062674D02*
X13752348Y-12062674D01*
X13752348Y-12062674D02*
X13771396Y-12072198D01*
X13771396Y-12072198D02*
X13780920Y-12081722D01*
X13780920Y-12081722D02*
X13790444Y-12100769D01*
X13790444Y-12100769D02*
X13790444Y-12148388D01*
X13790444Y-12148388D02*
X13780920Y-12167436D01*
X13780920Y-12167436D02*
X13771396Y-12176960D01*
X13771396Y-12176960D02*
X13752348Y-12186484D01*
X13752348Y-12186484D02*
X13704729Y-12186484D01*
X13704729Y-12186484D02*
X13685682Y-12176960D01*
X13685682Y-12176960D02*
X13676158Y-12167436D01*
X13866634Y-11986484D02*
X13866634Y-12024579D01*
X13942825Y-11986484D02*
X13942825Y-12024579D01*
X14238063Y-12262674D02*
X14228539Y-12253150D01*
X14228539Y-12253150D02*
X14209491Y-12224579D01*
X14209491Y-12224579D02*
X14199968Y-12205531D01*
X14199968Y-12205531D02*
X14190444Y-12176960D01*
X14190444Y-12176960D02*
X14180920Y-12129341D01*
X14180920Y-12129341D02*
X14180920Y-12091246D01*
X14180920Y-12091246D02*
X14190444Y-12043627D01*
X14190444Y-12043627D02*
X14199968Y-12015055D01*
X14199968Y-12015055D02*
X14209491Y-11996008D01*
X14209491Y-11996008D02*
X14228539Y-11967436D01*
X14228539Y-11967436D02*
X14238063Y-11957912D01*
X14419015Y-12186484D02*
X14304729Y-12186484D01*
X14361872Y-12186484D02*
X14361872Y-11986484D01*
X14361872Y-11986484D02*
X14342825Y-12015055D01*
X14342825Y-12015055D02*
X14323777Y-12034103D01*
X14323777Y-12034103D02*
X14304729Y-12043627D01*
X14609491Y-12186484D02*
X14495206Y-12186484D01*
X14552348Y-12186484D02*
X14552348Y-11986484D01*
X14552348Y-11986484D02*
X14533301Y-12015055D01*
X14533301Y-12015055D02*
X14514253Y-12034103D01*
X14514253Y-12034103D02*
X14495206Y-12043627D01*
X14847587Y-12186484D02*
X14847587Y-11986484D01*
X14933301Y-12186484D02*
X14933301Y-12081722D01*
X14933301Y-12081722D02*
X14923777Y-12062674D01*
X14923777Y-12062674D02*
X14904730Y-12053150D01*
X14904730Y-12053150D02*
X14876158Y-12053150D01*
X14876158Y-12053150D02*
X14857110Y-12062674D01*
X14857110Y-12062674D02*
X14847587Y-12072198D01*
X15057110Y-12186484D02*
X15038063Y-12176960D01*
X15038063Y-12176960D02*
X15028539Y-12167436D01*
X15028539Y-12167436D02*
X15019015Y-12148388D01*
X15019015Y-12148388D02*
X15019015Y-12091246D01*
X15019015Y-12091246D02*
X15028539Y-12072198D01*
X15028539Y-12072198D02*
X15038063Y-12062674D01*
X15038063Y-12062674D02*
X15057110Y-12053150D01*
X15057110Y-12053150D02*
X15085682Y-12053150D01*
X15085682Y-12053150D02*
X15104730Y-12062674D01*
X15104730Y-12062674D02*
X15114253Y-12072198D01*
X15114253Y-12072198D02*
X15123777Y-12091246D01*
X15123777Y-12091246D02*
X15123777Y-12148388D01*
X15123777Y-12148388D02*
X15114253Y-12167436D01*
X15114253Y-12167436D02*
X15104730Y-12176960D01*
X15104730Y-12176960D02*
X15085682Y-12186484D01*
X15085682Y-12186484D02*
X15057110Y-12186484D01*
X15238063Y-12186484D02*
X15219015Y-12176960D01*
X15219015Y-12176960D02*
X15209491Y-12157912D01*
X15209491Y-12157912D02*
X15209491Y-11986484D01*
X15390444Y-12176960D02*
X15371396Y-12186484D01*
X15371396Y-12186484D02*
X15333301Y-12186484D01*
X15333301Y-12186484D02*
X15314253Y-12176960D01*
X15314253Y-12176960D02*
X15304730Y-12157912D01*
X15304730Y-12157912D02*
X15304730Y-12081722D01*
X15304730Y-12081722D02*
X15314253Y-12062674D01*
X15314253Y-12062674D02*
X15333301Y-12053150D01*
X15333301Y-12053150D02*
X15371396Y-12053150D01*
X15371396Y-12053150D02*
X15390444Y-12062674D01*
X15390444Y-12062674D02*
X15399968Y-12081722D01*
X15399968Y-12081722D02*
X15399968Y-12100769D01*
X15399968Y-12100769D02*
X15304730Y-12119817D01*
X15476158Y-12176960D02*
X15495206Y-12186484D01*
X15495206Y-12186484D02*
X15533301Y-12186484D01*
X15533301Y-12186484D02*
X15552349Y-12176960D01*
X15552349Y-12176960D02*
X15561872Y-12157912D01*
X15561872Y-12157912D02*
X15561872Y-12148388D01*
X15561872Y-12148388D02*
X15552349Y-12129341D01*
X15552349Y-12129341D02*
X15533301Y-12119817D01*
X15533301Y-12119817D02*
X15504730Y-12119817D01*
X15504730Y-12119817D02*
X15485682Y-12110293D01*
X15485682Y-12110293D02*
X15476158Y-12091246D01*
X15476158Y-12091246D02*
X15476158Y-12081722D01*
X15476158Y-12081722D02*
X15485682Y-12062674D01*
X15485682Y-12062674D02*
X15504730Y-12053150D01*
X15504730Y-12053150D02*
X15533301Y-12053150D01*
X15533301Y-12053150D02*
X15552349Y-12062674D01*
X15628539Y-12262674D02*
X15638063Y-12253150D01*
X15638063Y-12253150D02*
X15657111Y-12224579D01*
X15657111Y-12224579D02*
X15666634Y-12205531D01*
X15666634Y-12205531D02*
X15676158Y-12176960D01*
X15676158Y-12176960D02*
X15685682Y-12129341D01*
X15685682Y-12129341D02*
X15685682Y-12091246D01*
X15685682Y-12091246D02*
X15676158Y-12043627D01*
X15676158Y-12043627D02*
X15666634Y-12015055D01*
X15666634Y-12015055D02*
X15657111Y-11996008D01*
X15657111Y-11996008D02*
X15638063Y-11967436D01*
X15638063Y-11967436D02*
X15628539Y-11957912D01*
D15*
X10649820Y-12390820D02*
X10649820Y-12327180D01*
X10586180Y-12327180D01*
X10586180Y-12390820D01*
X10649820Y-12390820D01*
D11*
X10961872Y-12250484D02*
X10980920Y-12250484D01*
X10980920Y-12250484D02*
X10999967Y-12260008D01*
X10999967Y-12260008D02*
X11009491Y-12269531D01*
X11009491Y-12269531D02*
X11019015Y-12288579D01*
X11019015Y-12288579D02*
X11028539Y-12326674D01*
X11028539Y-12326674D02*
X11028539Y-12374293D01*
X11028539Y-12374293D02*
X11019015Y-12412388D01*
X11019015Y-12412388D02*
X11009491Y-12431436D01*
X11009491Y-12431436D02*
X10999967Y-12440960D01*
X10999967Y-12440960D02*
X10980920Y-12450484D01*
X10980920Y-12450484D02*
X10961872Y-12450484D01*
X10961872Y-12450484D02*
X10942824Y-12440960D01*
X10942824Y-12440960D02*
X10933301Y-12431436D01*
X10933301Y-12431436D02*
X10923777Y-12412388D01*
X10923777Y-12412388D02*
X10914253Y-12374293D01*
X10914253Y-12374293D02*
X10914253Y-12326674D01*
X10914253Y-12326674D02*
X10923777Y-12288579D01*
X10923777Y-12288579D02*
X10933301Y-12269531D01*
X10933301Y-12269531D02*
X10942824Y-12260008D01*
X10942824Y-12260008D02*
X10961872Y-12250484D01*
X11114253Y-12431436D02*
X11123777Y-12440960D01*
X11123777Y-12440960D02*
X11114253Y-12450484D01*
X11114253Y-12450484D02*
X11104729Y-12440960D01*
X11104729Y-12440960D02*
X11114253Y-12431436D01*
X11114253Y-12431436D02*
X11114253Y-12450484D01*
X11219015Y-12450484D02*
X11257110Y-12450484D01*
X11257110Y-12450484D02*
X11276158Y-12440960D01*
X11276158Y-12440960D02*
X11285682Y-12431436D01*
X11285682Y-12431436D02*
X11304729Y-12402865D01*
X11304729Y-12402865D02*
X11314253Y-12364769D01*
X11314253Y-12364769D02*
X11314253Y-12288579D01*
X11314253Y-12288579D02*
X11304729Y-12269531D01*
X11304729Y-12269531D02*
X11295205Y-12260008D01*
X11295205Y-12260008D02*
X11276158Y-12250484D01*
X11276158Y-12250484D02*
X11238062Y-12250484D01*
X11238062Y-12250484D02*
X11219015Y-12260008D01*
X11219015Y-12260008D02*
X11209491Y-12269531D01*
X11209491Y-12269531D02*
X11199967Y-12288579D01*
X11199967Y-12288579D02*
X11199967Y-12336198D01*
X11199967Y-12336198D02*
X11209491Y-12355246D01*
X11209491Y-12355246D02*
X11219015Y-12364769D01*
X11219015Y-12364769D02*
X11238062Y-12374293D01*
X11238062Y-12374293D02*
X11276158Y-12374293D01*
X11276158Y-12374293D02*
X11295205Y-12364769D01*
X11295205Y-12364769D02*
X11304729Y-12355246D01*
X11304729Y-12355246D02*
X11314253Y-12336198D01*
X11438062Y-12250484D02*
X11457110Y-12250484D01*
X11457110Y-12250484D02*
X11476158Y-12260008D01*
X11476158Y-12260008D02*
X11485682Y-12269531D01*
X11485682Y-12269531D02*
X11495205Y-12288579D01*
X11495205Y-12288579D02*
X11504729Y-12326674D01*
X11504729Y-12326674D02*
X11504729Y-12374293D01*
X11504729Y-12374293D02*
X11495205Y-12412388D01*
X11495205Y-12412388D02*
X11485682Y-12431436D01*
X11485682Y-12431436D02*
X11476158Y-12440960D01*
X11476158Y-12440960D02*
X11457110Y-12450484D01*
X11457110Y-12450484D02*
X11438062Y-12450484D01*
X11438062Y-12450484D02*
X11419015Y-12440960D01*
X11419015Y-12440960D02*
X11409491Y-12431436D01*
X11409491Y-12431436D02*
X11399967Y-12412388D01*
X11399967Y-12412388D02*
X11390443Y-12374293D01*
X11390443Y-12374293D02*
X11390443Y-12326674D01*
X11390443Y-12326674D02*
X11399967Y-12288579D01*
X11399967Y-12288579D02*
X11409491Y-12269531D01*
X11409491Y-12269531D02*
X11419015Y-12260008D01*
X11419015Y-12260008D02*
X11438062Y-12250484D01*
X11628539Y-12250484D02*
X11647586Y-12250484D01*
X11647586Y-12250484D02*
X11666634Y-12260008D01*
X11666634Y-12260008D02*
X11676158Y-12269531D01*
X11676158Y-12269531D02*
X11685682Y-12288579D01*
X11685682Y-12288579D02*
X11695205Y-12326674D01*
X11695205Y-12326674D02*
X11695205Y-12374293D01*
X11695205Y-12374293D02*
X11685682Y-12412388D01*
X11685682Y-12412388D02*
X11676158Y-12431436D01*
X11676158Y-12431436D02*
X11666634Y-12440960D01*
X11666634Y-12440960D02*
X11647586Y-12450484D01*
X11647586Y-12450484D02*
X11628539Y-12450484D01*
X11628539Y-12450484D02*
X11609491Y-12440960D01*
X11609491Y-12440960D02*
X11599967Y-12431436D01*
X11599967Y-12431436D02*
X11590443Y-12412388D01*
X11590443Y-12412388D02*
X11580920Y-12374293D01*
X11580920Y-12374293D02*
X11580920Y-12326674D01*
X11580920Y-12326674D02*
X11590443Y-12288579D01*
X11590443Y-12288579D02*
X11599967Y-12269531D01*
X11599967Y-12269531D02*
X11609491Y-12260008D01*
X11609491Y-12260008D02*
X11628539Y-12250484D01*
X11780920Y-12450484D02*
X11780920Y-12317150D01*
X11780920Y-12336198D02*
X11790443Y-12326674D01*
X11790443Y-12326674D02*
X11809491Y-12317150D01*
X11809491Y-12317150D02*
X11838063Y-12317150D01*
X11838063Y-12317150D02*
X11857110Y-12326674D01*
X11857110Y-12326674D02*
X11866634Y-12345722D01*
X11866634Y-12345722D02*
X11866634Y-12450484D01*
X11866634Y-12345722D02*
X11876158Y-12326674D01*
X11876158Y-12326674D02*
X11895205Y-12317150D01*
X11895205Y-12317150D02*
X11923777Y-12317150D01*
X11923777Y-12317150D02*
X11942824Y-12326674D01*
X11942824Y-12326674D02*
X11952348Y-12345722D01*
X11952348Y-12345722D02*
X11952348Y-12450484D01*
X12047586Y-12450484D02*
X12047586Y-12317150D01*
X12047586Y-12336198D02*
X12057110Y-12326674D01*
X12057110Y-12326674D02*
X12076158Y-12317150D01*
X12076158Y-12317150D02*
X12104729Y-12317150D01*
X12104729Y-12317150D02*
X12123777Y-12326674D01*
X12123777Y-12326674D02*
X12133301Y-12345722D01*
X12133301Y-12345722D02*
X12133301Y-12450484D01*
X12133301Y-12345722D02*
X12142824Y-12326674D01*
X12142824Y-12326674D02*
X12161872Y-12317150D01*
X12161872Y-12317150D02*
X12190443Y-12317150D01*
X12190443Y-12317150D02*
X12209491Y-12326674D01*
X12209491Y-12326674D02*
X12219015Y-12345722D01*
X12219015Y-12345722D02*
X12219015Y-12450484D01*
X12609491Y-12240960D02*
X12438063Y-12498103D01*
X12866634Y-12250484D02*
X12885682Y-12250484D01*
X12885682Y-12250484D02*
X12904729Y-12260008D01*
X12904729Y-12260008D02*
X12914253Y-12269531D01*
X12914253Y-12269531D02*
X12923777Y-12288579D01*
X12923777Y-12288579D02*
X12933301Y-12326674D01*
X12933301Y-12326674D02*
X12933301Y-12374293D01*
X12933301Y-12374293D02*
X12923777Y-12412388D01*
X12923777Y-12412388D02*
X12914253Y-12431436D01*
X12914253Y-12431436D02*
X12904729Y-12440960D01*
X12904729Y-12440960D02*
X12885682Y-12450484D01*
X12885682Y-12450484D02*
X12866634Y-12450484D01*
X12866634Y-12450484D02*
X12847586Y-12440960D01*
X12847586Y-12440960D02*
X12838063Y-12431436D01*
X12838063Y-12431436D02*
X12828539Y-12412388D01*
X12828539Y-12412388D02*
X12819015Y-12374293D01*
X12819015Y-12374293D02*
X12819015Y-12326674D01*
X12819015Y-12326674D02*
X12828539Y-12288579D01*
X12828539Y-12288579D02*
X12838063Y-12269531D01*
X12838063Y-12269531D02*
X12847586Y-12260008D01*
X12847586Y-12260008D02*
X12866634Y-12250484D01*
X13019015Y-12431436D02*
X13028539Y-12440960D01*
X13028539Y-12440960D02*
X13019015Y-12450484D01*
X13019015Y-12450484D02*
X13009491Y-12440960D01*
X13009491Y-12440960D02*
X13019015Y-12431436D01*
X13019015Y-12431436D02*
X13019015Y-12450484D01*
X13152348Y-12250484D02*
X13171396Y-12250484D01*
X13171396Y-12250484D02*
X13190444Y-12260008D01*
X13190444Y-12260008D02*
X13199967Y-12269531D01*
X13199967Y-12269531D02*
X13209491Y-12288579D01*
X13209491Y-12288579D02*
X13219015Y-12326674D01*
X13219015Y-12326674D02*
X13219015Y-12374293D01*
X13219015Y-12374293D02*
X13209491Y-12412388D01*
X13209491Y-12412388D02*
X13199967Y-12431436D01*
X13199967Y-12431436D02*
X13190444Y-12440960D01*
X13190444Y-12440960D02*
X13171396Y-12450484D01*
X13171396Y-12450484D02*
X13152348Y-12450484D01*
X13152348Y-12450484D02*
X13133301Y-12440960D01*
X13133301Y-12440960D02*
X13123777Y-12431436D01*
X13123777Y-12431436D02*
X13114253Y-12412388D01*
X13114253Y-12412388D02*
X13104729Y-12374293D01*
X13104729Y-12374293D02*
X13104729Y-12326674D01*
X13104729Y-12326674D02*
X13114253Y-12288579D01*
X13114253Y-12288579D02*
X13123777Y-12269531D01*
X13123777Y-12269531D02*
X13133301Y-12260008D01*
X13133301Y-12260008D02*
X13152348Y-12250484D01*
X13285682Y-12250484D02*
X13409491Y-12250484D01*
X13409491Y-12250484D02*
X13342825Y-12326674D01*
X13342825Y-12326674D02*
X13371396Y-12326674D01*
X13371396Y-12326674D02*
X13390444Y-12336198D01*
X13390444Y-12336198D02*
X13399967Y-12345722D01*
X13399967Y-12345722D02*
X13409491Y-12364769D01*
X13409491Y-12364769D02*
X13409491Y-12412388D01*
X13409491Y-12412388D02*
X13399967Y-12431436D01*
X13399967Y-12431436D02*
X13390444Y-12440960D01*
X13390444Y-12440960D02*
X13371396Y-12450484D01*
X13371396Y-12450484D02*
X13314253Y-12450484D01*
X13314253Y-12450484D02*
X13295206Y-12440960D01*
X13295206Y-12440960D02*
X13285682Y-12431436D01*
X13590444Y-12250484D02*
X13495206Y-12250484D01*
X13495206Y-12250484D02*
X13485682Y-12345722D01*
X13485682Y-12345722D02*
X13495206Y-12336198D01*
X13495206Y-12336198D02*
X13514253Y-12326674D01*
X13514253Y-12326674D02*
X13561872Y-12326674D01*
X13561872Y-12326674D02*
X13580920Y-12336198D01*
X13580920Y-12336198D02*
X13590444Y-12345722D01*
X13590444Y-12345722D02*
X13599967Y-12364769D01*
X13599967Y-12364769D02*
X13599967Y-12412388D01*
X13599967Y-12412388D02*
X13590444Y-12431436D01*
X13590444Y-12431436D02*
X13580920Y-12440960D01*
X13580920Y-12440960D02*
X13561872Y-12450484D01*
X13561872Y-12450484D02*
X13514253Y-12450484D01*
X13514253Y-12450484D02*
X13495206Y-12440960D01*
X13495206Y-12440960D02*
X13485682Y-12431436D01*
X13771396Y-12317150D02*
X13771396Y-12450484D01*
X13723777Y-12240960D02*
X13676158Y-12383817D01*
X13676158Y-12383817D02*
X13799967Y-12383817D01*
X13866634Y-12250484D02*
X13866634Y-12288579D01*
X13942825Y-12250484D02*
X13942825Y-12288579D01*
X14238063Y-12526674D02*
X14228539Y-12517150D01*
X14228539Y-12517150D02*
X14209491Y-12488579D01*
X14209491Y-12488579D02*
X14199968Y-12469531D01*
X14199968Y-12469531D02*
X14190444Y-12440960D01*
X14190444Y-12440960D02*
X14180920Y-12393341D01*
X14180920Y-12393341D02*
X14180920Y-12355246D01*
X14180920Y-12355246D02*
X14190444Y-12307627D01*
X14190444Y-12307627D02*
X14199968Y-12279055D01*
X14199968Y-12279055D02*
X14209491Y-12260008D01*
X14209491Y-12260008D02*
X14228539Y-12231436D01*
X14228539Y-12231436D02*
X14238063Y-12221912D01*
X14399968Y-12317150D02*
X14399968Y-12450484D01*
X14352348Y-12240960D02*
X14304729Y-12383817D01*
X14304729Y-12383817D02*
X14428539Y-12383817D01*
X14657110Y-12450484D02*
X14657110Y-12250484D01*
X14742825Y-12450484D02*
X14742825Y-12345722D01*
X14742825Y-12345722D02*
X14733301Y-12326674D01*
X14733301Y-12326674D02*
X14714253Y-12317150D01*
X14714253Y-12317150D02*
X14685682Y-12317150D01*
X14685682Y-12317150D02*
X14666634Y-12326674D01*
X14666634Y-12326674D02*
X14657110Y-12336198D01*
X14866634Y-12450484D02*
X14847587Y-12440960D01*
X14847587Y-12440960D02*
X14838063Y-12431436D01*
X14838063Y-12431436D02*
X14828539Y-12412388D01*
X14828539Y-12412388D02*
X14828539Y-12355246D01*
X14828539Y-12355246D02*
X14838063Y-12336198D01*
X14838063Y-12336198D02*
X14847587Y-12326674D01*
X14847587Y-12326674D02*
X14866634Y-12317150D01*
X14866634Y-12317150D02*
X14895206Y-12317150D01*
X14895206Y-12317150D02*
X14914253Y-12326674D01*
X14914253Y-12326674D02*
X14923777Y-12336198D01*
X14923777Y-12336198D02*
X14933301Y-12355246D01*
X14933301Y-12355246D02*
X14933301Y-12412388D01*
X14933301Y-12412388D02*
X14923777Y-12431436D01*
X14923777Y-12431436D02*
X14914253Y-12440960D01*
X14914253Y-12440960D02*
X14895206Y-12450484D01*
X14895206Y-12450484D02*
X14866634Y-12450484D01*
X15047587Y-12450484D02*
X15028539Y-12440960D01*
X15028539Y-12440960D02*
X15019015Y-12421912D01*
X15019015Y-12421912D02*
X15019015Y-12250484D01*
X15199968Y-12440960D02*
X15180920Y-12450484D01*
X15180920Y-12450484D02*
X15142825Y-12450484D01*
X15142825Y-12450484D02*
X15123777Y-12440960D01*
X15123777Y-12440960D02*
X15114253Y-12421912D01*
X15114253Y-12421912D02*
X15114253Y-12345722D01*
X15114253Y-12345722D02*
X15123777Y-12326674D01*
X15123777Y-12326674D02*
X15142825Y-12317150D01*
X15142825Y-12317150D02*
X15180920Y-12317150D01*
X15180920Y-12317150D02*
X15199968Y-12326674D01*
X15199968Y-12326674D02*
X15209491Y-12345722D01*
X15209491Y-12345722D02*
X15209491Y-12364769D01*
X15209491Y-12364769D02*
X15114253Y-12383817D01*
X15285682Y-12440960D02*
X15304730Y-12450484D01*
X15304730Y-12450484D02*
X15342825Y-12450484D01*
X15342825Y-12450484D02*
X15361872Y-12440960D01*
X15361872Y-12440960D02*
X15371396Y-12421912D01*
X15371396Y-12421912D02*
X15371396Y-12412388D01*
X15371396Y-12412388D02*
X15361872Y-12393341D01*
X15361872Y-12393341D02*
X15342825Y-12383817D01*
X15342825Y-12383817D02*
X15314253Y-12383817D01*
X15314253Y-12383817D02*
X15295206Y-12374293D01*
X15295206Y-12374293D02*
X15285682Y-12355246D01*
X15285682Y-12355246D02*
X15285682Y-12345722D01*
X15285682Y-12345722D02*
X15295206Y-12326674D01*
X15295206Y-12326674D02*
X15314253Y-12317150D01*
X15314253Y-12317150D02*
X15342825Y-12317150D01*
X15342825Y-12317150D02*
X15361872Y-12326674D01*
X15438063Y-12526674D02*
X15447587Y-12517150D01*
X15447587Y-12517150D02*
X15466634Y-12488579D01*
X15466634Y-12488579D02*
X15476158Y-12469531D01*
X15476158Y-12469531D02*
X15485682Y-12440960D01*
X15485682Y-12440960D02*
X15495206Y-12393341D01*
X15495206Y-12393341D02*
X15495206Y-12355246D01*
X15495206Y-12355246D02*
X15485682Y-12307627D01*
X15485682Y-12307627D02*
X15476158Y-12279055D01*
X15476158Y-12279055D02*
X15466634Y-12260008D01*
X15466634Y-12260008D02*
X15447587Y-12231436D01*
X15447587Y-12231436D02*
X15438063Y-12221912D01*
D10*
X10613000Y-12673000D02*
X10663000Y-12623000D01*
X10613000Y-12573000D01*
X10563000Y-12623000D01*
X10613000Y-12673000D01*
D11*
X11028539Y-12714484D02*
X10914253Y-12714484D01*
X10971396Y-12714484D02*
X10971396Y-12514484D01*
X10971396Y-12514484D02*
X10952348Y-12543055D01*
X10952348Y-12543055D02*
X10933301Y-12562103D01*
X10933301Y-12562103D02*
X10914253Y-12571627D01*
X11114253Y-12695436D02*
X11123777Y-12704960D01*
X11123777Y-12704960D02*
X11114253Y-12714484D01*
X11114253Y-12714484D02*
X11104729Y-12704960D01*
X11104729Y-12704960D02*
X11114253Y-12695436D01*
X11114253Y-12695436D02*
X11114253Y-12714484D01*
X11247586Y-12514484D02*
X11266634Y-12514484D01*
X11266634Y-12514484D02*
X11285682Y-12524008D01*
X11285682Y-12524008D02*
X11295205Y-12533531D01*
X11295205Y-12533531D02*
X11304729Y-12552579D01*
X11304729Y-12552579D02*
X11314253Y-12590674D01*
X11314253Y-12590674D02*
X11314253Y-12638293D01*
X11314253Y-12638293D02*
X11304729Y-12676388D01*
X11304729Y-12676388D02*
X11295205Y-12695436D01*
X11295205Y-12695436D02*
X11285682Y-12704960D01*
X11285682Y-12704960D02*
X11266634Y-12714484D01*
X11266634Y-12714484D02*
X11247586Y-12714484D01*
X11247586Y-12714484D02*
X11228539Y-12704960D01*
X11228539Y-12704960D02*
X11219015Y-12695436D01*
X11219015Y-12695436D02*
X11209491Y-12676388D01*
X11209491Y-12676388D02*
X11199967Y-12638293D01*
X11199967Y-12638293D02*
X11199967Y-12590674D01*
X11199967Y-12590674D02*
X11209491Y-12552579D01*
X11209491Y-12552579D02*
X11219015Y-12533531D01*
X11219015Y-12533531D02*
X11228539Y-12524008D01*
X11228539Y-12524008D02*
X11247586Y-12514484D01*
X11438062Y-12514484D02*
X11457110Y-12514484D01*
X11457110Y-12514484D02*
X11476158Y-12524008D01*
X11476158Y-12524008D02*
X11485682Y-12533531D01*
X11485682Y-12533531D02*
X11495205Y-12552579D01*
X11495205Y-12552579D02*
X11504729Y-12590674D01*
X11504729Y-12590674D02*
X11504729Y-12638293D01*
X11504729Y-12638293D02*
X11495205Y-12676388D01*
X11495205Y-12676388D02*
X11485682Y-12695436D01*
X11485682Y-12695436D02*
X11476158Y-12704960D01*
X11476158Y-12704960D02*
X11457110Y-12714484D01*
X11457110Y-12714484D02*
X11438062Y-12714484D01*
X11438062Y-12714484D02*
X11419015Y-12704960D01*
X11419015Y-12704960D02*
X11409491Y-12695436D01*
X11409491Y-12695436D02*
X11399967Y-12676388D01*
X11399967Y-12676388D02*
X11390443Y-12638293D01*
X11390443Y-12638293D02*
X11390443Y-12590674D01*
X11390443Y-12590674D02*
X11399967Y-12552579D01*
X11399967Y-12552579D02*
X11409491Y-12533531D01*
X11409491Y-12533531D02*
X11419015Y-12524008D01*
X11419015Y-12524008D02*
X11438062Y-12514484D01*
X11628539Y-12514484D02*
X11647586Y-12514484D01*
X11647586Y-12514484D02*
X11666634Y-12524008D01*
X11666634Y-12524008D02*
X11676158Y-12533531D01*
X11676158Y-12533531D02*
X11685682Y-12552579D01*
X11685682Y-12552579D02*
X11695205Y-12590674D01*
X11695205Y-12590674D02*
X11695205Y-12638293D01*
X11695205Y-12638293D02*
X11685682Y-12676388D01*
X11685682Y-12676388D02*
X11676158Y-12695436D01*
X11676158Y-12695436D02*
X11666634Y-12704960D01*
X11666634Y-12704960D02*
X11647586Y-12714484D01*
X11647586Y-12714484D02*
X11628539Y-12714484D01*
X11628539Y-12714484D02*
X11609491Y-12704960D01*
X11609491Y-12704960D02*
X11599967Y-12695436D01*
X11599967Y-12695436D02*
X11590443Y-12676388D01*
X11590443Y-12676388D02*
X11580920Y-12638293D01*
X11580920Y-12638293D02*
X11580920Y-12590674D01*
X11580920Y-12590674D02*
X11590443Y-12552579D01*
X11590443Y-12552579D02*
X11599967Y-12533531D01*
X11599967Y-12533531D02*
X11609491Y-12524008D01*
X11609491Y-12524008D02*
X11628539Y-12514484D01*
X11780920Y-12714484D02*
X11780920Y-12581150D01*
X11780920Y-12600198D02*
X11790443Y-12590674D01*
X11790443Y-12590674D02*
X11809491Y-12581150D01*
X11809491Y-12581150D02*
X11838063Y-12581150D01*
X11838063Y-12581150D02*
X11857110Y-12590674D01*
X11857110Y-12590674D02*
X11866634Y-12609722D01*
X11866634Y-12609722D02*
X11866634Y-12714484D01*
X11866634Y-12609722D02*
X11876158Y-12590674D01*
X11876158Y-12590674D02*
X11895205Y-12581150D01*
X11895205Y-12581150D02*
X11923777Y-12581150D01*
X11923777Y-12581150D02*
X11942824Y-12590674D01*
X11942824Y-12590674D02*
X11952348Y-12609722D01*
X11952348Y-12609722D02*
X11952348Y-12714484D01*
X12047586Y-12714484D02*
X12047586Y-12581150D01*
X12047586Y-12600198D02*
X12057110Y-12590674D01*
X12057110Y-12590674D02*
X12076158Y-12581150D01*
X12076158Y-12581150D02*
X12104729Y-12581150D01*
X12104729Y-12581150D02*
X12123777Y-12590674D01*
X12123777Y-12590674D02*
X12133301Y-12609722D01*
X12133301Y-12609722D02*
X12133301Y-12714484D01*
X12133301Y-12609722D02*
X12142824Y-12590674D01*
X12142824Y-12590674D02*
X12161872Y-12581150D01*
X12161872Y-12581150D02*
X12190443Y-12581150D01*
X12190443Y-12581150D02*
X12209491Y-12590674D01*
X12209491Y-12590674D02*
X12219015Y-12609722D01*
X12219015Y-12609722D02*
X12219015Y-12714484D01*
X12609491Y-12504960D02*
X12438063Y-12762103D01*
X12866634Y-12514484D02*
X12885682Y-12514484D01*
X12885682Y-12514484D02*
X12904729Y-12524008D01*
X12904729Y-12524008D02*
X12914253Y-12533531D01*
X12914253Y-12533531D02*
X12923777Y-12552579D01*
X12923777Y-12552579D02*
X12933301Y-12590674D01*
X12933301Y-12590674D02*
X12933301Y-12638293D01*
X12933301Y-12638293D02*
X12923777Y-12676388D01*
X12923777Y-12676388D02*
X12914253Y-12695436D01*
X12914253Y-12695436D02*
X12904729Y-12704960D01*
X12904729Y-12704960D02*
X12885682Y-12714484D01*
X12885682Y-12714484D02*
X12866634Y-12714484D01*
X12866634Y-12714484D02*
X12847586Y-12704960D01*
X12847586Y-12704960D02*
X12838063Y-12695436D01*
X12838063Y-12695436D02*
X12828539Y-12676388D01*
X12828539Y-12676388D02*
X12819015Y-12638293D01*
X12819015Y-12638293D02*
X12819015Y-12590674D01*
X12819015Y-12590674D02*
X12828539Y-12552579D01*
X12828539Y-12552579D02*
X12838063Y-12533531D01*
X12838063Y-12533531D02*
X12847586Y-12524008D01*
X12847586Y-12524008D02*
X12866634Y-12514484D01*
X13019015Y-12695436D02*
X13028539Y-12704960D01*
X13028539Y-12704960D02*
X13019015Y-12714484D01*
X13019015Y-12714484D02*
X13009491Y-12704960D01*
X13009491Y-12704960D02*
X13019015Y-12695436D01*
X13019015Y-12695436D02*
X13019015Y-12714484D01*
X13152348Y-12514484D02*
X13171396Y-12514484D01*
X13171396Y-12514484D02*
X13190444Y-12524008D01*
X13190444Y-12524008D02*
X13199967Y-12533531D01*
X13199967Y-12533531D02*
X13209491Y-12552579D01*
X13209491Y-12552579D02*
X13219015Y-12590674D01*
X13219015Y-12590674D02*
X13219015Y-12638293D01*
X13219015Y-12638293D02*
X13209491Y-12676388D01*
X13209491Y-12676388D02*
X13199967Y-12695436D01*
X13199967Y-12695436D02*
X13190444Y-12704960D01*
X13190444Y-12704960D02*
X13171396Y-12714484D01*
X13171396Y-12714484D02*
X13152348Y-12714484D01*
X13152348Y-12714484D02*
X13133301Y-12704960D01*
X13133301Y-12704960D02*
X13123777Y-12695436D01*
X13123777Y-12695436D02*
X13114253Y-12676388D01*
X13114253Y-12676388D02*
X13104729Y-12638293D01*
X13104729Y-12638293D02*
X13104729Y-12590674D01*
X13104729Y-12590674D02*
X13114253Y-12552579D01*
X13114253Y-12552579D02*
X13123777Y-12533531D01*
X13123777Y-12533531D02*
X13133301Y-12524008D01*
X13133301Y-12524008D02*
X13152348Y-12514484D01*
X13285682Y-12514484D02*
X13409491Y-12514484D01*
X13409491Y-12514484D02*
X13342825Y-12590674D01*
X13342825Y-12590674D02*
X13371396Y-12590674D01*
X13371396Y-12590674D02*
X13390444Y-12600198D01*
X13390444Y-12600198D02*
X13399967Y-12609722D01*
X13399967Y-12609722D02*
X13409491Y-12628769D01*
X13409491Y-12628769D02*
X13409491Y-12676388D01*
X13409491Y-12676388D02*
X13399967Y-12695436D01*
X13399967Y-12695436D02*
X13390444Y-12704960D01*
X13390444Y-12704960D02*
X13371396Y-12714484D01*
X13371396Y-12714484D02*
X13314253Y-12714484D01*
X13314253Y-12714484D02*
X13295206Y-12704960D01*
X13295206Y-12704960D02*
X13285682Y-12695436D01*
X13504729Y-12714484D02*
X13542825Y-12714484D01*
X13542825Y-12714484D02*
X13561872Y-12704960D01*
X13561872Y-12704960D02*
X13571396Y-12695436D01*
X13571396Y-12695436D02*
X13590444Y-12666865D01*
X13590444Y-12666865D02*
X13599967Y-12628769D01*
X13599967Y-12628769D02*
X13599967Y-12552579D01*
X13599967Y-12552579D02*
X13590444Y-12533531D01*
X13590444Y-12533531D02*
X13580920Y-12524008D01*
X13580920Y-12524008D02*
X13561872Y-12514484D01*
X13561872Y-12514484D02*
X13523777Y-12514484D01*
X13523777Y-12514484D02*
X13504729Y-12524008D01*
X13504729Y-12524008D02*
X13495206Y-12533531D01*
X13495206Y-12533531D02*
X13485682Y-12552579D01*
X13485682Y-12552579D02*
X13485682Y-12600198D01*
X13485682Y-12600198D02*
X13495206Y-12619246D01*
X13495206Y-12619246D02*
X13504729Y-12628769D01*
X13504729Y-12628769D02*
X13523777Y-12638293D01*
X13523777Y-12638293D02*
X13561872Y-12638293D01*
X13561872Y-12638293D02*
X13580920Y-12628769D01*
X13580920Y-12628769D02*
X13590444Y-12619246D01*
X13590444Y-12619246D02*
X13599967Y-12600198D01*
X13771396Y-12581150D02*
X13771396Y-12714484D01*
X13723777Y-12504960D02*
X13676158Y-12647817D01*
X13676158Y-12647817D02*
X13799967Y-12647817D01*
X13866634Y-12514484D02*
X13866634Y-12552579D01*
X13942825Y-12514484D02*
X13942825Y-12552579D01*
X14238063Y-12790674D02*
X14228539Y-12781150D01*
X14228539Y-12781150D02*
X14209491Y-12752579D01*
X14209491Y-12752579D02*
X14199968Y-12733531D01*
X14199968Y-12733531D02*
X14190444Y-12704960D01*
X14190444Y-12704960D02*
X14180920Y-12657341D01*
X14180920Y-12657341D02*
X14180920Y-12619246D01*
X14180920Y-12619246D02*
X14190444Y-12571627D01*
X14190444Y-12571627D02*
X14199968Y-12543055D01*
X14199968Y-12543055D02*
X14209491Y-12524008D01*
X14209491Y-12524008D02*
X14228539Y-12495436D01*
X14228539Y-12495436D02*
X14238063Y-12485912D01*
X14419015Y-12714484D02*
X14304729Y-12714484D01*
X14361872Y-12714484D02*
X14361872Y-12514484D01*
X14361872Y-12514484D02*
X14342825Y-12543055D01*
X14342825Y-12543055D02*
X14323777Y-12562103D01*
X14323777Y-12562103D02*
X14304729Y-12571627D01*
X14590444Y-12581150D02*
X14590444Y-12714484D01*
X14542825Y-12504960D02*
X14495206Y-12647817D01*
X14495206Y-12647817D02*
X14619015Y-12647817D01*
X14847587Y-12714484D02*
X14847587Y-12514484D01*
X14933301Y-12714484D02*
X14933301Y-12609722D01*
X14933301Y-12609722D02*
X14923777Y-12590674D01*
X14923777Y-12590674D02*
X14904730Y-12581150D01*
X14904730Y-12581150D02*
X14876158Y-12581150D01*
X14876158Y-12581150D02*
X14857110Y-12590674D01*
X14857110Y-12590674D02*
X14847587Y-12600198D01*
X15057110Y-12714484D02*
X15038063Y-12704960D01*
X15038063Y-12704960D02*
X15028539Y-12695436D01*
X15028539Y-12695436D02*
X15019015Y-12676388D01*
X15019015Y-12676388D02*
X15019015Y-12619246D01*
X15019015Y-12619246D02*
X15028539Y-12600198D01*
X15028539Y-12600198D02*
X15038063Y-12590674D01*
X15038063Y-12590674D02*
X15057110Y-12581150D01*
X15057110Y-12581150D02*
X15085682Y-12581150D01*
X15085682Y-12581150D02*
X15104730Y-12590674D01*
X15104730Y-12590674D02*
X15114253Y-12600198D01*
X15114253Y-12600198D02*
X15123777Y-12619246D01*
X15123777Y-12619246D02*
X15123777Y-12676388D01*
X15123777Y-12676388D02*
X15114253Y-12695436D01*
X15114253Y-12695436D02*
X15104730Y-12704960D01*
X15104730Y-12704960D02*
X15085682Y-12714484D01*
X15085682Y-12714484D02*
X15057110Y-12714484D01*
X15238063Y-12714484D02*
X15219015Y-12704960D01*
X15219015Y-12704960D02*
X15209491Y-12685912D01*
X15209491Y-12685912D02*
X15209491Y-12514484D01*
X15390444Y-12704960D02*
X15371396Y-12714484D01*
X15371396Y-12714484D02*
X15333301Y-12714484D01*
X15333301Y-12714484D02*
X15314253Y-12704960D01*
X15314253Y-12704960D02*
X15304730Y-12685912D01*
X15304730Y-12685912D02*
X15304730Y-12609722D01*
X15304730Y-12609722D02*
X15314253Y-12590674D01*
X15314253Y-12590674D02*
X15333301Y-12581150D01*
X15333301Y-12581150D02*
X15371396Y-12581150D01*
X15371396Y-12581150D02*
X15390444Y-12590674D01*
X15390444Y-12590674D02*
X15399968Y-12609722D01*
X15399968Y-12609722D02*
X15399968Y-12628769D01*
X15399968Y-12628769D02*
X15304730Y-12647817D01*
X15476158Y-12704960D02*
X15495206Y-12714484D01*
X15495206Y-12714484D02*
X15533301Y-12714484D01*
X15533301Y-12714484D02*
X15552349Y-12704960D01*
X15552349Y-12704960D02*
X15561872Y-12685912D01*
X15561872Y-12685912D02*
X15561872Y-12676388D01*
X15561872Y-12676388D02*
X15552349Y-12657341D01*
X15552349Y-12657341D02*
X15533301Y-12647817D01*
X15533301Y-12647817D02*
X15504730Y-12647817D01*
X15504730Y-12647817D02*
X15485682Y-12638293D01*
X15485682Y-12638293D02*
X15476158Y-12619246D01*
X15476158Y-12619246D02*
X15476158Y-12609722D01*
X15476158Y-12609722D02*
X15485682Y-12590674D01*
X15485682Y-12590674D02*
X15504730Y-12581150D01*
X15504730Y-12581150D02*
X15533301Y-12581150D01*
X15533301Y-12581150D02*
X15552349Y-12590674D01*
X15628539Y-12790674D02*
X15638063Y-12781150D01*
X15638063Y-12781150D02*
X15657111Y-12752579D01*
X15657111Y-12752579D02*
X15666634Y-12733531D01*
X15666634Y-12733531D02*
X15676158Y-12704960D01*
X15676158Y-12704960D02*
X15685682Y-12657341D01*
X15685682Y-12657341D02*
X15685682Y-12619246D01*
X15685682Y-12619246D02*
X15676158Y-12571627D01*
X15676158Y-12571627D02*
X15666634Y-12543055D01*
X15666634Y-12543055D02*
X15657111Y-12524008D01*
X15657111Y-12524008D02*
X15638063Y-12495436D01*
X15638063Y-12495436D02*
X15628539Y-12485912D01*
D16*
X10561400Y-12836200D02*
X10663000Y-12937800D01*
X10663000Y-12836200D02*
X10561400Y-12937800D01*
X10663000Y-12887000D02*
G75*
G03*
X10663000Y-12887000I-50800J0D01*
G01*
D11*
X11028539Y-12978484D02*
X10914253Y-12978484D01*
X10971396Y-12978484D02*
X10971396Y-12778484D01*
X10971396Y-12778484D02*
X10952348Y-12807055D01*
X10952348Y-12807055D02*
X10933301Y-12826103D01*
X10933301Y-12826103D02*
X10914253Y-12835627D01*
X11114253Y-12959436D02*
X11123777Y-12968960D01*
X11123777Y-12968960D02*
X11114253Y-12978484D01*
X11114253Y-12978484D02*
X11104729Y-12968960D01*
X11104729Y-12968960D02*
X11114253Y-12959436D01*
X11114253Y-12959436D02*
X11114253Y-12978484D01*
X11247586Y-12778484D02*
X11266634Y-12778484D01*
X11266634Y-12778484D02*
X11285682Y-12788008D01*
X11285682Y-12788008D02*
X11295205Y-12797531D01*
X11295205Y-12797531D02*
X11304729Y-12816579D01*
X11304729Y-12816579D02*
X11314253Y-12854674D01*
X11314253Y-12854674D02*
X11314253Y-12902293D01*
X11314253Y-12902293D02*
X11304729Y-12940388D01*
X11304729Y-12940388D02*
X11295205Y-12959436D01*
X11295205Y-12959436D02*
X11285682Y-12968960D01*
X11285682Y-12968960D02*
X11266634Y-12978484D01*
X11266634Y-12978484D02*
X11247586Y-12978484D01*
X11247586Y-12978484D02*
X11228539Y-12968960D01*
X11228539Y-12968960D02*
X11219015Y-12959436D01*
X11219015Y-12959436D02*
X11209491Y-12940388D01*
X11209491Y-12940388D02*
X11199967Y-12902293D01*
X11199967Y-12902293D02*
X11199967Y-12854674D01*
X11199967Y-12854674D02*
X11209491Y-12816579D01*
X11209491Y-12816579D02*
X11219015Y-12797531D01*
X11219015Y-12797531D02*
X11228539Y-12788008D01*
X11228539Y-12788008D02*
X11247586Y-12778484D01*
X11504729Y-12978484D02*
X11390443Y-12978484D01*
X11447586Y-12978484D02*
X11447586Y-12778484D01*
X11447586Y-12778484D02*
X11428539Y-12807055D01*
X11428539Y-12807055D02*
X11409491Y-12826103D01*
X11409491Y-12826103D02*
X11390443Y-12835627D01*
X11676158Y-12778484D02*
X11638062Y-12778484D01*
X11638062Y-12778484D02*
X11619015Y-12788008D01*
X11619015Y-12788008D02*
X11609491Y-12797531D01*
X11609491Y-12797531D02*
X11590443Y-12826103D01*
X11590443Y-12826103D02*
X11580920Y-12864198D01*
X11580920Y-12864198D02*
X11580920Y-12940388D01*
X11580920Y-12940388D02*
X11590443Y-12959436D01*
X11590443Y-12959436D02*
X11599967Y-12968960D01*
X11599967Y-12968960D02*
X11619015Y-12978484D01*
X11619015Y-12978484D02*
X11657110Y-12978484D01*
X11657110Y-12978484D02*
X11676158Y-12968960D01*
X11676158Y-12968960D02*
X11685682Y-12959436D01*
X11685682Y-12959436D02*
X11695205Y-12940388D01*
X11695205Y-12940388D02*
X11695205Y-12892769D01*
X11695205Y-12892769D02*
X11685682Y-12873722D01*
X11685682Y-12873722D02*
X11676158Y-12864198D01*
X11676158Y-12864198D02*
X11657110Y-12854674D01*
X11657110Y-12854674D02*
X11619015Y-12854674D01*
X11619015Y-12854674D02*
X11599967Y-12864198D01*
X11599967Y-12864198D02*
X11590443Y-12873722D01*
X11590443Y-12873722D02*
X11580920Y-12892769D01*
X11780920Y-12978484D02*
X11780920Y-12845150D01*
X11780920Y-12864198D02*
X11790443Y-12854674D01*
X11790443Y-12854674D02*
X11809491Y-12845150D01*
X11809491Y-12845150D02*
X11838063Y-12845150D01*
X11838063Y-12845150D02*
X11857110Y-12854674D01*
X11857110Y-12854674D02*
X11866634Y-12873722D01*
X11866634Y-12873722D02*
X11866634Y-12978484D01*
X11866634Y-12873722D02*
X11876158Y-12854674D01*
X11876158Y-12854674D02*
X11895205Y-12845150D01*
X11895205Y-12845150D02*
X11923777Y-12845150D01*
X11923777Y-12845150D02*
X11942824Y-12854674D01*
X11942824Y-12854674D02*
X11952348Y-12873722D01*
X11952348Y-12873722D02*
X11952348Y-12978484D01*
X12047586Y-12978484D02*
X12047586Y-12845150D01*
X12047586Y-12864198D02*
X12057110Y-12854674D01*
X12057110Y-12854674D02*
X12076158Y-12845150D01*
X12076158Y-12845150D02*
X12104729Y-12845150D01*
X12104729Y-12845150D02*
X12123777Y-12854674D01*
X12123777Y-12854674D02*
X12133301Y-12873722D01*
X12133301Y-12873722D02*
X12133301Y-12978484D01*
X12133301Y-12873722D02*
X12142824Y-12854674D01*
X12142824Y-12854674D02*
X12161872Y-12845150D01*
X12161872Y-12845150D02*
X12190443Y-12845150D01*
X12190443Y-12845150D02*
X12209491Y-12854674D01*
X12209491Y-12854674D02*
X12219015Y-12873722D01*
X12219015Y-12873722D02*
X12219015Y-12978484D01*
X12609491Y-12768960D02*
X12438063Y-13026103D01*
X12866634Y-12778484D02*
X12885682Y-12778484D01*
X12885682Y-12778484D02*
X12904729Y-12788008D01*
X12904729Y-12788008D02*
X12914253Y-12797531D01*
X12914253Y-12797531D02*
X12923777Y-12816579D01*
X12923777Y-12816579D02*
X12933301Y-12854674D01*
X12933301Y-12854674D02*
X12933301Y-12902293D01*
X12933301Y-12902293D02*
X12923777Y-12940388D01*
X12923777Y-12940388D02*
X12914253Y-12959436D01*
X12914253Y-12959436D02*
X12904729Y-12968960D01*
X12904729Y-12968960D02*
X12885682Y-12978484D01*
X12885682Y-12978484D02*
X12866634Y-12978484D01*
X12866634Y-12978484D02*
X12847586Y-12968960D01*
X12847586Y-12968960D02*
X12838063Y-12959436D01*
X12838063Y-12959436D02*
X12828539Y-12940388D01*
X12828539Y-12940388D02*
X12819015Y-12902293D01*
X12819015Y-12902293D02*
X12819015Y-12854674D01*
X12819015Y-12854674D02*
X12828539Y-12816579D01*
X12828539Y-12816579D02*
X12838063Y-12797531D01*
X12838063Y-12797531D02*
X12847586Y-12788008D01*
X12847586Y-12788008D02*
X12866634Y-12778484D01*
X13019015Y-12959436D02*
X13028539Y-12968960D01*
X13028539Y-12968960D02*
X13019015Y-12978484D01*
X13019015Y-12978484D02*
X13009491Y-12968960D01*
X13009491Y-12968960D02*
X13019015Y-12959436D01*
X13019015Y-12959436D02*
X13019015Y-12978484D01*
X13152348Y-12778484D02*
X13171396Y-12778484D01*
X13171396Y-12778484D02*
X13190444Y-12788008D01*
X13190444Y-12788008D02*
X13199967Y-12797531D01*
X13199967Y-12797531D02*
X13209491Y-12816579D01*
X13209491Y-12816579D02*
X13219015Y-12854674D01*
X13219015Y-12854674D02*
X13219015Y-12902293D01*
X13219015Y-12902293D02*
X13209491Y-12940388D01*
X13209491Y-12940388D02*
X13199967Y-12959436D01*
X13199967Y-12959436D02*
X13190444Y-12968960D01*
X13190444Y-12968960D02*
X13171396Y-12978484D01*
X13171396Y-12978484D02*
X13152348Y-12978484D01*
X13152348Y-12978484D02*
X13133301Y-12968960D01*
X13133301Y-12968960D02*
X13123777Y-12959436D01*
X13123777Y-12959436D02*
X13114253Y-12940388D01*
X13114253Y-12940388D02*
X13104729Y-12902293D01*
X13104729Y-12902293D02*
X13104729Y-12854674D01*
X13104729Y-12854674D02*
X13114253Y-12816579D01*
X13114253Y-12816579D02*
X13123777Y-12797531D01*
X13123777Y-12797531D02*
X13133301Y-12788008D01*
X13133301Y-12788008D02*
X13152348Y-12778484D01*
X13390444Y-12845150D02*
X13390444Y-12978484D01*
X13342825Y-12768960D02*
X13295206Y-12911817D01*
X13295206Y-12911817D02*
X13419015Y-12911817D01*
X13533301Y-12778484D02*
X13552348Y-12778484D01*
X13552348Y-12778484D02*
X13571396Y-12788008D01*
X13571396Y-12788008D02*
X13580920Y-12797531D01*
X13580920Y-12797531D02*
X13590444Y-12816579D01*
X13590444Y-12816579D02*
X13599967Y-12854674D01*
X13599967Y-12854674D02*
X13599967Y-12902293D01*
X13599967Y-12902293D02*
X13590444Y-12940388D01*
X13590444Y-12940388D02*
X13580920Y-12959436D01*
X13580920Y-12959436D02*
X13571396Y-12968960D01*
X13571396Y-12968960D02*
X13552348Y-12978484D01*
X13552348Y-12978484D02*
X13533301Y-12978484D01*
X13533301Y-12978484D02*
X13514253Y-12968960D01*
X13514253Y-12968960D02*
X13504729Y-12959436D01*
X13504729Y-12959436D02*
X13495206Y-12940388D01*
X13495206Y-12940388D02*
X13485682Y-12902293D01*
X13485682Y-12902293D02*
X13485682Y-12854674D01*
X13485682Y-12854674D02*
X13495206Y-12816579D01*
X13495206Y-12816579D02*
X13504729Y-12797531D01*
X13504729Y-12797531D02*
X13514253Y-12788008D01*
X13514253Y-12788008D02*
X13533301Y-12778484D01*
X13723777Y-12778484D02*
X13742825Y-12778484D01*
X13742825Y-12778484D02*
X13761872Y-12788008D01*
X13761872Y-12788008D02*
X13771396Y-12797531D01*
X13771396Y-12797531D02*
X13780920Y-12816579D01*
X13780920Y-12816579D02*
X13790444Y-12854674D01*
X13790444Y-12854674D02*
X13790444Y-12902293D01*
X13790444Y-12902293D02*
X13780920Y-12940388D01*
X13780920Y-12940388D02*
X13771396Y-12959436D01*
X13771396Y-12959436D02*
X13761872Y-12968960D01*
X13761872Y-12968960D02*
X13742825Y-12978484D01*
X13742825Y-12978484D02*
X13723777Y-12978484D01*
X13723777Y-12978484D02*
X13704729Y-12968960D01*
X13704729Y-12968960D02*
X13695206Y-12959436D01*
X13695206Y-12959436D02*
X13685682Y-12940388D01*
X13685682Y-12940388D02*
X13676158Y-12902293D01*
X13676158Y-12902293D02*
X13676158Y-12854674D01*
X13676158Y-12854674D02*
X13685682Y-12816579D01*
X13685682Y-12816579D02*
X13695206Y-12797531D01*
X13695206Y-12797531D02*
X13704729Y-12788008D01*
X13704729Y-12788008D02*
X13723777Y-12778484D01*
X13866634Y-12778484D02*
X13866634Y-12816579D01*
X13942825Y-12778484D02*
X13942825Y-12816579D01*
X14238063Y-13054674D02*
X14228539Y-13045150D01*
X14228539Y-13045150D02*
X14209491Y-13016579D01*
X14209491Y-13016579D02*
X14199968Y-12997531D01*
X14199968Y-12997531D02*
X14190444Y-12968960D01*
X14190444Y-12968960D02*
X14180920Y-12921341D01*
X14180920Y-12921341D02*
X14180920Y-12883246D01*
X14180920Y-12883246D02*
X14190444Y-12835627D01*
X14190444Y-12835627D02*
X14199968Y-12807055D01*
X14199968Y-12807055D02*
X14209491Y-12788008D01*
X14209491Y-12788008D02*
X14228539Y-12759436D01*
X14228539Y-12759436D02*
X14238063Y-12749912D01*
X14323777Y-12978484D02*
X14361872Y-12978484D01*
X14361872Y-12978484D02*
X14380920Y-12968960D01*
X14380920Y-12968960D02*
X14390444Y-12959436D01*
X14390444Y-12959436D02*
X14409491Y-12930865D01*
X14409491Y-12930865D02*
X14419015Y-12892769D01*
X14419015Y-12892769D02*
X14419015Y-12816579D01*
X14419015Y-12816579D02*
X14409491Y-12797531D01*
X14409491Y-12797531D02*
X14399968Y-12788008D01*
X14399968Y-12788008D02*
X14380920Y-12778484D01*
X14380920Y-12778484D02*
X14342825Y-12778484D01*
X14342825Y-12778484D02*
X14323777Y-12788008D01*
X14323777Y-12788008D02*
X14314253Y-12797531D01*
X14314253Y-12797531D02*
X14304729Y-12816579D01*
X14304729Y-12816579D02*
X14304729Y-12864198D01*
X14304729Y-12864198D02*
X14314253Y-12883246D01*
X14314253Y-12883246D02*
X14323777Y-12892769D01*
X14323777Y-12892769D02*
X14342825Y-12902293D01*
X14342825Y-12902293D02*
X14380920Y-12902293D01*
X14380920Y-12902293D02*
X14399968Y-12892769D01*
X14399968Y-12892769D02*
X14409491Y-12883246D01*
X14409491Y-12883246D02*
X14419015Y-12864198D01*
X14495206Y-12797531D02*
X14504729Y-12788008D01*
X14504729Y-12788008D02*
X14523777Y-12778484D01*
X14523777Y-12778484D02*
X14571396Y-12778484D01*
X14571396Y-12778484D02*
X14590444Y-12788008D01*
X14590444Y-12788008D02*
X14599968Y-12797531D01*
X14599968Y-12797531D02*
X14609491Y-12816579D01*
X14609491Y-12816579D02*
X14609491Y-12835627D01*
X14609491Y-12835627D02*
X14599968Y-12864198D01*
X14599968Y-12864198D02*
X14485682Y-12978484D01*
X14485682Y-12978484D02*
X14609491Y-12978484D01*
X14847587Y-12978484D02*
X14847587Y-12778484D01*
X14933301Y-12978484D02*
X14933301Y-12873722D01*
X14933301Y-12873722D02*
X14923777Y-12854674D01*
X14923777Y-12854674D02*
X14904730Y-12845150D01*
X14904730Y-12845150D02*
X14876158Y-12845150D01*
X14876158Y-12845150D02*
X14857110Y-12854674D01*
X14857110Y-12854674D02*
X14847587Y-12864198D01*
X15057110Y-12978484D02*
X15038063Y-12968960D01*
X15038063Y-12968960D02*
X15028539Y-12959436D01*
X15028539Y-12959436D02*
X15019015Y-12940388D01*
X15019015Y-12940388D02*
X15019015Y-12883246D01*
X15019015Y-12883246D02*
X15028539Y-12864198D01*
X15028539Y-12864198D02*
X15038063Y-12854674D01*
X15038063Y-12854674D02*
X15057110Y-12845150D01*
X15057110Y-12845150D02*
X15085682Y-12845150D01*
X15085682Y-12845150D02*
X15104730Y-12854674D01*
X15104730Y-12854674D02*
X15114253Y-12864198D01*
X15114253Y-12864198D02*
X15123777Y-12883246D01*
X15123777Y-12883246D02*
X15123777Y-12940388D01*
X15123777Y-12940388D02*
X15114253Y-12959436D01*
X15114253Y-12959436D02*
X15104730Y-12968960D01*
X15104730Y-12968960D02*
X15085682Y-12978484D01*
X15085682Y-12978484D02*
X15057110Y-12978484D01*
X15238063Y-12978484D02*
X15219015Y-12968960D01*
X15219015Y-12968960D02*
X15209491Y-12949912D01*
X15209491Y-12949912D02*
X15209491Y-12778484D01*
X15390444Y-12968960D02*
X15371396Y-12978484D01*
X15371396Y-12978484D02*
X15333301Y-12978484D01*
X15333301Y-12978484D02*
X15314253Y-12968960D01*
X15314253Y-12968960D02*
X15304730Y-12949912D01*
X15304730Y-12949912D02*
X15304730Y-12873722D01*
X15304730Y-12873722D02*
X15314253Y-12854674D01*
X15314253Y-12854674D02*
X15333301Y-12845150D01*
X15333301Y-12845150D02*
X15371396Y-12845150D01*
X15371396Y-12845150D02*
X15390444Y-12854674D01*
X15390444Y-12854674D02*
X15399968Y-12873722D01*
X15399968Y-12873722D02*
X15399968Y-12892769D01*
X15399968Y-12892769D02*
X15304730Y-12911817D01*
X15476158Y-12968960D02*
X15495206Y-12978484D01*
X15495206Y-12978484D02*
X15533301Y-12978484D01*
X15533301Y-12978484D02*
X15552349Y-12968960D01*
X15552349Y-12968960D02*
X15561872Y-12949912D01*
X15561872Y-12949912D02*
X15561872Y-12940388D01*
X15561872Y-12940388D02*
X15552349Y-12921341D01*
X15552349Y-12921341D02*
X15533301Y-12911817D01*
X15533301Y-12911817D02*
X15504730Y-12911817D01*
X15504730Y-12911817D02*
X15485682Y-12902293D01*
X15485682Y-12902293D02*
X15476158Y-12883246D01*
X15476158Y-12883246D02*
X15476158Y-12873722D01*
X15476158Y-12873722D02*
X15485682Y-12854674D01*
X15485682Y-12854674D02*
X15504730Y-12845150D01*
X15504730Y-12845150D02*
X15533301Y-12845150D01*
X15533301Y-12845150D02*
X15552349Y-12854674D01*
X15628539Y-13054674D02*
X15638063Y-13045150D01*
X15638063Y-13045150D02*
X15657111Y-13016579D01*
X15657111Y-13016579D02*
X15666634Y-12997531D01*
X15666634Y-12997531D02*
X15676158Y-12968960D01*
X15676158Y-12968960D02*
X15685682Y-12921341D01*
X15685682Y-12921341D02*
X15685682Y-12883246D01*
X15685682Y-12883246D02*
X15676158Y-12835627D01*
X15676158Y-12835627D02*
X15666634Y-12807055D01*
X15666634Y-12807055D02*
X15657111Y-12788008D01*
X15657111Y-12788008D02*
X15638063Y-12759436D01*
X15638063Y-12759436D02*
X15628539Y-12749912D01*
M02*
