%TF.GenerationSoftware,KiCad,Pcbnew,7.0.5*%
%TF.CreationDate,2023-10-27T13:43:38+01:00*%
%TF.ProjectId,OptiprodV2,4f707469-7072-46f6-9456-322e6b696361,rev?*%
%TF.SameCoordinates,Original*%
%TF.FileFunction,Soldermask,Bot*%
%TF.FilePolarity,Negative*%
%FSLAX46Y46*%
G04 Gerber Fmt 4.6, Leading zero omitted, Abs format (unit mm)*
G04 Created by KiCad (PCBNEW 7.0.5) date 2023-10-27 13:43:38*
%MOMM*%
%LPD*%
G01*
G04 APERTURE LIST*
%ADD10C,2.000000*%
%ADD11O,1.727200X1.727200*%
%ADD12R,1.727200X1.727200*%
%ADD13C,3.200000*%
%ADD14C,1.400000*%
%ADD15O,1.400000X1.400000*%
%ADD16R,1.050000X1.500000*%
%ADD17O,1.050000X1.500000*%
%ADD18R,1.800000X1.800000*%
%ADD19O,1.800000X1.800000*%
%ADD20R,1.600000X1.600000*%
%ADD21O,1.600000X1.600000*%
%ADD22C,1.440000*%
G04 APERTURE END LIST*
D10*
%TO.C,GNDIN1*%
X170180000Y-99060000D03*
%TD*%
D11*
%TO.C,A2*%
X141224000Y-106680000D03*
X116840000Y-58420000D03*
X114300000Y-58420000D03*
X159131000Y-81280000D03*
X159131000Y-83820000D03*
X128524000Y-106680000D03*
X161671000Y-81280000D03*
X159131000Y-78740000D03*
X125984000Y-106680000D03*
D12*
X192024000Y-101600000D03*
X189484000Y-101600000D03*
X161671000Y-83820000D03*
X138684000Y-106680000D03*
X136144000Y-106680000D03*
X121920000Y-58420000D03*
D11*
X192024000Y-99060000D03*
X189484000Y-99060000D03*
X192024000Y-96520000D03*
X189484000Y-96520000D03*
X192024000Y-93980000D03*
X189484000Y-93980000D03*
X192024000Y-91440000D03*
X189484000Y-91440000D03*
X192024000Y-88900000D03*
X189484000Y-88900000D03*
X192024000Y-86360000D03*
X189484000Y-86360000D03*
X192024000Y-83820000D03*
X189484000Y-83820000D03*
X192024000Y-81280000D03*
X189484000Y-81280000D03*
X192024000Y-78740000D03*
X189484000Y-78740000D03*
X192024000Y-76200000D03*
X189484000Y-76200000D03*
X192024000Y-73660000D03*
X189484000Y-73660000D03*
X192024000Y-71120000D03*
X189484000Y-71120000D03*
X192024000Y-68580000D03*
X189484000Y-68580000D03*
X192024000Y-66040000D03*
X189484000Y-66040000D03*
X192024000Y-63500000D03*
X189484000Y-63500000D03*
X192024000Y-60960000D03*
X189484000Y-60960000D03*
X181864000Y-58420000D03*
X179324000Y-58420000D03*
X176784000Y-58420000D03*
X174244000Y-58420000D03*
X171704000Y-58420000D03*
X169164000Y-58420000D03*
X166624000Y-58420000D03*
X164084000Y-58420000D03*
X124460000Y-58420000D03*
X127000000Y-58420000D03*
X129540000Y-58420000D03*
X132080000Y-58420000D03*
X134620000Y-58420000D03*
X137160000Y-58420000D03*
X141224000Y-58420000D03*
X143764000Y-58420000D03*
X146304000Y-58420000D03*
X148844000Y-58420000D03*
X151384000Y-58420000D03*
X153924000Y-58420000D03*
X156464000Y-58420000D03*
X159004000Y-58420000D03*
X119380000Y-58420000D03*
X186944000Y-106680000D03*
X184404000Y-106680000D03*
X181864000Y-106680000D03*
X179324000Y-106680000D03*
X176784000Y-106680000D03*
X174244000Y-106680000D03*
X171704000Y-106680000D03*
X169164000Y-106680000D03*
X164084000Y-106680000D03*
X161544000Y-106680000D03*
X159004000Y-106680000D03*
X156464000Y-106680000D03*
X153924000Y-106680000D03*
X151384000Y-106680000D03*
X148844000Y-106680000D03*
X146304000Y-106680000D03*
X192024000Y-58420000D03*
X189484000Y-58420000D03*
X161671000Y-78740000D03*
X133604000Y-106680000D03*
X131064000Y-106680000D03*
D13*
X192024000Y-106680000D03*
X185674000Y-58420000D03*
X161544000Y-101600000D03*
X161544000Y-73660000D03*
D11*
X123444000Y-106680000D03*
D13*
X110744000Y-58420000D03*
X109474000Y-106680000D03*
%TD*%
D10*
%TO.C,IN1*%
X170180000Y-101600000D03*
%TD*%
D14*
%TO.C,1K2*%
X124714000Y-91440000D03*
D15*
X132334000Y-91440000D03*
%TD*%
D10*
%TO.C,SDO1*%
X174244000Y-63470000D03*
%TD*%
%TO.C,VCCS1*%
X176784000Y-81380000D03*
%TD*%
D14*
%TO.C,51K1*%
X124714000Y-96520000D03*
D15*
X132334000Y-96520000D03*
%TD*%
D10*
%TO.C,CS1*%
X171704000Y-63470000D03*
%TD*%
%TO.C,GND1*%
X181864000Y-63500000D03*
%TD*%
D16*
%TO.C,DS18B20*%
X164084000Y-63500000D03*
D17*
X165354000Y-63500000D03*
X166624000Y-63500000D03*
%TD*%
D10*
%TO.C,Follower1*%
X118364000Y-83820000D03*
%TD*%
D18*
%TO.C,DZ6*%
X111574000Y-66370000D03*
D19*
X111574000Y-79070000D03*
%TD*%
D10*
%TO.C,SDA2*%
X176784000Y-76200000D03*
%TD*%
D18*
%TO.C,DZ5*%
X115824000Y-66370000D03*
D19*
X115824000Y-79070000D03*
%TD*%
D10*
%TO.C,Follower2*%
X120904000Y-83820000D03*
%TD*%
D14*
%TO.C,4.7K1*%
X123444000Y-74930000D03*
D15*
X123444000Y-67310000D03*
%TD*%
D20*
%TO.C,MCP602*%
X110744000Y-96520000D03*
D21*
X113284000Y-96520000D03*
X115824000Y-96520000D03*
X118364000Y-96520000D03*
X118364000Y-88900000D03*
X115824000Y-88900000D03*
X113284000Y-88900000D03*
X110744000Y-88900000D03*
%TD*%
D10*
%TO.C,GNDS1*%
X176784000Y-83820000D03*
%TD*%
%TO.C,SCL2*%
X176784000Y-78740000D03*
%TD*%
%TO.C,VCC1*%
X184404000Y-63470000D03*
%TD*%
%TO.C,SDA1*%
X176784000Y-63470000D03*
%TD*%
%TO.C,SCL1*%
X179324000Y-63500000D03*
%TD*%
D22*
%TO.C,1K1*%
X181864000Y-101600000D03*
X179324000Y-101600000D03*
X176784000Y-101600000D03*
%TD*%
M02*
