M48
; DRILL file {KiCad 7.0.5} date Fri Oct 27 17:22:19 2023
; FORMAT={-:-/ absolute / inch / decimal}
; #@! TF.CreationDate,2023-10-27T17:22:19+01:00
; #@! TF.GenerationSoftware,Kicad,Pcbnew,7.0.5
; #@! TF.FileFunction,Plated,1,2,PTH
FMAT,2
INCH
; #@! TA.AperFunction,Plated,PTH,ComponentDrill
T1C0.0276
; #@! TA.AperFunction,Plated,PTH,ComponentDrill
T2C0.0295
; #@! TA.AperFunction,Plated,PTH,ComponentDrill
T3C0.0315
; #@! TA.AperFunction,Plated,PTH,ComponentDrill
T4C0.0354
; #@! TA.AperFunction,Plated,PTH,ComponentDrill
T5C0.0394
; #@! TA.AperFunction,Plated,PTH,ComponentDrill
T6C0.0400
%
G90
G05
T1
X4.86Y-2.65
X4.86Y-2.95
X4.91Y-3.6
X4.91Y-3.8
X5.21Y-3.6
X5.21Y-3.8
T2
X6.46Y-2.5
X6.51Y-2.5
X6.56Y-2.5
T3
X4.36Y-3.5
X4.36Y-3.8
X4.46Y-3.5
X4.46Y-3.8
X4.56Y-3.5
X4.56Y-3.8
X4.66Y-3.5
X4.66Y-3.8
X6.96Y-4.0
X7.06Y-4.0
X7.16Y-4.0
T4
X4.3927Y-2.613
X4.3927Y-3.113
X4.56Y-2.613
X4.56Y-3.113
T5
X4.66Y-3.3
X4.76Y-3.3
X6.7Y-3.8
X6.7Y-3.8
X6.7Y-3.9
X6.7Y-3.9
X6.7Y-4.0
X6.76Y-2.4988
X6.86Y-2.4988
X6.96Y-2.4988
X6.96Y-3.0
X6.96Y-3.1
X6.96Y-3.2039
X6.96Y-3.3
X7.06Y-2.5
X7.16Y-2.5
X7.26Y-2.4988
T6
X4.5Y-2.3
X4.6Y-2.3
X4.7Y-2.3
X4.8Y-2.3
X4.86Y-4.2
X4.9Y-2.3
X4.96Y-4.2
X5.0Y-2.3
X5.06Y-4.2
X5.1Y-2.3
X5.16Y-4.2
X5.2Y-2.3
X5.26Y-4.2
X5.3Y-2.3
X5.36Y-4.2
X5.4Y-2.3
X5.46Y-4.2
X5.56Y-2.3
X5.56Y-4.2
X5.66Y-2.3
X5.76Y-2.3
X5.76Y-4.2
X5.86Y-2.3
X5.86Y-4.2
X5.96Y-2.3
X5.96Y-4.2
X6.06Y-2.3
X6.06Y-4.2
X6.16Y-2.3
X6.16Y-4.2
X6.26Y-2.3
X6.26Y-4.2
X6.265Y-3.1
X6.265Y-3.2
X6.265Y-3.3
X6.36Y-4.2
X6.365Y-3.1
X6.365Y-3.2
X6.365Y-3.3
X6.46Y-2.3
X6.46Y-4.2
X6.56Y-2.3
X6.66Y-2.3
X6.66Y-4.2
X6.76Y-2.3
X6.76Y-4.2
X6.86Y-2.3
X6.86Y-4.2
X6.96Y-2.3
X6.96Y-4.2
X7.06Y-2.3
X7.06Y-4.2
X7.16Y-2.3
X7.16Y-4.2
X7.26Y-4.2
X7.36Y-4.2
X7.46Y-2.3
X7.46Y-2.4
X7.46Y-2.5
X7.46Y-2.6
X7.46Y-2.7
X7.46Y-2.8
X7.46Y-2.9
X7.46Y-3.0
X7.46Y-3.1
X7.46Y-3.2
X7.46Y-3.3
X7.46Y-3.4
X7.46Y-3.5
X7.46Y-3.6
X7.46Y-3.7
X7.46Y-3.8
X7.46Y-3.9
X7.46Y-4.0
X7.56Y-2.3
X7.56Y-2.4
X7.56Y-2.5
X7.56Y-2.6
X7.56Y-2.7
X7.56Y-2.8
X7.56Y-2.9
X7.56Y-3.0
X7.56Y-3.1
X7.56Y-3.2
X7.56Y-3.3
X7.56Y-3.4
X7.56Y-3.5
X7.56Y-3.6
X7.56Y-3.7
X7.56Y-3.8
X7.56Y-3.9
X7.56Y-4.0
T0
M30
