solid CATIA STL
  facet normal  0.000000e+000  0.000000e+000  1.000000e+000
    outer loop
      vertex  9.583244e+000  2.363539e+000  2.000000e+000
      vertex  1.041676e+001  2.363539e+000  2.000000e+000
      vertex  1.000000e+001  2.400000e+000  2.000000e+000
    endloop
  endfacet
  facet normal  -0.000000e+000  0.000000e+000  1.000000e+000
    outer loop
      vertex  1.041676e+001  2.363539e+000  2.000000e+000
      vertex  9.583244e+000  2.363539e+000  2.000000e+000
      vertex  1.082085e+001  2.255262e+000  2.000000e+000
    endloop
  endfacet
  facet normal  0.000000e+000  0.000000e+000  1.000000e+000
    outer loop
      vertex  1.082085e+001  2.255262e+000  2.000000e+000
      vertex  9.583244e+000  2.363539e+000  2.000000e+000
      vertex  9.179152e+000  2.255262e+000  2.000000e+000
    endloop
  endfacet
  facet normal  -0.000000e+000  0.000000e+000  9.999999e-001
    outer loop
      vertex  1.082085e+001  2.255262e+000  2.000000e+000
      vertex  9.179152e+000  2.255262e+000  2.000000e+000
      vertex  1.120000e+001  2.078461e+000  2.000000e+000
    endloop
  endfacet
  facet normal  0.000000e+000  0.000000e+000  1.000000e+000
    outer loop
      vertex  1.120000e+001  2.078461e+000  2.000000e+000
      vertex  9.179152e+000  2.255262e+000  2.000000e+000
      vertex  8.800000e+000  2.078461e+000  2.000000e+000
    endloop
  endfacet
  facet normal  -0.000000e+000  0.000000e+000  1.000000e+000
    outer loop
      vertex  1.120000e+001  2.078461e+000  2.000000e+000
      vertex  8.800000e+000  2.078461e+000  2.000000e+000
      vertex  1.154269e+001  1.838507e+000  2.000000e+000
    endloop
  endfacet
  facet normal  0.000000e+000  0.000000e+000  1.000000e+000
    outer loop
      vertex  1.154269e+001  1.838507e+000  2.000000e+000
      vertex  8.800000e+000  2.078461e+000  2.000000e+000
      vertex  8.457310e+000  1.838507e+000  2.000000e+000
    endloop
  endfacet
  facet normal  -0.000000e+000  0.000000e+000  1.000000e+000
    outer loop
      vertex  1.154269e+001  1.838507e+000  2.000000e+000
      vertex  8.457310e+000  1.838507e+000  2.000000e+000
      vertex  1.183851e+001  1.542690e+000  2.000000e+000
    endloop
  endfacet
  facet normal  0.000000e+000  0.000000e+000  1.000000e+000
    outer loop
      vertex  1.183851e+001  1.542690e+000  2.000000e+000
      vertex  8.457310e+000  1.838507e+000  2.000000e+000
      vertex  8.161493e+000  1.542690e+000  2.000000e+000
    endloop
  endfacet
  facet normal  -0.000000e+000  0.000000e+000  1.000000e+000
    outer loop
      vertex  1.183851e+001  1.542690e+000  2.000000e+000
      vertex  8.161493e+000  1.542690e+000  2.000000e+000
      vertex  1.207846e+001  1.200000e+000  2.000000e+000
    endloop
  endfacet
  facet normal  0.000000e+000  0.000000e+000  1.000000e+000
    outer loop
      vertex  1.207846e+001  1.200000e+000  2.000000e+000
      vertex  8.161493e+000  1.542690e+000  2.000000e+000
      vertex  7.921539e+000  1.200000e+000  2.000000e+000
    endloop
  endfacet
  facet normal  -0.000000e+000  0.000000e+000  1.000000e+000
    outer loop
      vertex  1.207846e+001  1.200000e+000  2.000000e+000
      vertex  7.921539e+000  1.200000e+000  2.000000e+000
      vertex  1.225526e+001  8.208483e-001  2.000000e+000
    endloop
  endfacet
  facet normal  0.000000e+000  0.000000e+000  1.000000e+000
    outer loop
      vertex  1.225526e+001  8.208483e-001  2.000000e+000
      vertex  7.921539e+000  1.200000e+000  2.000000e+000
      vertex  7.744738e+000  8.208483e-001  2.000000e+000
    endloop
  endfacet
  facet normal  -0.000000e+000  0.000000e+000  1.000000e+000
    outer loop
      vertex  1.225526e+001  8.208483e-001  2.000000e+000
      vertex  7.744738e+000  8.208483e-001  2.000000e+000
      vertex  1.236354e+001  4.167556e-001  2.000000e+000
    endloop
  endfacet
  facet normal  0.000000e+000  0.000000e+000  1.000000e+000
    outer loop
      vertex  1.236354e+001  4.167556e-001  2.000000e+000
      vertex  7.744738e+000  8.208483e-001  2.000000e+000
      vertex  7.636461e+000  4.167556e-001  2.000000e+000
    endloop
  endfacet
  facet normal  -0.000000e+000  0.000000e+000  1.000000e+000
    outer loop
      vertex  1.236354e+001  4.167556e-001  2.000000e+000
      vertex  7.636461e+000  4.167556e-001  2.000000e+000
      vertex  1.240000e+001 -5.878111e-016  2.000000e+000
    endloop
  endfacet
  facet normal  0.000000e+000  0.000000e+000  1.000000e+000
    outer loop
      vertex  1.240000e+001 -5.878111e-016  2.000000e+000
      vertex  7.636461e+000  4.167556e-001  2.000000e+000
      vertex  7.600000e+000  2.939055e-016  2.000000e+000
    endloop
  endfacet
  facet normal  0.000000e+000  0.000000e+000  1.000000e+000
    outer loop
      vertex  1.240000e+001 -5.878111e-016  2.000000e+000
      vertex  7.600000e+000  2.939055e-016  2.000000e+000
      vertex  1.236354e+001 -4.167556e-001  2.000000e+000
    endloop
  endfacet
  facet normal  0.000000e+000  0.000000e+000  1.000000e+000
    outer loop
      vertex  1.236354e+001 -4.167556e-001  2.000000e+000
      vertex  7.600000e+000  2.939055e-016  2.000000e+000
      vertex  7.636461e+000 -4.167556e-001  2.000000e+000
    endloop
  endfacet
  facet normal  -0.000000e+000  0.000000e+000  1.000000e+000
    outer loop
      vertex  1.236354e+001 -4.167556e-001  2.000000e+000
      vertex  7.636461e+000 -4.167556e-001  2.000000e+000
      vertex  1.225526e+001 -8.208483e-001  2.000000e+000
    endloop
  endfacet
  facet normal  0.000000e+000  0.000000e+000  1.000000e+000
    outer loop
      vertex  1.225526e+001 -8.208483e-001  2.000000e+000
      vertex  7.636461e+000 -4.167556e-001  2.000000e+000
      vertex  7.744738e+000 -8.208483e-001  2.000000e+000
    endloop
  endfacet
  facet normal  -0.000000e+000  0.000000e+000  1.000000e+000
    outer loop
      vertex  1.225526e+001 -8.208483e-001  2.000000e+000
      vertex  7.744738e+000 -8.208483e-001  2.000000e+000
      vertex  1.207846e+001 -1.200000e+000  2.000000e+000
    endloop
  endfacet
  facet normal  0.000000e+000  0.000000e+000  1.000000e+000
    outer loop
      vertex  1.207846e+001 -1.200000e+000  2.000000e+000
      vertex  7.744738e+000 -8.208483e-001  2.000000e+000
      vertex  7.921539e+000 -1.200000e+000  2.000000e+000
    endloop
  endfacet
  facet normal  -0.000000e+000  0.000000e+000  1.000000e+000
    outer loop
      vertex  1.207846e+001 -1.200000e+000  2.000000e+000
      vertex  7.921539e+000 -1.200000e+000  2.000000e+000
      vertex  1.183851e+001 -1.542690e+000  2.000000e+000
    endloop
  endfacet
  facet normal  0.000000e+000  0.000000e+000  1.000000e+000
    outer loop
      vertex  1.183851e+001 -1.542690e+000  2.000000e+000
      vertex  7.921539e+000 -1.200000e+000  2.000000e+000
      vertex  8.161493e+000 -1.542690e+000  2.000000e+000
    endloop
  endfacet
  facet normal  -0.000000e+000  0.000000e+000  1.000000e+000
    outer loop
      vertex  1.183851e+001 -1.542690e+000  2.000000e+000
      vertex  8.161493e+000 -1.542690e+000  2.000000e+000
      vertex  1.154269e+001 -1.838507e+000  2.000000e+000
    endloop
  endfacet
  facet normal  0.000000e+000  0.000000e+000  1.000000e+000
    outer loop
      vertex  1.154269e+001 -1.838507e+000  2.000000e+000
      vertex  8.161493e+000 -1.542690e+000  2.000000e+000
      vertex  8.457310e+000 -1.838507e+000  2.000000e+000
    endloop
  endfacet
  facet normal  -0.000000e+000  0.000000e+000  1.000000e+000
    outer loop
      vertex  1.154269e+001 -1.838507e+000  2.000000e+000
      vertex  8.457310e+000 -1.838507e+000  2.000000e+000
      vertex  1.120000e+001 -2.078461e+000  2.000000e+000
    endloop
  endfacet
  facet normal  0.000000e+000  0.000000e+000  1.000000e+000
    outer loop
      vertex  1.120000e+001 -2.078461e+000  2.000000e+000
      vertex  8.457310e+000 -1.838507e+000  2.000000e+000
      vertex  8.800000e+000 -2.078461e+000  2.000000e+000
    endloop
  endfacet
  facet normal  -0.000000e+000  0.000000e+000  1.000000e+000
    outer loop
      vertex  1.120000e+001 -2.078461e+000  2.000000e+000
      vertex  8.800000e+000 -2.078461e+000  2.000000e+000
      vertex  1.082085e+001 -2.255262e+000  2.000000e+000
    endloop
  endfacet
  facet normal  0.000000e+000  0.000000e+000  9.999999e-001
    outer loop
      vertex  1.082085e+001 -2.255262e+000  2.000000e+000
      vertex  8.800000e+000 -2.078461e+000  2.000000e+000
      vertex  9.179152e+000 -2.255262e+000  2.000000e+000
    endloop
  endfacet
  facet normal  -0.000000e+000  0.000000e+000  1.000000e+000
    outer loop
      vertex  1.082085e+001 -2.255262e+000  2.000000e+000
      vertex  9.179152e+000 -2.255262e+000  2.000000e+000
      vertex  1.041676e+001 -2.363539e+000  2.000000e+000
    endloop
  endfacet
  facet normal  0.000000e+000  0.000000e+000  1.000000e+000
    outer loop
      vertex  1.041676e+001 -2.363539e+000  2.000000e+000
      vertex  9.179152e+000 -2.255262e+000  2.000000e+000
      vertex  9.583244e+000 -2.363539e+000  2.000000e+000
    endloop
  endfacet
  facet normal  -0.000000e+000  0.000000e+000  1.000000e+000
    outer loop
      vertex  1.041676e+001 -2.363539e+000  2.000000e+000
      vertex  9.583244e+000 -2.363539e+000  2.000000e+000
      vertex  1.000000e+001 -2.400000e+000  2.000000e+000
    endloop
  endfacet
  facet normal  0.000000e+000  0.000000e+000 -1.000000e+000
    outer loop
      vertex  1.000000e+001  2.400000e+000  0.000000e+000
      vertex  1.041676e+001  2.363539e+000  0.000000e+000
      vertex  9.583244e+000  2.363539e+000  0.000000e+000
    endloop
  endfacet
  facet normal  -0.000000e+000  0.000000e+000 -1.000000e+000
    outer loop
      vertex  9.583244e+000  2.363539e+000  0.000000e+000
      vertex  1.041676e+001  2.363539e+000  0.000000e+000
      vertex  9.179152e+000  2.255262e+000  0.000000e+000
    endloop
  endfacet
  facet normal  0.000000e+000  0.000000e+000 -1.000000e+000
    outer loop
      vertex  9.179152e+000  2.255262e+000  0.000000e+000
      vertex  1.041676e+001  2.363539e+000  0.000000e+000
      vertex  1.082085e+001  2.255262e+000  0.000000e+000
    endloop
  endfacet
  facet normal  -0.000000e+000  0.000000e+000 -9.999999e-001
    outer loop
      vertex  9.179152e+000  2.255262e+000  0.000000e+000
      vertex  1.082085e+001  2.255262e+000  0.000000e+000
      vertex  8.800000e+000  2.078461e+000  0.000000e+000
    endloop
  endfacet
  facet normal  0.000000e+000  0.000000e+000 -1.000000e+000
    outer loop
      vertex  8.800000e+000  2.078461e+000  0.000000e+000
      vertex  1.082085e+001  2.255262e+000  0.000000e+000
      vertex  1.120000e+001  2.078461e+000  0.000000e+000
    endloop
  endfacet
  facet normal  -0.000000e+000  0.000000e+000 -1.000000e+000
    outer loop
      vertex  8.800000e+000  2.078461e+000  0.000000e+000
      vertex  1.120000e+001  2.078461e+000  0.000000e+000
      vertex  8.457310e+000  1.838507e+000  0.000000e+000
    endloop
  endfacet
  facet normal  0.000000e+000  0.000000e+000 -1.000000e+000
    outer loop
      vertex  8.457310e+000  1.838507e+000  0.000000e+000
      vertex  1.120000e+001  2.078461e+000  0.000000e+000
      vertex  1.154269e+001  1.838507e+000  0.000000e+000
    endloop
  endfacet
  facet normal  -0.000000e+000  0.000000e+000 -1.000000e+000
    outer loop
      vertex  8.457310e+000  1.838507e+000  0.000000e+000
      vertex  1.154269e+001  1.838507e+000  0.000000e+000
      vertex  8.161493e+000  1.542690e+000  0.000000e+000
    endloop
  endfacet
  facet normal  0.000000e+000  0.000000e+000 -1.000000e+000
    outer loop
      vertex  8.161493e+000  1.542690e+000  0.000000e+000
      vertex  1.154269e+001  1.838507e+000  0.000000e+000
      vertex  1.183851e+001  1.542690e+000  0.000000e+000
    endloop
  endfacet
  facet normal  -0.000000e+000  0.000000e+000 -1.000000e+000
    outer loop
      vertex  8.161493e+000  1.542690e+000  0.000000e+000
      vertex  1.183851e+001  1.542690e+000  0.000000e+000
      vertex  7.921539e+000  1.200000e+000  0.000000e+000
    endloop
  endfacet
  facet normal  0.000000e+000  0.000000e+000 -1.000000e+000
    outer loop
      vertex  7.921539e+000  1.200000e+000  0.000000e+000
      vertex  1.183851e+001  1.542690e+000  0.000000e+000
      vertex  1.207846e+001  1.200000e+000  0.000000e+000
    endloop
  endfacet
  facet normal  -0.000000e+000  0.000000e+000 -1.000000e+000
    outer loop
      vertex  7.921539e+000  1.200000e+000  0.000000e+000
      vertex  1.207846e+001  1.200000e+000  0.000000e+000
      vertex  7.744738e+000  8.208483e-001  0.000000e+000
    endloop
  endfacet
  facet normal  0.000000e+000  0.000000e+000 -1.000000e+000
    outer loop
      vertex  7.744738e+000  8.208483e-001  0.000000e+000
      vertex  1.207846e+001  1.200000e+000  0.000000e+000
      vertex  1.225526e+001  8.208483e-001  0.000000e+000
    endloop
  endfacet
  facet normal  -0.000000e+000  0.000000e+000 -1.000000e+000
    outer loop
      vertex  7.744738e+000  8.208483e-001  0.000000e+000
      vertex  1.225526e+001  8.208483e-001  0.000000e+000
      vertex  7.636461e+000  4.167556e-001  0.000000e+000
    endloop
  endfacet
  facet normal  0.000000e+000  0.000000e+000 -1.000000e+000
    outer loop
      vertex  7.636461e+000  4.167556e-001  0.000000e+000
      vertex  1.225526e+001  8.208483e-001  0.000000e+000
      vertex  1.236354e+001  4.167556e-001  0.000000e+000
    endloop
  endfacet
  facet normal  -0.000000e+000  0.000000e+000 -1.000000e+000
    outer loop
      vertex  7.636461e+000  4.167556e-001  0.000000e+000
      vertex  1.236354e+001  4.167556e-001  0.000000e+000
      vertex  7.600000e+000  2.939055e-016  0.000000e+000
    endloop
  endfacet
  facet normal  0.000000e+000  0.000000e+000 -1.000000e+000
    outer loop
      vertex  7.600000e+000  2.939055e-016  0.000000e+000
      vertex  1.236354e+001  4.167556e-001  0.000000e+000
      vertex  1.240000e+001 -5.878111e-016  0.000000e+000
    endloop
  endfacet
  facet normal  -0.000000e+000  0.000000e+000 -1.000000e+000
    outer loop
      vertex  7.600000e+000  2.939055e-016  0.000000e+000
      vertex  1.240000e+001 -5.878111e-016  0.000000e+000
      vertex  7.636461e+000 -4.167556e-001  0.000000e+000
    endloop
  endfacet
  facet normal  0.000000e+000  0.000000e+000 -1.000000e+000
    outer loop
      vertex  7.636461e+000 -4.167556e-001  0.000000e+000
      vertex  1.240000e+001 -5.878111e-016  0.000000e+000
      vertex  1.236354e+001 -4.167556e-001  0.000000e+000
    endloop
  endfacet
  facet normal  -0.000000e+000  0.000000e+000 -1.000000e+000
    outer loop
      vertex  7.636461e+000 -4.167556e-001  0.000000e+000
      vertex  1.236354e+001 -4.167556e-001  0.000000e+000
      vertex  7.744738e+000 -8.208483e-001  0.000000e+000
    endloop
  endfacet
  facet normal  0.000000e+000  0.000000e+000 -1.000000e+000
    outer loop
      vertex  7.744738e+000 -8.208483e-001  0.000000e+000
      vertex  1.236354e+001 -4.167556e-001  0.000000e+000
      vertex  1.225526e+001 -8.208483e-001  0.000000e+000
    endloop
  endfacet
  facet normal  -0.000000e+000  0.000000e+000 -1.000000e+000
    outer loop
      vertex  7.744738e+000 -8.208483e-001  0.000000e+000
      vertex  1.225526e+001 -8.208483e-001  0.000000e+000
      vertex  7.921539e+000 -1.200000e+000  0.000000e+000
    endloop
  endfacet
  facet normal  0.000000e+000  0.000000e+000 -1.000000e+000
    outer loop
      vertex  7.921539e+000 -1.200000e+000  0.000000e+000
      vertex  1.225526e+001 -8.208483e-001  0.000000e+000
      vertex  1.207846e+001 -1.200000e+000  0.000000e+000
    endloop
  endfacet
  facet normal  -0.000000e+000  0.000000e+000 -1.000000e+000
    outer loop
      vertex  7.921539e+000 -1.200000e+000  0.000000e+000
      vertex  1.207846e+001 -1.200000e+000  0.000000e+000
      vertex  8.161493e+000 -1.542690e+000  0.000000e+000
    endloop
  endfacet
  facet normal  0.000000e+000  0.000000e+000 -1.000000e+000
    outer loop
      vertex  8.161493e+000 -1.542690e+000  0.000000e+000
      vertex  1.207846e+001 -1.200000e+000  0.000000e+000
      vertex  1.183851e+001 -1.542690e+000  0.000000e+000
    endloop
  endfacet
  facet normal  -0.000000e+000  0.000000e+000 -1.000000e+000
    outer loop
      vertex  8.161493e+000 -1.542690e+000  0.000000e+000
      vertex  1.183851e+001 -1.542690e+000  0.000000e+000
      vertex  8.457310e+000 -1.838507e+000  0.000000e+000
    endloop
  endfacet
  facet normal  0.000000e+000  0.000000e+000 -1.000000e+000
    outer loop
      vertex  8.457310e+000 -1.838507e+000  0.000000e+000
      vertex  1.183851e+001 -1.542690e+000  0.000000e+000
      vertex  1.154269e+001 -1.838507e+000  0.000000e+000
    endloop
  endfacet
  facet normal  -0.000000e+000  0.000000e+000 -1.000000e+000
    outer loop
      vertex  8.457310e+000 -1.838507e+000  0.000000e+000
      vertex  1.154269e+001 -1.838507e+000  0.000000e+000
      vertex  8.800000e+000 -2.078461e+000  0.000000e+000
    endloop
  endfacet
  facet normal  0.000000e+000  0.000000e+000 -1.000000e+000
    outer loop
      vertex  8.800000e+000 -2.078461e+000  0.000000e+000
      vertex  1.154269e+001 -1.838507e+000  0.000000e+000
      vertex  1.120000e+001 -2.078461e+000  0.000000e+000
    endloop
  endfacet
  facet normal  -0.000000e+000  0.000000e+000 -1.000000e+000
    outer loop
      vertex  8.800000e+000 -2.078461e+000  0.000000e+000
      vertex  1.120000e+001 -2.078461e+000  0.000000e+000
      vertex  9.179152e+000 -2.255262e+000  0.000000e+000
    endloop
  endfacet
  facet normal  0.000000e+000  0.000000e+000 -9.999999e-001
    outer loop
      vertex  9.179152e+000 -2.255262e+000  0.000000e+000
      vertex  1.120000e+001 -2.078461e+000  0.000000e+000
      vertex  1.082085e+001 -2.255262e+000  0.000000e+000
    endloop
  endfacet
  facet normal  -0.000000e+000  0.000000e+000 -1.000000e+000
    outer loop
      vertex  9.179152e+000 -2.255262e+000  0.000000e+000
      vertex  1.082085e+001 -2.255262e+000  0.000000e+000
      vertex  9.583244e+000 -2.363539e+000  0.000000e+000
    endloop
  endfacet
  facet normal  0.000000e+000  0.000000e+000 -1.000000e+000
    outer loop
      vertex  9.583244e+000 -2.363539e+000  0.000000e+000
      vertex  1.082085e+001 -2.255262e+000  0.000000e+000
      vertex  1.041676e+001 -2.363539e+000  0.000000e+000
    endloop
  endfacet
  facet normal  -0.000000e+000  0.000000e+000 -1.000000e+000
    outer loop
      vertex  9.583244e+000 -2.363539e+000  0.000000e+000
      vertex  1.041676e+001 -2.363539e+000  0.000000e+000
      vertex  1.000000e+001 -2.400000e+000  0.000000e+000
    endloop
  endfacet
  facet normal -9.961947e-001  8.715566e-002  0.000000e+000
    outer loop
      vertex  7.600000e+000  2.939055e-016  0.000000e+000
      vertex  7.600000e+000  2.939055e-016  2.000000e+000
      vertex  7.636461e+000  4.167556e-001  0.000000e+000
    endloop
  endfacet
  facet normal -9.961947e-001  8.715566e-002  0.000000e+000
    outer loop
      vertex  7.636461e+000  4.167556e-001  0.000000e+000
      vertex  7.600000e+000  2.939055e-016  2.000000e+000
      vertex  7.636461e+000  4.167556e-001  2.000000e+000
    endloop
  endfacet
  facet normal -9.659258e-001  2.588192e-001  0.000000e+000
    outer loop
      vertex  7.636461e+000  4.167556e-001  0.000000e+000
      vertex  7.636461e+000  4.167556e-001  2.000000e+000
      vertex  7.744738e+000  8.208483e-001  0.000000e+000
    endloop
  endfacet
  facet normal -9.659258e-001  2.588192e-001  0.000000e+000
    outer loop
      vertex  7.744738e+000  8.208483e-001  0.000000e+000
      vertex  7.636461e+000  4.167556e-001  2.000000e+000
      vertex  7.744738e+000  8.208483e-001  2.000000e+000
    endloop
  endfacet
  facet normal -9.063079e-001  4.226180e-001  0.000000e+000
    outer loop
      vertex  7.744738e+000  8.208483e-001  0.000000e+000
      vertex  7.744738e+000  8.208483e-001  2.000000e+000
      vertex  7.921539e+000  1.200000e+000  0.000000e+000
    endloop
  endfacet
  facet normal -9.063079e-001  4.226180e-001  0.000000e+000
    outer loop
      vertex  7.921539e+000  1.200000e+000  0.000000e+000
      vertex  7.744738e+000  8.208483e-001  2.000000e+000
      vertex  7.921539e+000  1.200000e+000  2.000000e+000
    endloop
  endfacet
  facet normal -8.191518e-001  5.735767e-001  0.000000e+000
    outer loop
      vertex  7.921539e+000  1.200000e+000  0.000000e+000
      vertex  7.921539e+000  1.200000e+000  2.000000e+000
      vertex  8.161493e+000  1.542690e+000  0.000000e+000
    endloop
  endfacet
  facet normal -8.191518e-001  5.735767e-001  0.000000e+000
    outer loop
      vertex  8.161493e+000  1.542690e+000  0.000000e+000
      vertex  7.921539e+000  1.200000e+000  2.000000e+000
      vertex  8.161493e+000  1.542690e+000  2.000000e+000
    endloop
  endfacet
  facet normal -7.071068e-001  7.071068e-001  0.000000e+000
    outer loop
      vertex  8.161493e+000  1.542690e+000  0.000000e+000
      vertex  8.161493e+000  1.542690e+000  2.000000e+000
      vertex  8.457310e+000  1.838507e+000  0.000000e+000
    endloop
  endfacet
  facet normal -7.071068e-001  7.071068e-001  0.000000e+000
    outer loop
      vertex  8.457310e+000  1.838507e+000  0.000000e+000
      vertex  8.161493e+000  1.542690e+000  2.000000e+000
      vertex  8.457310e+000  1.838507e+000  2.000000e+000
    endloop
  endfacet
  facet normal -5.735761e-001  8.191523e-001  0.000000e+000
    outer loop
      vertex  8.457310e+000  1.838507e+000  0.000000e+000
      vertex  8.457310e+000  1.838507e+000  2.000000e+000
      vertex  8.800000e+000  2.078461e+000  0.000000e+000
    endloop
  endfacet
  facet normal -5.735761e-001  8.191523e-001  0.000000e+000
    outer loop
      vertex  8.800000e+000  2.078461e+000  0.000000e+000
      vertex  8.457310e+000  1.838507e+000  2.000000e+000
      vertex  8.800000e+000  2.078461e+000  2.000000e+000
    endloop
  endfacet
  facet normal -4.226188e-001  9.063075e-001  0.000000e+000
    outer loop
      vertex  8.800000e+000  2.078461e+000  0.000000e+000
      vertex  8.800000e+000  2.078461e+000  2.000000e+000
      vertex  9.179152e+000  2.255262e+000  0.000000e+000
    endloop
  endfacet
  facet normal -4.226188e-001  9.063075e-001  0.000000e+000
    outer loop
      vertex  9.179152e+000  2.255262e+000  0.000000e+000
      vertex  8.800000e+000  2.078461e+000  2.000000e+000
      vertex  9.179152e+000  2.255262e+000  2.000000e+000
    endloop
  endfacet
  facet normal -2.588186e-001  9.659259e-001  0.000000e+000
    outer loop
      vertex  9.179152e+000  2.255262e+000  0.000000e+000
      vertex  9.179152e+000  2.255262e+000  2.000000e+000
      vertex  9.583244e+000  2.363539e+000  0.000000e+000
    endloop
  endfacet
  facet normal -2.588186e-001  9.659259e-001  0.000000e+000
    outer loop
      vertex  9.583244e+000  2.363539e+000  0.000000e+000
      vertex  9.179152e+000  2.255262e+000  2.000000e+000
      vertex  9.583244e+000  2.363539e+000  2.000000e+000
    endloop
  endfacet
  facet normal -8.715621e-002  9.961947e-001  0.000000e+000
    outer loop
      vertex  9.583244e+000  2.363539e+000  0.000000e+000
      vertex  9.583244e+000  2.363539e+000  2.000000e+000
      vertex  1.000000e+001  2.400000e+000  0.000000e+000
    endloop
  endfacet
  facet normal -8.715621e-002  9.961947e-001  0.000000e+000
    outer loop
      vertex  1.000000e+001  2.400000e+000  0.000000e+000
      vertex  9.583244e+000  2.363539e+000  2.000000e+000
      vertex  1.000000e+001  2.400000e+000  2.000000e+000
    endloop
  endfacet
  facet normal  8.715621e-002  9.961947e-001  0.000000e+000
    outer loop
      vertex  1.000000e+001  2.400000e+000  0.000000e+000
      vertex  1.000000e+001  2.400000e+000  2.000000e+000
      vertex  1.041676e+001  2.363539e+000  0.000000e+000
    endloop
  endfacet
  facet normal  8.715621e-002  9.961947e-001  -0.000000e+000
    outer loop
      vertex  1.041676e+001  2.363539e+000  0.000000e+000
      vertex  1.000000e+001  2.400000e+000  2.000000e+000
      vertex  1.041676e+001  2.363539e+000  2.000000e+000
    endloop
  endfacet
  facet normal  2.588186e-001  9.659259e-001  0.000000e+000
    outer loop
      vertex  1.041676e+001  2.363539e+000  0.000000e+000
      vertex  1.041676e+001  2.363539e+000  2.000000e+000
      vertex  1.082085e+001  2.255262e+000  0.000000e+000
    endloop
  endfacet
  facet normal  2.588186e-001  9.659259e-001  -0.000000e+000
    outer loop
      vertex  1.082085e+001  2.255262e+000  0.000000e+000
      vertex  1.041676e+001  2.363539e+000  2.000000e+000
      vertex  1.082085e+001  2.255262e+000  2.000000e+000
    endloop
  endfacet
  facet normal  4.226188e-001  9.063075e-001  0.000000e+000
    outer loop
      vertex  1.082085e+001  2.255262e+000  0.000000e+000
      vertex  1.082085e+001  2.255262e+000  2.000000e+000
      vertex  1.120000e+001  2.078461e+000  0.000000e+000
    endloop
  endfacet
  facet normal  4.226188e-001  9.063075e-001  -0.000000e+000
    outer loop
      vertex  1.120000e+001  2.078461e+000  0.000000e+000
      vertex  1.082085e+001  2.255262e+000  2.000000e+000
      vertex  1.120000e+001  2.078461e+000  2.000000e+000
    endloop
  endfacet
  facet normal  5.735761e-001  8.191523e-001  0.000000e+000
    outer loop
      vertex  1.120000e+001  2.078461e+000  0.000000e+000
      vertex  1.120000e+001  2.078461e+000  2.000000e+000
      vertex  1.154269e+001  1.838507e+000  0.000000e+000
    endloop
  endfacet
  facet normal  5.735761e-001  8.191523e-001  -0.000000e+000
    outer loop
      vertex  1.154269e+001  1.838507e+000  0.000000e+000
      vertex  1.120000e+001  2.078461e+000  2.000000e+000
      vertex  1.154269e+001  1.838507e+000  2.000000e+000
    endloop
  endfacet
  facet normal  7.071068e-001  7.071068e-001  0.000000e+000
    outer loop
      vertex  1.154269e+001  1.838507e+000  0.000000e+000
      vertex  1.154269e+001  1.838507e+000  2.000000e+000
      vertex  1.183851e+001  1.542690e+000  0.000000e+000
    endloop
  endfacet
  facet normal  7.071068e-001  7.071068e-001  -0.000000e+000
    outer loop
      vertex  1.183851e+001  1.542690e+000  0.000000e+000
      vertex  1.154269e+001  1.838507e+000  2.000000e+000
      vertex  1.183851e+001  1.542690e+000  2.000000e+000
    endloop
  endfacet
  facet normal  8.191524e-001  5.735760e-001  0.000000e+000
    outer loop
      vertex  1.183851e+001  1.542690e+000  0.000000e+000
      vertex  1.183851e+001  1.542690e+000  2.000000e+000
      vertex  1.207846e+001  1.200000e+000  0.000000e+000
    endloop
  endfacet
  facet normal  8.191524e-001  5.735760e-001  -0.000000e+000
    outer loop
      vertex  1.207846e+001  1.200000e+000  0.000000e+000
      vertex  1.183851e+001  1.542690e+000  2.000000e+000
      vertex  1.207846e+001  1.200000e+000  2.000000e+000
    endloop
  endfacet
  facet normal  9.063075e-001  4.226189e-001  0.000000e+000
    outer loop
      vertex  1.207846e+001  1.200000e+000  0.000000e+000
      vertex  1.207846e+001  1.200000e+000  2.000000e+000
      vertex  1.225526e+001  8.208483e-001  0.000000e+000
    endloop
  endfacet
  facet normal  9.063075e-001  4.226189e-001  -0.000000e+000
    outer loop
      vertex  1.225526e+001  8.208483e-001  0.000000e+000
      vertex  1.207846e+001  1.200000e+000  2.000000e+000
      vertex  1.225526e+001  8.208483e-001  2.000000e+000
    endloop
  endfacet
  facet normal  9.659258e-001  2.588192e-001  0.000000e+000
    outer loop
      vertex  1.225526e+001  8.208483e-001  0.000000e+000
      vertex  1.225526e+001  8.208483e-001  2.000000e+000
      vertex  1.236354e+001  4.167556e-001  0.000000e+000
    endloop
  endfacet
  facet normal  9.659258e-001  2.588192e-001  -0.000000e+000
    outer loop
      vertex  1.236354e+001  4.167556e-001  0.000000e+000
      vertex  1.225526e+001  8.208483e-001  2.000000e+000
      vertex  1.236354e+001  4.167556e-001  2.000000e+000
    endloop
  endfacet
  facet normal  9.961948e-001  8.715452e-002  0.000000e+000
    outer loop
      vertex  1.236354e+001  4.167556e-001  0.000000e+000
      vertex  1.236354e+001  4.167556e-001  2.000000e+000
      vertex  1.240000e+001 -5.878111e-016  0.000000e+000
    endloop
  endfacet
  facet normal  9.961948e-001  8.715452e-002  -0.000000e+000
    outer loop
      vertex  1.240000e+001 -5.878111e-016  0.000000e+000
      vertex  1.236354e+001  4.167556e-001  2.000000e+000
      vertex  1.240000e+001 -5.878111e-016  2.000000e+000
    endloop
  endfacet
  facet normal  9.961948e-001 -8.715452e-002  0.000000e+000
    outer loop
      vertex  1.240000e+001 -5.878111e-016  0.000000e+000
      vertex  1.240000e+001 -5.878111e-016  2.000000e+000
      vertex  1.236354e+001 -4.167556e-001  0.000000e+000
    endloop
  endfacet
  facet normal  9.961948e-001 -8.715452e-002  0.000000e+000
    outer loop
      vertex  1.236354e+001 -4.167556e-001  0.000000e+000
      vertex  1.240000e+001 -5.878111e-016  2.000000e+000
      vertex  1.236354e+001 -4.167556e-001  2.000000e+000
    endloop
  endfacet
  facet normal  9.659258e-001 -2.588192e-001  0.000000e+000
    outer loop
      vertex  1.236354e+001 -4.167556e-001  0.000000e+000
      vertex  1.236354e+001 -4.167556e-001  2.000000e+000
      vertex  1.225526e+001 -8.208483e-001  0.000000e+000
    endloop
  endfacet
  facet normal  9.659258e-001 -2.588192e-001  0.000000e+000
    outer loop
      vertex  1.225526e+001 -8.208483e-001  0.000000e+000
      vertex  1.236354e+001 -4.167556e-001  2.000000e+000
      vertex  1.225526e+001 -8.208483e-001  2.000000e+000
    endloop
  endfacet
  facet normal  9.063075e-001 -4.226189e-001  0.000000e+000
    outer loop
      vertex  1.225526e+001 -8.208483e-001  0.000000e+000
      vertex  1.225526e+001 -8.208483e-001  2.000000e+000
      vertex  1.207846e+001 -1.200000e+000  0.000000e+000
    endloop
  endfacet
  facet normal  9.063075e-001 -4.226189e-001  0.000000e+000
    outer loop
      vertex  1.207846e+001 -1.200000e+000  0.000000e+000
      vertex  1.225526e+001 -8.208483e-001  2.000000e+000
      vertex  1.207846e+001 -1.200000e+000  2.000000e+000
    endloop
  endfacet
  facet normal  8.191524e-001 -5.735760e-001  0.000000e+000
    outer loop
      vertex  1.207846e+001 -1.200000e+000  0.000000e+000
      vertex  1.207846e+001 -1.200000e+000  2.000000e+000
      vertex  1.183851e+001 -1.542690e+000  0.000000e+000
    endloop
  endfacet
  facet normal  8.191524e-001 -5.735760e-001  0.000000e+000
    outer loop
      vertex  1.183851e+001 -1.542690e+000  0.000000e+000
      vertex  1.207846e+001 -1.200000e+000  2.000000e+000
      vertex  1.183851e+001 -1.542690e+000  2.000000e+000
    endloop
  endfacet
  facet normal  7.071068e-001 -7.071068e-001  0.000000e+000
    outer loop
      vertex  1.183851e+001 -1.542690e+000  0.000000e+000
      vertex  1.183851e+001 -1.542690e+000  2.000000e+000
      vertex  1.154269e+001 -1.838507e+000  0.000000e+000
    endloop
  endfacet
  facet normal  7.071068e-001 -7.071068e-001  0.000000e+000
    outer loop
      vertex  1.154269e+001 -1.838507e+000  0.000000e+000
      vertex  1.183851e+001 -1.542690e+000  2.000000e+000
      vertex  1.154269e+001 -1.838507e+000  2.000000e+000
    endloop
  endfacet
  facet normal  5.735761e-001 -8.191523e-001  0.000000e+000
    outer loop
      vertex  1.154269e+001 -1.838507e+000  0.000000e+000
      vertex  1.154269e+001 -1.838507e+000  2.000000e+000
      vertex  1.120000e+001 -2.078461e+000  0.000000e+000
    endloop
  endfacet
  facet normal  5.735761e-001 -8.191523e-001  0.000000e+000
    outer loop
      vertex  1.120000e+001 -2.078461e+000  0.000000e+000
      vertex  1.154269e+001 -1.838507e+000  2.000000e+000
      vertex  1.120000e+001 -2.078461e+000  2.000000e+000
    endloop
  endfacet
  facet normal  4.226188e-001 -9.063075e-001  0.000000e+000
    outer loop
      vertex  1.120000e+001 -2.078461e+000  0.000000e+000
      vertex  1.120000e+001 -2.078461e+000  2.000000e+000
      vertex  1.082085e+001 -2.255262e+000  0.000000e+000
    endloop
  endfacet
  facet normal  4.226188e-001 -9.063075e-001  0.000000e+000
    outer loop
      vertex  1.082085e+001 -2.255262e+000  0.000000e+000
      vertex  1.120000e+001 -2.078461e+000  2.000000e+000
      vertex  1.082085e+001 -2.255262e+000  2.000000e+000
    endloop
  endfacet
  facet normal  2.588186e-001 -9.659259e-001  0.000000e+000
    outer loop
      vertex  1.082085e+001 -2.255262e+000  0.000000e+000
      vertex  1.082085e+001 -2.255262e+000  2.000000e+000
      vertex  1.041676e+001 -2.363539e+000  0.000000e+000
    endloop
  endfacet
  facet normal  2.588186e-001 -9.659259e-001  0.000000e+000
    outer loop
      vertex  1.041676e+001 -2.363539e+000  0.000000e+000
      vertex  1.082085e+001 -2.255262e+000  2.000000e+000
      vertex  1.041676e+001 -2.363539e+000  2.000000e+000
    endloop
  endfacet
  facet normal  8.715621e-002 -9.961947e-001  0.000000e+000
    outer loop
      vertex  1.041676e+001 -2.363539e+000  0.000000e+000
      vertex  1.041676e+001 -2.363539e+000  2.000000e+000
      vertex  1.000000e+001 -2.400000e+000  0.000000e+000
    endloop
  endfacet
  facet normal  8.715621e-002 -9.961947e-001  0.000000e+000
    outer loop
      vertex  1.000000e+001 -2.400000e+000  0.000000e+000
      vertex  1.041676e+001 -2.363539e+000  2.000000e+000
      vertex  1.000000e+001 -2.400000e+000  2.000000e+000
    endloop
  endfacet
  facet normal -8.715621e-002 -9.961947e-001  -0.000000e+000
    outer loop
      vertex  1.000000e+001 -2.400000e+000  0.000000e+000
      vertex  1.000000e+001 -2.400000e+000  2.000000e+000
      vertex  9.583244e+000 -2.363539e+000  0.000000e+000
    endloop
  endfacet
  facet normal -8.715621e-002 -9.961947e-001  0.000000e+000
    outer loop
      vertex  9.583244e+000 -2.363539e+000  0.000000e+000
      vertex  1.000000e+001 -2.400000e+000  2.000000e+000
      vertex  9.583244e+000 -2.363539e+000  2.000000e+000
    endloop
  endfacet
  facet normal -2.588186e-001 -9.659259e-001  -0.000000e+000
    outer loop
      vertex  9.583244e+000 -2.363539e+000  0.000000e+000
      vertex  9.583244e+000 -2.363539e+000  2.000000e+000
      vertex  9.179152e+000 -2.255262e+000  0.000000e+000
    endloop
  endfacet
  facet normal -2.588186e-001 -9.659259e-001  0.000000e+000
    outer loop
      vertex  9.179152e+000 -2.255262e+000  0.000000e+000
      vertex  9.583244e+000 -2.363539e+000  2.000000e+000
      vertex  9.179152e+000 -2.255262e+000  2.000000e+000
    endloop
  endfacet
  facet normal -4.226188e-001 -9.063075e-001  -0.000000e+000
    outer loop
      vertex  9.179152e+000 -2.255262e+000  0.000000e+000
      vertex  9.179152e+000 -2.255262e+000  2.000000e+000
      vertex  8.800000e+000 -2.078461e+000  0.000000e+000
    endloop
  endfacet
  facet normal -4.226188e-001 -9.063075e-001  0.000000e+000
    outer loop
      vertex  8.800000e+000 -2.078461e+000  0.000000e+000
      vertex  9.179152e+000 -2.255262e+000  2.000000e+000
      vertex  8.800000e+000 -2.078461e+000  2.000000e+000
    endloop
  endfacet
  facet normal -5.735761e-001 -8.191523e-001  -0.000000e+000
    outer loop
      vertex  8.800000e+000 -2.078461e+000  0.000000e+000
      vertex  8.800000e+000 -2.078461e+000  2.000000e+000
      vertex  8.457310e+000 -1.838507e+000  0.000000e+000
    endloop
  endfacet
  facet normal -5.735761e-001 -8.191523e-001  0.000000e+000
    outer loop
      vertex  8.457310e+000 -1.838507e+000  0.000000e+000
      vertex  8.800000e+000 -2.078461e+000  2.000000e+000
      vertex  8.457310e+000 -1.838507e+000  2.000000e+000
    endloop
  endfacet
  facet normal -7.071068e-001 -7.071068e-001  -0.000000e+000
    outer loop
      vertex  8.457310e+000 -1.838507e+000  0.000000e+000
      vertex  8.457310e+000 -1.838507e+000  2.000000e+000
      vertex  8.161493e+000 -1.542690e+000  0.000000e+000
    endloop
  endfacet
  facet normal -7.071068e-001 -7.071068e-001  0.000000e+000
    outer loop
      vertex  8.161493e+000 -1.542690e+000  0.000000e+000
      vertex  8.457310e+000 -1.838507e+000  2.000000e+000
      vertex  8.161493e+000 -1.542690e+000  2.000000e+000
    endloop
  endfacet
  facet normal -8.191518e-001 -5.735767e-001  -0.000000e+000
    outer loop
      vertex  8.161493e+000 -1.542690e+000  0.000000e+000
      vertex  8.161493e+000 -1.542690e+000  2.000000e+000
      vertex  7.921539e+000 -1.200000e+000  0.000000e+000
    endloop
  endfacet
  facet normal -8.191518e-001 -5.735767e-001  0.000000e+000
    outer loop
      vertex  7.921539e+000 -1.200000e+000  0.000000e+000
      vertex  8.161493e+000 -1.542690e+000  2.000000e+000
      vertex  7.921539e+000 -1.200000e+000  2.000000e+000
    endloop
  endfacet
  facet normal -9.063079e-001 -4.226180e-001  -0.000000e+000
    outer loop
      vertex  7.921539e+000 -1.200000e+000  0.000000e+000
      vertex  7.921539e+000 -1.200000e+000  2.000000e+000
      vertex  7.744738e+000 -8.208483e-001  0.000000e+000
    endloop
  endfacet
  facet normal -9.063079e-001 -4.226180e-001  0.000000e+000
    outer loop
      vertex  7.744738e+000 -8.208483e-001  0.000000e+000
      vertex  7.921539e+000 -1.200000e+000  2.000000e+000
      vertex  7.744738e+000 -8.208483e-001  2.000000e+000
    endloop
  endfacet
  facet normal -9.659258e-001 -2.588192e-001  -0.000000e+000
    outer loop
      vertex  7.744738e+000 -8.208483e-001  0.000000e+000
      vertex  7.744738e+000 -8.208483e-001  2.000000e+000
      vertex  7.636461e+000 -4.167556e-001  0.000000e+000
    endloop
  endfacet
  facet normal -9.659258e-001 -2.588192e-001  0.000000e+000
    outer loop
      vertex  7.636461e+000 -4.167556e-001  0.000000e+000
      vertex  7.744738e+000 -8.208483e-001  2.000000e+000
      vertex  7.636461e+000 -4.167556e-001  2.000000e+000
    endloop
  endfacet
  facet normal -9.961947e-001 -8.715566e-002  -0.000000e+000
    outer loop
      vertex  7.636461e+000 -4.167556e-001  0.000000e+000
      vertex  7.636461e+000 -4.167556e-001  2.000000e+000
      vertex  7.600000e+000  2.939055e-016  0.000000e+000
    endloop
  endfacet
  facet normal -9.961947e-001 -8.715566e-002  0.000000e+000
    outer loop
      vertex  7.600000e+000  2.939055e-016  0.000000e+000
      vertex  7.636461e+000 -4.167556e-001  2.000000e+000
      vertex  7.600000e+000  2.939055e-016  2.000000e+000
    endloop
  endfacet
  facet normal  0.000000e+000  0.000000e+000  1.000000e+000
    outer loop
      vertex -1.041676e+001  2.363539e+000  2.000000e+000
      vertex -9.583244e+000  2.363539e+000  2.000000e+000
      vertex -1.000000e+001  2.400000e+000  2.000000e+000
    endloop
  endfacet
  facet normal  -0.000000e+000  0.000000e+000  1.000000e+000
    outer loop
      vertex -9.583244e+000  2.363539e+000  2.000000e+000
      vertex -1.041676e+001  2.363539e+000  2.000000e+000
      vertex -9.179152e+000  2.255262e+000  2.000000e+000
    endloop
  endfacet
  facet normal  0.000000e+000  0.000000e+000  1.000000e+000
    outer loop
      vertex -9.179152e+000  2.255262e+000  2.000000e+000
      vertex -1.041676e+001  2.363539e+000  2.000000e+000
      vertex -1.082085e+001  2.255262e+000  2.000000e+000
    endloop
  endfacet
  facet normal  -0.000000e+000  0.000000e+000  9.999999e-001
    outer loop
      vertex -9.179152e+000  2.255262e+000  2.000000e+000
      vertex -1.082085e+001  2.255262e+000  2.000000e+000
      vertex -8.800000e+000  2.078461e+000  2.000000e+000
    endloop
  endfacet
  facet normal  0.000000e+000  0.000000e+000  1.000000e+000
    outer loop
      vertex -8.800000e+000  2.078461e+000  2.000000e+000
      vertex -1.082085e+001  2.255262e+000  2.000000e+000
      vertex -1.120000e+001  2.078461e+000  2.000000e+000
    endloop
  endfacet
  facet normal  -0.000000e+000  0.000000e+000  1.000000e+000
    outer loop
      vertex -8.800000e+000  2.078461e+000  2.000000e+000
      vertex -1.120000e+001  2.078461e+000  2.000000e+000
      vertex -8.457310e+000  1.838507e+000  2.000000e+000
    endloop
  endfacet
  facet normal  0.000000e+000  0.000000e+000  1.000000e+000
    outer loop
      vertex -8.457310e+000  1.838507e+000  2.000000e+000
      vertex -1.120000e+001  2.078461e+000  2.000000e+000
      vertex -1.154269e+001  1.838507e+000  2.000000e+000
    endloop
  endfacet
  facet normal  -0.000000e+000  0.000000e+000  1.000000e+000
    outer loop
      vertex -8.457310e+000  1.838507e+000  2.000000e+000
      vertex -1.154269e+001  1.838507e+000  2.000000e+000
      vertex -8.161493e+000  1.542690e+000  2.000000e+000
    endloop
  endfacet
  facet normal  0.000000e+000  0.000000e+000  1.000000e+000
    outer loop
      vertex -8.161493e+000  1.542690e+000  2.000000e+000
      vertex -1.154269e+001  1.838507e+000  2.000000e+000
      vertex -1.183851e+001  1.542690e+000  2.000000e+000
    endloop
  endfacet
  facet normal  -0.000000e+000  0.000000e+000  1.000000e+000
    outer loop
      vertex -8.161493e+000  1.542690e+000  2.000000e+000
      vertex -1.183851e+001  1.542690e+000  2.000000e+000
      vertex -7.921539e+000  1.200000e+000  2.000000e+000
    endloop
  endfacet
  facet normal  0.000000e+000  0.000000e+000  1.000000e+000
    outer loop
      vertex -7.921539e+000  1.200000e+000  2.000000e+000
      vertex -1.183851e+001  1.542690e+000  2.000000e+000
      vertex -1.207846e+001  1.200000e+000  2.000000e+000
    endloop
  endfacet
  facet normal  -0.000000e+000  0.000000e+000  1.000000e+000
    outer loop
      vertex -7.921539e+000  1.200000e+000  2.000000e+000
      vertex -1.207846e+001  1.200000e+000  2.000000e+000
      vertex -7.744738e+000  8.208483e-001  2.000000e+000
    endloop
  endfacet
  facet normal  0.000000e+000  0.000000e+000  1.000000e+000
    outer loop
      vertex -7.744738e+000  8.208483e-001  2.000000e+000
      vertex -1.207846e+001  1.200000e+000  2.000000e+000
      vertex -1.225526e+001  8.208483e-001  2.000000e+000
    endloop
  endfacet
  facet normal  -0.000000e+000  0.000000e+000  1.000000e+000
    outer loop
      vertex -7.744738e+000  8.208483e-001  2.000000e+000
      vertex -1.225526e+001  8.208483e-001  2.000000e+000
      vertex -7.636461e+000  4.167556e-001  2.000000e+000
    endloop
  endfacet
  facet normal  0.000000e+000  0.000000e+000  1.000000e+000
    outer loop
      vertex -7.636461e+000  4.167556e-001  2.000000e+000
      vertex -1.225526e+001  8.208483e-001  2.000000e+000
      vertex -1.236354e+001  4.167556e-001  2.000000e+000
    endloop
  endfacet
  facet normal  -0.000000e+000  0.000000e+000  1.000000e+000
    outer loop
      vertex -7.636461e+000  4.167556e-001  2.000000e+000
      vertex -1.236354e+001  4.167556e-001  2.000000e+000
      vertex -7.600000e+000  0.000000e+000  2.000000e+000
    endloop
  endfacet
  facet normal  0.000000e+000  0.000000e+000  1.000000e+000
    outer loop
      vertex -7.600000e+000  0.000000e+000  2.000000e+000
      vertex -1.236354e+001  4.167556e-001  2.000000e+000
      vertex -1.240000e+001  2.939055e-016  2.000000e+000
    endloop
  endfacet
  facet normal  0.000000e+000  0.000000e+000  1.000000e+000
    outer loop
      vertex -7.600000e+000  0.000000e+000  2.000000e+000
      vertex -1.240000e+001  2.939055e-016  2.000000e+000
      vertex -7.636461e+000 -4.167556e-001  2.000000e+000
    endloop
  endfacet
  facet normal  0.000000e+000  0.000000e+000  1.000000e+000
    outer loop
      vertex -7.636461e+000 -4.167556e-001  2.000000e+000
      vertex -1.240000e+001  2.939055e-016  2.000000e+000
      vertex -1.236354e+001 -4.167556e-001  2.000000e+000
    endloop
  endfacet
  facet normal  -0.000000e+000  0.000000e+000  1.000000e+000
    outer loop
      vertex -7.636461e+000 -4.167556e-001  2.000000e+000
      vertex -1.236354e+001 -4.167556e-001  2.000000e+000
      vertex -7.744738e+000 -8.208483e-001  2.000000e+000
    endloop
  endfacet
  facet normal  0.000000e+000  0.000000e+000  1.000000e+000
    outer loop
      vertex -7.744738e+000 -8.208483e-001  2.000000e+000
      vertex -1.236354e+001 -4.167556e-001  2.000000e+000
      vertex -1.225526e+001 -8.208483e-001  2.000000e+000
    endloop
  endfacet
  facet normal  -0.000000e+000  0.000000e+000  1.000000e+000
    outer loop
      vertex -7.744738e+000 -8.208483e-001  2.000000e+000
      vertex -1.225526e+001 -8.208483e-001  2.000000e+000
      vertex -7.921539e+000 -1.200000e+000  2.000000e+000
    endloop
  endfacet
  facet normal  0.000000e+000  0.000000e+000  1.000000e+000
    outer loop
      vertex -7.921539e+000 -1.200000e+000  2.000000e+000
      vertex -1.225526e+001 -8.208483e-001  2.000000e+000
      vertex -1.207846e+001 -1.200000e+000  2.000000e+000
    endloop
  endfacet
  facet normal  -0.000000e+000  0.000000e+000  1.000000e+000
    outer loop
      vertex -7.921539e+000 -1.200000e+000  2.000000e+000
      vertex -1.207846e+001 -1.200000e+000  2.000000e+000
      vertex -8.161493e+000 -1.542690e+000  2.000000e+000
    endloop
  endfacet
  facet normal  0.000000e+000  0.000000e+000  1.000000e+000
    outer loop
      vertex -8.161493e+000 -1.542690e+000  2.000000e+000
      vertex -1.207846e+001 -1.200000e+000  2.000000e+000
      vertex -1.183851e+001 -1.542690e+000  2.000000e+000
    endloop
  endfacet
  facet normal  -0.000000e+000  0.000000e+000  1.000000e+000
    outer loop
      vertex -8.161493e+000 -1.542690e+000  2.000000e+000
      vertex -1.183851e+001 -1.542690e+000  2.000000e+000
      vertex -8.457310e+000 -1.838507e+000  2.000000e+000
    endloop
  endfacet
  facet normal  0.000000e+000  0.000000e+000  1.000000e+000
    outer loop
      vertex -8.457310e+000 -1.838507e+000  2.000000e+000
      vertex -1.183851e+001 -1.542690e+000  2.000000e+000
      vertex -1.154269e+001 -1.838507e+000  2.000000e+000
    endloop
  endfacet
  facet normal  -0.000000e+000  0.000000e+000  1.000000e+000
    outer loop
      vertex -8.457310e+000 -1.838507e+000  2.000000e+000
      vertex -1.154269e+001 -1.838507e+000  2.000000e+000
      vertex -8.800000e+000 -2.078461e+000  2.000000e+000
    endloop
  endfacet
  facet normal  0.000000e+000  0.000000e+000  1.000000e+000
    outer loop
      vertex -8.800000e+000 -2.078461e+000  2.000000e+000
      vertex -1.154269e+001 -1.838507e+000  2.000000e+000
      vertex -1.120000e+001 -2.078461e+000  2.000000e+000
    endloop
  endfacet
  facet normal  -0.000000e+000  0.000000e+000  1.000000e+000
    outer loop
      vertex -8.800000e+000 -2.078461e+000  2.000000e+000
      vertex -1.120000e+001 -2.078461e+000  2.000000e+000
      vertex -9.179152e+000 -2.255262e+000  2.000000e+000
    endloop
  endfacet
  facet normal  0.000000e+000  0.000000e+000  9.999999e-001
    outer loop
      vertex -9.179152e+000 -2.255262e+000  2.000000e+000
      vertex -1.120000e+001 -2.078461e+000  2.000000e+000
      vertex -1.082085e+001 -2.255262e+000  2.000000e+000
    endloop
  endfacet
  facet normal  -0.000000e+000  0.000000e+000  1.000000e+000
    outer loop
      vertex -9.179152e+000 -2.255262e+000  2.000000e+000
      vertex -1.082085e+001 -2.255262e+000  2.000000e+000
      vertex -9.583244e+000 -2.363539e+000  2.000000e+000
    endloop
  endfacet
  facet normal  0.000000e+000  0.000000e+000  1.000000e+000
    outer loop
      vertex -9.583244e+000 -2.363539e+000  2.000000e+000
      vertex -1.082085e+001 -2.255262e+000  2.000000e+000
      vertex -1.041676e+001 -2.363539e+000  2.000000e+000
    endloop
  endfacet
  facet normal  -0.000000e+000  0.000000e+000  1.000000e+000
    outer loop
      vertex -9.583244e+000 -2.363539e+000  2.000000e+000
      vertex -1.041676e+001 -2.363539e+000  2.000000e+000
      vertex -1.000000e+001 -2.400000e+000  2.000000e+000
    endloop
  endfacet
  facet normal  0.000000e+000  0.000000e+000 -1.000000e+000
    outer loop
      vertex -1.000000e+001  2.400000e+000  0.000000e+000
      vertex -9.583244e+000  2.363539e+000  0.000000e+000
      vertex -1.041676e+001  2.363539e+000  0.000000e+000
    endloop
  endfacet
  facet normal  -0.000000e+000  0.000000e+000 -1.000000e+000
    outer loop
      vertex -1.041676e+001  2.363539e+000  0.000000e+000
      vertex -9.583244e+000  2.363539e+000  0.000000e+000
      vertex -1.082085e+001  2.255262e+000  0.000000e+000
    endloop
  endfacet
  facet normal  0.000000e+000  0.000000e+000 -1.000000e+000
    outer loop
      vertex -1.082085e+001  2.255262e+000  0.000000e+000
      vertex -9.583244e+000  2.363539e+000  0.000000e+000
      vertex -9.179152e+000  2.255262e+000  0.000000e+000
    endloop
  endfacet
  facet normal  -0.000000e+000  0.000000e+000 -9.999999e-001
    outer loop
      vertex -1.082085e+001  2.255262e+000  0.000000e+000
      vertex -9.179152e+000  2.255262e+000  0.000000e+000
      vertex -1.120000e+001  2.078461e+000  0.000000e+000
    endloop
  endfacet
  facet normal  0.000000e+000  0.000000e+000 -1.000000e+000
    outer loop
      vertex -1.120000e+001  2.078461e+000  0.000000e+000
      vertex -9.179152e+000  2.255262e+000  0.000000e+000
      vertex -8.800000e+000  2.078461e+000  0.000000e+000
    endloop
  endfacet
  facet normal  -0.000000e+000  0.000000e+000 -1.000000e+000
    outer loop
      vertex -1.120000e+001  2.078461e+000  0.000000e+000
      vertex -8.800000e+000  2.078461e+000  0.000000e+000
      vertex -1.154269e+001  1.838507e+000  0.000000e+000
    endloop
  endfacet
  facet normal  0.000000e+000  0.000000e+000 -1.000000e+000
    outer loop
      vertex -1.154269e+001  1.838507e+000  0.000000e+000
      vertex -8.800000e+000  2.078461e+000  0.000000e+000
      vertex -8.457310e+000  1.838507e+000  0.000000e+000
    endloop
  endfacet
  facet normal  -0.000000e+000  0.000000e+000 -1.000000e+000
    outer loop
      vertex -1.154269e+001  1.838507e+000  0.000000e+000
      vertex -8.457310e+000  1.838507e+000  0.000000e+000
      vertex -1.183851e+001  1.542690e+000  0.000000e+000
    endloop
  endfacet
  facet normal  0.000000e+000  0.000000e+000 -1.000000e+000
    outer loop
      vertex -1.183851e+001  1.542690e+000  0.000000e+000
      vertex -8.457310e+000  1.838507e+000  0.000000e+000
      vertex -8.161493e+000  1.542690e+000  0.000000e+000
    endloop
  endfacet
  facet normal  -0.000000e+000  0.000000e+000 -1.000000e+000
    outer loop
      vertex -1.183851e+001  1.542690e+000  0.000000e+000
      vertex -8.161493e+000  1.542690e+000  0.000000e+000
      vertex -1.207846e+001  1.200000e+000  0.000000e+000
    endloop
  endfacet
  facet normal  0.000000e+000  0.000000e+000 -1.000000e+000
    outer loop
      vertex -1.207846e+001  1.200000e+000  0.000000e+000
      vertex -8.161493e+000  1.542690e+000  0.000000e+000
      vertex -7.921539e+000  1.200000e+000  0.000000e+000
    endloop
  endfacet
  facet normal  -0.000000e+000  0.000000e+000 -1.000000e+000
    outer loop
      vertex -1.207846e+001  1.200000e+000  0.000000e+000
      vertex -7.921539e+000  1.200000e+000  0.000000e+000
      vertex -1.225526e+001  8.208483e-001  0.000000e+000
    endloop
  endfacet
  facet normal  0.000000e+000  0.000000e+000 -1.000000e+000
    outer loop
      vertex -1.225526e+001  8.208483e-001  0.000000e+000
      vertex -7.921539e+000  1.200000e+000  0.000000e+000
      vertex -7.744738e+000  8.208483e-001  0.000000e+000
    endloop
  endfacet
  facet normal  -0.000000e+000  0.000000e+000 -1.000000e+000
    outer loop
      vertex -1.225526e+001  8.208483e-001  0.000000e+000
      vertex -7.744738e+000  8.208483e-001  0.000000e+000
      vertex -1.236354e+001  4.167556e-001  0.000000e+000
    endloop
  endfacet
  facet normal  0.000000e+000  0.000000e+000 -1.000000e+000
    outer loop
      vertex -1.236354e+001  4.167556e-001  0.000000e+000
      vertex -7.744738e+000  8.208483e-001  0.000000e+000
      vertex -7.636461e+000  4.167556e-001  0.000000e+000
    endloop
  endfacet
  facet normal  -0.000000e+000  0.000000e+000 -1.000000e+000
    outer loop
      vertex -1.236354e+001  4.167556e-001  0.000000e+000
      vertex -7.636461e+000  4.167556e-001  0.000000e+000
      vertex -1.240000e+001  2.939055e-016  0.000000e+000
    endloop
  endfacet
  facet normal  0.000000e+000  0.000000e+000 -1.000000e+000
    outer loop
      vertex -1.240000e+001  2.939055e-016  0.000000e+000
      vertex -7.636461e+000  4.167556e-001  0.000000e+000
      vertex -7.600000e+000  0.000000e+000  0.000000e+000
    endloop
  endfacet
  facet normal  -0.000000e+000  0.000000e+000 -1.000000e+000
    outer loop
      vertex -1.240000e+001  2.939055e-016  0.000000e+000
      vertex -7.600000e+000  0.000000e+000  0.000000e+000
      vertex -1.236354e+001 -4.167556e-001  0.000000e+000
    endloop
  endfacet
  facet normal  0.000000e+000  0.000000e+000 -1.000000e+000
    outer loop
      vertex -1.236354e+001 -4.167556e-001  0.000000e+000
      vertex -7.600000e+000  0.000000e+000  0.000000e+000
      vertex -7.636461e+000 -4.167556e-001  0.000000e+000
    endloop
  endfacet
  facet normal  -0.000000e+000  0.000000e+000 -1.000000e+000
    outer loop
      vertex -1.236354e+001 -4.167556e-001  0.000000e+000
      vertex -7.636461e+000 -4.167556e-001  0.000000e+000
      vertex -1.225526e+001 -8.208483e-001  0.000000e+000
    endloop
  endfacet
  facet normal  0.000000e+000  0.000000e+000 -1.000000e+000
    outer loop
      vertex -1.225526e+001 -8.208483e-001  0.000000e+000
      vertex -7.636461e+000 -4.167556e-001  0.000000e+000
      vertex -7.744738e+000 -8.208483e-001  0.000000e+000
    endloop
  endfacet
  facet normal  -0.000000e+000  0.000000e+000 -1.000000e+000
    outer loop
      vertex -1.225526e+001 -8.208483e-001  0.000000e+000
      vertex -7.744738e+000 -8.208483e-001  0.000000e+000
      vertex -1.207846e+001 -1.200000e+000  0.000000e+000
    endloop
  endfacet
  facet normal  0.000000e+000  0.000000e+000 -1.000000e+000
    outer loop
      vertex -1.207846e+001 -1.200000e+000  0.000000e+000
      vertex -7.744738e+000 -8.208483e-001  0.000000e+000
      vertex -7.921539e+000 -1.200000e+000  0.000000e+000
    endloop
  endfacet
  facet normal  -0.000000e+000  0.000000e+000 -1.000000e+000
    outer loop
      vertex -1.207846e+001 -1.200000e+000  0.000000e+000
      vertex -7.921539e+000 -1.200000e+000  0.000000e+000
      vertex -1.183851e+001 -1.542690e+000  0.000000e+000
    endloop
  endfacet
  facet normal  0.000000e+000  0.000000e+000 -1.000000e+000
    outer loop
      vertex -1.183851e+001 -1.542690e+000  0.000000e+000
      vertex -7.921539e+000 -1.200000e+000  0.000000e+000
      vertex -8.161493e+000 -1.542690e+000  0.000000e+000
    endloop
  endfacet
  facet normal  -0.000000e+000  0.000000e+000 -1.000000e+000
    outer loop
      vertex -1.183851e+001 -1.542690e+000  0.000000e+000
      vertex -8.161493e+000 -1.542690e+000  0.000000e+000
      vertex -1.154269e+001 -1.838507e+000  0.000000e+000
    endloop
  endfacet
  facet normal  0.000000e+000  0.000000e+000 -1.000000e+000
    outer loop
      vertex -1.154269e+001 -1.838507e+000  0.000000e+000
      vertex -8.161493e+000 -1.542690e+000  0.000000e+000
      vertex -8.457310e+000 -1.838507e+000  0.000000e+000
    endloop
  endfacet
  facet normal  -0.000000e+000  0.000000e+000 -1.000000e+000
    outer loop
      vertex -1.154269e+001 -1.838507e+000  0.000000e+000
      vertex -8.457310e+000 -1.838507e+000  0.000000e+000
      vertex -1.120000e+001 -2.078461e+000  0.000000e+000
    endloop
  endfacet
  facet normal  0.000000e+000  0.000000e+000 -1.000000e+000
    outer loop
      vertex -1.120000e+001 -2.078461e+000  0.000000e+000
      vertex -8.457310e+000 -1.838507e+000  0.000000e+000
      vertex -8.800000e+000 -2.078461e+000  0.000000e+000
    endloop
  endfacet
  facet normal  -0.000000e+000  0.000000e+000 -1.000000e+000
    outer loop
      vertex -1.120000e+001 -2.078461e+000  0.000000e+000
      vertex -8.800000e+000 -2.078461e+000  0.000000e+000
      vertex -1.082085e+001 -2.255262e+000  0.000000e+000
    endloop
  endfacet
  facet normal  0.000000e+000  0.000000e+000 -9.999999e-001
    outer loop
      vertex -1.082085e+001 -2.255262e+000  0.000000e+000
      vertex -8.800000e+000 -2.078461e+000  0.000000e+000
      vertex -9.179152e+000 -2.255262e+000  0.000000e+000
    endloop
  endfacet
  facet normal  -0.000000e+000  0.000000e+000 -1.000000e+000
    outer loop
      vertex -1.082085e+001 -2.255262e+000  0.000000e+000
      vertex -9.179152e+000 -2.255262e+000  0.000000e+000
      vertex -1.041676e+001 -2.363539e+000  0.000000e+000
    endloop
  endfacet
  facet normal  0.000000e+000  0.000000e+000 -1.000000e+000
    outer loop
      vertex -1.041676e+001 -2.363539e+000  0.000000e+000
      vertex -9.179152e+000 -2.255262e+000  0.000000e+000
      vertex -9.583244e+000 -2.363539e+000  0.000000e+000
    endloop
  endfacet
  facet normal  -0.000000e+000  0.000000e+000 -1.000000e+000
    outer loop
      vertex -1.041676e+001 -2.363539e+000  0.000000e+000
      vertex -9.583244e+000 -2.363539e+000  0.000000e+000
      vertex -1.000000e+001 -2.400000e+000  0.000000e+000
    endloop
  endfacet
  facet normal  9.961947e-001 -8.715566e-002  0.000000e+000
    outer loop
      vertex -7.600000e+000  0.000000e+000  0.000000e+000
      vertex -7.600000e+000  0.000000e+000  2.000000e+000
      vertex -7.636461e+000 -4.167556e-001  0.000000e+000
    endloop
  endfacet
  facet normal  9.961947e-001 -8.715566e-002  0.000000e+000
    outer loop
      vertex -7.636461e+000 -4.167556e-001  0.000000e+000
      vertex -7.600000e+000  0.000000e+000  2.000000e+000
      vertex -7.636461e+000 -4.167556e-001  2.000000e+000
    endloop
  endfacet
  facet normal  9.659258e-001 -2.588192e-001  0.000000e+000
    outer loop
      vertex -7.636461e+000 -4.167556e-001  0.000000e+000
      vertex -7.636461e+000 -4.167556e-001  2.000000e+000
      vertex -7.744738e+000 -8.208483e-001  0.000000e+000
    endloop
  endfacet
  facet normal  9.659258e-001 -2.588192e-001  0.000000e+000
    outer loop
      vertex -7.744738e+000 -8.208483e-001  0.000000e+000
      vertex -7.636461e+000 -4.167556e-001  2.000000e+000
      vertex -7.744738e+000 -8.208483e-001  2.000000e+000
    endloop
  endfacet
  facet normal  9.063079e-001 -4.226180e-001  0.000000e+000
    outer loop
      vertex -7.744738e+000 -8.208483e-001  0.000000e+000
      vertex -7.744738e+000 -8.208483e-001  2.000000e+000
      vertex -7.921539e+000 -1.200000e+000  0.000000e+000
    endloop
  endfacet
  facet normal  9.063079e-001 -4.226180e-001  0.000000e+000
    outer loop
      vertex -7.921539e+000 -1.200000e+000  0.000000e+000
      vertex -7.744738e+000 -8.208483e-001  2.000000e+000
      vertex -7.921539e+000 -1.200000e+000  2.000000e+000
    endloop
  endfacet
  facet normal  8.191518e-001 -5.735767e-001  0.000000e+000
    outer loop
      vertex -7.921539e+000 -1.200000e+000  0.000000e+000
      vertex -7.921539e+000 -1.200000e+000  2.000000e+000
      vertex -8.161493e+000 -1.542690e+000  0.000000e+000
    endloop
  endfacet
  facet normal  8.191518e-001 -5.735767e-001  0.000000e+000
    outer loop
      vertex -8.161493e+000 -1.542690e+000  0.000000e+000
      vertex -7.921539e+000 -1.200000e+000  2.000000e+000
      vertex -8.161493e+000 -1.542690e+000  2.000000e+000
    endloop
  endfacet
  facet normal  7.071068e-001 -7.071068e-001  0.000000e+000
    outer loop
      vertex -8.161493e+000 -1.542690e+000  0.000000e+000
      vertex -8.161493e+000 -1.542690e+000  2.000000e+000
      vertex -8.457310e+000 -1.838507e+000  0.000000e+000
    endloop
  endfacet
  facet normal  7.071068e-001 -7.071068e-001  0.000000e+000
    outer loop
      vertex -8.457310e+000 -1.838507e+000  0.000000e+000
      vertex -8.161493e+000 -1.542690e+000  2.000000e+000
      vertex -8.457310e+000 -1.838507e+000  2.000000e+000
    endloop
  endfacet
  facet normal  5.735761e-001 -8.191523e-001  0.000000e+000
    outer loop
      vertex -8.457310e+000 -1.838507e+000  0.000000e+000
      vertex -8.457310e+000 -1.838507e+000  2.000000e+000
      vertex -8.800000e+000 -2.078461e+000  0.000000e+000
    endloop
  endfacet
  facet normal  5.735761e-001 -8.191523e-001  0.000000e+000
    outer loop
      vertex -8.800000e+000 -2.078461e+000  0.000000e+000
      vertex -8.457310e+000 -1.838507e+000  2.000000e+000
      vertex -8.800000e+000 -2.078461e+000  2.000000e+000
    endloop
  endfacet
  facet normal  4.226188e-001 -9.063075e-001  0.000000e+000
    outer loop
      vertex -8.800000e+000 -2.078461e+000  0.000000e+000
      vertex -8.800000e+000 -2.078461e+000  2.000000e+000
      vertex -9.179152e+000 -2.255262e+000  0.000000e+000
    endloop
  endfacet
  facet normal  4.226188e-001 -9.063075e-001  0.000000e+000
    outer loop
      vertex -9.179152e+000 -2.255262e+000  0.000000e+000
      vertex -8.800000e+000 -2.078461e+000  2.000000e+000
      vertex -9.179152e+000 -2.255262e+000  2.000000e+000
    endloop
  endfacet
  facet normal  2.588186e-001 -9.659259e-001  0.000000e+000
    outer loop
      vertex -9.179152e+000 -2.255262e+000  0.000000e+000
      vertex -9.179152e+000 -2.255262e+000  2.000000e+000
      vertex -9.583244e+000 -2.363539e+000  0.000000e+000
    endloop
  endfacet
  facet normal  2.588186e-001 -9.659259e-001  0.000000e+000
    outer loop
      vertex -9.583244e+000 -2.363539e+000  0.000000e+000
      vertex -9.179152e+000 -2.255262e+000  2.000000e+000
      vertex -9.583244e+000 -2.363539e+000  2.000000e+000
    endloop
  endfacet
  facet normal  8.715621e-002 -9.961947e-001  0.000000e+000
    outer loop
      vertex -9.583244e+000 -2.363539e+000  0.000000e+000
      vertex -9.583244e+000 -2.363539e+000  2.000000e+000
      vertex -1.000000e+001 -2.400000e+000  0.000000e+000
    endloop
  endfacet
  facet normal  8.715621e-002 -9.961947e-001  0.000000e+000
    outer loop
      vertex -1.000000e+001 -2.400000e+000  0.000000e+000
      vertex -9.583244e+000 -2.363539e+000  2.000000e+000
      vertex -1.000000e+001 -2.400000e+000  2.000000e+000
    endloop
  endfacet
  facet normal -8.715621e-002 -9.961947e-001  -0.000000e+000
    outer loop
      vertex -1.000000e+001 -2.400000e+000  0.000000e+000
      vertex -1.000000e+001 -2.400000e+000  2.000000e+000
      vertex -1.041676e+001 -2.363539e+000  0.000000e+000
    endloop
  endfacet
  facet normal -8.715621e-002 -9.961947e-001  0.000000e+000
    outer loop
      vertex -1.041676e+001 -2.363539e+000  0.000000e+000
      vertex -1.000000e+001 -2.400000e+000  2.000000e+000
      vertex -1.041676e+001 -2.363539e+000  2.000000e+000
    endloop
  endfacet
  facet normal -2.588186e-001 -9.659259e-001  -0.000000e+000
    outer loop
      vertex -1.041676e+001 -2.363539e+000  0.000000e+000
      vertex -1.041676e+001 -2.363539e+000  2.000000e+000
      vertex -1.082085e+001 -2.255262e+000  0.000000e+000
    endloop
  endfacet
  facet normal -2.588186e-001 -9.659259e-001  0.000000e+000
    outer loop
      vertex -1.082085e+001 -2.255262e+000  0.000000e+000
      vertex -1.041676e+001 -2.363539e+000  2.000000e+000
      vertex -1.082085e+001 -2.255262e+000  2.000000e+000
    endloop
  endfacet
  facet normal -4.226188e-001 -9.063075e-001  -0.000000e+000
    outer loop
      vertex -1.082085e+001 -2.255262e+000  0.000000e+000
      vertex -1.082085e+001 -2.255262e+000  2.000000e+000
      vertex -1.120000e+001 -2.078461e+000  0.000000e+000
    endloop
  endfacet
  facet normal -4.226188e-001 -9.063075e-001  0.000000e+000
    outer loop
      vertex -1.120000e+001 -2.078461e+000  0.000000e+000
      vertex -1.082085e+001 -2.255262e+000  2.000000e+000
      vertex -1.120000e+001 -2.078461e+000  2.000000e+000
    endloop
  endfacet
  facet normal -5.735761e-001 -8.191523e-001  -0.000000e+000
    outer loop
      vertex -1.120000e+001 -2.078461e+000  0.000000e+000
      vertex -1.120000e+001 -2.078461e+000  2.000000e+000
      vertex -1.154269e+001 -1.838507e+000  0.000000e+000
    endloop
  endfacet
  facet normal -5.735761e-001 -8.191523e-001  0.000000e+000
    outer loop
      vertex -1.154269e+001 -1.838507e+000  0.000000e+000
      vertex -1.120000e+001 -2.078461e+000  2.000000e+000
      vertex -1.154269e+001 -1.838507e+000  2.000000e+000
    endloop
  endfacet
  facet normal -7.071068e-001 -7.071068e-001  -0.000000e+000
    outer loop
      vertex -1.154269e+001 -1.838507e+000  0.000000e+000
      vertex -1.154269e+001 -1.838507e+000  2.000000e+000
      vertex -1.183851e+001 -1.542690e+000  0.000000e+000
    endloop
  endfacet
  facet normal -7.071068e-001 -7.071068e-001  0.000000e+000
    outer loop
      vertex -1.183851e+001 -1.542690e+000  0.000000e+000
      vertex -1.154269e+001 -1.838507e+000  2.000000e+000
      vertex -1.183851e+001 -1.542690e+000  2.000000e+000
    endloop
  endfacet
  facet normal -8.191524e-001 -5.735760e-001  -0.000000e+000
    outer loop
      vertex -1.183851e+001 -1.542690e+000  0.000000e+000
      vertex -1.183851e+001 -1.542690e+000  2.000000e+000
      vertex -1.207846e+001 -1.200000e+000  0.000000e+000
    endloop
  endfacet
  facet normal -8.191524e-001 -5.735760e-001  0.000000e+000
    outer loop
      vertex -1.207846e+001 -1.200000e+000  0.000000e+000
      vertex -1.183851e+001 -1.542690e+000  2.000000e+000
      vertex -1.207846e+001 -1.200000e+000  2.000000e+000
    endloop
  endfacet
  facet normal -9.063075e-001 -4.226189e-001  -0.000000e+000
    outer loop
      vertex -1.207846e+001 -1.200000e+000  0.000000e+000
      vertex -1.207846e+001 -1.200000e+000  2.000000e+000
      vertex -1.225526e+001 -8.208483e-001  0.000000e+000
    endloop
  endfacet
  facet normal -9.063075e-001 -4.226189e-001  0.000000e+000
    outer loop
      vertex -1.225526e+001 -8.208483e-001  0.000000e+000
      vertex -1.207846e+001 -1.200000e+000  2.000000e+000
      vertex -1.225526e+001 -8.208483e-001  2.000000e+000
    endloop
  endfacet
  facet normal -9.659258e-001 -2.588192e-001  -0.000000e+000
    outer loop
      vertex -1.225526e+001 -8.208483e-001  0.000000e+000
      vertex -1.225526e+001 -8.208483e-001  2.000000e+000
      vertex -1.236354e+001 -4.167556e-001  0.000000e+000
    endloop
  endfacet
  facet normal -9.659258e-001 -2.588192e-001  0.000000e+000
    outer loop
      vertex -1.236354e+001 -4.167556e-001  0.000000e+000
      vertex -1.225526e+001 -8.208483e-001  2.000000e+000
      vertex -1.236354e+001 -4.167556e-001  2.000000e+000
    endloop
  endfacet
  facet normal -9.961948e-001 -8.715452e-002  -0.000000e+000
    outer loop
      vertex -1.236354e+001 -4.167556e-001  0.000000e+000
      vertex -1.236354e+001 -4.167556e-001  2.000000e+000
      vertex -1.240000e+001  2.939055e-016  0.000000e+000
    endloop
  endfacet
  facet normal -9.961948e-001 -8.715452e-002  0.000000e+000
    outer loop
      vertex -1.240000e+001  2.939055e-016  0.000000e+000
      vertex -1.236354e+001 -4.167556e-001  2.000000e+000
      vertex -1.240000e+001  2.939055e-016  2.000000e+000
    endloop
  endfacet
  facet normal -9.961948e-001  8.715452e-002  0.000000e+000
    outer loop
      vertex -1.240000e+001  2.939055e-016  0.000000e+000
      vertex -1.240000e+001  2.939055e-016  2.000000e+000
      vertex -1.236354e+001  4.167556e-001  0.000000e+000
    endloop
  endfacet
  facet normal -9.961948e-001  8.715452e-002  0.000000e+000
    outer loop
      vertex -1.236354e+001  4.167556e-001  0.000000e+000
      vertex -1.240000e+001  2.939055e-016  2.000000e+000
      vertex -1.236354e+001  4.167556e-001  2.000000e+000
    endloop
  endfacet
  facet normal -9.659258e-001  2.588192e-001  0.000000e+000
    outer loop
      vertex -1.236354e+001  4.167556e-001  0.000000e+000
      vertex -1.236354e+001  4.167556e-001  2.000000e+000
      vertex -1.225526e+001  8.208483e-001  0.000000e+000
    endloop
  endfacet
  facet normal -9.659258e-001  2.588192e-001  0.000000e+000
    outer loop
      vertex -1.225526e+001  8.208483e-001  0.000000e+000
      vertex -1.236354e+001  4.167556e-001  2.000000e+000
      vertex -1.225526e+001  8.208483e-001  2.000000e+000
    endloop
  endfacet
  facet normal -9.063075e-001  4.226189e-001  0.000000e+000
    outer loop
      vertex -1.225526e+001  8.208483e-001  0.000000e+000
      vertex -1.225526e+001  8.208483e-001  2.000000e+000
      vertex -1.207846e+001  1.200000e+000  0.000000e+000
    endloop
  endfacet
  facet normal -9.063075e-001  4.226189e-001  0.000000e+000
    outer loop
      vertex -1.207846e+001  1.200000e+000  0.000000e+000
      vertex -1.225526e+001  8.208483e-001  2.000000e+000
      vertex -1.207846e+001  1.200000e+000  2.000000e+000
    endloop
  endfacet
  facet normal -8.191524e-001  5.735760e-001  0.000000e+000
    outer loop
      vertex -1.207846e+001  1.200000e+000  0.000000e+000
      vertex -1.207846e+001  1.200000e+000  2.000000e+000
      vertex -1.183851e+001  1.542690e+000  0.000000e+000
    endloop
  endfacet
  facet normal -8.191524e-001  5.735760e-001  0.000000e+000
    outer loop
      vertex -1.183851e+001  1.542690e+000  0.000000e+000
      vertex -1.207846e+001  1.200000e+000  2.000000e+000
      vertex -1.183851e+001  1.542690e+000  2.000000e+000
    endloop
  endfacet
  facet normal -7.071068e-001  7.071068e-001  0.000000e+000
    outer loop
      vertex -1.183851e+001  1.542690e+000  0.000000e+000
      vertex -1.183851e+001  1.542690e+000  2.000000e+000
      vertex -1.154269e+001  1.838507e+000  0.000000e+000
    endloop
  endfacet
  facet normal -7.071068e-001  7.071068e-001  0.000000e+000
    outer loop
      vertex -1.154269e+001  1.838507e+000  0.000000e+000
      vertex -1.183851e+001  1.542690e+000  2.000000e+000
      vertex -1.154269e+001  1.838507e+000  2.000000e+000
    endloop
  endfacet
  facet normal -5.735761e-001  8.191523e-001  0.000000e+000
    outer loop
      vertex -1.154269e+001  1.838507e+000  0.000000e+000
      vertex -1.154269e+001  1.838507e+000  2.000000e+000
      vertex -1.120000e+001  2.078461e+000  0.000000e+000
    endloop
  endfacet
  facet normal -5.735761e-001  8.191523e-001  0.000000e+000
    outer loop
      vertex -1.120000e+001  2.078461e+000  0.000000e+000
      vertex -1.154269e+001  1.838507e+000  2.000000e+000
      vertex -1.120000e+001  2.078461e+000  2.000000e+000
    endloop
  endfacet
  facet normal -4.226188e-001  9.063075e-001  0.000000e+000
    outer loop
      vertex -1.120000e+001  2.078461e+000  0.000000e+000
      vertex -1.120000e+001  2.078461e+000  2.000000e+000
      vertex -1.082085e+001  2.255262e+000  0.000000e+000
    endloop
  endfacet
  facet normal -4.226188e-001  9.063075e-001  0.000000e+000
    outer loop
      vertex -1.082085e+001  2.255262e+000  0.000000e+000
      vertex -1.120000e+001  2.078461e+000  2.000000e+000
      vertex -1.082085e+001  2.255262e+000  2.000000e+000
    endloop
  endfacet
  facet normal -2.588186e-001  9.659259e-001  0.000000e+000
    outer loop
      vertex -1.082085e+001  2.255262e+000  0.000000e+000
      vertex -1.082085e+001  2.255262e+000  2.000000e+000
      vertex -1.041676e+001  2.363539e+000  0.000000e+000
    endloop
  endfacet
  facet normal -2.588186e-001  9.659259e-001  0.000000e+000
    outer loop
      vertex -1.041676e+001  2.363539e+000  0.000000e+000
      vertex -1.082085e+001  2.255262e+000  2.000000e+000
      vertex -1.041676e+001  2.363539e+000  2.000000e+000
    endloop
  endfacet
  facet normal -8.715621e-002  9.961947e-001  0.000000e+000
    outer loop
      vertex -1.041676e+001  2.363539e+000  0.000000e+000
      vertex -1.041676e+001  2.363539e+000  2.000000e+000
      vertex -1.000000e+001  2.400000e+000  0.000000e+000
    endloop
  endfacet
  facet normal -8.715621e-002  9.961947e-001  0.000000e+000
    outer loop
      vertex -1.000000e+001  2.400000e+000  0.000000e+000
      vertex -1.041676e+001  2.363539e+000  2.000000e+000
      vertex -1.000000e+001  2.400000e+000  2.000000e+000
    endloop
  endfacet
  facet normal  8.715621e-002  9.961947e-001  0.000000e+000
    outer loop
      vertex -1.000000e+001  2.400000e+000  0.000000e+000
      vertex -1.000000e+001  2.400000e+000  2.000000e+000
      vertex -9.583244e+000  2.363539e+000  0.000000e+000
    endloop
  endfacet
  facet normal  8.715621e-002  9.961947e-001  -0.000000e+000
    outer loop
      vertex -9.583244e+000  2.363539e+000  0.000000e+000
      vertex -1.000000e+001  2.400000e+000  2.000000e+000
      vertex -9.583244e+000  2.363539e+000  2.000000e+000
    endloop
  endfacet
  facet normal  2.588186e-001  9.659259e-001  0.000000e+000
    outer loop
      vertex -9.583244e+000  2.363539e+000  0.000000e+000
      vertex -9.583244e+000  2.363539e+000  2.000000e+000
      vertex -9.179152e+000  2.255262e+000  0.000000e+000
    endloop
  endfacet
  facet normal  2.588186e-001  9.659259e-001  -0.000000e+000
    outer loop
      vertex -9.179152e+000  2.255262e+000  0.000000e+000
      vertex -9.583244e+000  2.363539e+000  2.000000e+000
      vertex -9.179152e+000  2.255262e+000  2.000000e+000
    endloop
  endfacet
  facet normal  4.226188e-001  9.063075e-001  0.000000e+000
    outer loop
      vertex -9.179152e+000  2.255262e+000  0.000000e+000
      vertex -9.179152e+000  2.255262e+000  2.000000e+000
      vertex -8.800000e+000  2.078461e+000  0.000000e+000
    endloop
  endfacet
  facet normal  4.226188e-001  9.063075e-001  -0.000000e+000
    outer loop
      vertex -8.800000e+000  2.078461e+000  0.000000e+000
      vertex -9.179152e+000  2.255262e+000  2.000000e+000
      vertex -8.800000e+000  2.078461e+000  2.000000e+000
    endloop
  endfacet
  facet normal  5.735761e-001  8.191523e-001  0.000000e+000
    outer loop
      vertex -8.800000e+000  2.078461e+000  0.000000e+000
      vertex -8.800000e+000  2.078461e+000  2.000000e+000
      vertex -8.457310e+000  1.838507e+000  0.000000e+000
    endloop
  endfacet
  facet normal  5.735761e-001  8.191523e-001  -0.000000e+000
    outer loop
      vertex -8.457310e+000  1.838507e+000  0.000000e+000
      vertex -8.800000e+000  2.078461e+000  2.000000e+000
      vertex -8.457310e+000  1.838507e+000  2.000000e+000
    endloop
  endfacet
  facet normal  7.071068e-001  7.071068e-001  0.000000e+000
    outer loop
      vertex -8.457310e+000  1.838507e+000  0.000000e+000
      vertex -8.457310e+000  1.838507e+000  2.000000e+000
      vertex -8.161493e+000  1.542690e+000  0.000000e+000
    endloop
  endfacet
  facet normal  7.071068e-001  7.071068e-001  -0.000000e+000
    outer loop
      vertex -8.161493e+000  1.542690e+000  0.000000e+000
      vertex -8.457310e+000  1.838507e+000  2.000000e+000
      vertex -8.161493e+000  1.542690e+000  2.000000e+000
    endloop
  endfacet
  facet normal  8.191518e-001  5.735767e-001  0.000000e+000
    outer loop
      vertex -8.161493e+000  1.542690e+000  0.000000e+000
      vertex -8.161493e+000  1.542690e+000  2.000000e+000
      vertex -7.921539e+000  1.200000e+000  0.000000e+000
    endloop
  endfacet
  facet normal  8.191518e-001  5.735767e-001  -0.000000e+000
    outer loop
      vertex -7.921539e+000  1.200000e+000  0.000000e+000
      vertex -8.161493e+000  1.542690e+000  2.000000e+000
      vertex -7.921539e+000  1.200000e+000  2.000000e+000
    endloop
  endfacet
  facet normal  9.063079e-001  4.226180e-001  0.000000e+000
    outer loop
      vertex -7.921539e+000  1.200000e+000  0.000000e+000
      vertex -7.921539e+000  1.200000e+000  2.000000e+000
      vertex -7.744738e+000  8.208483e-001  0.000000e+000
    endloop
  endfacet
  facet normal  9.063079e-001  4.226180e-001  -0.000000e+000
    outer loop
      vertex -7.744738e+000  8.208483e-001  0.000000e+000
      vertex -7.921539e+000  1.200000e+000  2.000000e+000
      vertex -7.744738e+000  8.208483e-001  2.000000e+000
    endloop
  endfacet
  facet normal  9.659258e-001  2.588192e-001  0.000000e+000
    outer loop
      vertex -7.744738e+000  8.208483e-001  0.000000e+000
      vertex -7.744738e+000  8.208483e-001  2.000000e+000
      vertex -7.636461e+000  4.167556e-001  0.000000e+000
    endloop
  endfacet
  facet normal  9.659258e-001  2.588192e-001  -0.000000e+000
    outer loop
      vertex -7.636461e+000  4.167556e-001  0.000000e+000
      vertex -7.744738e+000  8.208483e-001  2.000000e+000
      vertex -7.636461e+000  4.167556e-001  2.000000e+000
    endloop
  endfacet
  facet normal  9.961947e-001  8.715566e-002  0.000000e+000
    outer loop
      vertex -7.636461e+000  4.167556e-001  0.000000e+000
      vertex -7.636461e+000  4.167556e-001  2.000000e+000
      vertex -7.600000e+000  0.000000e+000  0.000000e+000
    endloop
  endfacet
  facet normal  9.961947e-001  8.715566e-002  -0.000000e+000
    outer loop
      vertex -7.600000e+000  0.000000e+000  0.000000e+000
      vertex -7.636461e+000  4.167556e-001  2.000000e+000
      vertex -7.600000e+000  0.000000e+000  2.000000e+000
    endloop
  endfacet
endsolid CATIA STL
