%TF.GenerationSoftware,KiCad,Pcbnew,7.0.9*%
%TF.CreationDate,2023-12-21T11:10:10+01:00*%
%TF.ProjectId,OptiprodV2,4f707469-7072-46f6-9456-322e6b696361,rev?*%
%TF.SameCoordinates,Original*%
%TF.FileFunction,Soldermask,Top*%
%TF.FilePolarity,Negative*%
%FSLAX46Y46*%
G04 Gerber Fmt 4.6, Leading zero omitted, Abs format (unit mm)*
G04 Created by KiCad (PCBNEW 7.0.9) date 2023-12-21 11:10:10*
%MOMM*%
%LPD*%
G01*
G04 APERTURE LIST*
%ADD10C,2.000000*%
%ADD11C,2.600000*%
%ADD12R,1.800000X1.800000*%
%ADD13O,1.800000X1.800000*%
%ADD14C,3.200000*%
%ADD15O,1.727200X1.727200*%
%ADD16R,1.727200X1.727200*%
%ADD17C,1.400000*%
%ADD18O,1.400000X1.400000*%
%ADD19R,1.600000X1.600000*%
%ADD20O,1.600000X1.600000*%
%ADD21R,1.500000X1.500000*%
%ADD22C,1.500000*%
%ADD23C,1.440000*%
G04 APERTURE END LIST*
D10*
%TO.C,SDA2*%
X172720000Y-78740000D03*
%TD*%
D11*
%TO.C,SCL1*%
X205740000Y-63500000D03*
%TD*%
%TO.C,SDA1*%
X205740000Y-68580000D03*
%TD*%
%TO.C,SDO1*%
X205740000Y-73660000D03*
%TD*%
D12*
%TO.C,DZ6*%
X115570000Y-72830000D03*
D13*
X128270000Y-72830000D03*
%TD*%
D14*
%TO.C,A2*%
X110490000Y-106680000D03*
X111760000Y-58420000D03*
D15*
X124460000Y-106680000D03*
D14*
X162560000Y-73660000D03*
X162560000Y-101600000D03*
X186690000Y-58420000D03*
X193040000Y-106680000D03*
D15*
X132080000Y-106680000D03*
X134620000Y-106680000D03*
X162687000Y-78740000D03*
X190500000Y-58420000D03*
X193040000Y-58420000D03*
X147320000Y-106680000D03*
X149860000Y-106680000D03*
X152400000Y-106680000D03*
X154940000Y-106680000D03*
X157480000Y-106680000D03*
X160020000Y-106680000D03*
X162560000Y-106680000D03*
X165100000Y-106680000D03*
X170180000Y-106680000D03*
X172720000Y-106680000D03*
X175260000Y-106680000D03*
X177800000Y-106680000D03*
X180340000Y-106680000D03*
X182880000Y-106680000D03*
X185420000Y-106680000D03*
X187960000Y-106680000D03*
X120396000Y-58420000D03*
X160020000Y-58420000D03*
X157480000Y-58420000D03*
X154940000Y-58420000D03*
X152400000Y-58420000D03*
X149860000Y-58420000D03*
X147320000Y-58420000D03*
X144780000Y-58420000D03*
X142240000Y-58420000D03*
X138176000Y-58420000D03*
X135636000Y-58420000D03*
X133096000Y-58420000D03*
X130556000Y-58420000D03*
X128016000Y-58420000D03*
X125476000Y-58420000D03*
X165100000Y-58420000D03*
X167640000Y-58420000D03*
X170180000Y-58420000D03*
X172720000Y-58420000D03*
X175260000Y-58420000D03*
X177800000Y-58420000D03*
X180340000Y-58420000D03*
X182880000Y-58420000D03*
X190500000Y-60960000D03*
X193040000Y-60960000D03*
X190500000Y-63500000D03*
X193040000Y-63500000D03*
X190500000Y-66040000D03*
X193040000Y-66040000D03*
X190500000Y-68580000D03*
X193040000Y-68580000D03*
X190500000Y-71120000D03*
X193040000Y-71120000D03*
X190500000Y-73660000D03*
X193040000Y-73660000D03*
X190500000Y-76200000D03*
X193040000Y-76200000D03*
X190500000Y-78740000D03*
X193040000Y-78740000D03*
X190500000Y-81280000D03*
X193040000Y-81280000D03*
X190500000Y-83820000D03*
X193040000Y-83820000D03*
X190500000Y-86360000D03*
X193040000Y-86360000D03*
X190500000Y-88900000D03*
X193040000Y-88900000D03*
X190500000Y-91440000D03*
X193040000Y-91440000D03*
X190500000Y-93980000D03*
X193040000Y-93980000D03*
X190500000Y-96520000D03*
X193040000Y-96520000D03*
X190500000Y-99060000D03*
X193040000Y-99060000D03*
D16*
X122936000Y-58420000D03*
X137160000Y-106680000D03*
X139700000Y-106680000D03*
X162687000Y-83820000D03*
X190500000Y-101600000D03*
X193040000Y-101600000D03*
D15*
X127000000Y-106680000D03*
X160147000Y-78740000D03*
X162687000Y-81280000D03*
X129540000Y-106680000D03*
X160147000Y-83820000D03*
X160147000Y-81280000D03*
X115316000Y-58420000D03*
X117856000Y-58420000D03*
X142240000Y-106680000D03*
%TD*%
D10*
%TO.C,GNDS1*%
X172720000Y-86360000D03*
%TD*%
D11*
%TO.C,GNDIN2*%
X205740000Y-58420000D03*
%TD*%
D17*
%TO.C,4.7K1*%
X127000000Y-88900000D03*
D18*
X134620000Y-88900000D03*
%TD*%
D11*
%TO.C,A1*%
X205740000Y-104140000D03*
%TD*%
D17*
%TO.C,1K2*%
X127000000Y-83820000D03*
D18*
X134620000Y-83820000D03*
%TD*%
D17*
%TO.C,51K1*%
X127000000Y-93980000D03*
D18*
X134620000Y-93980000D03*
%TD*%
D11*
%TO.C,GND1*%
X205740000Y-109220000D03*
%TD*%
D19*
%TO.C,MCP602*%
X114300000Y-81280000D03*
D20*
X114300000Y-83820000D03*
X114300000Y-86360000D03*
X114300000Y-88900000D03*
X121920000Y-88900000D03*
X121920000Y-86360000D03*
X121920000Y-83820000D03*
X121920000Y-81280000D03*
%TD*%
D11*
%TO.C,CS1*%
X205740000Y-78740000D03*
%TD*%
D21*
%TO.C,DS18B20*%
X134620000Y-73660000D03*
D22*
X134620000Y-71120000D03*
X134620000Y-68580000D03*
%TD*%
D11*
%TO.C,VCC1*%
X205740000Y-53340000D03*
%TD*%
D12*
%TO.C,DZ5*%
X115570000Y-68580000D03*
D13*
X128270000Y-68580000D03*
%TD*%
D10*
%TO.C,Follower1*%
X141610000Y-82550000D03*
%TD*%
%TO.C,SCL2*%
X172720000Y-81280000D03*
%TD*%
%TO.C,Follower2*%
X144150000Y-82550000D03*
%TD*%
%TO.C,VCCS1*%
X172720000Y-83820000D03*
%TD*%
D11*
%TO.C,3.3V1*%
X205740000Y-96520000D03*
%TD*%
%TO.C,GNDIN1*%
X205740000Y-86360000D03*
%TD*%
%TO.C,IN1*%
X205740000Y-91440000D03*
%TD*%
D23*
%TO.C,1K1*%
X180340000Y-63500000D03*
X177800000Y-63500000D03*
X175260000Y-63500000D03*
%TD*%
M02*
