%TF.GenerationSoftware,KiCad,Pcbnew,7.0.9*%
%TF.CreationDate,2023-12-21T11:10:09+01:00*%
%TF.ProjectId,OptiprodV2,4f707469-7072-46f6-9456-322e6b696361,rev?*%
%TF.SameCoordinates,Original*%
%TF.FileFunction,Copper,L2,Bot*%
%TF.FilePolarity,Positive*%
%FSLAX46Y46*%
G04 Gerber Fmt 4.6, Leading zero omitted, Abs format (unit mm)*
G04 Created by KiCad (PCBNEW 7.0.9) date 2023-12-21 11:10:09*
%MOMM*%
%LPD*%
G01*
G04 APERTURE LIST*
%TA.AperFunction,ComponentPad*%
%ADD10C,2.000000*%
%TD*%
%TA.AperFunction,ComponentPad*%
%ADD11C,2.600000*%
%TD*%
%TA.AperFunction,ComponentPad*%
%ADD12R,1.800000X1.800000*%
%TD*%
%TA.AperFunction,ComponentPad*%
%ADD13O,1.800000X1.800000*%
%TD*%
%TA.AperFunction,ComponentPad*%
%ADD14O,1.727200X1.727200*%
%TD*%
%TA.AperFunction,ComponentPad*%
%ADD15R,1.727200X1.727200*%
%TD*%
%TA.AperFunction,ComponentPad*%
%ADD16C,1.400000*%
%TD*%
%TA.AperFunction,ComponentPad*%
%ADD17O,1.400000X1.400000*%
%TD*%
%TA.AperFunction,ComponentPad*%
%ADD18R,1.600000X1.600000*%
%TD*%
%TA.AperFunction,ComponentPad*%
%ADD19O,1.600000X1.600000*%
%TD*%
%TA.AperFunction,ComponentPad*%
%ADD20R,1.500000X1.500000*%
%TD*%
%TA.AperFunction,ComponentPad*%
%ADD21C,1.500000*%
%TD*%
%TA.AperFunction,ComponentPad*%
%ADD22C,1.440000*%
%TD*%
%TA.AperFunction,Conductor*%
%ADD23C,0.250000*%
%TD*%
G04 APERTURE END LIST*
D10*
%TO.P,SDA2,1,1*%
%TO.N,Net-(A2-PadSDA)*%
X172720000Y-78740000D03*
%TD*%
D11*
%TO.P,SCL1,1,1*%
%TO.N,Net-(A2-D21{slash}SCL)*%
X205740000Y-63500000D03*
%TD*%
%TO.P,SDA1,1,1*%
%TO.N,Net-(A2-D20{slash}SDA)*%
X205740000Y-68580000D03*
%TD*%
%TO.P,SDO1,1,1*%
%TO.N,unconnected-(SDO1-Pad1)*%
X205740000Y-73660000D03*
%TD*%
D12*
%TO.P,DZ6,1,K*%
%TO.N,GND*%
X115570000Y-72830000D03*
D13*
%TO.P,DZ6,2,A*%
%TO.N,Net-(DZ5-A)*%
X128270000Y-72830000D03*
%TD*%
D14*
%TO.P,A2,*%
%TO.N,*%
X124460000Y-106680000D03*
%TO.P,A2,3V3,3.3V*%
%TO.N,VCC*%
X132080000Y-106680000D03*
%TO.P,A2,5V1,5V*%
%TO.N,VCCQ*%
X134620000Y-106680000D03*
%TO.P,A2,5V2,SPI_5V*%
%TO.N,unconnected-(A2-SPI_5V-Pad5V2)*%
X162687000Y-78740000D03*
%TO.P,A2,5V3,5V*%
%TO.N,VCCQ*%
X190500000Y-58420000D03*
%TO.P,A2,5V4,5V*%
X193040000Y-58420000D03*
%TO.P,A2,A0,A0*%
%TO.N,Net-(MCP602B--)*%
X147320000Y-106680000D03*
%TO.P,A2,A1,A1*%
%TO.N,Net-(DS18B20-DQ)*%
X149860000Y-106680000D03*
%TO.P,A2,A2,A2*%
%TO.N,unconnected-(A2-PadA2)*%
X152400000Y-106680000D03*
%TO.P,A2,A3,A3*%
%TO.N,unconnected-(A2-PadA3)*%
X154940000Y-106680000D03*
%TO.P,A2,A4,A4*%
%TO.N,unconnected-(A2-PadA4)*%
X157480000Y-106680000D03*
%TO.P,A2,A5,A5*%
%TO.N,unconnected-(A2-PadA5)*%
X160020000Y-106680000D03*
%TO.P,A2,A6,A6*%
%TO.N,unconnected-(A2-PadA6)*%
X162560000Y-106680000D03*
%TO.P,A2,A7,A7*%
%TO.N,unconnected-(A2-PadA7)*%
X165100000Y-106680000D03*
%TO.P,A2,A8,A8*%
%TO.N,unconnected-(A2-PadA8)*%
X170180000Y-106680000D03*
%TO.P,A2,A9,A9*%
%TO.N,unconnected-(A2-PadA9)*%
X172720000Y-106680000D03*
%TO.P,A2,A10,A10*%
%TO.N,unconnected-(A2-PadA10)*%
X175260000Y-106680000D03*
%TO.P,A2,A11,A11*%
%TO.N,unconnected-(A2-PadA11)*%
X177800000Y-106680000D03*
%TO.P,A2,A12,A12*%
%TO.N,unconnected-(A2-PadA12)*%
X180340000Y-106680000D03*
%TO.P,A2,A13,A13*%
%TO.N,unconnected-(A2-PadA13)*%
X182880000Y-106680000D03*
%TO.P,A2,A14,A14*%
%TO.N,unconnected-(A2-PadA14)*%
X185420000Y-106680000D03*
%TO.P,A2,A15,A15*%
%TO.N,unconnected-(A2-PadA15)*%
X187960000Y-106680000D03*
%TO.P,A2,AREF,AREF*%
%TO.N,unconnected-(A2-PadAREF)*%
X120396000Y-58420000D03*
%TO.P,A2,D0,D0/RX0*%
%TO.N,unconnected-(A2-D0{slash}RX0-PadD0)*%
X160020000Y-58420000D03*
%TO.P,A2,D1,D1/TX0*%
%TO.N,unconnected-(A2-D1{slash}TX0-PadD1)*%
X157480000Y-58420000D03*
%TO.P,A2,D2,D2_INT0*%
%TO.N,unconnected-(A2-D2_INT0-PadD2)*%
X154940000Y-58420000D03*
%TO.P,A2,D3,D3_INT1*%
%TO.N,unconnected-(A2-D3_INT1-PadD3)*%
X152400000Y-58420000D03*
%TO.P,A2,D4,D4*%
%TO.N,unconnected-(A2-PadD4)*%
X149860000Y-58420000D03*
%TO.P,A2,D5,D5*%
%TO.N,unconnected-(A2-PadD5)*%
X147320000Y-58420000D03*
%TO.P,A2,D6,D6*%
%TO.N,unconnected-(A2-PadD6)*%
X144780000Y-58420000D03*
%TO.P,A2,D7,D7*%
%TO.N,unconnected-(A2-PadD7)*%
X142240000Y-58420000D03*
%TO.P,A2,D8,D8*%
%TO.N,unconnected-(A2-PadD8)*%
X138176000Y-58420000D03*
%TO.P,A2,D9,D9*%
%TO.N,unconnected-(A2-PadD9)*%
X135636000Y-58420000D03*
%TO.P,A2,D10,D10*%
%TO.N,unconnected-(A2-PadD10)*%
X133096000Y-58420000D03*
%TO.P,A2,D11,D11*%
%TO.N,unconnected-(A2-PadD11)*%
X130556000Y-58420000D03*
%TO.P,A2,D12,D12*%
%TO.N,unconnected-(A2-PadD12)*%
X128016000Y-58420000D03*
%TO.P,A2,D13,D13*%
%TO.N,unconnected-(A2-PadD13)*%
X125476000Y-58420000D03*
%TO.P,A2,D14,D14/TX3*%
%TO.N,unconnected-(A2-D14{slash}TX3-PadD14)*%
X165100000Y-58420000D03*
%TO.P,A2,D15,D15/RX3*%
%TO.N,unconnected-(A2-D15{slash}RX3-PadD15)*%
X167640000Y-58420000D03*
%TO.P,A2,D16,D16/TX2*%
%TO.N,unconnected-(A2-D16{slash}TX2-PadD16)*%
X170180000Y-58420000D03*
%TO.P,A2,D17,D17/RX2*%
%TO.N,unconnected-(A2-D17{slash}RX2-PadD17)*%
X172720000Y-58420000D03*
%TO.P,A2,D18,D18/TX1*%
%TO.N,unconnected-(A2-D18{slash}TX1-PadD18)*%
X175260000Y-58420000D03*
%TO.P,A2,D19,D19/RX1*%
%TO.N,unconnected-(A2-D19{slash}RX1-PadD19)*%
X177800000Y-58420000D03*
%TO.P,A2,D20,D20/SDA*%
%TO.N,Net-(A2-D20{slash}SDA)*%
X180340000Y-58420000D03*
%TO.P,A2,D21,D21/SCL*%
%TO.N,Net-(A2-D21{slash}SCL)*%
X182880000Y-58420000D03*
%TO.P,A2,D22,D22*%
%TO.N,unconnected-(A2-PadD22)*%
X190500000Y-60960000D03*
%TO.P,A2,D23,D23*%
%TO.N,unconnected-(A2-PadD23)*%
X193040000Y-60960000D03*
%TO.P,A2,D24,D24*%
%TO.N,unconnected-(A2-PadD24)*%
X190500000Y-63500000D03*
%TO.P,A2,D25,D25*%
%TO.N,unconnected-(A2-PadD25)*%
X193040000Y-63500000D03*
%TO.P,A2,D26,D26*%
%TO.N,unconnected-(A2-PadD26)*%
X190500000Y-66040000D03*
%TO.P,A2,D27,D27*%
%TO.N,unconnected-(A2-PadD27)*%
X193040000Y-66040000D03*
%TO.P,A2,D28,D28*%
%TO.N,unconnected-(A2-PadD28)*%
X190500000Y-68580000D03*
%TO.P,A2,D29,D29*%
%TO.N,unconnected-(A2-PadD29)*%
X193040000Y-68580000D03*
%TO.P,A2,D30,D30*%
%TO.N,unconnected-(A2-PadD30)*%
X190500000Y-71120000D03*
%TO.P,A2,D31,D31*%
%TO.N,unconnected-(A2-PadD31)*%
X193040000Y-71120000D03*
%TO.P,A2,D32,D32*%
%TO.N,unconnected-(A2-PadD32)*%
X190500000Y-73660000D03*
%TO.P,A2,D33,D33*%
%TO.N,unconnected-(A2-PadD33)*%
X193040000Y-73660000D03*
%TO.P,A2,D34,D34*%
%TO.N,unconnected-(A2-PadD34)*%
X190500000Y-76200000D03*
%TO.P,A2,D35,D35*%
%TO.N,unconnected-(A2-PadD35)*%
X193040000Y-76200000D03*
%TO.P,A2,D36,D36*%
%TO.N,unconnected-(A2-PadD36)*%
X190500000Y-78740000D03*
%TO.P,A2,D37,D37*%
%TO.N,unconnected-(A2-PadD37)*%
X193040000Y-78740000D03*
%TO.P,A2,D38,D38*%
%TO.N,unconnected-(A2-PadD38)*%
X190500000Y-81280000D03*
%TO.P,A2,D39,D39*%
%TO.N,unconnected-(A2-PadD39)*%
X193040000Y-81280000D03*
%TO.P,A2,D40,D40*%
%TO.N,unconnected-(A2-PadD40)*%
X190500000Y-83820000D03*
%TO.P,A2,D41,D41*%
%TO.N,unconnected-(A2-PadD41)*%
X193040000Y-83820000D03*
%TO.P,A2,D42,D42*%
%TO.N,unconnected-(A2-PadD42)*%
X190500000Y-86360000D03*
%TO.P,A2,D43,D43*%
%TO.N,unconnected-(A2-PadD43)*%
X193040000Y-86360000D03*
%TO.P,A2,D44,D44*%
%TO.N,unconnected-(A2-PadD44)*%
X190500000Y-88900000D03*
%TO.P,A2,D45,D45*%
%TO.N,unconnected-(A2-PadD45)*%
X193040000Y-88900000D03*
%TO.P,A2,D46,D46*%
%TO.N,unconnected-(A2-PadD46)*%
X190500000Y-91440000D03*
%TO.P,A2,D47,D47*%
%TO.N,unconnected-(A2-PadD47)*%
X193040000Y-91440000D03*
%TO.P,A2,D48,D48*%
%TO.N,unconnected-(A2-PadD48)*%
X190500000Y-93980000D03*
%TO.P,A2,D49,D49*%
%TO.N,unconnected-(A2-PadD49)*%
X193040000Y-93980000D03*
%TO.P,A2,D50,D50_MISO*%
%TO.N,unconnected-(A2-D50_MISO-PadD50)*%
X190500000Y-96520000D03*
%TO.P,A2,D51,D51_MOSI*%
%TO.N,unconnected-(A2-D51_MOSI-PadD51)*%
X193040000Y-96520000D03*
%TO.P,A2,D52,D52_SCK*%
%TO.N,unconnected-(A2-D52_SCK-PadD52)*%
X190500000Y-99060000D03*
%TO.P,A2,D53,D53_CS*%
%TO.N,unconnected-(A2-D53_CS-PadD53)*%
X193040000Y-99060000D03*
D15*
%TO.P,A2,GND1,GND*%
%TO.N,GND*%
X122936000Y-58420000D03*
%TO.P,A2,GND2,GND*%
X137160000Y-106680000D03*
%TO.P,A2,GND3,GND*%
X139700000Y-106680000D03*
%TO.P,A2,GND4,SPI_GND*%
%TO.N,unconnected-(A2-SPI_GND-PadGND4)*%
X162687000Y-83820000D03*
%TO.P,A2,GND5,GND*%
%TO.N,GND*%
X190500000Y-101600000D03*
%TO.P,A2,GND6,GND*%
X193040000Y-101600000D03*
D14*
%TO.P,A2,IORF,IOREF*%
%TO.N,unconnected-(A2-IOREF-PadIORF)*%
X127000000Y-106680000D03*
%TO.P,A2,MISO,SPI_MISO*%
%TO.N,unconnected-(A2-SPI_MISO-PadMISO)*%
X160147000Y-78740000D03*
%TO.P,A2,MOSI,SPI_MOSI*%
%TO.N,unconnected-(A2-SPI_MOSI-PadMOSI)*%
X162687000Y-81280000D03*
%TO.P,A2,RST1,RESET*%
%TO.N,unconnected-(A2-RESET-PadRST1)*%
X129540000Y-106680000D03*
%TO.P,A2,RST2,SPI_RESET*%
%TO.N,unconnected-(A2-SPI_RESET-PadRST2)*%
X160147000Y-83820000D03*
%TO.P,A2,SCK,SPI_SCK*%
%TO.N,unconnected-(A2-SPI_SCK-PadSCK)*%
X160147000Y-81280000D03*
%TO.P,A2,SCL,SCL*%
%TO.N,Net-(A2-PadSCL)*%
X115316000Y-58420000D03*
%TO.P,A2,SDA,SDA*%
%TO.N,Net-(A2-PadSDA)*%
X117856000Y-58420000D03*
%TO.P,A2,VIN,VIN*%
%TO.N,unconnected-(A2-PadVIN)*%
X142240000Y-106680000D03*
%TD*%
D10*
%TO.P,GNDS1,1,1*%
%TO.N,GND*%
X172720000Y-86360000D03*
%TD*%
D11*
%TO.P,GNDIN2,1,1*%
%TO.N,GND*%
X205740000Y-58420000D03*
%TD*%
D16*
%TO.P,4.7K1,1*%
%TO.N,VCC*%
X127000000Y-88900000D03*
D17*
%TO.P,4.7K1,2*%
%TO.N,Net-(DS18B20-DQ)*%
X134620000Y-88900000D03*
%TD*%
D11*
%TO.P,A1,1,1*%
%TO.N,Net-(DS18B20-DQ)*%
X205740000Y-104140000D03*
%TD*%
D16*
%TO.P,1K2,1*%
%TO.N,GND*%
X127000000Y-83820000D03*
D17*
%TO.P,1K2,2*%
%TO.N,Net-(1K1-Right)*%
X134620000Y-83820000D03*
%TD*%
D16*
%TO.P,51K1,1*%
%TO.N,Net-(1K1-Center)*%
X127000000Y-93980000D03*
D17*
%TO.P,51K1,2*%
%TO.N,Net-(MCP602B-+)*%
X134620000Y-93980000D03*
%TD*%
D11*
%TO.P,GND1,1,1*%
%TO.N,GND*%
X205740000Y-109220000D03*
%TD*%
D18*
%TO.P,MCP602,1*%
%TO.N,Net-(MCP602B-+)*%
X114300000Y-81280000D03*
D19*
%TO.P,MCP602,2,-*%
%TO.N,Net-(1K1-Center)*%
X114300000Y-83820000D03*
%TO.P,MCP602,3,+*%
%TO.N,Net-(DZ5-K)*%
X114300000Y-86360000D03*
%TO.P,MCP602,4,V-*%
%TO.N,GND*%
X114300000Y-88900000D03*
%TO.P,MCP602,5,+*%
%TO.N,Net-(MCP602B-+)*%
X121920000Y-88900000D03*
%TO.P,MCP602,6,-*%
%TO.N,Net-(MCP602B--)*%
X121920000Y-86360000D03*
%TO.P,MCP602,7*%
X121920000Y-83820000D03*
%TO.P,MCP602,8,V+*%
%TO.N,VCCQ*%
X121920000Y-81280000D03*
%TD*%
D11*
%TO.P,CS1,1,1*%
%TO.N,unconnected-(CS1-Pad1)*%
X205740000Y-78740000D03*
%TD*%
D20*
%TO.P,DS18B20,1,GND*%
%TO.N,GND*%
X134620000Y-73660000D03*
D21*
%TO.P,DS18B20,2,DQ*%
%TO.N,Net-(DS18B20-DQ)*%
X134620000Y-71120000D03*
%TO.P,DS18B20,3,V_{DD}*%
%TO.N,VCC*%
X134620000Y-68580000D03*
%TD*%
D11*
%TO.P,VCC1,1,1*%
%TO.N,VCC*%
X205740000Y-53340000D03*
%TD*%
D12*
%TO.P,DZ5,1,K*%
%TO.N,Net-(DZ5-K)*%
X115570000Y-68580000D03*
D13*
%TO.P,DZ5,2,A*%
%TO.N,Net-(DZ5-A)*%
X128270000Y-68580000D03*
%TD*%
D10*
%TO.P,Follower1,1,1*%
%TO.N,Net-(MCP602B--)*%
X141610000Y-82550000D03*
%TD*%
%TO.P,SCL2,1,1*%
%TO.N,Net-(A2-PadSCL)*%
X172720000Y-81280000D03*
%TD*%
%TO.P,Follower2,1,1*%
%TO.N,Net-(MCP602B-+)*%
X144150000Y-82550000D03*
%TD*%
%TO.P,VCCS1,1,1*%
%TO.N,VCCQ*%
X172720000Y-83820000D03*
%TD*%
D11*
%TO.P,3.3V1,1,1*%
%TO.N,VCC*%
X205740000Y-96520000D03*
%TD*%
%TO.P,GNDIN1,1,1*%
%TO.N,GND*%
X205740000Y-86360000D03*
%TD*%
%TO.P,IN1,1,1*%
%TO.N,Net-(DZ5-K)*%
X205740000Y-91440000D03*
%TD*%
D22*
%TO.P,1K1,1,Left*%
%TO.N,unconnected-(1K1-Left-Pad1)*%
X180340000Y-63500000D03*
%TO.P,1K1,2,Center*%
%TO.N,Net-(1K1-Center)*%
X177800000Y-63500000D03*
%TO.P,1K1,3,Right*%
%TO.N,Net-(1K1-Right)*%
X175260000Y-63500000D03*
%TD*%
D23*
%TO.N,VCCQ*%
X189311400Y-67228600D02*
X172720000Y-83820000D01*
X190500000Y-58420000D02*
X189311400Y-59608600D01*
X189311400Y-59608600D02*
X189311400Y-67228600D01*
%TO.N,Net-(DZ5-K)*%
X119895000Y-91955000D02*
X114300000Y-86360000D01*
X119895000Y-95354065D02*
X119895000Y-91955000D01*
X130728600Y-106187665D02*
X119895000Y-95354065D01*
X130728600Y-107009535D02*
X130728600Y-106187665D01*
X132037665Y-108318600D02*
X130728600Y-107009535D01*
X149902335Y-108318600D02*
X132037665Y-108318600D01*
X151048600Y-107172335D02*
X149902335Y-108318600D01*
X151048600Y-106187665D02*
X151048600Y-107172335D01*
X167096265Y-90140000D02*
X151048600Y-106187665D01*
X204440000Y-90140000D02*
X167096265Y-90140000D01*
X205740000Y-91440000D02*
X204440000Y-90140000D01*
%TO.N,Net-(1K1-Center)*%
X176755000Y-64545000D02*
X177800000Y-63500000D01*
X156435000Y-64545000D02*
X176755000Y-64545000D01*
X132897521Y-88082479D02*
X156435000Y-64545000D01*
X148508600Y-106187665D02*
X132897521Y-90576586D01*
X148508600Y-107172335D02*
X148508600Y-106187665D01*
X147812335Y-107868600D02*
X148508600Y-107172335D01*
X146422636Y-107868600D02*
X147812335Y-107868600D01*
X132897521Y-90576586D02*
X132897521Y-88082479D01*
X132534036Y-93980000D02*
X146422636Y-107868600D01*
X127000000Y-93980000D02*
X132534036Y-93980000D01*
%TO.N,Net-(1K1-Right)*%
X154940000Y-63500000D02*
X175260000Y-63500000D01*
X134620000Y-83820000D02*
X154940000Y-63500000D01*
%TO.N,VCC*%
X123045000Y-84945000D02*
X127000000Y-88900000D01*
X122385991Y-80155000D02*
X123045000Y-80814009D01*
X123045000Y-80814009D02*
X123045000Y-84945000D01*
X120345000Y-81264009D02*
X121454009Y-80155000D01*
X121454009Y-80155000D02*
X122385991Y-80155000D01*
X120345000Y-94945000D02*
X120345000Y-81264009D01*
X132080000Y-106680000D02*
X120345000Y-94945000D01*
%TO.N,VCCQ*%
X120795000Y-92855000D02*
X134620000Y-106680000D01*
X120795000Y-82405000D02*
X120795000Y-92855000D01*
X121920000Y-81280000D02*
X120795000Y-82405000D01*
%TO.N,Net-(MCP602B--)*%
X129540000Y-90349569D02*
X125909569Y-90349569D01*
X145870431Y-106680000D02*
X129540000Y-90349569D01*
X125909569Y-90349569D02*
X121920000Y-86360000D01*
X147320000Y-106680000D02*
X145870431Y-106680000D01*
%TO.N,Net-(DS18B20-DQ)*%
X149860000Y-104140000D02*
X149860000Y-106680000D01*
X134620000Y-88900000D02*
X149860000Y-104140000D01*
%TD*%
%TA.AperFunction,Conductor*%
%TO.N,GND*%
G36*
X139233155Y-106466799D02*
G01*
X139192000Y-106606961D01*
X139192000Y-106753039D01*
X139233155Y-106893201D01*
X139256804Y-106930000D01*
X137603196Y-106930000D01*
X137626845Y-106893201D01*
X137668000Y-106753039D01*
X137668000Y-106606961D01*
X137626845Y-106466799D01*
X137603196Y-106430000D01*
X139256804Y-106430000D01*
X139233155Y-106466799D01*
G37*
%TD.AperFunction*%
%TA.AperFunction,Conductor*%
G36*
X123417862Y-88744655D02*
G01*
X123432818Y-88757408D01*
X125408763Y-90733353D01*
X125418588Y-90745617D01*
X125418809Y-90745435D01*
X125423779Y-90751442D01*
X125423782Y-90751445D01*
X125423783Y-90751446D01*
X125474220Y-90798810D01*
X125495099Y-90819689D01*
X125500573Y-90823935D01*
X125505011Y-90827725D01*
X125538987Y-90859631D01*
X125556542Y-90869282D01*
X125572800Y-90879961D01*
X125588633Y-90892243D01*
X125610584Y-90901741D01*
X125631406Y-90910752D01*
X125636650Y-90913321D01*
X125677477Y-90935766D01*
X125696881Y-90940748D01*
X125715279Y-90947047D01*
X125733674Y-90955007D01*
X125779698Y-90962295D01*
X125785401Y-90963476D01*
X125830550Y-90975069D01*
X125850585Y-90975069D01*
X125869982Y-90976595D01*
X125889765Y-90979729D01*
X125936153Y-90975344D01*
X125941991Y-90975069D01*
X129229548Y-90975069D01*
X129296587Y-90994754D01*
X129317229Y-91011388D01*
X131448660Y-93142819D01*
X131482145Y-93204142D01*
X131477161Y-93273834D01*
X131435289Y-93329767D01*
X131369825Y-93354184D01*
X131360979Y-93354500D01*
X128093742Y-93354500D01*
X128026703Y-93334815D01*
X127994788Y-93305227D01*
X127890979Y-93167761D01*
X127726562Y-93017876D01*
X127726560Y-93017874D01*
X127537404Y-92900754D01*
X127537398Y-92900752D01*
X127329940Y-92820382D01*
X127111243Y-92779500D01*
X126888757Y-92779500D01*
X126670060Y-92820382D01*
X126589387Y-92851635D01*
X126462601Y-92900752D01*
X126462595Y-92900754D01*
X126273439Y-93017874D01*
X126273437Y-93017876D01*
X126109020Y-93167761D01*
X125974943Y-93345308D01*
X125974938Y-93345316D01*
X125875775Y-93544461D01*
X125875769Y-93544476D01*
X125814885Y-93758462D01*
X125814884Y-93758464D01*
X125794357Y-93979999D01*
X125794357Y-93980000D01*
X125814884Y-94201535D01*
X125814885Y-94201537D01*
X125875769Y-94415523D01*
X125875775Y-94415538D01*
X125974938Y-94614683D01*
X125974943Y-94614691D01*
X126109020Y-94792238D01*
X126273437Y-94942123D01*
X126273439Y-94942125D01*
X126462595Y-95059245D01*
X126462596Y-95059245D01*
X126462599Y-95059247D01*
X126670060Y-95139618D01*
X126888757Y-95180500D01*
X126888759Y-95180500D01*
X127111241Y-95180500D01*
X127111243Y-95180500D01*
X127329940Y-95139618D01*
X127537401Y-95059247D01*
X127726562Y-94942124D01*
X127890981Y-94792236D01*
X127994788Y-94654772D01*
X128050897Y-94613137D01*
X128093742Y-94605500D01*
X132223584Y-94605500D01*
X132290623Y-94625185D01*
X132311265Y-94641819D01*
X142876995Y-105207550D01*
X142910480Y-105268873D01*
X142905496Y-105338565D01*
X142863624Y-105394498D01*
X142798160Y-105418915D01*
X142749051Y-105412512D01*
X142576017Y-105353109D01*
X142394388Y-105322801D01*
X142353033Y-105315900D01*
X142126967Y-105315900D01*
X142099197Y-105320534D01*
X141903982Y-105353109D01*
X141690172Y-105426510D01*
X141690167Y-105426512D01*
X141491352Y-105534106D01*
X141312955Y-105672958D01*
X141258186Y-105732453D01*
X141198298Y-105768443D01*
X141128460Y-105766342D01*
X141070845Y-105726817D01*
X141050775Y-105691802D01*
X141006954Y-105574313D01*
X141006950Y-105574306D01*
X140920790Y-105459212D01*
X140920787Y-105459209D01*
X140805693Y-105373049D01*
X140805686Y-105373045D01*
X140670979Y-105322803D01*
X140670972Y-105322801D01*
X140611444Y-105316400D01*
X139950000Y-105316400D01*
X139950000Y-106235702D01*
X139844592Y-106187565D01*
X139736334Y-106172000D01*
X139663666Y-106172000D01*
X139555408Y-106187565D01*
X139450000Y-106235702D01*
X139450000Y-105316400D01*
X138788555Y-105316400D01*
X138729027Y-105322801D01*
X138729020Y-105322803D01*
X138594313Y-105373045D01*
X138594311Y-105373047D01*
X138504311Y-105440421D01*
X138438847Y-105464838D01*
X138370574Y-105449987D01*
X138355689Y-105440421D01*
X138265688Y-105373047D01*
X138265686Y-105373045D01*
X138130979Y-105322803D01*
X138130972Y-105322801D01*
X138071444Y-105316400D01*
X137410000Y-105316400D01*
X137410000Y-106235702D01*
X137304592Y-106187565D01*
X137196334Y-106172000D01*
X137123666Y-106172000D01*
X137015408Y-106187565D01*
X136910000Y-106235702D01*
X136910000Y-105316400D01*
X136248555Y-105316400D01*
X136189027Y-105322801D01*
X136189020Y-105322803D01*
X136054313Y-105373045D01*
X136054306Y-105373049D01*
X135939212Y-105459209D01*
X135939209Y-105459212D01*
X135853049Y-105574306D01*
X135853046Y-105574312D01*
X135809224Y-105691803D01*
X135767352Y-105747736D01*
X135701887Y-105772153D01*
X135633615Y-105757301D01*
X135601813Y-105732452D01*
X135547049Y-105672963D01*
X135547048Y-105672962D01*
X135547046Y-105672960D01*
X135368649Y-105534107D01*
X135292910Y-105493119D01*
X135169832Y-105426512D01*
X135169827Y-105426510D01*
X134956017Y-105353109D01*
X134774388Y-105322801D01*
X134733033Y-105315900D01*
X134506967Y-105315900D01*
X134479197Y-105320534D01*
X134283982Y-105353109D01*
X134278067Y-105355140D01*
X134208268Y-105358286D01*
X134150129Y-105325538D01*
X121456819Y-92632228D01*
X121423334Y-92570905D01*
X121420500Y-92544547D01*
X121420500Y-90274136D01*
X121440185Y-90207097D01*
X121492989Y-90161342D01*
X121562147Y-90151398D01*
X121576582Y-90154358D01*
X121693308Y-90185635D01*
X121855230Y-90199801D01*
X121919998Y-90205468D01*
X121920000Y-90205468D01*
X121920002Y-90205468D01*
X121976673Y-90200509D01*
X122146692Y-90185635D01*
X122366496Y-90126739D01*
X122572734Y-90030568D01*
X122759139Y-89900047D01*
X122920047Y-89739139D01*
X123050568Y-89552734D01*
X123146739Y-89346496D01*
X123205635Y-89126692D01*
X123222634Y-88932384D01*
X123225468Y-88900001D01*
X123225468Y-88900000D01*
X123225467Y-88899993D01*
X123221609Y-88855896D01*
X123235375Y-88787398D01*
X123283990Y-88737214D01*
X123352018Y-88721280D01*
X123417862Y-88744655D01*
G37*
%TD.AperFunction*%
%TA.AperFunction,Conductor*%
G36*
X192573155Y-101386799D02*
G01*
X192532000Y-101526961D01*
X192532000Y-101673039D01*
X192573155Y-101813201D01*
X192596804Y-101850000D01*
X190943196Y-101850000D01*
X190966845Y-101813201D01*
X191008000Y-101673039D01*
X191008000Y-101526961D01*
X190966845Y-101386799D01*
X190943196Y-101350000D01*
X192596804Y-101350000D01*
X192573155Y-101386799D01*
G37*
%TD.AperFunction*%
%TA.AperFunction,Conductor*%
G36*
X210762539Y-43200185D02*
G01*
X210808294Y-43252989D01*
X210819500Y-43304500D01*
X210819500Y-119255500D01*
X210799815Y-119322539D01*
X210747011Y-119368294D01*
X210695500Y-119379500D01*
X111884500Y-119379500D01*
X111817461Y-119359815D01*
X111771706Y-119307011D01*
X111760500Y-119255500D01*
X111760500Y-109220004D01*
X203934953Y-109220004D01*
X203955113Y-109489026D01*
X203955113Y-109489028D01*
X204015142Y-109752033D01*
X204015148Y-109752052D01*
X204113709Y-110003181D01*
X204113708Y-110003181D01*
X204248602Y-110236822D01*
X204302294Y-110304151D01*
X204302295Y-110304151D01*
X205137452Y-109468993D01*
X205147188Y-109498956D01*
X205235186Y-109637619D01*
X205354903Y-109750040D01*
X205489510Y-109824041D01*
X204654848Y-110658702D01*
X204837483Y-110783220D01*
X204837485Y-110783221D01*
X205080539Y-110900269D01*
X205080537Y-110900269D01*
X205338337Y-110979790D01*
X205338343Y-110979792D01*
X205605101Y-111019999D01*
X205605110Y-111020000D01*
X205874890Y-111020000D01*
X205874898Y-111019999D01*
X206141656Y-110979792D01*
X206141662Y-110979790D01*
X206399461Y-110900269D01*
X206642521Y-110783218D01*
X206825150Y-110658702D01*
X205987534Y-109821086D01*
X206055629Y-109794126D01*
X206188492Y-109697595D01*
X206293175Y-109571055D01*
X206341631Y-109468079D01*
X207177703Y-110304151D01*
X207177704Y-110304150D01*
X207231393Y-110236828D01*
X207231400Y-110236817D01*
X207366290Y-110003181D01*
X207464851Y-109752052D01*
X207464857Y-109752033D01*
X207524886Y-109489028D01*
X207524886Y-109489026D01*
X207545047Y-109220004D01*
X207545047Y-109219995D01*
X207524886Y-108950973D01*
X207524886Y-108950971D01*
X207464857Y-108687966D01*
X207464851Y-108687947D01*
X207366290Y-108436818D01*
X207366291Y-108436818D01*
X207231397Y-108203177D01*
X207177704Y-108135847D01*
X206342546Y-108971004D01*
X206332812Y-108941044D01*
X206244814Y-108802381D01*
X206125097Y-108689960D01*
X205990489Y-108615958D01*
X206825150Y-107781296D01*
X206642517Y-107656779D01*
X206642516Y-107656778D01*
X206399460Y-107539730D01*
X206399462Y-107539730D01*
X206141662Y-107460209D01*
X206141656Y-107460207D01*
X205874898Y-107420000D01*
X205605101Y-107420000D01*
X205338343Y-107460207D01*
X205338337Y-107460209D01*
X205080538Y-107539730D01*
X204837485Y-107656778D01*
X204837476Y-107656783D01*
X204654848Y-107781296D01*
X205492465Y-108618913D01*
X205424371Y-108645874D01*
X205291508Y-108742405D01*
X205186825Y-108868945D01*
X205138368Y-108971921D01*
X204302295Y-108135848D01*
X204248600Y-108203180D01*
X204113709Y-108436818D01*
X204015148Y-108687947D01*
X204015142Y-108687966D01*
X203955113Y-108950971D01*
X203955113Y-108950973D01*
X203934953Y-109219995D01*
X203934953Y-109220004D01*
X111760500Y-109220004D01*
X111760500Y-108078401D01*
X111780185Y-108011362D01*
X111795232Y-107992336D01*
X111916186Y-107866881D01*
X112073799Y-107646579D01*
X112148503Y-107501278D01*
X112197649Y-107405690D01*
X112197651Y-107405684D01*
X112197656Y-107405675D01*
X112285118Y-107149305D01*
X112334319Y-106882933D01*
X112344212Y-106612235D01*
X112314586Y-106342982D01*
X112246072Y-106080912D01*
X112140130Y-105831610D01*
X111999018Y-105600390D01*
X111884951Y-105463324D01*
X111825749Y-105392184D01*
X111825747Y-105392183D01*
X111825745Y-105392180D01*
X111804394Y-105373049D01*
X111801750Y-105370680D01*
X111764958Y-105311282D01*
X111760500Y-105278330D01*
X111760500Y-86360001D01*
X112994532Y-86360001D01*
X113014364Y-86586686D01*
X113014366Y-86586697D01*
X113073258Y-86806488D01*
X113073261Y-86806497D01*
X113169431Y-87012732D01*
X113169432Y-87012734D01*
X113299954Y-87199141D01*
X113460858Y-87360045D01*
X113460861Y-87360047D01*
X113647266Y-87490568D01*
X113705865Y-87517893D01*
X113758305Y-87564065D01*
X113777457Y-87631258D01*
X113757242Y-87698139D01*
X113705867Y-87742657D01*
X113647515Y-87769867D01*
X113461179Y-87900342D01*
X113300342Y-88061179D01*
X113169865Y-88247517D01*
X113073734Y-88453673D01*
X113073730Y-88453682D01*
X113021127Y-88649999D01*
X113021128Y-88650000D01*
X113984314Y-88650000D01*
X113972359Y-88661955D01*
X113914835Y-88774852D01*
X113895014Y-88900000D01*
X113914835Y-89025148D01*
X113972359Y-89138045D01*
X113984314Y-89150000D01*
X113021128Y-89150000D01*
X113073730Y-89346317D01*
X113073734Y-89346326D01*
X113169865Y-89552482D01*
X113300342Y-89738820D01*
X113461179Y-89899657D01*
X113647517Y-90030134D01*
X113853673Y-90126265D01*
X113853682Y-90126269D01*
X114049999Y-90178872D01*
X114050000Y-90178871D01*
X114050000Y-89215686D01*
X114061955Y-89227641D01*
X114174852Y-89285165D01*
X114268519Y-89300000D01*
X114331481Y-89300000D01*
X114425148Y-89285165D01*
X114538045Y-89227641D01*
X114550000Y-89215686D01*
X114550000Y-90178872D01*
X114746317Y-90126269D01*
X114746326Y-90126265D01*
X114952482Y-90030134D01*
X115138820Y-89899657D01*
X115299657Y-89738820D01*
X115430134Y-89552482D01*
X115526265Y-89346326D01*
X115526269Y-89346317D01*
X115578872Y-89150000D01*
X114615686Y-89150000D01*
X114627641Y-89138045D01*
X114685165Y-89025148D01*
X114704986Y-88900000D01*
X114685165Y-88774852D01*
X114627641Y-88661955D01*
X114615686Y-88650000D01*
X115603304Y-88650000D01*
X115604158Y-88649376D01*
X115673904Y-88645219D01*
X115733792Y-88678383D01*
X119233181Y-92177771D01*
X119266666Y-92239094D01*
X119269500Y-92265452D01*
X119269500Y-95271320D01*
X119267775Y-95286937D01*
X119268061Y-95286964D01*
X119267326Y-95294730D01*
X119269500Y-95363879D01*
X119269500Y-95393408D01*
X119269501Y-95393425D01*
X119270368Y-95400296D01*
X119270826Y-95406115D01*
X119272290Y-95452689D01*
X119272291Y-95452692D01*
X119277880Y-95471932D01*
X119281824Y-95490976D01*
X119284336Y-95510857D01*
X119285169Y-95512960D01*
X119301490Y-95554184D01*
X119303382Y-95559712D01*
X119316381Y-95604453D01*
X119326580Y-95621699D01*
X119335138Y-95639168D01*
X119342514Y-95657797D01*
X119369898Y-95695488D01*
X119373106Y-95700372D01*
X119396827Y-95740481D01*
X119396833Y-95740489D01*
X119410990Y-95754645D01*
X119423628Y-95769441D01*
X119435405Y-95785651D01*
X119435406Y-95785652D01*
X119471309Y-95815353D01*
X119475620Y-95819275D01*
X126613540Y-102957196D01*
X128932721Y-105276377D01*
X128966206Y-105337700D01*
X128961222Y-105407392D01*
X128919350Y-105463325D01*
X128904058Y-105473113D01*
X128791352Y-105534106D01*
X128612955Y-105672959D01*
X128612950Y-105672963D01*
X128459850Y-105839272D01*
X128459842Y-105839283D01*
X128373808Y-105970968D01*
X128320662Y-106016325D01*
X128251430Y-106025748D01*
X128188095Y-105996246D01*
X128166192Y-105970968D01*
X128080157Y-105839283D01*
X128080149Y-105839272D01*
X127927049Y-105672963D01*
X127927048Y-105672962D01*
X127927046Y-105672960D01*
X127748649Y-105534107D01*
X127672910Y-105493119D01*
X127549832Y-105426512D01*
X127549827Y-105426510D01*
X127336017Y-105353109D01*
X127154388Y-105322801D01*
X127113033Y-105315900D01*
X126886967Y-105315900D01*
X126859197Y-105320534D01*
X126663982Y-105353109D01*
X126450172Y-105426510D01*
X126450167Y-105426512D01*
X126251352Y-105534106D01*
X126072955Y-105672959D01*
X126072950Y-105672963D01*
X125919850Y-105839272D01*
X125919842Y-105839283D01*
X125833808Y-105970968D01*
X125780662Y-106016325D01*
X125711430Y-106025748D01*
X125648095Y-105996246D01*
X125626192Y-105970968D01*
X125540157Y-105839283D01*
X125540149Y-105839272D01*
X125387049Y-105672963D01*
X125387048Y-105672962D01*
X125387046Y-105672960D01*
X125208649Y-105534107D01*
X125132910Y-105493119D01*
X125009832Y-105426512D01*
X125009827Y-105426510D01*
X124796017Y-105353109D01*
X124614388Y-105322801D01*
X124573033Y-105315900D01*
X124346967Y-105315900D01*
X124319197Y-105320534D01*
X124123982Y-105353109D01*
X123910172Y-105426510D01*
X123910167Y-105426512D01*
X123711352Y-105534106D01*
X123532955Y-105672959D01*
X123532950Y-105672963D01*
X123379850Y-105839272D01*
X123379842Y-105839283D01*
X123256198Y-106028533D01*
X123165388Y-106235560D01*
X123109892Y-106454710D01*
X123091225Y-106679993D01*
X123091225Y-106680006D01*
X123109892Y-106905289D01*
X123165388Y-107124439D01*
X123256198Y-107331466D01*
X123379842Y-107520716D01*
X123379850Y-107520727D01*
X123532950Y-107687036D01*
X123532954Y-107687040D01*
X123711351Y-107825893D01*
X123910169Y-107933488D01*
X123910172Y-107933489D01*
X124123982Y-108006890D01*
X124123984Y-108006890D01*
X124123986Y-108006891D01*
X124346967Y-108044100D01*
X124346968Y-108044100D01*
X124573032Y-108044100D01*
X124573033Y-108044100D01*
X124796014Y-108006891D01*
X125009831Y-107933488D01*
X125208649Y-107825893D01*
X125387046Y-107687040D01*
X125511863Y-107551453D01*
X125540149Y-107520727D01*
X125540149Y-107520726D01*
X125540156Y-107520719D01*
X125626193Y-107389028D01*
X125679338Y-107343675D01*
X125748569Y-107334251D01*
X125811905Y-107363753D01*
X125833804Y-107389025D01*
X125919844Y-107520719D01*
X125919849Y-107520724D01*
X125919850Y-107520727D01*
X126072950Y-107687036D01*
X126072954Y-107687040D01*
X126251351Y-107825893D01*
X126450169Y-107933488D01*
X126450172Y-107933489D01*
X126663982Y-108006890D01*
X126663984Y-108006890D01*
X126663986Y-108006891D01*
X126886967Y-108044100D01*
X126886968Y-108044100D01*
X127113032Y-108044100D01*
X127113033Y-108044100D01*
X127336014Y-108006891D01*
X127549831Y-107933488D01*
X127748649Y-107825893D01*
X127927046Y-107687040D01*
X128051863Y-107551453D01*
X128080149Y-107520727D01*
X128080149Y-107520726D01*
X128080156Y-107520719D01*
X128166193Y-107389028D01*
X128219338Y-107343675D01*
X128288569Y-107334251D01*
X128351905Y-107363753D01*
X128373804Y-107389025D01*
X128459844Y-107520719D01*
X128459849Y-107520724D01*
X128459850Y-107520727D01*
X128612950Y-107687036D01*
X128612954Y-107687040D01*
X128791351Y-107825893D01*
X128990169Y-107933488D01*
X128990172Y-107933489D01*
X129203982Y-108006890D01*
X129203984Y-108006890D01*
X129203986Y-108006891D01*
X129426967Y-108044100D01*
X129426968Y-108044100D01*
X129653032Y-108044100D01*
X129653033Y-108044100D01*
X129876014Y-108006891D01*
X130089831Y-107933488D01*
X130288649Y-107825893D01*
X130411264Y-107730456D01*
X130476255Y-107704815D01*
X130544795Y-107718381D01*
X130575104Y-107740629D01*
X131061915Y-108227441D01*
X131536862Y-108702388D01*
X131546687Y-108714651D01*
X131546908Y-108714469D01*
X131551879Y-108720478D01*
X131572708Y-108740037D01*
X131602300Y-108767826D01*
X131623194Y-108788720D01*
X131628676Y-108792973D01*
X131633108Y-108796757D01*
X131667083Y-108828662D01*
X131684641Y-108838314D01*
X131700900Y-108848995D01*
X131716729Y-108861273D01*
X131759503Y-108879782D01*
X131764721Y-108882338D01*
X131805573Y-108904797D01*
X131824981Y-108909780D01*
X131843382Y-108916080D01*
X131861769Y-108924037D01*
X131905153Y-108930908D01*
X131907784Y-108931325D01*
X131913504Y-108932509D01*
X131958646Y-108944100D01*
X131978681Y-108944100D01*
X131998079Y-108945626D01*
X132017859Y-108948759D01*
X132017860Y-108948760D01*
X132017860Y-108948759D01*
X132017861Y-108948760D01*
X132064249Y-108944375D01*
X132070087Y-108944100D01*
X149819592Y-108944100D01*
X149835212Y-108945824D01*
X149835239Y-108945539D01*
X149842995Y-108946271D01*
X149843002Y-108946273D01*
X149912149Y-108944100D01*
X149941685Y-108944100D01*
X149948563Y-108943230D01*
X149954376Y-108942772D01*
X150000962Y-108941309D01*
X150020204Y-108935717D01*
X150039247Y-108931774D01*
X150059127Y-108929264D01*
X150102457Y-108912107D01*
X150107981Y-108910217D01*
X150111731Y-108909127D01*
X150152725Y-108897218D01*
X150169964Y-108887022D01*
X150187438Y-108878462D01*
X150206062Y-108871088D01*
X150206062Y-108871087D01*
X150206067Y-108871086D01*
X150243784Y-108843682D01*
X150248640Y-108840492D01*
X150288755Y-108816770D01*
X150302924Y-108802599D01*
X150317714Y-108789968D01*
X150333922Y-108778194D01*
X150363634Y-108742276D01*
X150367547Y-108737976D01*
X151364895Y-107740628D01*
X151426216Y-107707145D01*
X151495908Y-107712129D01*
X151528736Y-107730458D01*
X151594053Y-107781296D01*
X151651351Y-107825893D01*
X151850169Y-107933488D01*
X151850172Y-107933489D01*
X152063982Y-108006890D01*
X152063984Y-108006890D01*
X152063986Y-108006891D01*
X152286967Y-108044100D01*
X152286968Y-108044100D01*
X152513032Y-108044100D01*
X152513033Y-108044100D01*
X152736014Y-108006891D01*
X152949831Y-107933488D01*
X153148649Y-107825893D01*
X153327046Y-107687040D01*
X153451863Y-107551453D01*
X153480149Y-107520727D01*
X153480149Y-107520726D01*
X153480156Y-107520719D01*
X153566193Y-107389028D01*
X153619338Y-107343675D01*
X153688569Y-107334251D01*
X153751905Y-107363753D01*
X153773804Y-107389025D01*
X153859844Y-107520719D01*
X153859849Y-107520724D01*
X153859850Y-107520727D01*
X154012950Y-107687036D01*
X154012954Y-107687040D01*
X154191351Y-107825893D01*
X154390169Y-107933488D01*
X154390172Y-107933489D01*
X154603982Y-108006890D01*
X154603984Y-108006890D01*
X154603986Y-108006891D01*
X154826967Y-108044100D01*
X154826968Y-108044100D01*
X155053032Y-108044100D01*
X155053033Y-108044100D01*
X155276014Y-108006891D01*
X155489831Y-107933488D01*
X155688649Y-107825893D01*
X155867046Y-107687040D01*
X155991863Y-107551453D01*
X156020149Y-107520727D01*
X156020149Y-107520726D01*
X156020156Y-107520719D01*
X156106193Y-107389028D01*
X156159338Y-107343675D01*
X156228569Y-107334251D01*
X156291905Y-107363753D01*
X156313804Y-107389025D01*
X156399844Y-107520719D01*
X156399849Y-107520724D01*
X156399850Y-107520727D01*
X156552950Y-107687036D01*
X156552954Y-107687040D01*
X156731351Y-107825893D01*
X156930169Y-107933488D01*
X156930172Y-107933489D01*
X157143982Y-108006890D01*
X157143984Y-108006890D01*
X157143986Y-108006891D01*
X157366967Y-108044100D01*
X157366968Y-108044100D01*
X157593032Y-108044100D01*
X157593033Y-108044100D01*
X157816014Y-108006891D01*
X158029831Y-107933488D01*
X158228649Y-107825893D01*
X158407046Y-107687040D01*
X158531863Y-107551453D01*
X158560149Y-107520727D01*
X158560149Y-107520726D01*
X158560156Y-107520719D01*
X158646193Y-107389028D01*
X158699338Y-107343675D01*
X158768569Y-107334251D01*
X158831905Y-107363753D01*
X158853804Y-107389025D01*
X158939844Y-107520719D01*
X158939849Y-107520724D01*
X158939850Y-107520727D01*
X159092950Y-107687036D01*
X159092954Y-107687040D01*
X159271351Y-107825893D01*
X159470169Y-107933488D01*
X159470172Y-107933489D01*
X159683982Y-108006890D01*
X159683984Y-108006890D01*
X159683986Y-108006891D01*
X159906967Y-108044100D01*
X159906968Y-108044100D01*
X160133032Y-108044100D01*
X160133033Y-108044100D01*
X160356014Y-108006891D01*
X160569831Y-107933488D01*
X160768649Y-107825893D01*
X160947046Y-107687040D01*
X161071863Y-107551453D01*
X161100149Y-107520727D01*
X161100149Y-107520726D01*
X161100156Y-107520719D01*
X161186193Y-107389028D01*
X161239338Y-107343675D01*
X161308569Y-107334251D01*
X161371905Y-107363753D01*
X161393804Y-107389025D01*
X161479844Y-107520719D01*
X161479849Y-107520724D01*
X161479850Y-107520727D01*
X161632950Y-107687036D01*
X161632954Y-107687040D01*
X161811351Y-107825893D01*
X162010169Y-107933488D01*
X162010172Y-107933489D01*
X162223982Y-108006890D01*
X162223984Y-108006890D01*
X162223986Y-108006891D01*
X162446967Y-108044100D01*
X162446968Y-108044100D01*
X162673032Y-108044100D01*
X162673033Y-108044100D01*
X162896014Y-108006891D01*
X163109831Y-107933488D01*
X163308649Y-107825893D01*
X163487046Y-107687040D01*
X163611863Y-107551453D01*
X163640149Y-107520727D01*
X163640149Y-107520726D01*
X163640156Y-107520719D01*
X163726193Y-107389028D01*
X163779338Y-107343675D01*
X163848569Y-107334251D01*
X163911905Y-107363753D01*
X163933804Y-107389025D01*
X164019844Y-107520719D01*
X164019849Y-107520724D01*
X164019850Y-107520727D01*
X164172950Y-107687036D01*
X164172954Y-107687040D01*
X164351351Y-107825893D01*
X164550169Y-107933488D01*
X164550172Y-107933489D01*
X164763982Y-108006890D01*
X164763984Y-108006890D01*
X164763986Y-108006891D01*
X164986967Y-108044100D01*
X164986968Y-108044100D01*
X165213032Y-108044100D01*
X165213033Y-108044100D01*
X165436014Y-108006891D01*
X165649831Y-107933488D01*
X165848649Y-107825893D01*
X166027046Y-107687040D01*
X166151863Y-107551453D01*
X166180149Y-107520727D01*
X166180151Y-107520724D01*
X166180156Y-107520719D01*
X166303802Y-107331465D01*
X166394611Y-107124441D01*
X166450107Y-106905293D01*
X166468775Y-106680006D01*
X168811225Y-106680006D01*
X168829892Y-106905289D01*
X168885388Y-107124439D01*
X168976198Y-107331466D01*
X169099842Y-107520716D01*
X169099850Y-107520727D01*
X169252950Y-107687036D01*
X169252954Y-107687040D01*
X169431351Y-107825893D01*
X169630169Y-107933488D01*
X169630172Y-107933489D01*
X169843982Y-108006890D01*
X169843984Y-108006890D01*
X169843986Y-108006891D01*
X170066967Y-108044100D01*
X170066968Y-108044100D01*
X170293032Y-108044100D01*
X170293033Y-108044100D01*
X170516014Y-108006891D01*
X170729831Y-107933488D01*
X170928649Y-107825893D01*
X171107046Y-107687040D01*
X171231863Y-107551453D01*
X171260149Y-107520727D01*
X171260149Y-107520726D01*
X171260156Y-107520719D01*
X171346193Y-107389028D01*
X171399338Y-107343675D01*
X171468569Y-107334251D01*
X171531905Y-107363753D01*
X171553804Y-107389025D01*
X171639844Y-107520719D01*
X171639849Y-107520724D01*
X171639850Y-107520727D01*
X171792950Y-107687036D01*
X171792954Y-107687040D01*
X171971351Y-107825893D01*
X172170169Y-107933488D01*
X172170172Y-107933489D01*
X172383982Y-108006890D01*
X172383984Y-108006890D01*
X172383986Y-108006891D01*
X172606967Y-108044100D01*
X172606968Y-108044100D01*
X172833032Y-108044100D01*
X172833033Y-108044100D01*
X173056014Y-108006891D01*
X173269831Y-107933488D01*
X173468649Y-107825893D01*
X173647046Y-107687040D01*
X173771863Y-107551453D01*
X173800149Y-107520727D01*
X173800149Y-107520726D01*
X173800156Y-107520719D01*
X173886193Y-107389028D01*
X173939338Y-107343675D01*
X174008569Y-107334251D01*
X174071905Y-107363753D01*
X174093804Y-107389025D01*
X174179844Y-107520719D01*
X174179849Y-107520724D01*
X174179850Y-107520727D01*
X174332950Y-107687036D01*
X174332954Y-107687040D01*
X174511351Y-107825893D01*
X174710169Y-107933488D01*
X174710172Y-107933489D01*
X174923982Y-108006890D01*
X174923984Y-108006890D01*
X174923986Y-108006891D01*
X175146967Y-108044100D01*
X175146968Y-108044100D01*
X175373032Y-108044100D01*
X175373033Y-108044100D01*
X175596014Y-108006891D01*
X175809831Y-107933488D01*
X176008649Y-107825893D01*
X176187046Y-107687040D01*
X176311863Y-107551453D01*
X176340149Y-107520727D01*
X176340149Y-107520726D01*
X176340156Y-107520719D01*
X176426193Y-107389028D01*
X176479338Y-107343675D01*
X176548569Y-107334251D01*
X176611905Y-107363753D01*
X176633804Y-107389025D01*
X176719844Y-107520719D01*
X176719849Y-107520724D01*
X176719850Y-107520727D01*
X176872950Y-107687036D01*
X176872954Y-107687040D01*
X177051351Y-107825893D01*
X177250169Y-107933488D01*
X177250172Y-107933489D01*
X177463982Y-108006890D01*
X177463984Y-108006890D01*
X177463986Y-108006891D01*
X177686967Y-108044100D01*
X177686968Y-108044100D01*
X177913032Y-108044100D01*
X177913033Y-108044100D01*
X178136014Y-108006891D01*
X178349831Y-107933488D01*
X178548649Y-107825893D01*
X178727046Y-107687040D01*
X178851863Y-107551453D01*
X178880149Y-107520727D01*
X178880149Y-107520726D01*
X178880156Y-107520719D01*
X178966193Y-107389028D01*
X179019338Y-107343675D01*
X179088569Y-107334251D01*
X179151905Y-107363753D01*
X179173804Y-107389025D01*
X179259844Y-107520719D01*
X179259849Y-107520724D01*
X179259850Y-107520727D01*
X179412950Y-107687036D01*
X179412954Y-107687040D01*
X179591351Y-107825893D01*
X179790169Y-107933488D01*
X179790172Y-107933489D01*
X180003982Y-108006890D01*
X180003984Y-108006890D01*
X180003986Y-108006891D01*
X180226967Y-108044100D01*
X180226968Y-108044100D01*
X180453032Y-108044100D01*
X180453033Y-108044100D01*
X180676014Y-108006891D01*
X180889831Y-107933488D01*
X181088649Y-107825893D01*
X181267046Y-107687040D01*
X181391863Y-107551453D01*
X181420149Y-107520727D01*
X181420149Y-107520726D01*
X181420156Y-107520719D01*
X181506193Y-107389028D01*
X181559338Y-107343675D01*
X181628569Y-107334251D01*
X181691905Y-107363753D01*
X181713804Y-107389025D01*
X181799844Y-107520719D01*
X181799849Y-107520724D01*
X181799850Y-107520727D01*
X181952950Y-107687036D01*
X181952954Y-107687040D01*
X182131351Y-107825893D01*
X182330169Y-107933488D01*
X182330172Y-107933489D01*
X182543982Y-108006890D01*
X182543984Y-108006890D01*
X182543986Y-108006891D01*
X182766967Y-108044100D01*
X182766968Y-108044100D01*
X182993032Y-108044100D01*
X182993033Y-108044100D01*
X183216014Y-108006891D01*
X183429831Y-107933488D01*
X183628649Y-107825893D01*
X183807046Y-107687040D01*
X183931863Y-107551453D01*
X183960149Y-107520727D01*
X183960149Y-107520726D01*
X183960156Y-107520719D01*
X184046193Y-107389028D01*
X184099338Y-107343675D01*
X184168569Y-107334251D01*
X184231905Y-107363753D01*
X184253804Y-107389025D01*
X184339844Y-107520719D01*
X184339849Y-107520724D01*
X184339850Y-107520727D01*
X184492950Y-107687036D01*
X184492954Y-107687040D01*
X184671351Y-107825893D01*
X184870169Y-107933488D01*
X184870172Y-107933489D01*
X185083982Y-108006890D01*
X185083984Y-108006890D01*
X185083986Y-108006891D01*
X185306967Y-108044100D01*
X185306968Y-108044100D01*
X185533032Y-108044100D01*
X185533033Y-108044100D01*
X185756014Y-108006891D01*
X185969831Y-107933488D01*
X186168649Y-107825893D01*
X186347046Y-107687040D01*
X186471863Y-107551453D01*
X186500149Y-107520727D01*
X186500149Y-107520726D01*
X186500156Y-107520719D01*
X186586193Y-107389028D01*
X186639338Y-107343675D01*
X186708569Y-107334251D01*
X186771905Y-107363753D01*
X186793804Y-107389025D01*
X186879844Y-107520719D01*
X186879849Y-107520724D01*
X186879850Y-107520727D01*
X187032950Y-107687036D01*
X187032954Y-107687040D01*
X187211351Y-107825893D01*
X187410169Y-107933488D01*
X187410172Y-107933489D01*
X187623982Y-108006890D01*
X187623984Y-108006890D01*
X187623986Y-108006891D01*
X187846967Y-108044100D01*
X187846968Y-108044100D01*
X188073032Y-108044100D01*
X188073033Y-108044100D01*
X188296014Y-108006891D01*
X188509831Y-107933488D01*
X188708649Y-107825893D01*
X188887046Y-107687040D01*
X189011863Y-107551453D01*
X189040149Y-107520727D01*
X189040151Y-107520724D01*
X189040156Y-107520719D01*
X189163802Y-107331465D01*
X189254611Y-107124441D01*
X189310107Y-106905293D01*
X189323160Y-106747763D01*
X191185787Y-106747763D01*
X191215413Y-107017013D01*
X191215415Y-107017024D01*
X191283926Y-107279082D01*
X191283928Y-107279088D01*
X191389870Y-107528390D01*
X191497541Y-107704815D01*
X191530979Y-107759605D01*
X191530986Y-107759615D01*
X191704253Y-107967819D01*
X191704259Y-107967824D01*
X191747860Y-108006890D01*
X191905998Y-108148582D01*
X192131910Y-108298044D01*
X192377176Y-108413020D01*
X192377183Y-108413022D01*
X192377185Y-108413023D01*
X192636557Y-108491057D01*
X192636564Y-108491058D01*
X192636569Y-108491060D01*
X192904561Y-108530500D01*
X192904566Y-108530500D01*
X193107636Y-108530500D01*
X193159133Y-108526730D01*
X193310156Y-108515677D01*
X193422758Y-108490593D01*
X193574546Y-108456782D01*
X193574548Y-108456781D01*
X193574553Y-108456780D01*
X193827558Y-108360014D01*
X194063777Y-108227441D01*
X194278177Y-108061888D01*
X194466186Y-107866881D01*
X194623799Y-107646579D01*
X194698503Y-107501278D01*
X194747649Y-107405690D01*
X194747651Y-107405684D01*
X194747656Y-107405675D01*
X194835118Y-107149305D01*
X194884319Y-106882933D01*
X194894212Y-106612235D01*
X194864586Y-106342982D01*
X194796072Y-106080912D01*
X194690130Y-105831610D01*
X194549018Y-105600390D01*
X194493857Y-105534107D01*
X194375746Y-105392180D01*
X194375740Y-105392175D01*
X194174002Y-105211418D01*
X193948092Y-105061957D01*
X193948090Y-105061956D01*
X193702824Y-104946980D01*
X193702819Y-104946978D01*
X193702814Y-104946976D01*
X193443442Y-104868942D01*
X193443428Y-104868939D01*
X193327791Y-104851921D01*
X193175439Y-104829500D01*
X192972369Y-104829500D01*
X192972364Y-104829500D01*
X192769844Y-104844323D01*
X192769831Y-104844325D01*
X192505453Y-104903217D01*
X192505446Y-104903220D01*
X192252439Y-104999987D01*
X192016226Y-105132557D01*
X191801822Y-105298112D01*
X191613822Y-105493109D01*
X191613816Y-105493116D01*
X191456202Y-105713419D01*
X191456199Y-105713424D01*
X191332350Y-105954309D01*
X191332343Y-105954327D01*
X191244884Y-106210685D01*
X191244881Y-106210699D01*
X191195681Y-106477068D01*
X191195680Y-106477075D01*
X191185787Y-106747763D01*
X189323160Y-106747763D01*
X189328775Y-106680000D01*
X189328775Y-106679993D01*
X189310107Y-106454710D01*
X189310107Y-106454707D01*
X189254611Y-106235559D01*
X189163802Y-106028535D01*
X189121069Y-105963128D01*
X189040157Y-105839283D01*
X189040149Y-105839272D01*
X188887049Y-105672963D01*
X188887048Y-105672962D01*
X188887046Y-105672960D01*
X188708649Y-105534107D01*
X188632910Y-105493119D01*
X188509832Y-105426512D01*
X188509827Y-105426510D01*
X188296017Y-105353109D01*
X188114388Y-105322801D01*
X188073033Y-105315900D01*
X187846967Y-105315900D01*
X187819197Y-105320534D01*
X187623982Y-105353109D01*
X187410172Y-105426510D01*
X187410167Y-105426512D01*
X187211352Y-105534106D01*
X187032955Y-105672959D01*
X187032950Y-105672963D01*
X186879850Y-105839272D01*
X186879842Y-105839283D01*
X186793808Y-105970968D01*
X186740662Y-106016325D01*
X186671430Y-106025748D01*
X186608095Y-105996246D01*
X186586192Y-105970968D01*
X186500157Y-105839283D01*
X186500149Y-105839272D01*
X186347049Y-105672963D01*
X186347048Y-105672962D01*
X186347046Y-105672960D01*
X186168649Y-105534107D01*
X186092910Y-105493119D01*
X185969832Y-105426512D01*
X185969827Y-105426510D01*
X185756017Y-105353109D01*
X185574388Y-105322801D01*
X185533033Y-105315900D01*
X185306967Y-105315900D01*
X185279197Y-105320534D01*
X185083982Y-105353109D01*
X184870172Y-105426510D01*
X184870167Y-105426512D01*
X184671352Y-105534106D01*
X184492955Y-105672959D01*
X184492950Y-105672963D01*
X184339850Y-105839272D01*
X184339842Y-105839283D01*
X184253808Y-105970968D01*
X184200662Y-106016325D01*
X184131430Y-106025748D01*
X184068095Y-105996246D01*
X184046192Y-105970968D01*
X183960157Y-105839283D01*
X183960149Y-105839272D01*
X183807049Y-105672963D01*
X183807048Y-105672962D01*
X183807046Y-105672960D01*
X183628649Y-105534107D01*
X183552910Y-105493119D01*
X183429832Y-105426512D01*
X183429827Y-105426510D01*
X183216017Y-105353109D01*
X183034388Y-105322801D01*
X182993033Y-105315900D01*
X182766967Y-105315900D01*
X182739197Y-105320534D01*
X182543982Y-105353109D01*
X182330172Y-105426510D01*
X182330167Y-105426512D01*
X182131352Y-105534106D01*
X181952955Y-105672959D01*
X181952950Y-105672963D01*
X181799850Y-105839272D01*
X181799842Y-105839283D01*
X181713808Y-105970968D01*
X181660662Y-106016325D01*
X181591430Y-106025748D01*
X181528095Y-105996246D01*
X181506192Y-105970968D01*
X181420157Y-105839283D01*
X181420149Y-105839272D01*
X181267049Y-105672963D01*
X181267048Y-105672962D01*
X181267046Y-105672960D01*
X181088649Y-105534107D01*
X181012910Y-105493119D01*
X180889832Y-105426512D01*
X180889827Y-105426510D01*
X180676017Y-105353109D01*
X180494388Y-105322801D01*
X180453033Y-105315900D01*
X180226967Y-105315900D01*
X180199197Y-105320534D01*
X180003982Y-105353109D01*
X179790172Y-105426510D01*
X179790167Y-105426512D01*
X179591352Y-105534106D01*
X179412955Y-105672959D01*
X179412950Y-105672963D01*
X179259850Y-105839272D01*
X179259842Y-105839283D01*
X179173808Y-105970968D01*
X179120662Y-106016325D01*
X179051430Y-106025748D01*
X178988095Y-105996246D01*
X178966192Y-105970968D01*
X178880157Y-105839283D01*
X178880149Y-105839272D01*
X178727049Y-105672963D01*
X178727048Y-105672962D01*
X178727046Y-105672960D01*
X178548649Y-105534107D01*
X178472910Y-105493119D01*
X178349832Y-105426512D01*
X178349827Y-105426510D01*
X178136017Y-105353109D01*
X177954388Y-105322801D01*
X177913033Y-105315900D01*
X177686967Y-105315900D01*
X177659197Y-105320534D01*
X177463982Y-105353109D01*
X177250172Y-105426510D01*
X177250167Y-105426512D01*
X177051352Y-105534106D01*
X176872955Y-105672959D01*
X176872950Y-105672963D01*
X176719850Y-105839272D01*
X176719842Y-105839283D01*
X176633808Y-105970968D01*
X176580662Y-106016325D01*
X176511430Y-106025748D01*
X176448095Y-105996246D01*
X176426192Y-105970968D01*
X176340157Y-105839283D01*
X176340149Y-105839272D01*
X176187049Y-105672963D01*
X176187048Y-105672962D01*
X176187046Y-105672960D01*
X176008649Y-105534107D01*
X175932910Y-105493119D01*
X175809832Y-105426512D01*
X175809827Y-105426510D01*
X175596017Y-105353109D01*
X175414388Y-105322801D01*
X175373033Y-105315900D01*
X175146967Y-105315900D01*
X175119197Y-105320534D01*
X174923982Y-105353109D01*
X174710172Y-105426510D01*
X174710167Y-105426512D01*
X174511352Y-105534106D01*
X174332955Y-105672959D01*
X174332950Y-105672963D01*
X174179850Y-105839272D01*
X174179842Y-105839283D01*
X174093808Y-105970968D01*
X174040662Y-106016325D01*
X173971430Y-106025748D01*
X173908095Y-105996246D01*
X173886192Y-105970968D01*
X173800157Y-105839283D01*
X173800149Y-105839272D01*
X173647049Y-105672963D01*
X173647048Y-105672962D01*
X173647046Y-105672960D01*
X173468649Y-105534107D01*
X173392910Y-105493119D01*
X173269832Y-105426512D01*
X173269827Y-105426510D01*
X173056017Y-105353109D01*
X172874388Y-105322801D01*
X172833033Y-105315900D01*
X172606967Y-105315900D01*
X172579197Y-105320534D01*
X172383982Y-105353109D01*
X172170172Y-105426510D01*
X172170167Y-105426512D01*
X171971352Y-105534106D01*
X171792955Y-105672959D01*
X171792950Y-105672963D01*
X171639850Y-105839272D01*
X171639842Y-105839283D01*
X171553808Y-105970968D01*
X171500662Y-106016325D01*
X171431430Y-106025748D01*
X171368095Y-105996246D01*
X171346192Y-105970968D01*
X171260157Y-105839283D01*
X171260149Y-105839272D01*
X171107049Y-105672963D01*
X171107048Y-105672962D01*
X171107046Y-105672960D01*
X170928649Y-105534107D01*
X170852910Y-105493119D01*
X170729832Y-105426512D01*
X170729827Y-105426510D01*
X170516017Y-105353109D01*
X170334388Y-105322801D01*
X170293033Y-105315900D01*
X170066967Y-105315900D01*
X170039197Y-105320534D01*
X169843982Y-105353109D01*
X169630172Y-105426510D01*
X169630167Y-105426512D01*
X169431352Y-105534106D01*
X169252955Y-105672959D01*
X169252950Y-105672963D01*
X169099850Y-105839272D01*
X169099842Y-105839283D01*
X168976198Y-106028533D01*
X168885388Y-106235560D01*
X168829892Y-106454710D01*
X168811225Y-106679993D01*
X168811225Y-106680006D01*
X166468775Y-106680006D01*
X166468775Y-106680000D01*
X166468775Y-106679993D01*
X166450107Y-106454710D01*
X166450107Y-106454707D01*
X166394611Y-106235559D01*
X166303802Y-106028535D01*
X166261069Y-105963128D01*
X166180157Y-105839283D01*
X166180149Y-105839272D01*
X166027049Y-105672963D01*
X166027048Y-105672962D01*
X166027046Y-105672960D01*
X165848649Y-105534107D01*
X165772910Y-105493119D01*
X165649832Y-105426512D01*
X165649827Y-105426510D01*
X165436017Y-105353109D01*
X165254388Y-105322801D01*
X165213033Y-105315900D01*
X164986967Y-105315900D01*
X164959197Y-105320534D01*
X164763982Y-105353109D01*
X164550172Y-105426510D01*
X164550167Y-105426512D01*
X164351352Y-105534106D01*
X164172955Y-105672959D01*
X164172950Y-105672963D01*
X164019850Y-105839272D01*
X164019842Y-105839283D01*
X163933808Y-105970968D01*
X163880662Y-106016325D01*
X163811430Y-106025748D01*
X163748095Y-105996246D01*
X163726192Y-105970968D01*
X163640157Y-105839283D01*
X163640149Y-105839272D01*
X163487049Y-105672963D01*
X163487048Y-105672962D01*
X163487046Y-105672960D01*
X163308649Y-105534107D01*
X163232910Y-105493119D01*
X163109832Y-105426512D01*
X163109827Y-105426510D01*
X162896017Y-105353109D01*
X162714388Y-105322801D01*
X162673033Y-105315900D01*
X162446967Y-105315900D01*
X162419197Y-105320534D01*
X162223982Y-105353109D01*
X162010172Y-105426510D01*
X162010167Y-105426512D01*
X161811352Y-105534106D01*
X161632955Y-105672959D01*
X161632950Y-105672963D01*
X161479850Y-105839272D01*
X161479842Y-105839283D01*
X161393808Y-105970968D01*
X161340662Y-106016325D01*
X161271430Y-106025748D01*
X161208095Y-105996246D01*
X161186192Y-105970968D01*
X161100157Y-105839283D01*
X161100149Y-105839272D01*
X160947049Y-105672963D01*
X160947048Y-105672962D01*
X160947046Y-105672960D01*
X160768649Y-105534107D01*
X160692910Y-105493119D01*
X160569832Y-105426512D01*
X160569827Y-105426510D01*
X160356017Y-105353109D01*
X160174388Y-105322801D01*
X160133033Y-105315900D01*
X159906967Y-105315900D01*
X159879197Y-105320534D01*
X159683982Y-105353109D01*
X159470172Y-105426510D01*
X159470167Y-105426512D01*
X159271352Y-105534106D01*
X159092955Y-105672959D01*
X159092950Y-105672963D01*
X158939850Y-105839272D01*
X158939842Y-105839283D01*
X158853808Y-105970968D01*
X158800662Y-106016325D01*
X158731430Y-106025748D01*
X158668095Y-105996246D01*
X158646192Y-105970968D01*
X158560157Y-105839283D01*
X158560149Y-105839272D01*
X158407049Y-105672963D01*
X158407048Y-105672962D01*
X158407046Y-105672960D01*
X158228649Y-105534107D01*
X158152910Y-105493119D01*
X158029832Y-105426512D01*
X158029827Y-105426510D01*
X157816017Y-105353109D01*
X157634388Y-105322801D01*
X157593033Y-105315900D01*
X157366967Y-105315900D01*
X157339197Y-105320534D01*
X157143982Y-105353109D01*
X156930172Y-105426510D01*
X156930167Y-105426512D01*
X156731352Y-105534106D01*
X156552955Y-105672959D01*
X156552950Y-105672963D01*
X156399850Y-105839272D01*
X156399842Y-105839283D01*
X156313808Y-105970968D01*
X156260662Y-106016325D01*
X156191430Y-106025748D01*
X156128095Y-105996246D01*
X156106192Y-105970968D01*
X156020157Y-105839283D01*
X156020149Y-105839272D01*
X155867049Y-105672963D01*
X155867048Y-105672962D01*
X155867046Y-105672960D01*
X155688649Y-105534107D01*
X155612910Y-105493119D01*
X155489832Y-105426512D01*
X155489827Y-105426510D01*
X155276017Y-105353109D01*
X155094388Y-105322801D01*
X155053033Y-105315900D01*
X154826967Y-105315900D01*
X154799197Y-105320534D01*
X154603982Y-105353109D01*
X154390172Y-105426510D01*
X154390167Y-105426512D01*
X154191352Y-105534106D01*
X154012955Y-105672959D01*
X154012950Y-105672963D01*
X153859850Y-105839272D01*
X153859842Y-105839283D01*
X153773808Y-105970968D01*
X153720662Y-106016325D01*
X153651430Y-106025748D01*
X153588095Y-105996246D01*
X153566192Y-105970968D01*
X153480157Y-105839283D01*
X153480149Y-105839272D01*
X153327049Y-105672963D01*
X153327048Y-105672962D01*
X153327046Y-105672960D01*
X153148649Y-105534107D01*
X153072910Y-105493119D01*
X152949832Y-105426512D01*
X152949827Y-105426510D01*
X152947518Y-105425718D01*
X152946701Y-105425139D01*
X152945136Y-105424453D01*
X152945277Y-105424130D01*
X152890502Y-105385333D01*
X152864371Y-105320534D01*
X152877421Y-105251893D01*
X152900095Y-105220758D01*
X153980849Y-104140004D01*
X203934451Y-104140004D01*
X203954616Y-104409101D01*
X204014664Y-104672188D01*
X204014666Y-104672195D01*
X204105337Y-104903220D01*
X204113257Y-104923398D01*
X204248185Y-105157102D01*
X204355099Y-105291167D01*
X204416442Y-105368089D01*
X204561441Y-105502627D01*
X204614259Y-105551635D01*
X204837226Y-105703651D01*
X205080359Y-105820738D01*
X205338228Y-105900280D01*
X205338229Y-105900280D01*
X205338232Y-105900281D01*
X205605063Y-105940499D01*
X205605068Y-105940499D01*
X205605071Y-105940500D01*
X205605072Y-105940500D01*
X205874928Y-105940500D01*
X205874929Y-105940500D01*
X205874936Y-105940499D01*
X206141767Y-105900281D01*
X206141768Y-105900280D01*
X206141772Y-105900280D01*
X206399641Y-105820738D01*
X206622481Y-105713424D01*
X206642767Y-105703655D01*
X206642767Y-105703654D01*
X206642775Y-105703651D01*
X206865741Y-105551635D01*
X207035095Y-105394498D01*
X207063557Y-105368089D01*
X207063557Y-105368087D01*
X207063561Y-105368085D01*
X207231815Y-105157102D01*
X207366743Y-104923398D01*
X207465334Y-104672195D01*
X207525383Y-104409103D01*
X207532105Y-104319402D01*
X207545549Y-104140004D01*
X207545549Y-104139995D01*
X207525383Y-103870898D01*
X207521730Y-103854894D01*
X207465334Y-103607805D01*
X207366743Y-103356602D01*
X207231815Y-103122898D01*
X207063561Y-102911915D01*
X207063560Y-102911914D01*
X207063557Y-102911910D01*
X206865741Y-102728365D01*
X206794238Y-102679615D01*
X206642775Y-102576349D01*
X206642769Y-102576346D01*
X206642768Y-102576345D01*
X206642767Y-102576344D01*
X206399643Y-102459263D01*
X206399645Y-102459263D01*
X206141773Y-102379720D01*
X206141767Y-102379718D01*
X205874936Y-102339500D01*
X205874929Y-102339500D01*
X205605071Y-102339500D01*
X205605063Y-102339500D01*
X205338232Y-102379718D01*
X205338226Y-102379720D01*
X205080358Y-102459262D01*
X204837230Y-102576346D01*
X204614258Y-102728365D01*
X204416442Y-102911910D01*
X204248185Y-103122898D01*
X204113258Y-103356599D01*
X204113256Y-103356603D01*
X204014666Y-103607804D01*
X204014664Y-103607811D01*
X203954616Y-103870898D01*
X203934451Y-104139995D01*
X203934451Y-104140004D01*
X153980849Y-104140004D01*
X156453091Y-101667763D01*
X160705787Y-101667763D01*
X160735413Y-101937013D01*
X160735415Y-101937024D01*
X160803926Y-102199082D01*
X160803928Y-102199088D01*
X160909870Y-102448390D01*
X160987960Y-102576345D01*
X161050979Y-102679605D01*
X161050986Y-102679615D01*
X161224253Y-102887819D01*
X161224259Y-102887824D01*
X161308831Y-102963600D01*
X161425998Y-103068582D01*
X161651910Y-103218044D01*
X161897176Y-103333020D01*
X161897183Y-103333022D01*
X161897185Y-103333023D01*
X162156557Y-103411057D01*
X162156564Y-103411058D01*
X162156569Y-103411060D01*
X162424561Y-103450500D01*
X162424566Y-103450500D01*
X162627636Y-103450500D01*
X162679133Y-103446730D01*
X162830156Y-103435677D01*
X162942758Y-103410593D01*
X163094546Y-103376782D01*
X163094548Y-103376781D01*
X163094553Y-103376780D01*
X163347558Y-103280014D01*
X163583777Y-103147441D01*
X163798177Y-102981888D01*
X163986186Y-102786881D01*
X164143799Y-102566579D01*
X164239871Y-102379718D01*
X164267649Y-102325690D01*
X164267651Y-102325684D01*
X164267656Y-102325675D01*
X164355118Y-102069305D01*
X164404319Y-101802933D01*
X164414212Y-101532235D01*
X164384586Y-101262982D01*
X164316072Y-101000912D01*
X164210130Y-100751610D01*
X164069018Y-100520390D01*
X164047311Y-100494306D01*
X163895746Y-100312180D01*
X163895740Y-100312175D01*
X163694002Y-100131418D01*
X163468092Y-99981957D01*
X163468090Y-99981956D01*
X163222824Y-99866980D01*
X163222819Y-99866978D01*
X163222814Y-99866976D01*
X162963442Y-99788942D01*
X162963428Y-99788939D01*
X162847791Y-99771921D01*
X162695439Y-99749500D01*
X162492369Y-99749500D01*
X162492364Y-99749500D01*
X162289844Y-99764323D01*
X162289831Y-99764325D01*
X162025453Y-99823217D01*
X162025446Y-99823220D01*
X161772439Y-99919987D01*
X161536226Y-100052557D01*
X161536224Y-100052558D01*
X161536223Y-100052559D01*
X161507768Y-100074531D01*
X161321822Y-100218112D01*
X161133822Y-100413109D01*
X161133816Y-100413116D01*
X160976202Y-100633419D01*
X160976199Y-100633424D01*
X160852350Y-100874309D01*
X160852343Y-100874327D01*
X160764884Y-101130685D01*
X160764881Y-101130699D01*
X160715681Y-101397068D01*
X160715680Y-101397075D01*
X160705787Y-101667763D01*
X156453091Y-101667763D01*
X167319037Y-90801819D01*
X167380360Y-90768334D01*
X167406718Y-90765500D01*
X189116506Y-90765500D01*
X189183545Y-90785185D01*
X189229300Y-90837989D01*
X189239244Y-90907147D01*
X189230062Y-90939310D01*
X189205388Y-90995560D01*
X189149892Y-91214710D01*
X189131225Y-91439993D01*
X189131225Y-91440006D01*
X189149892Y-91665289D01*
X189205388Y-91884439D01*
X189296198Y-92091466D01*
X189419842Y-92280716D01*
X189419850Y-92280727D01*
X189572950Y-92447036D01*
X189572954Y-92447040D01*
X189751351Y-92585893D01*
X189779165Y-92600945D01*
X189828755Y-92650165D01*
X189843863Y-92718382D01*
X189819692Y-92783937D01*
X189779165Y-92819055D01*
X189751352Y-92834106D01*
X189572955Y-92972959D01*
X189572950Y-92972963D01*
X189419850Y-93139272D01*
X189419842Y-93139283D01*
X189296198Y-93328533D01*
X189205388Y-93535560D01*
X189149892Y-93754710D01*
X189131225Y-93979993D01*
X189131225Y-93980006D01*
X189149892Y-94205289D01*
X189205388Y-94424439D01*
X189296198Y-94631466D01*
X189419842Y-94820716D01*
X189419850Y-94820727D01*
X189571702Y-94985680D01*
X189572954Y-94987040D01*
X189751351Y-95125893D01*
X189776711Y-95139617D01*
X189779165Y-95140945D01*
X189828755Y-95190165D01*
X189843863Y-95258382D01*
X189819692Y-95323937D01*
X189779165Y-95359055D01*
X189751352Y-95374106D01*
X189572955Y-95512959D01*
X189572950Y-95512963D01*
X189419850Y-95679272D01*
X189419842Y-95679283D01*
X189296198Y-95868533D01*
X189205388Y-96075560D01*
X189149892Y-96294710D01*
X189131225Y-96519993D01*
X189131225Y-96520006D01*
X189149892Y-96745289D01*
X189205388Y-96964439D01*
X189296198Y-97171466D01*
X189419842Y-97360716D01*
X189419850Y-97360727D01*
X189572950Y-97527036D01*
X189572954Y-97527040D01*
X189751351Y-97665893D01*
X189779165Y-97680945D01*
X189828755Y-97730165D01*
X189843863Y-97798382D01*
X189819692Y-97863937D01*
X189779165Y-97899055D01*
X189751352Y-97914106D01*
X189572955Y-98052959D01*
X189572950Y-98052963D01*
X189419850Y-98219272D01*
X189419842Y-98219283D01*
X189296198Y-98408533D01*
X189205388Y-98615560D01*
X189149892Y-98834710D01*
X189131225Y-99059993D01*
X189131225Y-99060006D01*
X189149892Y-99285289D01*
X189205388Y-99504439D01*
X189296198Y-99711466D01*
X189397801Y-99866980D01*
X189419844Y-99900719D01*
X189557245Y-100049976D01*
X189588167Y-100112629D01*
X189580307Y-100182055D01*
X189536160Y-100236211D01*
X189509349Y-100250140D01*
X189394311Y-100293046D01*
X189394306Y-100293049D01*
X189279212Y-100379209D01*
X189279209Y-100379212D01*
X189193049Y-100494306D01*
X189193045Y-100494313D01*
X189142803Y-100629020D01*
X189142801Y-100629027D01*
X189136400Y-100688555D01*
X189136400Y-101350000D01*
X190056804Y-101350000D01*
X190033155Y-101386799D01*
X189992000Y-101526961D01*
X189992000Y-101673039D01*
X190033155Y-101813201D01*
X190056804Y-101850000D01*
X189136400Y-101850000D01*
X189136400Y-102511444D01*
X189142801Y-102570972D01*
X189142803Y-102570979D01*
X189193045Y-102705686D01*
X189193049Y-102705693D01*
X189279209Y-102820787D01*
X189279212Y-102820790D01*
X189394306Y-102906950D01*
X189394313Y-102906954D01*
X189529020Y-102957196D01*
X189529027Y-102957198D01*
X189588555Y-102963599D01*
X189588572Y-102963600D01*
X190250000Y-102963600D01*
X190250000Y-102044297D01*
X190355408Y-102092435D01*
X190463666Y-102108000D01*
X190536334Y-102108000D01*
X190644592Y-102092435D01*
X190750000Y-102044297D01*
X190750000Y-102963600D01*
X191411428Y-102963600D01*
X191411444Y-102963599D01*
X191470972Y-102957198D01*
X191470979Y-102957196D01*
X191605686Y-102906954D01*
X191605689Y-102906952D01*
X191695688Y-102839579D01*
X191761152Y-102815161D01*
X191829426Y-102830012D01*
X191844312Y-102839579D01*
X191934310Y-102906952D01*
X191934313Y-102906954D01*
X192069020Y-102957196D01*
X192069027Y-102957198D01*
X192128555Y-102963599D01*
X192128572Y-102963600D01*
X192790000Y-102963600D01*
X192790000Y-102044297D01*
X192895408Y-102092435D01*
X193003666Y-102108000D01*
X193076334Y-102108000D01*
X193184592Y-102092435D01*
X193290000Y-102044297D01*
X193290000Y-102963600D01*
X193951428Y-102963600D01*
X193951444Y-102963599D01*
X194010972Y-102957198D01*
X194010979Y-102957196D01*
X194145686Y-102906954D01*
X194145693Y-102906950D01*
X194260787Y-102820790D01*
X194260790Y-102820787D01*
X194346950Y-102705693D01*
X194346954Y-102705686D01*
X194397196Y-102570979D01*
X194397198Y-102570972D01*
X194403599Y-102511444D01*
X194403600Y-102511427D01*
X194403600Y-101850000D01*
X193483196Y-101850000D01*
X193506845Y-101813201D01*
X193548000Y-101673039D01*
X193548000Y-101526961D01*
X193506845Y-101386799D01*
X193483196Y-101350000D01*
X194403600Y-101350000D01*
X194403600Y-100688572D01*
X194403599Y-100688555D01*
X194397198Y-100629027D01*
X194397196Y-100629020D01*
X194346954Y-100494313D01*
X194346950Y-100494306D01*
X194260790Y-100379212D01*
X194260787Y-100379209D01*
X194145693Y-100293049D01*
X194145686Y-100293045D01*
X194030651Y-100250140D01*
X193974717Y-100208269D01*
X193950300Y-100142804D01*
X193965152Y-100074531D01*
X193982749Y-100049981D01*
X194120156Y-99900719D01*
X194243802Y-99711465D01*
X194334611Y-99504441D01*
X194390107Y-99285293D01*
X194408775Y-99060000D01*
X194408775Y-99059993D01*
X194390107Y-98834710D01*
X194390107Y-98834707D01*
X194334611Y-98615559D01*
X194243802Y-98408535D01*
X194120156Y-98219281D01*
X194120153Y-98219278D01*
X194120149Y-98219272D01*
X193967049Y-98052963D01*
X193967048Y-98052962D01*
X193967046Y-98052960D01*
X193788649Y-97914107D01*
X193788647Y-97914106D01*
X193788646Y-97914105D01*
X193788639Y-97914100D01*
X193760836Y-97899055D01*
X193711244Y-97849837D01*
X193696135Y-97781620D01*
X193720306Y-97716064D01*
X193760836Y-97680945D01*
X193788639Y-97665899D01*
X193788642Y-97665896D01*
X193788649Y-97665893D01*
X193967046Y-97527040D01*
X194120156Y-97360719D01*
X194243802Y-97171465D01*
X194334611Y-96964441D01*
X194390107Y-96745293D01*
X194408775Y-96520004D01*
X203934451Y-96520004D01*
X203954616Y-96789101D01*
X204014664Y-97052188D01*
X204014666Y-97052195D01*
X204061476Y-97171465D01*
X204113257Y-97303398D01*
X204248185Y-97537102D01*
X204384080Y-97707509D01*
X204416442Y-97748089D01*
X204579146Y-97899055D01*
X204614259Y-97931635D01*
X204837226Y-98083651D01*
X205080359Y-98200738D01*
X205338228Y-98280280D01*
X205338229Y-98280280D01*
X205338232Y-98280281D01*
X205605063Y-98320499D01*
X205605068Y-98320499D01*
X205605071Y-98320500D01*
X205605072Y-98320500D01*
X205874928Y-98320500D01*
X205874929Y-98320500D01*
X205874936Y-98320499D01*
X206141767Y-98280281D01*
X206141768Y-98280280D01*
X206141772Y-98280280D01*
X206399641Y-98200738D01*
X206642775Y-98083651D01*
X206865741Y-97931635D01*
X207063561Y-97748085D01*
X207231815Y-97537102D01*
X207366743Y-97303398D01*
X207465334Y-97052195D01*
X207525383Y-96789103D01*
X207545549Y-96520000D01*
X207545548Y-96519993D01*
X207525383Y-96250898D01*
X207465335Y-95987811D01*
X207465334Y-95987805D01*
X207366743Y-95736602D01*
X207231815Y-95502898D01*
X207063561Y-95291915D01*
X207063560Y-95291914D01*
X207063557Y-95291910D01*
X206865741Y-95108365D01*
X206793695Y-95059245D01*
X206642775Y-94956349D01*
X206642769Y-94956346D01*
X206642768Y-94956345D01*
X206642767Y-94956344D01*
X206399643Y-94839263D01*
X206399645Y-94839263D01*
X206141773Y-94759720D01*
X206141767Y-94759718D01*
X205874936Y-94719500D01*
X205874929Y-94719500D01*
X205605071Y-94719500D01*
X205605063Y-94719500D01*
X205338232Y-94759718D01*
X205338226Y-94759720D01*
X205080358Y-94839262D01*
X204837230Y-94956346D01*
X204614258Y-95108365D01*
X204416442Y-95291910D01*
X204248185Y-95502898D01*
X204113258Y-95736599D01*
X204113256Y-95736603D01*
X204014666Y-95987804D01*
X204014664Y-95987811D01*
X203954616Y-96250898D01*
X203934451Y-96519995D01*
X203934451Y-96520004D01*
X194408775Y-96520004D01*
X194408775Y-96520000D01*
X194408775Y-96519995D01*
X194408775Y-96519993D01*
X194390107Y-96294710D01*
X194390107Y-96294707D01*
X194334611Y-96075559D01*
X194243802Y-95868535D01*
X194209056Y-95815353D01*
X194132295Y-95697861D01*
X194120156Y-95679281D01*
X194120153Y-95679278D01*
X194120149Y-95679272D01*
X193967049Y-95512963D01*
X193967048Y-95512962D01*
X193967046Y-95512960D01*
X193788649Y-95374107D01*
X193788647Y-95374106D01*
X193788646Y-95374105D01*
X193788639Y-95374100D01*
X193760836Y-95359055D01*
X193711244Y-95309837D01*
X193696135Y-95241620D01*
X193720306Y-95176064D01*
X193760836Y-95140945D01*
X193788639Y-95125899D01*
X193788642Y-95125896D01*
X193788649Y-95125893D01*
X193967046Y-94987040D01*
X194120156Y-94820719D01*
X194243802Y-94631465D01*
X194334611Y-94424441D01*
X194390107Y-94205293D01*
X194408775Y-93980000D01*
X194408775Y-93979999D01*
X194408775Y-93979993D01*
X194390107Y-93754710D01*
X194390107Y-93754707D01*
X194334611Y-93535559D01*
X194243802Y-93328535D01*
X194120156Y-93139281D01*
X194120153Y-93139278D01*
X194120149Y-93139272D01*
X193967049Y-92972963D01*
X193967048Y-92972962D01*
X193967046Y-92972960D01*
X193788649Y-92834107D01*
X193788647Y-92834106D01*
X193788646Y-92834105D01*
X193788639Y-92834100D01*
X193760836Y-92819055D01*
X193711244Y-92769837D01*
X193696135Y-92701620D01*
X193720306Y-92636064D01*
X193760836Y-92600945D01*
X193788639Y-92585899D01*
X193788642Y-92585896D01*
X193788649Y-92585893D01*
X193967046Y-92447040D01*
X194120156Y-92280719D01*
X194243802Y-92091465D01*
X194334611Y-91884441D01*
X194390107Y-91665293D01*
X194408775Y-91440000D01*
X194408775Y-91439995D01*
X194408775Y-91439993D01*
X194390107Y-91214710D01*
X194390107Y-91214707D01*
X194334611Y-90995559D01*
X194309938Y-90939310D01*
X194301035Y-90870009D01*
X194331013Y-90806897D01*
X194390352Y-90770011D01*
X194423494Y-90765500D01*
X203891655Y-90765500D01*
X203958694Y-90785185D01*
X204004449Y-90837989D01*
X204014393Y-90907147D01*
X204012546Y-90917093D01*
X203954616Y-91170899D01*
X203934451Y-91439995D01*
X203934451Y-91440004D01*
X203954616Y-91709101D01*
X204014664Y-91972188D01*
X204014666Y-91972195D01*
X204095349Y-92177771D01*
X204113257Y-92223398D01*
X204248185Y-92457102D01*
X204384080Y-92627509D01*
X204416442Y-92668089D01*
X204579146Y-92819055D01*
X204614259Y-92851635D01*
X204837226Y-93003651D01*
X205080359Y-93120738D01*
X205338228Y-93200280D01*
X205338229Y-93200280D01*
X205338232Y-93200281D01*
X205605063Y-93240499D01*
X205605068Y-93240499D01*
X205605071Y-93240500D01*
X205605072Y-93240500D01*
X205874928Y-93240500D01*
X205874929Y-93240500D01*
X205874936Y-93240499D01*
X206141767Y-93200281D01*
X206141768Y-93200280D01*
X206141772Y-93200280D01*
X206399641Y-93120738D01*
X206591765Y-93028216D01*
X206642767Y-93003655D01*
X206642767Y-93003654D01*
X206642775Y-93003651D01*
X206865741Y-92851635D01*
X207063561Y-92668085D01*
X207231815Y-92457102D01*
X207366743Y-92223398D01*
X207465334Y-91972195D01*
X207525383Y-91709103D01*
X207545549Y-91440000D01*
X207545548Y-91439993D01*
X207525383Y-91170898D01*
X207485363Y-90995559D01*
X207465334Y-90907805D01*
X207366743Y-90656602D01*
X207231815Y-90422898D01*
X207063561Y-90211915D01*
X207063560Y-90211914D01*
X207063557Y-90211910D01*
X206865741Y-90028365D01*
X206755962Y-89953519D01*
X206642775Y-89876349D01*
X206642771Y-89876347D01*
X206642768Y-89876345D01*
X206642767Y-89876344D01*
X206399643Y-89759263D01*
X206399645Y-89759263D01*
X206141773Y-89679720D01*
X206141767Y-89679718D01*
X205874936Y-89639500D01*
X205874929Y-89639500D01*
X205605071Y-89639500D01*
X205605063Y-89639500D01*
X205338232Y-89679718D01*
X205338226Y-89679720D01*
X205080354Y-89759263D01*
X205080354Y-89759264D01*
X205069717Y-89764386D01*
X205000775Y-89775734D01*
X204936642Y-89748008D01*
X204931038Y-89743055D01*
X204907159Y-89720631D01*
X204875364Y-89690773D01*
X204864309Y-89679718D01*
X204854475Y-89669883D01*
X204848986Y-89665625D01*
X204844561Y-89661847D01*
X204810582Y-89629938D01*
X204810580Y-89629936D01*
X204810577Y-89629935D01*
X204793029Y-89620288D01*
X204776763Y-89609604D01*
X204760933Y-89597325D01*
X204718168Y-89578818D01*
X204712922Y-89576248D01*
X204672093Y-89553803D01*
X204672092Y-89553802D01*
X204652693Y-89548822D01*
X204634281Y-89542518D01*
X204615898Y-89534562D01*
X204615892Y-89534560D01*
X204569874Y-89527272D01*
X204564152Y-89526087D01*
X204519021Y-89514500D01*
X204519019Y-89514500D01*
X204498984Y-89514500D01*
X204479586Y-89512973D01*
X204472162Y-89511797D01*
X204459805Y-89509840D01*
X204459804Y-89509840D01*
X204413416Y-89514225D01*
X204407578Y-89514500D01*
X194449812Y-89514500D01*
X194382773Y-89494815D01*
X194337018Y-89442011D01*
X194327074Y-89372853D01*
X194333730Y-89349557D01*
X194332947Y-89349289D01*
X194334609Y-89344445D01*
X194334611Y-89344441D01*
X194390107Y-89125293D01*
X194408775Y-88900000D01*
X194408775Y-88899999D01*
X194408775Y-88899993D01*
X194390418Y-88678462D01*
X194390107Y-88674707D01*
X194334611Y-88455559D01*
X194243802Y-88248535D01*
X194120156Y-88059281D01*
X194120153Y-88059278D01*
X194120149Y-88059272D01*
X193967049Y-87892963D01*
X193967048Y-87892962D01*
X193967046Y-87892960D01*
X193788649Y-87754107D01*
X193788647Y-87754106D01*
X193788646Y-87754105D01*
X193788639Y-87754100D01*
X193760836Y-87739055D01*
X193711244Y-87689837D01*
X193696135Y-87621620D01*
X193720306Y-87556064D01*
X193760836Y-87520945D01*
X193788639Y-87505899D01*
X193788642Y-87505896D01*
X193788649Y-87505893D01*
X193967046Y-87367040D01*
X194066832Y-87258643D01*
X194120149Y-87200727D01*
X194120151Y-87200724D01*
X194120156Y-87200719D01*
X194243802Y-87011465D01*
X194334611Y-86804441D01*
X194390107Y-86585293D01*
X194397574Y-86495175D01*
X194408775Y-86360006D01*
X194408775Y-86360004D01*
X203934953Y-86360004D01*
X203955113Y-86629026D01*
X203955113Y-86629028D01*
X204015142Y-86892033D01*
X204015148Y-86892052D01*
X204113709Y-87143181D01*
X204113708Y-87143181D01*
X204248602Y-87376822D01*
X204302294Y-87444151D01*
X204302295Y-87444151D01*
X205137452Y-86608993D01*
X205147188Y-86638956D01*
X205235186Y-86777619D01*
X205354903Y-86890040D01*
X205489510Y-86964041D01*
X204654848Y-87798702D01*
X204837483Y-87923220D01*
X204837485Y-87923221D01*
X205080539Y-88040269D01*
X205080537Y-88040269D01*
X205338337Y-88119790D01*
X205338343Y-88119792D01*
X205605101Y-88159999D01*
X205605110Y-88160000D01*
X205874890Y-88160000D01*
X205874898Y-88159999D01*
X206141656Y-88119792D01*
X206141662Y-88119790D01*
X206399461Y-88040269D01*
X206642521Y-87923218D01*
X206825150Y-87798702D01*
X205987534Y-86961086D01*
X206055629Y-86934126D01*
X206188492Y-86837595D01*
X206293175Y-86711055D01*
X206341631Y-86608079D01*
X207177703Y-87444151D01*
X207177704Y-87444150D01*
X207231393Y-87376828D01*
X207231400Y-87376817D01*
X207366290Y-87143181D01*
X207464851Y-86892052D01*
X207464857Y-86892033D01*
X207524886Y-86629028D01*
X207524886Y-86629026D01*
X207545047Y-86360004D01*
X207545047Y-86359995D01*
X207524886Y-86090973D01*
X207524886Y-86090971D01*
X207464857Y-85827966D01*
X207464851Y-85827947D01*
X207366290Y-85576818D01*
X207366291Y-85576818D01*
X207231397Y-85343177D01*
X207177704Y-85275847D01*
X206342546Y-86111004D01*
X206332812Y-86081044D01*
X206244814Y-85942381D01*
X206125097Y-85829960D01*
X205990489Y-85755958D01*
X206825150Y-84921296D01*
X206642517Y-84796779D01*
X206642516Y-84796778D01*
X206399460Y-84679730D01*
X206399462Y-84679730D01*
X206141662Y-84600209D01*
X206141656Y-84600207D01*
X205874898Y-84560000D01*
X205605101Y-84560000D01*
X205338343Y-84600207D01*
X205338337Y-84600209D01*
X205080538Y-84679730D01*
X204837485Y-84796778D01*
X204837476Y-84796783D01*
X204654848Y-84921296D01*
X205492465Y-85758913D01*
X205424371Y-85785874D01*
X205291508Y-85882405D01*
X205186825Y-86008945D01*
X205138368Y-86111921D01*
X204302295Y-85275848D01*
X204248600Y-85343180D01*
X204113709Y-85576818D01*
X204015148Y-85827947D01*
X204015142Y-85827966D01*
X203955113Y-86090971D01*
X203955113Y-86090973D01*
X203934953Y-86359995D01*
X203934953Y-86360004D01*
X194408775Y-86360004D01*
X194408775Y-86359993D01*
X194390107Y-86134710D01*
X194390107Y-86134707D01*
X194334611Y-85915559D01*
X194243802Y-85708535D01*
X194242972Y-85707265D01*
X194120157Y-85519283D01*
X194120149Y-85519272D01*
X193967049Y-85352963D01*
X193967048Y-85352962D01*
X193967046Y-85352960D01*
X193788649Y-85214107D01*
X193788647Y-85214106D01*
X193788646Y-85214105D01*
X193788639Y-85214100D01*
X193760836Y-85199055D01*
X193711244Y-85149837D01*
X193696135Y-85081620D01*
X193720306Y-85016064D01*
X193760836Y-84980945D01*
X193788639Y-84965899D01*
X193788642Y-84965896D01*
X193788649Y-84965893D01*
X193967046Y-84827040D01*
X194120156Y-84660719D01*
X194243802Y-84471465D01*
X194334611Y-84264441D01*
X194390107Y-84045293D01*
X194399757Y-83928830D01*
X194408775Y-83820006D01*
X194408775Y-83819993D01*
X194390426Y-83598560D01*
X194390107Y-83594707D01*
X194334611Y-83375559D01*
X194243802Y-83168535D01*
X194242972Y-83167265D01*
X194120157Y-82979283D01*
X194120149Y-82979272D01*
X193967049Y-82812963D01*
X193967048Y-82812962D01*
X193967046Y-82812960D01*
X193788649Y-82674107D01*
X193788647Y-82674106D01*
X193788646Y-82674105D01*
X193788639Y-82674100D01*
X193760836Y-82659055D01*
X193711244Y-82609837D01*
X193696135Y-82541620D01*
X193720306Y-82476064D01*
X193760836Y-82440945D01*
X193788639Y-82425899D01*
X193788642Y-82425896D01*
X193788649Y-82425893D01*
X193967046Y-82287040D01*
X194113561Y-82127883D01*
X194120149Y-82120727D01*
X194120151Y-82120724D01*
X194120156Y-82120719D01*
X194243802Y-81931465D01*
X194334611Y-81724441D01*
X194390107Y-81505293D01*
X194407414Y-81296430D01*
X194408775Y-81280006D01*
X194408775Y-81279993D01*
X194390107Y-81054710D01*
X194390107Y-81054707D01*
X194334611Y-80835559D01*
X194243802Y-80628535D01*
X194234231Y-80613886D01*
X194120157Y-80439283D01*
X194120149Y-80439272D01*
X193967049Y-80272963D01*
X193967048Y-80272962D01*
X193967046Y-80272960D01*
X193788649Y-80134107D01*
X193788647Y-80134106D01*
X193788646Y-80134105D01*
X193788639Y-80134100D01*
X193760836Y-80119055D01*
X193711244Y-80069837D01*
X193696135Y-80001620D01*
X193720306Y-79936064D01*
X193760836Y-79900945D01*
X193788639Y-79885899D01*
X193788642Y-79885896D01*
X193788649Y-79885893D01*
X193967046Y-79747040D01*
X194091059Y-79612327D01*
X194120149Y-79580727D01*
X194120151Y-79580724D01*
X194120156Y-79580719D01*
X194243802Y-79391465D01*
X194334611Y-79184441D01*
X194390107Y-78965293D01*
X194408775Y-78740004D01*
X203934451Y-78740004D01*
X203954616Y-79009101D01*
X204014664Y-79272188D01*
X204014666Y-79272195D01*
X204113256Y-79523396D01*
X204113258Y-79523400D01*
X204128363Y-79549562D01*
X204248185Y-79757102D01*
X204371829Y-79912146D01*
X204416442Y-79968089D01*
X204557869Y-80099313D01*
X204614259Y-80151635D01*
X204837226Y-80303651D01*
X205080359Y-80420738D01*
X205338228Y-80500280D01*
X205338229Y-80500280D01*
X205338232Y-80500281D01*
X205605063Y-80540499D01*
X205605068Y-80540499D01*
X205605071Y-80540500D01*
X205605072Y-80540500D01*
X205874928Y-80540500D01*
X205874929Y-80540500D01*
X205874936Y-80540499D01*
X206141767Y-80500281D01*
X206141768Y-80500280D01*
X206141772Y-80500280D01*
X206399641Y-80420738D01*
X206642775Y-80303651D01*
X206865741Y-80151635D01*
X207044351Y-79985909D01*
X207063557Y-79968089D01*
X207063557Y-79968087D01*
X207063561Y-79968085D01*
X207231815Y-79757102D01*
X207366743Y-79523398D01*
X207465334Y-79272195D01*
X207525383Y-79009103D01*
X207545549Y-78740000D01*
X207545548Y-78739993D01*
X207526978Y-78492179D01*
X207525383Y-78470897D01*
X207465334Y-78207805D01*
X207366743Y-77956602D01*
X207231815Y-77722898D01*
X207063561Y-77511915D01*
X207063560Y-77511914D01*
X207063557Y-77511910D01*
X206865741Y-77328365D01*
X206735400Y-77239500D01*
X206642775Y-77176349D01*
X206642769Y-77176346D01*
X206642768Y-77176345D01*
X206642767Y-77176344D01*
X206399643Y-77059263D01*
X206399645Y-77059263D01*
X206141773Y-76979720D01*
X206141767Y-76979718D01*
X205874936Y-76939500D01*
X205874929Y-76939500D01*
X205605071Y-76939500D01*
X205605063Y-76939500D01*
X205338232Y-76979718D01*
X205338226Y-76979720D01*
X205080358Y-77059262D01*
X204837230Y-77176346D01*
X204614258Y-77328365D01*
X204416442Y-77511910D01*
X204248185Y-77722898D01*
X204113258Y-77956599D01*
X204113256Y-77956603D01*
X204014666Y-78207804D01*
X204014664Y-78207811D01*
X203954616Y-78470898D01*
X203934451Y-78739995D01*
X203934451Y-78740004D01*
X194408775Y-78740004D01*
X194408775Y-78740000D01*
X194408775Y-78739994D01*
X194408775Y-78739993D01*
X194390107Y-78514710D01*
X194390107Y-78514707D01*
X194334611Y-78295559D01*
X194243802Y-78088535D01*
X194120156Y-77899281D01*
X194120153Y-77899278D01*
X194120149Y-77899272D01*
X193967049Y-77732963D01*
X193967048Y-77732962D01*
X193967046Y-77732960D01*
X193788649Y-77594107D01*
X193788647Y-77594106D01*
X193788646Y-77594105D01*
X193788639Y-77594100D01*
X193760836Y-77579055D01*
X193711244Y-77529837D01*
X193696135Y-77461620D01*
X193720306Y-77396064D01*
X193760836Y-77360945D01*
X193788639Y-77345899D01*
X193788642Y-77345896D01*
X193788649Y-77345893D01*
X193967046Y-77207040D01*
X194120156Y-77040719D01*
X194243802Y-76851465D01*
X194334611Y-76644441D01*
X194390107Y-76425293D01*
X194408775Y-76200000D01*
X194408775Y-76199993D01*
X194390107Y-75974710D01*
X194390107Y-75974707D01*
X194334611Y-75755559D01*
X194243802Y-75548535D01*
X194218952Y-75510500D01*
X194120157Y-75359283D01*
X194120149Y-75359272D01*
X193967049Y-75192963D01*
X193967048Y-75192962D01*
X193967046Y-75192960D01*
X193788649Y-75054107D01*
X193788647Y-75054106D01*
X193788646Y-75054105D01*
X193788639Y-75054100D01*
X193760836Y-75039055D01*
X193711244Y-74989837D01*
X193696135Y-74921620D01*
X193720306Y-74856064D01*
X193760836Y-74820945D01*
X193788639Y-74805899D01*
X193788642Y-74805896D01*
X193788649Y-74805893D01*
X193967046Y-74667040D01*
X194066832Y-74558643D01*
X194120149Y-74500727D01*
X194120151Y-74500724D01*
X194120156Y-74500719D01*
X194243802Y-74311465D01*
X194334611Y-74104441D01*
X194390107Y-73885293D01*
X194406028Y-73693153D01*
X194408775Y-73660006D01*
X194408775Y-73660004D01*
X203934451Y-73660004D01*
X203954616Y-73929101D01*
X204014664Y-74192188D01*
X204014666Y-74192195D01*
X204113256Y-74443396D01*
X204113258Y-74443400D01*
X204121597Y-74457844D01*
X204248185Y-74677102D01*
X204383580Y-74846881D01*
X204416442Y-74888089D01*
X204579146Y-75039055D01*
X204614259Y-75071635D01*
X204837226Y-75223651D01*
X205080359Y-75340738D01*
X205338228Y-75420280D01*
X205338229Y-75420280D01*
X205338232Y-75420281D01*
X205605063Y-75460499D01*
X205605068Y-75460499D01*
X205605071Y-75460500D01*
X205605072Y-75460500D01*
X205874928Y-75460500D01*
X205874929Y-75460500D01*
X205874936Y-75460499D01*
X206141767Y-75420281D01*
X206141768Y-75420280D01*
X206141772Y-75420280D01*
X206399641Y-75340738D01*
X206642775Y-75223651D01*
X206865741Y-75071635D01*
X207063561Y-74888085D01*
X207231815Y-74677102D01*
X207366743Y-74443398D01*
X207465334Y-74192195D01*
X207525383Y-73929103D01*
X207545549Y-73660000D01*
X207545548Y-73659993D01*
X207527710Y-73421955D01*
X207525383Y-73390897D01*
X207465334Y-73127805D01*
X207366743Y-72876602D01*
X207231815Y-72642898D01*
X207063561Y-72431915D01*
X207063560Y-72431914D01*
X207063557Y-72431910D01*
X206865741Y-72248365D01*
X206805219Y-72207102D01*
X206642775Y-72096349D01*
X206642769Y-72096346D01*
X206642768Y-72096345D01*
X206642767Y-72096344D01*
X206399643Y-71979263D01*
X206399645Y-71979263D01*
X206141773Y-71899720D01*
X206141767Y-71899718D01*
X205874936Y-71859500D01*
X205874929Y-71859500D01*
X205605071Y-71859500D01*
X205605063Y-71859500D01*
X205338232Y-71899718D01*
X205338226Y-71899720D01*
X205080358Y-71979262D01*
X204837230Y-72096346D01*
X204614258Y-72248365D01*
X204416442Y-72431910D01*
X204248185Y-72642898D01*
X204113258Y-72876599D01*
X204113256Y-72876603D01*
X204014666Y-73127804D01*
X204014664Y-73127811D01*
X203954616Y-73390898D01*
X203934451Y-73659995D01*
X203934451Y-73660004D01*
X194408775Y-73660004D01*
X194408775Y-73659993D01*
X194390107Y-73434710D01*
X194390107Y-73434707D01*
X194334611Y-73215559D01*
X194243802Y-73008535D01*
X194235782Y-72996260D01*
X194157604Y-72876599D01*
X194120156Y-72819281D01*
X194120153Y-72819278D01*
X194120149Y-72819272D01*
X193967049Y-72652963D01*
X193967048Y-72652962D01*
X193967046Y-72652960D01*
X193788649Y-72514107D01*
X193788647Y-72514106D01*
X193788646Y-72514105D01*
X193788639Y-72514100D01*
X193760836Y-72499055D01*
X193711244Y-72449837D01*
X193696135Y-72381620D01*
X193720306Y-72316064D01*
X193760836Y-72280945D01*
X193788639Y-72265899D01*
X193788642Y-72265896D01*
X193788649Y-72265893D01*
X193967046Y-72127040D01*
X194066832Y-72018643D01*
X194120149Y-71960727D01*
X194120151Y-71960724D01*
X194120156Y-71960719D01*
X194243802Y-71771465D01*
X194334611Y-71564441D01*
X194390107Y-71345293D01*
X194408775Y-71120000D01*
X194408775Y-71119997D01*
X194408775Y-71119993D01*
X194390107Y-70894710D01*
X194390107Y-70894707D01*
X194334611Y-70675559D01*
X194243802Y-70468535D01*
X194120156Y-70279281D01*
X194120153Y-70279278D01*
X194120149Y-70279272D01*
X193967049Y-70112963D01*
X193967048Y-70112962D01*
X193967046Y-70112960D01*
X193788649Y-69974107D01*
X193788647Y-69974106D01*
X193788646Y-69974105D01*
X193788639Y-69974100D01*
X193760836Y-69959055D01*
X193711244Y-69909837D01*
X193696135Y-69841620D01*
X193720306Y-69776064D01*
X193760836Y-69740945D01*
X193788639Y-69725899D01*
X193788642Y-69725896D01*
X193788649Y-69725893D01*
X193967046Y-69587040D01*
X194099504Y-69443153D01*
X194120149Y-69420727D01*
X194120151Y-69420724D01*
X194120156Y-69420719D01*
X194243802Y-69231465D01*
X194334611Y-69024441D01*
X194390107Y-68805293D01*
X194397574Y-68715175D01*
X194408775Y-68580006D01*
X194408775Y-68580004D01*
X203934451Y-68580004D01*
X203954616Y-68849101D01*
X204014664Y-69112188D01*
X204014666Y-69112195D01*
X204061476Y-69231465D01*
X204113257Y-69363398D01*
X204248185Y-69597102D01*
X204375276Y-69756468D01*
X204416442Y-69808089D01*
X204561085Y-69942297D01*
X204614259Y-69991635D01*
X204837226Y-70143651D01*
X205080359Y-70260738D01*
X205338228Y-70340280D01*
X205338229Y-70340280D01*
X205338232Y-70340281D01*
X205605063Y-70380499D01*
X205605068Y-70380499D01*
X205605071Y-70380500D01*
X205605072Y-70380500D01*
X205874928Y-70380500D01*
X205874929Y-70380500D01*
X205874936Y-70380499D01*
X206141767Y-70340281D01*
X206141768Y-70340280D01*
X206141772Y-70340280D01*
X206399641Y-70260738D01*
X206642775Y-70143651D01*
X206865741Y-69991635D01*
X207027419Y-69841620D01*
X207063557Y-69808089D01*
X207063557Y-69808087D01*
X207063561Y-69808085D01*
X207231815Y-69597102D01*
X207366743Y-69363398D01*
X207465334Y-69112195D01*
X207525383Y-68849103D01*
X207532105Y-68759402D01*
X207545549Y-68580004D01*
X207545549Y-68579995D01*
X207528216Y-68348702D01*
X207525383Y-68310897D01*
X207465334Y-68047805D01*
X207366743Y-67796602D01*
X207231815Y-67562898D01*
X207063561Y-67351915D01*
X207063560Y-67351914D01*
X207063557Y-67351910D01*
X206865741Y-67168365D01*
X206642775Y-67016349D01*
X206642769Y-67016346D01*
X206642768Y-67016345D01*
X206642767Y-67016344D01*
X206399643Y-66899263D01*
X206399645Y-66899263D01*
X206141773Y-66819720D01*
X206141767Y-66819718D01*
X205874936Y-66779500D01*
X205874929Y-66779500D01*
X205605071Y-66779500D01*
X205605063Y-66779500D01*
X205338232Y-66819718D01*
X205338226Y-66819720D01*
X205080358Y-66899262D01*
X204837230Y-67016346D01*
X204614258Y-67168365D01*
X204416442Y-67351910D01*
X204248185Y-67562898D01*
X204113258Y-67796599D01*
X204113256Y-67796603D01*
X204014666Y-68047804D01*
X204014664Y-68047811D01*
X203954616Y-68310898D01*
X203934451Y-68579995D01*
X203934451Y-68580004D01*
X194408775Y-68580004D01*
X194408775Y-68579993D01*
X194390107Y-68354710D01*
X194390107Y-68354707D01*
X194334611Y-68135559D01*
X194243802Y-67928535D01*
X194232444Y-67911151D01*
X194120157Y-67739283D01*
X194120149Y-67739272D01*
X193967049Y-67572963D01*
X193967048Y-67572962D01*
X193967046Y-67572960D01*
X193788649Y-67434107D01*
X193788647Y-67434106D01*
X193788646Y-67434105D01*
X193788639Y-67434100D01*
X193760836Y-67419055D01*
X193711244Y-67369837D01*
X193696135Y-67301620D01*
X193720306Y-67236064D01*
X193760836Y-67200945D01*
X193788639Y-67185899D01*
X193788642Y-67185896D01*
X193788649Y-67185893D01*
X193967046Y-67047040D01*
X194120156Y-66880719D01*
X194243802Y-66691465D01*
X194334611Y-66484441D01*
X194390107Y-66265293D01*
X194408775Y-66040000D01*
X194408775Y-66039993D01*
X194390107Y-65814710D01*
X194390107Y-65814707D01*
X194334611Y-65595559D01*
X194243802Y-65388535D01*
X194120156Y-65199281D01*
X194120153Y-65199278D01*
X194120149Y-65199272D01*
X193967049Y-65032963D01*
X193967048Y-65032962D01*
X193967046Y-65032960D01*
X193788649Y-64894107D01*
X193788647Y-64894106D01*
X193788646Y-64894105D01*
X193788639Y-64894100D01*
X193760836Y-64879055D01*
X193711244Y-64829837D01*
X193696135Y-64761620D01*
X193720306Y-64696064D01*
X193760836Y-64660945D01*
X193788639Y-64645899D01*
X193788642Y-64645896D01*
X193788649Y-64645893D01*
X193967046Y-64507040D01*
X194120156Y-64340719D01*
X194243802Y-64151465D01*
X194334611Y-63944441D01*
X194390107Y-63725293D01*
X194408775Y-63500004D01*
X203934451Y-63500004D01*
X203954616Y-63769101D01*
X204014664Y-64032188D01*
X204014666Y-64032195D01*
X204061476Y-64151465D01*
X204113257Y-64283398D01*
X204248185Y-64517102D01*
X204380859Y-64683469D01*
X204416442Y-64728089D01*
X204579146Y-64879055D01*
X204614259Y-64911635D01*
X204837226Y-65063651D01*
X205080359Y-65180738D01*
X205338228Y-65260280D01*
X205338229Y-65260280D01*
X205338232Y-65260281D01*
X205605063Y-65300499D01*
X205605068Y-65300499D01*
X205605071Y-65300500D01*
X205605072Y-65300500D01*
X205874928Y-65300500D01*
X205874929Y-65300500D01*
X205874936Y-65300499D01*
X206141767Y-65260281D01*
X206141768Y-65260280D01*
X206141772Y-65260280D01*
X206399641Y-65180738D01*
X206629388Y-65070098D01*
X206642767Y-65063655D01*
X206642767Y-65063654D01*
X206642775Y-65063651D01*
X206865741Y-64911635D01*
X207036183Y-64753488D01*
X207063557Y-64728089D01*
X207063557Y-64728087D01*
X207063561Y-64728085D01*
X207231815Y-64517102D01*
X207366743Y-64283398D01*
X207465334Y-64032195D01*
X207525383Y-63769103D01*
X207545549Y-63500000D01*
X207545548Y-63499993D01*
X207525383Y-63230898D01*
X207492239Y-63085685D01*
X207465334Y-62967805D01*
X207366743Y-62716602D01*
X207231815Y-62482898D01*
X207063561Y-62271915D01*
X207063560Y-62271914D01*
X207063557Y-62271910D01*
X206865741Y-62088365D01*
X206642775Y-61936349D01*
X206642769Y-61936346D01*
X206642768Y-61936345D01*
X206642767Y-61936344D01*
X206399643Y-61819263D01*
X206399645Y-61819263D01*
X206141773Y-61739720D01*
X206141767Y-61739718D01*
X205874936Y-61699500D01*
X205874929Y-61699500D01*
X205605071Y-61699500D01*
X205605063Y-61699500D01*
X205338232Y-61739718D01*
X205338226Y-61739720D01*
X205080358Y-61819262D01*
X204837230Y-61936346D01*
X204614258Y-62088365D01*
X204416442Y-62271910D01*
X204248185Y-62482898D01*
X204113258Y-62716599D01*
X204113256Y-62716603D01*
X204014666Y-62967804D01*
X204014664Y-62967811D01*
X203954616Y-63230898D01*
X203934451Y-63499995D01*
X203934451Y-63500004D01*
X194408775Y-63500004D01*
X194408775Y-63500000D01*
X194408775Y-63499995D01*
X194408775Y-63499993D01*
X194391147Y-63287258D01*
X194390107Y-63274707D01*
X194334611Y-63055559D01*
X194243802Y-62848535D01*
X194226219Y-62821623D01*
X194120157Y-62659283D01*
X194120149Y-62659272D01*
X193967049Y-62492963D01*
X193967048Y-62492962D01*
X193967046Y-62492960D01*
X193788649Y-62354107D01*
X193788647Y-62354106D01*
X193788646Y-62354105D01*
X193788639Y-62354100D01*
X193760836Y-62339055D01*
X193711244Y-62289837D01*
X193696135Y-62221620D01*
X193720306Y-62156064D01*
X193760836Y-62120945D01*
X193788639Y-62105899D01*
X193788642Y-62105896D01*
X193788649Y-62105893D01*
X193967046Y-61967040D01*
X194120156Y-61800719D01*
X194243802Y-61611465D01*
X194334611Y-61404441D01*
X194390107Y-61185293D01*
X194408775Y-60960000D01*
X194408775Y-60959993D01*
X194390107Y-60734710D01*
X194390107Y-60734707D01*
X194334611Y-60515559D01*
X194243802Y-60308535D01*
X194218952Y-60270500D01*
X194159690Y-60179792D01*
X194120156Y-60119281D01*
X194120153Y-60119278D01*
X194120149Y-60119272D01*
X193967049Y-59952963D01*
X193967048Y-59952962D01*
X193967046Y-59952960D01*
X193788649Y-59814107D01*
X193788647Y-59814106D01*
X193788646Y-59814105D01*
X193788639Y-59814100D01*
X193760836Y-59799055D01*
X193711244Y-59749837D01*
X193696135Y-59681620D01*
X193720306Y-59616064D01*
X193760836Y-59580945D01*
X193788639Y-59565899D01*
X193788642Y-59565896D01*
X193788649Y-59565893D01*
X193967046Y-59427040D01*
X194095354Y-59287661D01*
X194120149Y-59260727D01*
X194120151Y-59260724D01*
X194120156Y-59260719D01*
X194243802Y-59071465D01*
X194334611Y-58864441D01*
X194390107Y-58645293D01*
X194397574Y-58555175D01*
X194408775Y-58420006D01*
X194408775Y-58420004D01*
X203934953Y-58420004D01*
X203955113Y-58689026D01*
X203955113Y-58689028D01*
X204015142Y-58952033D01*
X204015148Y-58952052D01*
X204113709Y-59203181D01*
X204113708Y-59203181D01*
X204248602Y-59436822D01*
X204302294Y-59504151D01*
X204302295Y-59504151D01*
X205137452Y-58668993D01*
X205147188Y-58698956D01*
X205235186Y-58837619D01*
X205354903Y-58950040D01*
X205489510Y-59024041D01*
X204654848Y-59858702D01*
X204837483Y-59983220D01*
X204837485Y-59983221D01*
X205080539Y-60100269D01*
X205080537Y-60100269D01*
X205338337Y-60179790D01*
X205338343Y-60179792D01*
X205605101Y-60219999D01*
X205605110Y-60220000D01*
X205874890Y-60220000D01*
X205874898Y-60219999D01*
X206141656Y-60179792D01*
X206141662Y-60179790D01*
X206399461Y-60100269D01*
X206642521Y-59983218D01*
X206825150Y-59858702D01*
X205987534Y-59021086D01*
X206055629Y-58994126D01*
X206188492Y-58897595D01*
X206293175Y-58771055D01*
X206341631Y-58668079D01*
X207177703Y-59504151D01*
X207177704Y-59504150D01*
X207231393Y-59436828D01*
X207231400Y-59436817D01*
X207366290Y-59203181D01*
X207464851Y-58952052D01*
X207464857Y-58952033D01*
X207524886Y-58689028D01*
X207524886Y-58689026D01*
X207545047Y-58420004D01*
X207545047Y-58419995D01*
X207524886Y-58150973D01*
X207524886Y-58150971D01*
X207464857Y-57887966D01*
X207464851Y-57887947D01*
X207366290Y-57636818D01*
X207366291Y-57636818D01*
X207231397Y-57403177D01*
X207177704Y-57335847D01*
X206342546Y-58171004D01*
X206332812Y-58141044D01*
X206244814Y-58002381D01*
X206125097Y-57889960D01*
X205990489Y-57815958D01*
X206825150Y-56981296D01*
X206642517Y-56856779D01*
X206642516Y-56856778D01*
X206399460Y-56739730D01*
X206399462Y-56739730D01*
X206141662Y-56660209D01*
X206141656Y-56660207D01*
X205874898Y-56620000D01*
X205605101Y-56620000D01*
X205338343Y-56660207D01*
X205338337Y-56660209D01*
X205080538Y-56739730D01*
X204837485Y-56856778D01*
X204837476Y-56856783D01*
X204654848Y-56981296D01*
X205492465Y-57818913D01*
X205424371Y-57845874D01*
X205291508Y-57942405D01*
X205186825Y-58068945D01*
X205138368Y-58171921D01*
X204302295Y-57335848D01*
X204248600Y-57403180D01*
X204113709Y-57636818D01*
X204015148Y-57887947D01*
X204015142Y-57887966D01*
X203955113Y-58150971D01*
X203955113Y-58150973D01*
X203934953Y-58419995D01*
X203934953Y-58420004D01*
X194408775Y-58420004D01*
X194408775Y-58419993D01*
X194390107Y-58194710D01*
X194390107Y-58194707D01*
X194334611Y-57975559D01*
X194243802Y-57768535D01*
X194120156Y-57579281D01*
X194120153Y-57579278D01*
X194120149Y-57579272D01*
X193967049Y-57412963D01*
X193967048Y-57412962D01*
X193967046Y-57412960D01*
X193788649Y-57274107D01*
X193712910Y-57233119D01*
X193589832Y-57166512D01*
X193589827Y-57166510D01*
X193376017Y-57093109D01*
X193194388Y-57062801D01*
X193153033Y-57055900D01*
X192926967Y-57055900D01*
X192885612Y-57062801D01*
X192703982Y-57093109D01*
X192490172Y-57166510D01*
X192490167Y-57166512D01*
X192291352Y-57274106D01*
X192112955Y-57412959D01*
X192112950Y-57412963D01*
X191959850Y-57579272D01*
X191959842Y-57579283D01*
X191873808Y-57710968D01*
X191820662Y-57756325D01*
X191751430Y-57765748D01*
X191688095Y-57736246D01*
X191666192Y-57710968D01*
X191580157Y-57579283D01*
X191580149Y-57579272D01*
X191427049Y-57412963D01*
X191427048Y-57412962D01*
X191427046Y-57412960D01*
X191248649Y-57274107D01*
X191172910Y-57233119D01*
X191049832Y-57166512D01*
X191049827Y-57166510D01*
X190836017Y-57093109D01*
X190654388Y-57062801D01*
X190613033Y-57055900D01*
X190386967Y-57055900D01*
X190345612Y-57062801D01*
X190163982Y-57093109D01*
X189950172Y-57166510D01*
X189950167Y-57166512D01*
X189751352Y-57274106D01*
X189572955Y-57412959D01*
X189572950Y-57412963D01*
X189419850Y-57579272D01*
X189419842Y-57579283D01*
X189296198Y-57768533D01*
X189205388Y-57975560D01*
X189149892Y-58194710D01*
X189131225Y-58419993D01*
X189131225Y-58420006D01*
X189149892Y-58645289D01*
X189181137Y-58768674D01*
X189178512Y-58838494D01*
X189148612Y-58886795D01*
X188927608Y-59107799D01*
X188915351Y-59117620D01*
X188915534Y-59117841D01*
X188909523Y-59122813D01*
X188862172Y-59173236D01*
X188841289Y-59194119D01*
X188841277Y-59194132D01*
X188837021Y-59199617D01*
X188833237Y-59204047D01*
X188801337Y-59238018D01*
X188801336Y-59238020D01*
X188791684Y-59255576D01*
X188781010Y-59271826D01*
X188768729Y-59287661D01*
X188768724Y-59287668D01*
X188750215Y-59330438D01*
X188747645Y-59335684D01*
X188725203Y-59376506D01*
X188720222Y-59395907D01*
X188713921Y-59414310D01*
X188705962Y-59432702D01*
X188705961Y-59432705D01*
X188698671Y-59478727D01*
X188697487Y-59484446D01*
X188685901Y-59529572D01*
X188685900Y-59529582D01*
X188685900Y-59549616D01*
X188684373Y-59569015D01*
X188681240Y-59588794D01*
X188681240Y-59588795D01*
X188685625Y-59635183D01*
X188685900Y-59641021D01*
X188685900Y-66918146D01*
X188666215Y-66985185D01*
X188649581Y-67005827D01*
X174426269Y-81229138D01*
X174364946Y-81262623D01*
X174295254Y-81257639D01*
X174239321Y-81215767D01*
X174215012Y-81151697D01*
X174205109Y-81032187D01*
X174205107Y-81032175D01*
X174144063Y-80791118D01*
X174044173Y-80563393D01*
X173908166Y-80355217D01*
X173860696Y-80303651D01*
X173739744Y-80172262D01*
X173656991Y-80107852D01*
X173616179Y-80051143D01*
X173612504Y-79981370D01*
X173647136Y-79920687D01*
X173656985Y-79912151D01*
X173739744Y-79847738D01*
X173908164Y-79664785D01*
X174044173Y-79456607D01*
X174144063Y-79228881D01*
X174205108Y-78987821D01*
X174225643Y-78740000D01*
X174225642Y-78739993D01*
X174205109Y-78492187D01*
X174205107Y-78492175D01*
X174144063Y-78251118D01*
X174044173Y-78023393D01*
X173908166Y-77815217D01*
X173886557Y-77791744D01*
X173739744Y-77632262D01*
X173543509Y-77479526D01*
X173543507Y-77479525D01*
X173543506Y-77479524D01*
X173324811Y-77361172D01*
X173324802Y-77361169D01*
X173089616Y-77280429D01*
X172844335Y-77239500D01*
X172595665Y-77239500D01*
X172350383Y-77280429D01*
X172115197Y-77361169D01*
X172115188Y-77361172D01*
X171896493Y-77479524D01*
X171700257Y-77632261D01*
X171531833Y-77815217D01*
X171395826Y-78023393D01*
X171295936Y-78251118D01*
X171234892Y-78492175D01*
X171234890Y-78492187D01*
X171214357Y-78739994D01*
X171214357Y-78740005D01*
X171234890Y-78987812D01*
X171234892Y-78987824D01*
X171295936Y-79228881D01*
X171395826Y-79456606D01*
X171531833Y-79664782D01*
X171564245Y-79699991D01*
X171700256Y-79847738D01*
X171783008Y-79912147D01*
X171823821Y-79968857D01*
X171827496Y-80038630D01*
X171792864Y-80099313D01*
X171783014Y-80107848D01*
X171726759Y-80151634D01*
X171700257Y-80172261D01*
X171531833Y-80355217D01*
X171395826Y-80563393D01*
X171295936Y-80791118D01*
X171234892Y-81032175D01*
X171234890Y-81032187D01*
X171214357Y-81279994D01*
X171214357Y-81280005D01*
X171234890Y-81527812D01*
X171234892Y-81527824D01*
X171295936Y-81768881D01*
X171395826Y-81996606D01*
X171531833Y-82204782D01*
X171531836Y-82204785D01*
X171700256Y-82387738D01*
X171783008Y-82452147D01*
X171823821Y-82508857D01*
X171827496Y-82578630D01*
X171792864Y-82639313D01*
X171783014Y-82647848D01*
X171743441Y-82678650D01*
X171700257Y-82712261D01*
X171531833Y-82895217D01*
X171395826Y-83103393D01*
X171295936Y-83331118D01*
X171234892Y-83572175D01*
X171234890Y-83572187D01*
X171214357Y-83819994D01*
X171214357Y-83820005D01*
X171234890Y-84067812D01*
X171234892Y-84067824D01*
X171295936Y-84308881D01*
X171395826Y-84536606D01*
X171531833Y-84744782D01*
X171531836Y-84744785D01*
X171700256Y-84927738D01*
X171700259Y-84927740D01*
X171700262Y-84927743D01*
X171803743Y-85008286D01*
X171844556Y-85064996D01*
X171851343Y-85113823D01*
X171849941Y-85136389D01*
X172587466Y-85873913D01*
X172577685Y-85875320D01*
X172446900Y-85935048D01*
X172338239Y-86029202D01*
X172260507Y-86150156D01*
X172236923Y-86230475D01*
X171496564Y-85490116D01*
X171396267Y-85643632D01*
X171296412Y-85871282D01*
X171235387Y-86112261D01*
X171235385Y-86112270D01*
X171214859Y-86359994D01*
X171214859Y-86360005D01*
X171235385Y-86607729D01*
X171235387Y-86607738D01*
X171296412Y-86848717D01*
X171396266Y-87076364D01*
X171496564Y-87229882D01*
X172236923Y-86489523D01*
X172260507Y-86569844D01*
X172338239Y-86690798D01*
X172446900Y-86784952D01*
X172577685Y-86844680D01*
X172587466Y-86846086D01*
X171849942Y-87583609D01*
X171896768Y-87620055D01*
X171896770Y-87620056D01*
X172115385Y-87738364D01*
X172115396Y-87738369D01*
X172350506Y-87819083D01*
X172595707Y-87860000D01*
X172844293Y-87860000D01*
X173089493Y-87819083D01*
X173324603Y-87738369D01*
X173324614Y-87738364D01*
X173543228Y-87620057D01*
X173543231Y-87620055D01*
X173590056Y-87583609D01*
X172852533Y-86846086D01*
X172862315Y-86844680D01*
X172993100Y-86784952D01*
X173101761Y-86690798D01*
X173179493Y-86569844D01*
X173203076Y-86489524D01*
X173943434Y-87229882D01*
X174043731Y-87076369D01*
X174143587Y-86848717D01*
X174204612Y-86607738D01*
X174204614Y-86607729D01*
X174225141Y-86360005D01*
X174225141Y-86359994D01*
X174204614Y-86112270D01*
X174204612Y-86112261D01*
X174143587Y-85871282D01*
X174043731Y-85643630D01*
X173943434Y-85490116D01*
X173203076Y-86230475D01*
X173179493Y-86150156D01*
X173101761Y-86029202D01*
X172993100Y-85935048D01*
X172862315Y-85875320D01*
X172852534Y-85873913D01*
X173590056Y-85136390D01*
X173588655Y-85113825D01*
X173604147Y-85045694D01*
X173636250Y-85008290D01*
X173739744Y-84927738D01*
X173908164Y-84744785D01*
X174044173Y-84536607D01*
X174144063Y-84308881D01*
X174205108Y-84067821D01*
X174205799Y-84059487D01*
X174225643Y-83820005D01*
X174225643Y-83819994D01*
X174205109Y-83572187D01*
X174205108Y-83572183D01*
X174205108Y-83572179D01*
X174196954Y-83539981D01*
X174151136Y-83359050D01*
X174153760Y-83289230D01*
X174183658Y-83240930D01*
X188920127Y-68504462D01*
X188981448Y-68470979D01*
X189051140Y-68475963D01*
X189107073Y-68517835D01*
X189131382Y-68581905D01*
X189149892Y-68805289D01*
X189205388Y-69024439D01*
X189296198Y-69231466D01*
X189419842Y-69420716D01*
X189419850Y-69420727D01*
X189531121Y-69541598D01*
X189572954Y-69587040D01*
X189751351Y-69725893D01*
X189773017Y-69737618D01*
X189779165Y-69740945D01*
X189828755Y-69790165D01*
X189843863Y-69858382D01*
X189819692Y-69923937D01*
X189779165Y-69959055D01*
X189751352Y-69974106D01*
X189572955Y-70112959D01*
X189572950Y-70112963D01*
X189419850Y-70279272D01*
X189419842Y-70279283D01*
X189296198Y-70468533D01*
X189205388Y-70675560D01*
X189149892Y-70894710D01*
X189131225Y-71119993D01*
X189131225Y-71120006D01*
X189149892Y-71345289D01*
X189205388Y-71564439D01*
X189296198Y-71771466D01*
X189419842Y-71960716D01*
X189419850Y-71960727D01*
X189559621Y-72112557D01*
X189572954Y-72127040D01*
X189751351Y-72265893D01*
X189773930Y-72278112D01*
X189779165Y-72280945D01*
X189828755Y-72330165D01*
X189843863Y-72398382D01*
X189819692Y-72463937D01*
X189779165Y-72499055D01*
X189751352Y-72514106D01*
X189572955Y-72652959D01*
X189572950Y-72652963D01*
X189419850Y-72819272D01*
X189419842Y-72819283D01*
X189296198Y-73008533D01*
X189205388Y-73215560D01*
X189149892Y-73434710D01*
X189131225Y-73659993D01*
X189131225Y-73660006D01*
X189149892Y-73885289D01*
X189205388Y-74104439D01*
X189296198Y-74311466D01*
X189419842Y-74500716D01*
X189419850Y-74500727D01*
X189559194Y-74652093D01*
X189572954Y-74667040D01*
X189751351Y-74805893D01*
X189779165Y-74820945D01*
X189828755Y-74870165D01*
X189843863Y-74938382D01*
X189819692Y-75003937D01*
X189779165Y-75039055D01*
X189751352Y-75054106D01*
X189572955Y-75192959D01*
X189572950Y-75192963D01*
X189419850Y-75359272D01*
X189419842Y-75359283D01*
X189296198Y-75548533D01*
X189205388Y-75755560D01*
X189149892Y-75974710D01*
X189131225Y-76199993D01*
X189131225Y-76200006D01*
X189149892Y-76425289D01*
X189205388Y-76644439D01*
X189296198Y-76851466D01*
X189419842Y-77040716D01*
X189419850Y-77040727D01*
X189572950Y-77207036D01*
X189572954Y-77207040D01*
X189751351Y-77345893D01*
X189779165Y-77360945D01*
X189828755Y-77410165D01*
X189843863Y-77478382D01*
X189819692Y-77543937D01*
X189779165Y-77579055D01*
X189751352Y-77594106D01*
X189572955Y-77732959D01*
X189572950Y-77732963D01*
X189419850Y-77899272D01*
X189419842Y-77899283D01*
X189296198Y-78088533D01*
X189205388Y-78295560D01*
X189149892Y-78514710D01*
X189131225Y-78739993D01*
X189131225Y-78740006D01*
X189149892Y-78965289D01*
X189205388Y-79184439D01*
X189296198Y-79391466D01*
X189419842Y-79580716D01*
X189419850Y-79580727D01*
X189562451Y-79735631D01*
X189572954Y-79747040D01*
X189751351Y-79885893D01*
X189779165Y-79900945D01*
X189828755Y-79950165D01*
X189843863Y-80018382D01*
X189819692Y-80083937D01*
X189779165Y-80119055D01*
X189751352Y-80134106D01*
X189572955Y-80272959D01*
X189572950Y-80272963D01*
X189419850Y-80439272D01*
X189419842Y-80439283D01*
X189296198Y-80628533D01*
X189205388Y-80835560D01*
X189149892Y-81054710D01*
X189131225Y-81279993D01*
X189131225Y-81280006D01*
X189149892Y-81505289D01*
X189205388Y-81724439D01*
X189296198Y-81931466D01*
X189419842Y-82120716D01*
X189419850Y-82120727D01*
X189556878Y-82269577D01*
X189572954Y-82287040D01*
X189751351Y-82425893D01*
X189772884Y-82437546D01*
X189779165Y-82440945D01*
X189828755Y-82490165D01*
X189843863Y-82558382D01*
X189819692Y-82623937D01*
X189779165Y-82659054D01*
X189770866Y-82663545D01*
X189751352Y-82674106D01*
X189572955Y-82812959D01*
X189572950Y-82812963D01*
X189419850Y-82979272D01*
X189419842Y-82979283D01*
X189296198Y-83168533D01*
X189205388Y-83375560D01*
X189149892Y-83594710D01*
X189131225Y-83819993D01*
X189131225Y-83820006D01*
X189149892Y-84045289D01*
X189205388Y-84264439D01*
X189296198Y-84471466D01*
X189419842Y-84660716D01*
X189419850Y-84660727D01*
X189572950Y-84827036D01*
X189572954Y-84827040D01*
X189751351Y-84965893D01*
X189776711Y-84979617D01*
X189779165Y-84980945D01*
X189828755Y-85030165D01*
X189843863Y-85098382D01*
X189819692Y-85163937D01*
X189779165Y-85199054D01*
X189773017Y-85202382D01*
X189751352Y-85214106D01*
X189572955Y-85352959D01*
X189572950Y-85352963D01*
X189419850Y-85519272D01*
X189419842Y-85519283D01*
X189296198Y-85708533D01*
X189205388Y-85915560D01*
X189149892Y-86134710D01*
X189131225Y-86359993D01*
X189131225Y-86360006D01*
X189149892Y-86585289D01*
X189205388Y-86804439D01*
X189296198Y-87011466D01*
X189419842Y-87200716D01*
X189419850Y-87200727D01*
X189566516Y-87360047D01*
X189572954Y-87367040D01*
X189751351Y-87505893D01*
X189779165Y-87520945D01*
X189828755Y-87570165D01*
X189843863Y-87638382D01*
X189819692Y-87703937D01*
X189779165Y-87739055D01*
X189751352Y-87754106D01*
X189572955Y-87892959D01*
X189572950Y-87892963D01*
X189419850Y-88059272D01*
X189419842Y-88059283D01*
X189296198Y-88248533D01*
X189205388Y-88455560D01*
X189149892Y-88674710D01*
X189131225Y-88899993D01*
X189131225Y-88900006D01*
X189149892Y-89125289D01*
X189205390Y-89344445D01*
X189207053Y-89349289D01*
X189204930Y-89350017D01*
X189212655Y-89409937D01*
X189182705Y-89473062D01*
X189123382Y-89509975D01*
X189090188Y-89514500D01*
X167179002Y-89514500D01*
X167163385Y-89512776D01*
X167163358Y-89513062D01*
X167155596Y-89512327D01*
X167086468Y-89514500D01*
X167056915Y-89514500D01*
X167056194Y-89514590D01*
X167050022Y-89515369D01*
X167044210Y-89515826D01*
X166997637Y-89517290D01*
X166997634Y-89517291D01*
X166978391Y-89522881D01*
X166959348Y-89526825D01*
X166939469Y-89529336D01*
X166939468Y-89529337D01*
X166896143Y-89546490D01*
X166890617Y-89548382D01*
X166845873Y-89561383D01*
X166845869Y-89561385D01*
X166828630Y-89571580D01*
X166811163Y-89580137D01*
X166792534Y-89587512D01*
X166792532Y-89587513D01*
X166754829Y-89614906D01*
X166749947Y-89618112D01*
X166709845Y-89641828D01*
X166695673Y-89656000D01*
X166680888Y-89668628D01*
X166664677Y-89680407D01*
X166634974Y-89716310D01*
X166631042Y-89720631D01*
X150803558Y-105548114D01*
X150742235Y-105581599D01*
X150672543Y-105576615D01*
X150639716Y-105558287D01*
X150622817Y-105545134D01*
X150608649Y-105534107D01*
X150608646Y-105534105D01*
X150608643Y-105534103D01*
X150550481Y-105502627D01*
X150500891Y-105453407D01*
X150485500Y-105393573D01*
X150485500Y-104222742D01*
X150487224Y-104207122D01*
X150486939Y-104207095D01*
X150487673Y-104199333D01*
X150485500Y-104130172D01*
X150485500Y-104100656D01*
X150485500Y-104100650D01*
X150484631Y-104093779D01*
X150484173Y-104087952D01*
X150482710Y-104041373D01*
X150477119Y-104022130D01*
X150473173Y-104003078D01*
X150470664Y-103983208D01*
X150453504Y-103939867D01*
X150451624Y-103934379D01*
X150438618Y-103889610D01*
X150428422Y-103872370D01*
X150419861Y-103854894D01*
X150412487Y-103836270D01*
X150412486Y-103836268D01*
X150385079Y-103798545D01*
X150381888Y-103793686D01*
X150358172Y-103753583D01*
X150358165Y-103753574D01*
X150344006Y-103739415D01*
X150331368Y-103724619D01*
X150319594Y-103708413D01*
X150283688Y-103678709D01*
X150279376Y-103674786D01*
X135838892Y-89234302D01*
X135805407Y-89172979D01*
X135804736Y-89127258D01*
X135804586Y-89127245D01*
X135804715Y-89125846D01*
X135804686Y-89123826D01*
X135805110Y-89121551D01*
X135805115Y-89121536D01*
X135825643Y-88900000D01*
X135805115Y-88678464D01*
X135744229Y-88464472D01*
X135744224Y-88464461D01*
X135645061Y-88265316D01*
X135645056Y-88265308D01*
X135510979Y-88087761D01*
X135346562Y-87937876D01*
X135346560Y-87937874D01*
X135157404Y-87820754D01*
X135157398Y-87820752D01*
X135121882Y-87806993D01*
X134949940Y-87740382D01*
X134731243Y-87699500D01*
X134508757Y-87699500D01*
X134508753Y-87699500D01*
X134479688Y-87704933D01*
X134410174Y-87697901D01*
X134355496Y-87654402D01*
X134333015Y-87588248D01*
X134349869Y-87520441D01*
X134369221Y-87495367D01*
X140018877Y-81845712D01*
X140080199Y-81812228D01*
X140149891Y-81817212D01*
X140205824Y-81859084D01*
X140230241Y-81924548D01*
X140220113Y-81983204D01*
X140185937Y-82061118D01*
X140124892Y-82302175D01*
X140124890Y-82302187D01*
X140104357Y-82549994D01*
X140104357Y-82550005D01*
X140124890Y-82797812D01*
X140124892Y-82797824D01*
X140185936Y-83038881D01*
X140285826Y-83266606D01*
X140421833Y-83474782D01*
X140421836Y-83474785D01*
X140590256Y-83657738D01*
X140786491Y-83810474D01*
X141005190Y-83928828D01*
X141240386Y-84009571D01*
X141485665Y-84050500D01*
X141734335Y-84050500D01*
X141979614Y-84009571D01*
X142214810Y-83928828D01*
X142433509Y-83810474D01*
X142629744Y-83657738D01*
X142788771Y-83484988D01*
X142848657Y-83448999D01*
X142918495Y-83451099D01*
X142971228Y-83484988D01*
X143130256Y-83657738D01*
X143326491Y-83810474D01*
X143545190Y-83928828D01*
X143780386Y-84009571D01*
X144025665Y-84050500D01*
X144274335Y-84050500D01*
X144519614Y-84009571D01*
X144754810Y-83928828D01*
X144955895Y-83820006D01*
X158778225Y-83820006D01*
X158796892Y-84045289D01*
X158852388Y-84264439D01*
X158943198Y-84471466D01*
X159066842Y-84660716D01*
X159066850Y-84660727D01*
X159219950Y-84827036D01*
X159219954Y-84827040D01*
X159398351Y-84965893D01*
X159597169Y-85073488D01*
X159597172Y-85073489D01*
X159810982Y-85146890D01*
X159810984Y-85146890D01*
X159810986Y-85146891D01*
X160033967Y-85184100D01*
X160033968Y-85184100D01*
X160260032Y-85184100D01*
X160260033Y-85184100D01*
X160483014Y-85146891D01*
X160696831Y-85073488D01*
X160895649Y-84965893D01*
X161074046Y-84827040D01*
X161128435Y-84767957D01*
X161188320Y-84731969D01*
X161258158Y-84734069D01*
X161315774Y-84773593D01*
X161335845Y-84808609D01*
X161379602Y-84925928D01*
X161379606Y-84925935D01*
X161465852Y-85041144D01*
X161465855Y-85041147D01*
X161581064Y-85127393D01*
X161581071Y-85127397D01*
X161715917Y-85177691D01*
X161715916Y-85177691D01*
X161722844Y-85178435D01*
X161775527Y-85184100D01*
X163598472Y-85184099D01*
X163658083Y-85177691D01*
X163792931Y-85127396D01*
X163908146Y-85041146D01*
X163994396Y-84925931D01*
X164044691Y-84791083D01*
X164051100Y-84731473D01*
X164051099Y-82908528D01*
X164044691Y-82848917D01*
X164038154Y-82831391D01*
X163994397Y-82714071D01*
X163994393Y-82714064D01*
X163908147Y-82598855D01*
X163908144Y-82598852D01*
X163792935Y-82512606D01*
X163792928Y-82512602D01*
X163678016Y-82469743D01*
X163622082Y-82427872D01*
X163597665Y-82362408D01*
X163612517Y-82294135D01*
X163630113Y-82269586D01*
X163767156Y-82120719D01*
X163890802Y-81931465D01*
X163981611Y-81724441D01*
X164037107Y-81505293D01*
X164054414Y-81296430D01*
X164055775Y-81280006D01*
X164055775Y-81279993D01*
X164037107Y-81054710D01*
X164037107Y-81054707D01*
X163981611Y-80835559D01*
X163890802Y-80628535D01*
X163881231Y-80613886D01*
X163767157Y-80439283D01*
X163767149Y-80439272D01*
X163614049Y-80272963D01*
X163614048Y-80272962D01*
X163614046Y-80272960D01*
X163435649Y-80134107D01*
X163435647Y-80134106D01*
X163435646Y-80134105D01*
X163435639Y-80134100D01*
X163407836Y-80119055D01*
X163358244Y-80069837D01*
X163343135Y-80001620D01*
X163367306Y-79936064D01*
X163407836Y-79900945D01*
X163435639Y-79885899D01*
X163435642Y-79885896D01*
X163435649Y-79885893D01*
X163614046Y-79747040D01*
X163738059Y-79612327D01*
X163767149Y-79580727D01*
X163767151Y-79580724D01*
X163767156Y-79580719D01*
X163890802Y-79391465D01*
X163981611Y-79184441D01*
X164037107Y-78965293D01*
X164055775Y-78740000D01*
X164055775Y-78739994D01*
X164055775Y-78739993D01*
X164037107Y-78514710D01*
X164037107Y-78514707D01*
X163981611Y-78295559D01*
X163890802Y-78088535D01*
X163767156Y-77899281D01*
X163767153Y-77899278D01*
X163767149Y-77899272D01*
X163614049Y-77732963D01*
X163614048Y-77732962D01*
X163614046Y-77732960D01*
X163435649Y-77594107D01*
X163283772Y-77511915D01*
X163236832Y-77486512D01*
X163236827Y-77486510D01*
X163023017Y-77413109D01*
X162855778Y-77385202D01*
X162800033Y-77375900D01*
X162573967Y-77375900D01*
X162529370Y-77383341D01*
X162350982Y-77413109D01*
X162137172Y-77486510D01*
X162137167Y-77486512D01*
X161938352Y-77594106D01*
X161759955Y-77732959D01*
X161759950Y-77732963D01*
X161606850Y-77899272D01*
X161606842Y-77899283D01*
X161520808Y-78030968D01*
X161467662Y-78076325D01*
X161398430Y-78085748D01*
X161335095Y-78056246D01*
X161313192Y-78030968D01*
X161227157Y-77899283D01*
X161227149Y-77899272D01*
X161074049Y-77732963D01*
X161074048Y-77732962D01*
X161074046Y-77732960D01*
X160895649Y-77594107D01*
X160743772Y-77511915D01*
X160696832Y-77486512D01*
X160696827Y-77486510D01*
X160483017Y-77413109D01*
X160315778Y-77385202D01*
X160260033Y-77375900D01*
X160033967Y-77375900D01*
X159989370Y-77383341D01*
X159810982Y-77413109D01*
X159597172Y-77486510D01*
X159597167Y-77486512D01*
X159398352Y-77594106D01*
X159219955Y-77732959D01*
X159219950Y-77732963D01*
X159066850Y-77899272D01*
X159066842Y-77899283D01*
X158943198Y-78088533D01*
X158852388Y-78295560D01*
X158796892Y-78514710D01*
X158778225Y-78739993D01*
X158778225Y-78740006D01*
X158796892Y-78965289D01*
X158852388Y-79184439D01*
X158943198Y-79391466D01*
X159066842Y-79580716D01*
X159066850Y-79580727D01*
X159209451Y-79735631D01*
X159219954Y-79747040D01*
X159398351Y-79885893D01*
X159426165Y-79900945D01*
X159475755Y-79950165D01*
X159490863Y-80018382D01*
X159466692Y-80083937D01*
X159426165Y-80119055D01*
X159398352Y-80134106D01*
X159219955Y-80272959D01*
X159219950Y-80272963D01*
X159066850Y-80439272D01*
X159066842Y-80439283D01*
X158943198Y-80628533D01*
X158852388Y-80835560D01*
X158796892Y-81054710D01*
X158778225Y-81279993D01*
X158778225Y-81280006D01*
X158796892Y-81505289D01*
X158852388Y-81724439D01*
X158943198Y-81931466D01*
X159066842Y-82120716D01*
X159066850Y-82120727D01*
X159203878Y-82269577D01*
X159219954Y-82287040D01*
X159398351Y-82425893D01*
X159419884Y-82437546D01*
X159426165Y-82440945D01*
X159475755Y-82490165D01*
X159490863Y-82558382D01*
X159466692Y-82623937D01*
X159426165Y-82659054D01*
X159417866Y-82663545D01*
X159398352Y-82674106D01*
X159219955Y-82812959D01*
X159219950Y-82812963D01*
X159066850Y-82979272D01*
X159066842Y-82979283D01*
X158943198Y-83168533D01*
X158852388Y-83375560D01*
X158796892Y-83594710D01*
X158778225Y-83819993D01*
X158778225Y-83820006D01*
X144955895Y-83820006D01*
X144973509Y-83810474D01*
X145169744Y-83657738D01*
X145338164Y-83474785D01*
X145474173Y-83266607D01*
X145574063Y-83038881D01*
X145635108Y-82797821D01*
X145639837Y-82740752D01*
X145655643Y-82550005D01*
X145655643Y-82549994D01*
X145635109Y-82302187D01*
X145635107Y-82302175D01*
X145574063Y-82061118D01*
X145474173Y-81833393D01*
X145338166Y-81625217D01*
X145248509Y-81527824D01*
X145169744Y-81442262D01*
X144973509Y-81289526D01*
X144973507Y-81289525D01*
X144973506Y-81289524D01*
X144754811Y-81171172D01*
X144754802Y-81171169D01*
X144519616Y-81090429D01*
X144274335Y-81049500D01*
X144025665Y-81049500D01*
X143780383Y-81090429D01*
X143545197Y-81171169D01*
X143545188Y-81171172D01*
X143326493Y-81289524D01*
X143130257Y-81442261D01*
X142971230Y-81615010D01*
X142911342Y-81651001D01*
X142841504Y-81648900D01*
X142788770Y-81615010D01*
X142708509Y-81527824D01*
X142629744Y-81442262D01*
X142433509Y-81289526D01*
X142433507Y-81289525D01*
X142433506Y-81289524D01*
X142214811Y-81171172D01*
X142214802Y-81171169D01*
X141979616Y-81090429D01*
X141734335Y-81049500D01*
X141485665Y-81049500D01*
X141240383Y-81090429D01*
X141037372Y-81160123D01*
X140967573Y-81163273D01*
X140907152Y-81128187D01*
X140875291Y-81066004D01*
X140882107Y-80996468D01*
X140909426Y-80955162D01*
X148136826Y-73727763D01*
X160705787Y-73727763D01*
X160735413Y-73997013D01*
X160735415Y-73997024D01*
X160796323Y-74229999D01*
X160803928Y-74259088D01*
X160909870Y-74508390D01*
X160981998Y-74626575D01*
X161050979Y-74739605D01*
X161050986Y-74739615D01*
X161224253Y-74947819D01*
X161224259Y-74947824D01*
X161342879Y-75054107D01*
X161425998Y-75128582D01*
X161651910Y-75278044D01*
X161897176Y-75393020D01*
X161897183Y-75393022D01*
X161897185Y-75393023D01*
X162156557Y-75471057D01*
X162156564Y-75471058D01*
X162156569Y-75471060D01*
X162424561Y-75510500D01*
X162424566Y-75510500D01*
X162627636Y-75510500D01*
X162679133Y-75506730D01*
X162830156Y-75495677D01*
X162988071Y-75460500D01*
X163094546Y-75436782D01*
X163094548Y-75436781D01*
X163094553Y-75436780D01*
X163347558Y-75340014D01*
X163583777Y-75207441D01*
X163798177Y-75041888D01*
X163986186Y-74846881D01*
X164143799Y-74626579D01*
X164217787Y-74482669D01*
X164267649Y-74385690D01*
X164267651Y-74385684D01*
X164267656Y-74385675D01*
X164355118Y-74129305D01*
X164404319Y-73862933D01*
X164414212Y-73592235D01*
X164384586Y-73322982D01*
X164316072Y-73060912D01*
X164210130Y-72811610D01*
X164069018Y-72580390D01*
X164013857Y-72514107D01*
X163895746Y-72372180D01*
X163895740Y-72372175D01*
X163694002Y-72191418D01*
X163468092Y-72041957D01*
X163468090Y-72041956D01*
X163222824Y-71926980D01*
X163222819Y-71926978D01*
X163222814Y-71926976D01*
X162963442Y-71848942D01*
X162963428Y-71848939D01*
X162847791Y-71831921D01*
X162695439Y-71809500D01*
X162492369Y-71809500D01*
X162492364Y-71809500D01*
X162289844Y-71824323D01*
X162289831Y-71824325D01*
X162025453Y-71883217D01*
X162025446Y-71883220D01*
X161772439Y-71979987D01*
X161536226Y-72112557D01*
X161536224Y-72112558D01*
X161536223Y-72112559D01*
X161473893Y-72160688D01*
X161321822Y-72278112D01*
X161133822Y-72473109D01*
X161133816Y-72473116D01*
X160976202Y-72693419D01*
X160976199Y-72693424D01*
X160852350Y-72934309D01*
X160852343Y-72934327D01*
X160764884Y-73190685D01*
X160764882Y-73190695D01*
X160722167Y-73421955D01*
X160715681Y-73457068D01*
X160715680Y-73457075D01*
X160705787Y-73727763D01*
X148136826Y-73727763D01*
X156657772Y-65206819D01*
X156719095Y-65173334D01*
X156745453Y-65170500D01*
X176672257Y-65170500D01*
X176687877Y-65172224D01*
X176687904Y-65171939D01*
X176695660Y-65172671D01*
X176695667Y-65172673D01*
X176764814Y-65170500D01*
X176794350Y-65170500D01*
X176801228Y-65169630D01*
X176807041Y-65169172D01*
X176853627Y-65167709D01*
X176872869Y-65162117D01*
X176891912Y-65158174D01*
X176911792Y-65155664D01*
X176955122Y-65138507D01*
X176960646Y-65136617D01*
X176964396Y-65135527D01*
X177005390Y-65123618D01*
X177022629Y-65113422D01*
X177040103Y-65104862D01*
X177058727Y-65097488D01*
X177058727Y-65097487D01*
X177058732Y-65097486D01*
X177096449Y-65070082D01*
X177101305Y-65066892D01*
X177141420Y-65043170D01*
X177155589Y-65028999D01*
X177170379Y-65016368D01*
X177186587Y-65004594D01*
X177216299Y-64968676D01*
X177220212Y-64964376D01*
X177450498Y-64734090D01*
X177511819Y-64700607D01*
X177570272Y-64701998D01*
X177587253Y-64706549D01*
X177762772Y-64721904D01*
X177799998Y-64725162D01*
X177800000Y-64725162D01*
X177800002Y-64725162D01*
X177853186Y-64720508D01*
X178012747Y-64706549D01*
X178219030Y-64651276D01*
X178412581Y-64561021D01*
X178587519Y-64438529D01*
X178738529Y-64287519D01*
X178861021Y-64112581D01*
X178951276Y-63919030D01*
X178951280Y-63919013D01*
X178953130Y-63913936D01*
X178955253Y-63914709D01*
X178986576Y-63863305D01*
X179049419Y-63832766D01*
X179118796Y-63841050D01*
X179172680Y-63885528D01*
X179185827Y-63914315D01*
X179186870Y-63913936D01*
X179188722Y-63919022D01*
X179188724Y-63919030D01*
X179226737Y-64000548D01*
X179278977Y-64112578D01*
X179401472Y-64287521D01*
X179552478Y-64438527D01*
X179552481Y-64438529D01*
X179727419Y-64561021D01*
X179727421Y-64561022D01*
X179727420Y-64561022D01*
X179791936Y-64591106D01*
X179920970Y-64651276D01*
X180127253Y-64706549D01*
X180279215Y-64719844D01*
X180339998Y-64725162D01*
X180340000Y-64725162D01*
X180340002Y-64725162D01*
X180393186Y-64720508D01*
X180552747Y-64706549D01*
X180759030Y-64651276D01*
X180952581Y-64561021D01*
X181127519Y-64438529D01*
X181278529Y-64287519D01*
X181401021Y-64112581D01*
X181491276Y-63919030D01*
X181546549Y-63712747D01*
X181562503Y-63530392D01*
X181565162Y-63500001D01*
X181565162Y-63499998D01*
X181546549Y-63287258D01*
X181546549Y-63287253D01*
X181491276Y-63080970D01*
X181401021Y-62887419D01*
X181281415Y-62716602D01*
X181278527Y-62712478D01*
X181127521Y-62561472D01*
X180952578Y-62438977D01*
X180952579Y-62438977D01*
X180823547Y-62378809D01*
X180759030Y-62348724D01*
X180759026Y-62348723D01*
X180759022Y-62348721D01*
X180552752Y-62293452D01*
X180552748Y-62293451D01*
X180552747Y-62293451D01*
X180552746Y-62293450D01*
X180552741Y-62293450D01*
X180340002Y-62274838D01*
X180339998Y-62274838D01*
X180127258Y-62293450D01*
X180127247Y-62293452D01*
X179920977Y-62348721D01*
X179920968Y-62348725D01*
X179727421Y-62438977D01*
X179552478Y-62561472D01*
X179401472Y-62712478D01*
X179278977Y-62887421D01*
X179215805Y-63022894D01*
X179190898Y-63076309D01*
X179188725Y-63080968D01*
X179186870Y-63086064D01*
X179184749Y-63085292D01*
X179153406Y-63136710D01*
X179090558Y-63167237D01*
X179021183Y-63158939D01*
X178967307Y-63114452D01*
X178954169Y-63085685D01*
X178953130Y-63086064D01*
X178951279Y-63080983D01*
X178951276Y-63080970D01*
X178861021Y-62887419D01*
X178741415Y-62716602D01*
X178738527Y-62712478D01*
X178587521Y-62561472D01*
X178412578Y-62438977D01*
X178412579Y-62438977D01*
X178283547Y-62378809D01*
X178219030Y-62348724D01*
X178219026Y-62348723D01*
X178219022Y-62348721D01*
X178012752Y-62293452D01*
X178012748Y-62293451D01*
X178012747Y-62293451D01*
X178012746Y-62293450D01*
X178012741Y-62293450D01*
X177800002Y-62274838D01*
X177799998Y-62274838D01*
X177587258Y-62293450D01*
X177587247Y-62293452D01*
X177380977Y-62348721D01*
X177380968Y-62348725D01*
X177187421Y-62438977D01*
X177012478Y-62561472D01*
X176861472Y-62712478D01*
X176738977Y-62887421D01*
X176675805Y-63022894D01*
X176650898Y-63076309D01*
X176648725Y-63080968D01*
X176646870Y-63086064D01*
X176644749Y-63085292D01*
X176613406Y-63136710D01*
X176550558Y-63167237D01*
X176481183Y-63158939D01*
X176427307Y-63114452D01*
X176414169Y-63085685D01*
X176413130Y-63086064D01*
X176411279Y-63080983D01*
X176411276Y-63080970D01*
X176321021Y-62887419D01*
X176201415Y-62716602D01*
X176198527Y-62712478D01*
X176047521Y-62561472D01*
X175872578Y-62438977D01*
X175872579Y-62438977D01*
X175743547Y-62378809D01*
X175679030Y-62348724D01*
X175679026Y-62348723D01*
X175679022Y-62348721D01*
X175472752Y-62293452D01*
X175472748Y-62293451D01*
X175472747Y-62293451D01*
X175472746Y-62293450D01*
X175472741Y-62293450D01*
X175260002Y-62274838D01*
X175259998Y-62274838D01*
X175047258Y-62293450D01*
X175047247Y-62293452D01*
X174840977Y-62348721D01*
X174840968Y-62348725D01*
X174647421Y-62438977D01*
X174472478Y-62561472D01*
X174321471Y-62712479D01*
X174245049Y-62821623D01*
X174190472Y-62865248D01*
X174143474Y-62874500D01*
X155022743Y-62874500D01*
X155007122Y-62872775D01*
X155007095Y-62873061D01*
X154999333Y-62872326D01*
X154930172Y-62874500D01*
X154900649Y-62874500D01*
X154893778Y-62875367D01*
X154887959Y-62875825D01*
X154841374Y-62877289D01*
X154841368Y-62877290D01*
X154822126Y-62882880D01*
X154803087Y-62886823D01*
X154783217Y-62889334D01*
X154783203Y-62889337D01*
X154739883Y-62906488D01*
X154734358Y-62908380D01*
X154689613Y-62921380D01*
X154689610Y-62921381D01*
X154672366Y-62931579D01*
X154654905Y-62940133D01*
X154636274Y-62947510D01*
X154636262Y-62947517D01*
X154598570Y-62974902D01*
X154593687Y-62978109D01*
X154553580Y-63001829D01*
X154539414Y-63015995D01*
X154524624Y-63028627D01*
X154508414Y-63040404D01*
X154508411Y-63040407D01*
X154478710Y-63076309D01*
X154474777Y-63080631D01*
X134949892Y-82605515D01*
X134888569Y-82639000D01*
X134839426Y-82639722D01*
X134731243Y-82619500D01*
X134508757Y-82619500D01*
X134290060Y-82660382D01*
X134158864Y-82711207D01*
X134082601Y-82740752D01*
X134082595Y-82740754D01*
X133893439Y-82857874D01*
X133893437Y-82857876D01*
X133729020Y-83007761D01*
X133594943Y-83185308D01*
X133594938Y-83185316D01*
X133495775Y-83384461D01*
X133495769Y-83384476D01*
X133434885Y-83598462D01*
X133434884Y-83598464D01*
X133414357Y-83819999D01*
X133414357Y-83820000D01*
X133434884Y-84041535D01*
X133434885Y-84041537D01*
X133495769Y-84255523D01*
X133495775Y-84255538D01*
X133594938Y-84454683D01*
X133594943Y-84454691D01*
X133729020Y-84632238D01*
X133893437Y-84782123D01*
X133893439Y-84782125D01*
X134082595Y-84899245D01*
X134082596Y-84899245D01*
X134082599Y-84899247D01*
X134290060Y-84979618D01*
X134508757Y-85020500D01*
X134508759Y-85020500D01*
X134731242Y-85020500D01*
X134731243Y-85020500D01*
X134760305Y-85015067D01*
X134829817Y-85022096D01*
X134884497Y-85065592D01*
X134906981Y-85131745D01*
X134890130Y-85199552D01*
X134870771Y-85224636D01*
X132513729Y-87581678D01*
X132501472Y-87591499D01*
X132501655Y-87591720D01*
X132495644Y-87596692D01*
X132448293Y-87647115D01*
X132427410Y-87667998D01*
X132427398Y-87668011D01*
X132423142Y-87673496D01*
X132419358Y-87677926D01*
X132387458Y-87711897D01*
X132387457Y-87711899D01*
X132377805Y-87729455D01*
X132367131Y-87745705D01*
X132354850Y-87761540D01*
X132354845Y-87761547D01*
X132336336Y-87804317D01*
X132333766Y-87809563D01*
X132311324Y-87850385D01*
X132306343Y-87869786D01*
X132300042Y-87888189D01*
X132292083Y-87906581D01*
X132292082Y-87906584D01*
X132284792Y-87952606D01*
X132283608Y-87958325D01*
X132272022Y-88003451D01*
X132272021Y-88003461D01*
X132272021Y-88023495D01*
X132270494Y-88042894D01*
X132267361Y-88062673D01*
X132267361Y-88062674D01*
X132271746Y-88109062D01*
X132272021Y-88114900D01*
X132272021Y-90493841D01*
X132270296Y-90509458D01*
X132270582Y-90509485D01*
X132269847Y-90517251D01*
X132272021Y-90586400D01*
X132272021Y-90615929D01*
X132272022Y-90615946D01*
X132272889Y-90622817D01*
X132273347Y-90628636D01*
X132274811Y-90675210D01*
X132274812Y-90675213D01*
X132280401Y-90694453D01*
X132284345Y-90713497D01*
X132286857Y-90733378D01*
X132299575Y-90765500D01*
X132304011Y-90776705D01*
X132305903Y-90782233D01*
X132318902Y-90826974D01*
X132329101Y-90844220D01*
X132337657Y-90861686D01*
X132345035Y-90880318D01*
X132367146Y-90910752D01*
X132372419Y-90918009D01*
X132375627Y-90922893D01*
X132399348Y-90963002D01*
X132399354Y-90963010D01*
X132413511Y-90977166D01*
X132426149Y-90991962D01*
X132437926Y-91008172D01*
X132437927Y-91008173D01*
X132473830Y-91037874D01*
X132478141Y-91041796D01*
X133320784Y-91884439D01*
X134131471Y-92695126D01*
X134164956Y-92756449D01*
X134159972Y-92826141D01*
X134118100Y-92882074D01*
X134088596Y-92898429D01*
X134082601Y-92900751D01*
X134082595Y-92900755D01*
X133893439Y-93017874D01*
X133893437Y-93017876D01*
X133729020Y-93167762D01*
X133605689Y-93331078D01*
X133549580Y-93372714D01*
X133479868Y-93377405D01*
X133419054Y-93344032D01*
X130040803Y-89965781D01*
X130030980Y-89953519D01*
X130030759Y-89953703D01*
X130025786Y-89947692D01*
X129975364Y-89900342D01*
X129964919Y-89889897D01*
X129954475Y-89879452D01*
X129950470Y-89876345D01*
X129948984Y-89875193D01*
X129944561Y-89871416D01*
X129910582Y-89839507D01*
X129910580Y-89839505D01*
X129910577Y-89839504D01*
X129893029Y-89829857D01*
X129876763Y-89819173D01*
X129860933Y-89806894D01*
X129818168Y-89788387D01*
X129812922Y-89785817D01*
X129772093Y-89763372D01*
X129772092Y-89763371D01*
X129752693Y-89758391D01*
X129734281Y-89752087D01*
X129715898Y-89744131D01*
X129715892Y-89744129D01*
X129669874Y-89736841D01*
X129664152Y-89735656D01*
X129619021Y-89724069D01*
X129619019Y-89724069D01*
X129598984Y-89724069D01*
X129579586Y-89722542D01*
X129567520Y-89720631D01*
X129559805Y-89719409D01*
X129559804Y-89719409D01*
X129513416Y-89723794D01*
X129507578Y-89724069D01*
X128130422Y-89724069D01*
X128063383Y-89704384D01*
X128017628Y-89651580D01*
X128007684Y-89582422D01*
X128023065Y-89540101D01*
X128022503Y-89539821D01*
X128024962Y-89534882D01*
X128024995Y-89534792D01*
X128025057Y-89534691D01*
X128124224Y-89335538D01*
X128124223Y-89335538D01*
X128124229Y-89335528D01*
X128185115Y-89121536D01*
X128205643Y-88900000D01*
X128185115Y-88678464D01*
X128124229Y-88464472D01*
X128124224Y-88464461D01*
X128025061Y-88265316D01*
X128025056Y-88265308D01*
X127890979Y-88087761D01*
X127726562Y-87937876D01*
X127726560Y-87937874D01*
X127537404Y-87820754D01*
X127537398Y-87820752D01*
X127501882Y-87806993D01*
X127329940Y-87740382D01*
X127111243Y-87699500D01*
X126888757Y-87699500D01*
X126832172Y-87710077D01*
X126780570Y-87719723D01*
X126711055Y-87712691D01*
X126670105Y-87685515D01*
X125189245Y-86204655D01*
X123811471Y-84826880D01*
X126346672Y-84826880D01*
X126462821Y-84898797D01*
X126462822Y-84898798D01*
X126670195Y-84979134D01*
X126888807Y-85020000D01*
X127111193Y-85020000D01*
X127329809Y-84979133D01*
X127537168Y-84898801D01*
X127537181Y-84898795D01*
X127653326Y-84826879D01*
X127000001Y-84173553D01*
X127000000Y-84173553D01*
X126346672Y-84826879D01*
X126346672Y-84826880D01*
X123811471Y-84826880D01*
X123706819Y-84722228D01*
X123673334Y-84660905D01*
X123670500Y-84634547D01*
X123670500Y-83820000D01*
X125794859Y-83820000D01*
X125815378Y-84041439D01*
X125876240Y-84255350D01*
X125975369Y-84454428D01*
X125991137Y-84475308D01*
X125991138Y-84475308D01*
X126617145Y-83849302D01*
X126646372Y-83849302D01*
X126675047Y-83962538D01*
X126738936Y-84060327D01*
X126831115Y-84132072D01*
X126941595Y-84170000D01*
X127029005Y-84170000D01*
X127115216Y-84155614D01*
X127217947Y-84100019D01*
X127297060Y-84014079D01*
X127343982Y-83907108D01*
X127351200Y-83820000D01*
X127353553Y-83820000D01*
X128008861Y-84475308D01*
X128024631Y-84454425D01*
X128024633Y-84454422D01*
X128123759Y-84255350D01*
X128184621Y-84041439D01*
X128205141Y-83820000D01*
X128205141Y-83819999D01*
X128184621Y-83598560D01*
X128123759Y-83384649D01*
X128024635Y-83185580D01*
X128024630Y-83185572D01*
X128008860Y-83164690D01*
X127353553Y-83819999D01*
X127353553Y-83820000D01*
X127351200Y-83820000D01*
X127353628Y-83790698D01*
X127324953Y-83677462D01*
X127261064Y-83579673D01*
X127168885Y-83507928D01*
X127058405Y-83470000D01*
X126970995Y-83470000D01*
X126884784Y-83484386D01*
X126782053Y-83539981D01*
X126702940Y-83625921D01*
X126656018Y-83732892D01*
X126646372Y-83849302D01*
X126617145Y-83849302D01*
X126646447Y-83820000D01*
X125991138Y-83164691D01*
X125991137Y-83164691D01*
X125975368Y-83185574D01*
X125876240Y-83384649D01*
X125815378Y-83598560D01*
X125794859Y-83819999D01*
X125794859Y-83820000D01*
X123670500Y-83820000D01*
X123670500Y-82813119D01*
X126346671Y-82813119D01*
X127000000Y-83466447D01*
X127000001Y-83466447D01*
X127653327Y-82813119D01*
X127537178Y-82741202D01*
X127537177Y-82741201D01*
X127329804Y-82660865D01*
X127111193Y-82620000D01*
X126888807Y-82620000D01*
X126670195Y-82660865D01*
X126462824Y-82741200D01*
X126462823Y-82741201D01*
X126346671Y-82813119D01*
X123670500Y-82813119D01*
X123670500Y-80896746D01*
X123672224Y-80881132D01*
X123671938Y-80881105D01*
X123672672Y-80873342D01*
X123670500Y-80804211D01*
X123670500Y-80774660D01*
X123670500Y-80774659D01*
X123669629Y-80767768D01*
X123669172Y-80761954D01*
X123667709Y-80715383D01*
X123667709Y-80715381D01*
X123662120Y-80696146D01*
X123658174Y-80677093D01*
X123655664Y-80657217D01*
X123638501Y-80613868D01*
X123636614Y-80608355D01*
X123623617Y-80563619D01*
X123623616Y-80563617D01*
X123613421Y-80546378D01*
X123604860Y-80528902D01*
X123597486Y-80510278D01*
X123597486Y-80510276D01*
X123587474Y-80496497D01*
X123570083Y-80472559D01*
X123566900Y-80467714D01*
X123543170Y-80427588D01*
X123543165Y-80427582D01*
X123529005Y-80413422D01*
X123516370Y-80398629D01*
X123504593Y-80382421D01*
X123468693Y-80352722D01*
X123464381Y-80348799D01*
X122886794Y-79771212D01*
X122876971Y-79758950D01*
X122876750Y-79759134D01*
X122871777Y-79753123D01*
X122853150Y-79735631D01*
X122821355Y-79705773D01*
X122810910Y-79695328D01*
X122800466Y-79684883D01*
X122794977Y-79680625D01*
X122790552Y-79676847D01*
X122756573Y-79644938D01*
X122756571Y-79644936D01*
X122756568Y-79644935D01*
X122739020Y-79635288D01*
X122722754Y-79624604D01*
X122706924Y-79612325D01*
X122664159Y-79593818D01*
X122658913Y-79591248D01*
X122618084Y-79568803D01*
X122618083Y-79568802D01*
X122598684Y-79563822D01*
X122580272Y-79557518D01*
X122561889Y-79549562D01*
X122561883Y-79549560D01*
X122515865Y-79542272D01*
X122510143Y-79541087D01*
X122465012Y-79529500D01*
X122465010Y-79529500D01*
X122444975Y-79529500D01*
X122425577Y-79527973D01*
X122418153Y-79526797D01*
X122405796Y-79524840D01*
X122405795Y-79524840D01*
X122359407Y-79529225D01*
X122353569Y-79529500D01*
X121536752Y-79529500D01*
X121521131Y-79527775D01*
X121521104Y-79528061D01*
X121513342Y-79527326D01*
X121444181Y-79529500D01*
X121414658Y-79529500D01*
X121407787Y-79530367D01*
X121401968Y-79530825D01*
X121355383Y-79532289D01*
X121355377Y-79532290D01*
X121336135Y-79537880D01*
X121317096Y-79541823D01*
X121297226Y-79544334D01*
X121297212Y-79544337D01*
X121253892Y-79561488D01*
X121248367Y-79563380D01*
X121203622Y-79576380D01*
X121203619Y-79576381D01*
X121186375Y-79586579D01*
X121168914Y-79595133D01*
X121150283Y-79602510D01*
X121150271Y-79602517D01*
X121112579Y-79629902D01*
X121107696Y-79633109D01*
X121067589Y-79656829D01*
X121053423Y-79670995D01*
X121038633Y-79683627D01*
X121022423Y-79695404D01*
X121022420Y-79695407D01*
X120992719Y-79731309D01*
X120988786Y-79735631D01*
X119961208Y-80763208D01*
X119948951Y-80773029D01*
X119949134Y-80773250D01*
X119943123Y-80778222D01*
X119895772Y-80828645D01*
X119874889Y-80849528D01*
X119874877Y-80849541D01*
X119870621Y-80855026D01*
X119866837Y-80859456D01*
X119834937Y-80893427D01*
X119834936Y-80893429D01*
X119825284Y-80910985D01*
X119814610Y-80927235D01*
X119802329Y-80943070D01*
X119802324Y-80943077D01*
X119783815Y-80985847D01*
X119781245Y-80991093D01*
X119758803Y-81031915D01*
X119753822Y-81051316D01*
X119747521Y-81069719D01*
X119739562Y-81088111D01*
X119739561Y-81088114D01*
X119732271Y-81134136D01*
X119731087Y-81139855D01*
X119719501Y-81184981D01*
X119719500Y-81184991D01*
X119719500Y-81205025D01*
X119717973Y-81224424D01*
X119714840Y-81244203D01*
X119714840Y-81244204D01*
X119719225Y-81290592D01*
X119719500Y-81296430D01*
X119719500Y-90595547D01*
X119699815Y-90662586D01*
X119647011Y-90708341D01*
X119577853Y-90718285D01*
X119514297Y-90689260D01*
X119507819Y-90683228D01*
X115599413Y-86774822D01*
X115565928Y-86713499D01*
X115567319Y-86655048D01*
X115574291Y-86629028D01*
X115585635Y-86586692D01*
X115602634Y-86392384D01*
X115605468Y-86360001D01*
X115605468Y-86359998D01*
X115599179Y-86288111D01*
X115585635Y-86133308D01*
X115526739Y-85913504D01*
X115430568Y-85707266D01*
X115300047Y-85520861D01*
X115300045Y-85520858D01*
X115139141Y-85359954D01*
X114952734Y-85229432D01*
X114952728Y-85229429D01*
X114919870Y-85214107D01*
X114894724Y-85202381D01*
X114842285Y-85156210D01*
X114823133Y-85089017D01*
X114843348Y-85022135D01*
X114894725Y-84977618D01*
X114952734Y-84950568D01*
X115139139Y-84820047D01*
X115300047Y-84659139D01*
X115430568Y-84472734D01*
X115526739Y-84266496D01*
X115585635Y-84046692D01*
X115602904Y-83849302D01*
X115605468Y-83820001D01*
X115605468Y-83819998D01*
X115597847Y-83732892D01*
X115585635Y-83593308D01*
X115526739Y-83373504D01*
X115430568Y-83167266D01*
X115300047Y-82980861D01*
X115300045Y-82980858D01*
X115139143Y-82819956D01*
X115114536Y-82802726D01*
X115070912Y-82748149D01*
X115063719Y-82678650D01*
X115095241Y-82616296D01*
X115155471Y-82580882D01*
X115172404Y-82577861D01*
X115207483Y-82574091D01*
X115342331Y-82523796D01*
X115457546Y-82437546D01*
X115543796Y-82322331D01*
X115594091Y-82187483D01*
X115600500Y-82127873D01*
X115600499Y-80432128D01*
X115594091Y-80372517D01*
X115586013Y-80350860D01*
X115543797Y-80237671D01*
X115543793Y-80237664D01*
X115457547Y-80122455D01*
X115457544Y-80122452D01*
X115342335Y-80036206D01*
X115342328Y-80036202D01*
X115207482Y-79985908D01*
X115207483Y-79985908D01*
X115147883Y-79979501D01*
X115147881Y-79979500D01*
X115147873Y-79979500D01*
X115147864Y-79979500D01*
X113452129Y-79979500D01*
X113452123Y-79979501D01*
X113392516Y-79985908D01*
X113257671Y-80036202D01*
X113257664Y-80036206D01*
X113142455Y-80122452D01*
X113142452Y-80122455D01*
X113056206Y-80237664D01*
X113056202Y-80237671D01*
X113005908Y-80372517D01*
X112999988Y-80427588D01*
X112999501Y-80432123D01*
X112999500Y-80432135D01*
X112999500Y-82127870D01*
X112999501Y-82127876D01*
X113005908Y-82187483D01*
X113056202Y-82322328D01*
X113056206Y-82322335D01*
X113142452Y-82437544D01*
X113142455Y-82437547D01*
X113257664Y-82523793D01*
X113257671Y-82523797D01*
X113302385Y-82540474D01*
X113392517Y-82574091D01*
X113427596Y-82577862D01*
X113492144Y-82604599D01*
X113531993Y-82661991D01*
X113534488Y-82731816D01*
X113498836Y-82791905D01*
X113485464Y-82802725D01*
X113460858Y-82819954D01*
X113299954Y-82980858D01*
X113169432Y-83167265D01*
X113169431Y-83167267D01*
X113073261Y-83373502D01*
X113073258Y-83373511D01*
X113014366Y-83593302D01*
X113014364Y-83593313D01*
X112994532Y-83819998D01*
X112994532Y-83820001D01*
X113014364Y-84046686D01*
X113014366Y-84046697D01*
X113073258Y-84266488D01*
X113073261Y-84266497D01*
X113169431Y-84472732D01*
X113169432Y-84472734D01*
X113299954Y-84659141D01*
X113460858Y-84820045D01*
X113483969Y-84836227D01*
X113647266Y-84950568D01*
X113705275Y-84977618D01*
X113757714Y-85023791D01*
X113776866Y-85090984D01*
X113756650Y-85157865D01*
X113705275Y-85202382D01*
X113647267Y-85229431D01*
X113647265Y-85229432D01*
X113460858Y-85359954D01*
X113299954Y-85520858D01*
X113169432Y-85707265D01*
X113169431Y-85707267D01*
X113073261Y-85913502D01*
X113073258Y-85913511D01*
X113014366Y-86133302D01*
X113014364Y-86133313D01*
X112994532Y-86359998D01*
X112994532Y-86360001D01*
X111760500Y-86360001D01*
X111760500Y-73777844D01*
X114170000Y-73777844D01*
X114176401Y-73837372D01*
X114176403Y-73837379D01*
X114226645Y-73972086D01*
X114226649Y-73972093D01*
X114312809Y-74087187D01*
X114312812Y-74087190D01*
X114427906Y-74173350D01*
X114427913Y-74173354D01*
X114562620Y-74223596D01*
X114562627Y-74223598D01*
X114622155Y-74229999D01*
X114622172Y-74230000D01*
X115320000Y-74230000D01*
X115320000Y-73204189D01*
X115372547Y-73240016D01*
X115502173Y-73280000D01*
X115603724Y-73280000D01*
X115704138Y-73264865D01*
X115820000Y-73209068D01*
X115820000Y-74230000D01*
X116517828Y-74230000D01*
X116517844Y-74229999D01*
X116577372Y-74223598D01*
X116577379Y-74223596D01*
X116712086Y-74173354D01*
X116712093Y-74173350D01*
X116827187Y-74087190D01*
X116827190Y-74087187D01*
X116913350Y-73972093D01*
X116913354Y-73972086D01*
X116963596Y-73837379D01*
X116963598Y-73837372D01*
X116969999Y-73777844D01*
X116970000Y-73777827D01*
X116970000Y-73080000D01*
X115945278Y-73080000D01*
X115993625Y-72996260D01*
X116023810Y-72864008D01*
X116021262Y-72830006D01*
X126864700Y-72830006D01*
X126883864Y-73061297D01*
X126883866Y-73061308D01*
X126940842Y-73286300D01*
X127034075Y-73498848D01*
X127161016Y-73693147D01*
X127161019Y-73693151D01*
X127161021Y-73693153D01*
X127318216Y-73863913D01*
X127318219Y-73863915D01*
X127318222Y-73863918D01*
X127501365Y-74006464D01*
X127501371Y-74006468D01*
X127501374Y-74006470D01*
X127705497Y-74116936D01*
X127819487Y-74156068D01*
X127925015Y-74192297D01*
X127925017Y-74192297D01*
X127925019Y-74192298D01*
X128153951Y-74230500D01*
X128153952Y-74230500D01*
X128386048Y-74230500D01*
X128386049Y-74230500D01*
X128614981Y-74192298D01*
X128615302Y-74192188D01*
X128670163Y-74173354D01*
X128834503Y-74116936D01*
X129038626Y-74006470D01*
X129050763Y-73997024D01*
X129100129Y-73958600D01*
X129221784Y-73863913D01*
X129378979Y-73693153D01*
X129505924Y-73498849D01*
X129599157Y-73286300D01*
X129656134Y-73061305D01*
X129660507Y-73008533D01*
X129675300Y-72830006D01*
X129675300Y-72829993D01*
X129656135Y-72598702D01*
X129656133Y-72598691D01*
X129599157Y-72373699D01*
X129505924Y-72161151D01*
X129378983Y-71966852D01*
X129378980Y-71966849D01*
X129378979Y-71966847D01*
X129221784Y-71796087D01*
X129221779Y-71796083D01*
X129221777Y-71796081D01*
X129038634Y-71653535D01*
X129038628Y-71653531D01*
X128834504Y-71543064D01*
X128834495Y-71543061D01*
X128614984Y-71467702D01*
X128427404Y-71436401D01*
X128386049Y-71429500D01*
X128153951Y-71429500D01*
X128112596Y-71436401D01*
X127925015Y-71467702D01*
X127705504Y-71543061D01*
X127705495Y-71543064D01*
X127501371Y-71653531D01*
X127501365Y-71653535D01*
X127318222Y-71796081D01*
X127318219Y-71796084D01*
X127161016Y-71966852D01*
X127034075Y-72161151D01*
X126940842Y-72373699D01*
X126883866Y-72598691D01*
X126883864Y-72598702D01*
X126864700Y-72829993D01*
X126864700Y-72830006D01*
X116021262Y-72830006D01*
X116013673Y-72728735D01*
X115964113Y-72602459D01*
X115946203Y-72580000D01*
X116970000Y-72580000D01*
X116970000Y-71882172D01*
X116969999Y-71882155D01*
X116963598Y-71822627D01*
X116963596Y-71822620D01*
X116913354Y-71687913D01*
X116913350Y-71687906D01*
X116827190Y-71572812D01*
X116827187Y-71572809D01*
X116712093Y-71486649D01*
X116712086Y-71486645D01*
X116577379Y-71436403D01*
X116577372Y-71436401D01*
X116517844Y-71430000D01*
X115820000Y-71430000D01*
X115820000Y-72455810D01*
X115767453Y-72419984D01*
X115637827Y-72380000D01*
X115536276Y-72380000D01*
X115435862Y-72395135D01*
X115320000Y-72450931D01*
X115320000Y-71430000D01*
X114622155Y-71430000D01*
X114562627Y-71436401D01*
X114562620Y-71436403D01*
X114427913Y-71486645D01*
X114427906Y-71486649D01*
X114312812Y-71572809D01*
X114312809Y-71572812D01*
X114226649Y-71687906D01*
X114226645Y-71687913D01*
X114176403Y-71822620D01*
X114176401Y-71822627D01*
X114170000Y-71882155D01*
X114170000Y-72580000D01*
X115194722Y-72580000D01*
X115146375Y-72663740D01*
X115116190Y-72795992D01*
X115126327Y-72931265D01*
X115175887Y-73057541D01*
X115193797Y-73080000D01*
X114170000Y-73080000D01*
X114170000Y-73777844D01*
X111760500Y-73777844D01*
X111760500Y-71120002D01*
X133364723Y-71120002D01*
X133383793Y-71337975D01*
X133383793Y-71337979D01*
X133440422Y-71549322D01*
X133440424Y-71549326D01*
X133440425Y-71549330D01*
X133486661Y-71648484D01*
X133532897Y-71747638D01*
X133532898Y-71747639D01*
X133658402Y-71926877D01*
X133813123Y-72081598D01*
X133959977Y-72184426D01*
X134003601Y-72239002D01*
X134010793Y-72308501D01*
X133979271Y-72370855D01*
X133919041Y-72406269D01*
X133888852Y-72410000D01*
X133822155Y-72410000D01*
X133762627Y-72416401D01*
X133762620Y-72416403D01*
X133627913Y-72466645D01*
X133627906Y-72466649D01*
X133512812Y-72552809D01*
X133512809Y-72552812D01*
X133426649Y-72667906D01*
X133426645Y-72667913D01*
X133376403Y-72802620D01*
X133376401Y-72802627D01*
X133370000Y-72862155D01*
X133370000Y-73410000D01*
X134304314Y-73410000D01*
X134292359Y-73421955D01*
X134234835Y-73534852D01*
X134215014Y-73660000D01*
X134234835Y-73785148D01*
X134292359Y-73898045D01*
X134304314Y-73910000D01*
X133370000Y-73910000D01*
X133370000Y-74457844D01*
X133376401Y-74517372D01*
X133376403Y-74517379D01*
X133426645Y-74652086D01*
X133426649Y-74652093D01*
X133512809Y-74767187D01*
X133512812Y-74767190D01*
X133627906Y-74853350D01*
X133627913Y-74853354D01*
X133762620Y-74903596D01*
X133762627Y-74903598D01*
X133822155Y-74909999D01*
X133822172Y-74910000D01*
X134370000Y-74910000D01*
X134370000Y-73975686D01*
X134381955Y-73987641D01*
X134494852Y-74045165D01*
X134588519Y-74060000D01*
X134651481Y-74060000D01*
X134745148Y-74045165D01*
X134858045Y-73987641D01*
X134870000Y-73975686D01*
X134870000Y-74910000D01*
X135417828Y-74910000D01*
X135417844Y-74909999D01*
X135477372Y-74903598D01*
X135477379Y-74903596D01*
X135612086Y-74853354D01*
X135612093Y-74853350D01*
X135727187Y-74767190D01*
X135727190Y-74767187D01*
X135813350Y-74652093D01*
X135813354Y-74652086D01*
X135863596Y-74517379D01*
X135863598Y-74517372D01*
X135869999Y-74457844D01*
X135870000Y-74457827D01*
X135870000Y-73910000D01*
X134935686Y-73910000D01*
X134947641Y-73898045D01*
X135005165Y-73785148D01*
X135024986Y-73660000D01*
X135005165Y-73534852D01*
X134947641Y-73421955D01*
X134935686Y-73410000D01*
X135870000Y-73410000D01*
X135870000Y-72862172D01*
X135869999Y-72862155D01*
X135863598Y-72802627D01*
X135863596Y-72802620D01*
X135813354Y-72667913D01*
X135813350Y-72667906D01*
X135727190Y-72552812D01*
X135727187Y-72552809D01*
X135612093Y-72466649D01*
X135612086Y-72466645D01*
X135477379Y-72416403D01*
X135477372Y-72416401D01*
X135417844Y-72410000D01*
X135351148Y-72410000D01*
X135284109Y-72390315D01*
X135238354Y-72337511D01*
X135228410Y-72268353D01*
X135257435Y-72204797D01*
X135280020Y-72184428D01*
X135426877Y-72081598D01*
X135581598Y-71926877D01*
X135707102Y-71747639D01*
X135799575Y-71549330D01*
X135856207Y-71337977D01*
X135872805Y-71148254D01*
X135875277Y-71120002D01*
X135875277Y-71119997D01*
X135871569Y-71077618D01*
X135856207Y-70902023D01*
X135799575Y-70690670D01*
X135707102Y-70492362D01*
X135707100Y-70492359D01*
X135707099Y-70492357D01*
X135581599Y-70313124D01*
X135529211Y-70260736D01*
X135426877Y-70158402D01*
X135247639Y-70032898D01*
X135096414Y-69962381D01*
X135043977Y-69916210D01*
X135024825Y-69849016D01*
X135045041Y-69782135D01*
X135096414Y-69737618D01*
X135247639Y-69667102D01*
X135426877Y-69541598D01*
X135581598Y-69386877D01*
X135707102Y-69207639D01*
X135799575Y-69009330D01*
X135856207Y-68797977D01*
X135872805Y-68608254D01*
X135875277Y-68580002D01*
X135875277Y-68579997D01*
X135869838Y-68517835D01*
X135856207Y-68362023D01*
X135799575Y-68150670D01*
X135707102Y-67952362D01*
X135707100Y-67952359D01*
X135707099Y-67952357D01*
X135581599Y-67773124D01*
X135525322Y-67716847D01*
X135426877Y-67618402D01*
X135247639Y-67492898D01*
X135247640Y-67492898D01*
X135247638Y-67492897D01*
X135121546Y-67434100D01*
X135049330Y-67400425D01*
X135049326Y-67400424D01*
X135049322Y-67400422D01*
X134837977Y-67343793D01*
X134620002Y-67324723D01*
X134619998Y-67324723D01*
X134474682Y-67337436D01*
X134402023Y-67343793D01*
X134402020Y-67343793D01*
X134190677Y-67400422D01*
X134190668Y-67400426D01*
X133992361Y-67492898D01*
X133992357Y-67492900D01*
X133813121Y-67618402D01*
X133658402Y-67773121D01*
X133532900Y-67952357D01*
X133532898Y-67952361D01*
X133440426Y-68150668D01*
X133440422Y-68150677D01*
X133383793Y-68362020D01*
X133383793Y-68362024D01*
X133364723Y-68579997D01*
X133364723Y-68580002D01*
X133383793Y-68797975D01*
X133383793Y-68797979D01*
X133440422Y-69009322D01*
X133440424Y-69009326D01*
X133440425Y-69009330D01*
X133486661Y-69108484D01*
X133532897Y-69207638D01*
X133532898Y-69207639D01*
X133658402Y-69386877D01*
X133813123Y-69541598D01*
X133992360Y-69667101D01*
X133992361Y-69667102D01*
X134143583Y-69737618D01*
X134196022Y-69783790D01*
X134215174Y-69850984D01*
X134194958Y-69917865D01*
X134143583Y-69962382D01*
X133992361Y-70032898D01*
X133992357Y-70032900D01*
X133813121Y-70158402D01*
X133658402Y-70313121D01*
X133532900Y-70492357D01*
X133532898Y-70492361D01*
X133440426Y-70690668D01*
X133440422Y-70690677D01*
X133383793Y-70902020D01*
X133383793Y-70902024D01*
X133364723Y-71119997D01*
X133364723Y-71120002D01*
X111760500Y-71120002D01*
X111760500Y-69527870D01*
X114169500Y-69527870D01*
X114169501Y-69527876D01*
X114175908Y-69587483D01*
X114226202Y-69722328D01*
X114226206Y-69722335D01*
X114312452Y-69837544D01*
X114312455Y-69837547D01*
X114427664Y-69923793D01*
X114427671Y-69923797D01*
X114562517Y-69974091D01*
X114562516Y-69974091D01*
X114569444Y-69974835D01*
X114622127Y-69980500D01*
X116517872Y-69980499D01*
X116577483Y-69974091D01*
X116712331Y-69923796D01*
X116827546Y-69837546D01*
X116913796Y-69722331D01*
X116964091Y-69587483D01*
X116970500Y-69527873D01*
X116970500Y-68580006D01*
X126864700Y-68580006D01*
X126883864Y-68811297D01*
X126883866Y-68811308D01*
X126940842Y-69036300D01*
X127034075Y-69248848D01*
X127161016Y-69443147D01*
X127161019Y-69443151D01*
X127161021Y-69443153D01*
X127318216Y-69613913D01*
X127318219Y-69613915D01*
X127318222Y-69613918D01*
X127501365Y-69756464D01*
X127501371Y-69756468D01*
X127501374Y-69756470D01*
X127611758Y-69816207D01*
X127704713Y-69866512D01*
X127705497Y-69866936D01*
X127754600Y-69883793D01*
X127925015Y-69942297D01*
X127925017Y-69942297D01*
X127925019Y-69942298D01*
X128153951Y-69980500D01*
X128153952Y-69980500D01*
X128386048Y-69980500D01*
X128386049Y-69980500D01*
X128614981Y-69942298D01*
X128834503Y-69866936D01*
X129038626Y-69756470D01*
X129077912Y-69725893D01*
X129153448Y-69667101D01*
X129221784Y-69613913D01*
X129378979Y-69443153D01*
X129505924Y-69248849D01*
X129599157Y-69036300D01*
X129656134Y-68811305D01*
X129656632Y-68805293D01*
X129675300Y-68580006D01*
X129675300Y-68579993D01*
X129656135Y-68348702D01*
X129656133Y-68348691D01*
X129599157Y-68123699D01*
X129505924Y-67911151D01*
X129378983Y-67716852D01*
X129378980Y-67716849D01*
X129378979Y-67716847D01*
X129221784Y-67546087D01*
X129221779Y-67546083D01*
X129221777Y-67546081D01*
X129038634Y-67403535D01*
X129038628Y-67403531D01*
X128834504Y-67293064D01*
X128834495Y-67293061D01*
X128614984Y-67217702D01*
X128424360Y-67185893D01*
X128386049Y-67179500D01*
X128153951Y-67179500D01*
X128115640Y-67185893D01*
X127925015Y-67217702D01*
X127705504Y-67293061D01*
X127705495Y-67293064D01*
X127501371Y-67403531D01*
X127501365Y-67403535D01*
X127318222Y-67546081D01*
X127318219Y-67546084D01*
X127318216Y-67546086D01*
X127318216Y-67546087D01*
X127293886Y-67572517D01*
X127161016Y-67716852D01*
X127034075Y-67911151D01*
X126940842Y-68123699D01*
X126883866Y-68348691D01*
X126883864Y-68348702D01*
X126864700Y-68579993D01*
X126864700Y-68580006D01*
X116970500Y-68580006D01*
X116970499Y-67632128D01*
X116964091Y-67572517D01*
X116960503Y-67562898D01*
X116913797Y-67437671D01*
X116913793Y-67437664D01*
X116827547Y-67322455D01*
X116827544Y-67322452D01*
X116712335Y-67236206D01*
X116712328Y-67236202D01*
X116577482Y-67185908D01*
X116577483Y-67185908D01*
X116517883Y-67179501D01*
X116517881Y-67179500D01*
X116517873Y-67179500D01*
X116517864Y-67179500D01*
X114622129Y-67179500D01*
X114622123Y-67179501D01*
X114562516Y-67185908D01*
X114427671Y-67236202D01*
X114427664Y-67236206D01*
X114312455Y-67322452D01*
X114312452Y-67322455D01*
X114226206Y-67437664D01*
X114226202Y-67437671D01*
X114175908Y-67572517D01*
X114169501Y-67632116D01*
X114169501Y-67632123D01*
X114169500Y-67632135D01*
X114169500Y-69527870D01*
X111760500Y-69527870D01*
X111760500Y-60390669D01*
X111780185Y-60323630D01*
X111832989Y-60277875D01*
X111875448Y-60267000D01*
X112030156Y-60255677D01*
X112142758Y-60230593D01*
X112294546Y-60196782D01*
X112294548Y-60196781D01*
X112294553Y-60196780D01*
X112547558Y-60100014D01*
X112783777Y-59967441D01*
X112998177Y-59801888D01*
X113186186Y-59606881D01*
X113343799Y-59386579D01*
X113442744Y-59194129D01*
X113467649Y-59145690D01*
X113467651Y-59145684D01*
X113467656Y-59145675D01*
X113555118Y-58889305D01*
X113604319Y-58622933D01*
X113611735Y-58420006D01*
X113947225Y-58420006D01*
X113965892Y-58645289D01*
X114021388Y-58864439D01*
X114112198Y-59071466D01*
X114235842Y-59260716D01*
X114235850Y-59260727D01*
X114377235Y-59414310D01*
X114388954Y-59427040D01*
X114567351Y-59565893D01*
X114766169Y-59673488D01*
X114766172Y-59673489D01*
X114979982Y-59746890D01*
X114979984Y-59746890D01*
X114979986Y-59746891D01*
X115202967Y-59784100D01*
X115202968Y-59784100D01*
X115429032Y-59784100D01*
X115429033Y-59784100D01*
X115652014Y-59746891D01*
X115865831Y-59673488D01*
X116064649Y-59565893D01*
X116243046Y-59427040D01*
X116371354Y-59287661D01*
X116396149Y-59260727D01*
X116396149Y-59260726D01*
X116396156Y-59260719D01*
X116482193Y-59129028D01*
X116535338Y-59083675D01*
X116604569Y-59074251D01*
X116667905Y-59103753D01*
X116689804Y-59129025D01*
X116775844Y-59260719D01*
X116775849Y-59260724D01*
X116775850Y-59260727D01*
X116917235Y-59414310D01*
X116928954Y-59427040D01*
X117107351Y-59565893D01*
X117306169Y-59673488D01*
X117306172Y-59673489D01*
X117519982Y-59746890D01*
X117519984Y-59746890D01*
X117519986Y-59746891D01*
X117742967Y-59784100D01*
X117742968Y-59784100D01*
X117969032Y-59784100D01*
X117969033Y-59784100D01*
X118192014Y-59746891D01*
X118405831Y-59673488D01*
X118604649Y-59565893D01*
X118783046Y-59427040D01*
X118911354Y-59287661D01*
X118936149Y-59260727D01*
X118936149Y-59260726D01*
X118936156Y-59260719D01*
X119022193Y-59129028D01*
X119075338Y-59083675D01*
X119144569Y-59074251D01*
X119207905Y-59103753D01*
X119229804Y-59129025D01*
X119315844Y-59260719D01*
X119315849Y-59260724D01*
X119315850Y-59260727D01*
X119457235Y-59414310D01*
X119468954Y-59427040D01*
X119647351Y-59565893D01*
X119846169Y-59673488D01*
X119846172Y-59673489D01*
X120059982Y-59746890D01*
X120059984Y-59746890D01*
X120059986Y-59746891D01*
X120282967Y-59784100D01*
X120282968Y-59784100D01*
X120509032Y-59784100D01*
X120509033Y-59784100D01*
X120732014Y-59746891D01*
X120945831Y-59673488D01*
X121144649Y-59565893D01*
X121323046Y-59427040D01*
X121377815Y-59367545D01*
X121437699Y-59331557D01*
X121507537Y-59333657D01*
X121565153Y-59373180D01*
X121585224Y-59408196D01*
X121629046Y-59525688D01*
X121629049Y-59525693D01*
X121715209Y-59640787D01*
X121715212Y-59640790D01*
X121830306Y-59726950D01*
X121830313Y-59726954D01*
X121965020Y-59777196D01*
X121965027Y-59777198D01*
X122024555Y-59783599D01*
X122024572Y-59783600D01*
X122686000Y-59783600D01*
X122686000Y-58864297D01*
X122791408Y-58912435D01*
X122899666Y-58928000D01*
X122972334Y-58928000D01*
X123080592Y-58912435D01*
X123186000Y-58864297D01*
X123186000Y-59783600D01*
X123847428Y-59783600D01*
X123847444Y-59783599D01*
X123906972Y-59777198D01*
X123906979Y-59777196D01*
X124041686Y-59726954D01*
X124041693Y-59726950D01*
X124156787Y-59640790D01*
X124156790Y-59640787D01*
X124242950Y-59525693D01*
X124242954Y-59525686D01*
X124286775Y-59408197D01*
X124328646Y-59352263D01*
X124394110Y-59327846D01*
X124462383Y-59342698D01*
X124494186Y-59367547D01*
X124537235Y-59414310D01*
X124548954Y-59427040D01*
X124727351Y-59565893D01*
X124926169Y-59673488D01*
X124926172Y-59673489D01*
X125139982Y-59746890D01*
X125139984Y-59746890D01*
X125139986Y-59746891D01*
X125362967Y-59784100D01*
X125362968Y-59784100D01*
X125589032Y-59784100D01*
X125589033Y-59784100D01*
X125812014Y-59746891D01*
X126025831Y-59673488D01*
X126224649Y-59565893D01*
X126403046Y-59427040D01*
X126531354Y-59287661D01*
X126556149Y-59260727D01*
X126556149Y-59260726D01*
X126556156Y-59260719D01*
X126642193Y-59129028D01*
X126695338Y-59083675D01*
X126764569Y-59074251D01*
X126827905Y-59103753D01*
X126849804Y-59129025D01*
X126935844Y-59260719D01*
X126935849Y-59260724D01*
X126935850Y-59260727D01*
X127077235Y-59414310D01*
X127088954Y-59427040D01*
X127267351Y-59565893D01*
X127466169Y-59673488D01*
X127466172Y-59673489D01*
X127679982Y-59746890D01*
X127679984Y-59746890D01*
X127679986Y-59746891D01*
X127902967Y-59784100D01*
X127902968Y-59784100D01*
X128129032Y-59784100D01*
X128129033Y-59784100D01*
X128352014Y-59746891D01*
X128565831Y-59673488D01*
X128764649Y-59565893D01*
X128943046Y-59427040D01*
X129071354Y-59287661D01*
X129096149Y-59260727D01*
X129096149Y-59260726D01*
X129096156Y-59260719D01*
X129182193Y-59129028D01*
X129235338Y-59083675D01*
X129304569Y-59074251D01*
X129367905Y-59103753D01*
X129389804Y-59129025D01*
X129475844Y-59260719D01*
X129475849Y-59260724D01*
X129475850Y-59260727D01*
X129617235Y-59414310D01*
X129628954Y-59427040D01*
X129807351Y-59565893D01*
X130006169Y-59673488D01*
X130006172Y-59673489D01*
X130219982Y-59746890D01*
X130219984Y-59746890D01*
X130219986Y-59746891D01*
X130442967Y-59784100D01*
X130442968Y-59784100D01*
X130669032Y-59784100D01*
X130669033Y-59784100D01*
X130892014Y-59746891D01*
X131105831Y-59673488D01*
X131304649Y-59565893D01*
X131483046Y-59427040D01*
X131611354Y-59287661D01*
X131636149Y-59260727D01*
X131636149Y-59260726D01*
X131636156Y-59260719D01*
X131722193Y-59129028D01*
X131775338Y-59083675D01*
X131844569Y-59074251D01*
X131907905Y-59103753D01*
X131929804Y-59129025D01*
X132015844Y-59260719D01*
X132015849Y-59260724D01*
X132015850Y-59260727D01*
X132157235Y-59414310D01*
X132168954Y-59427040D01*
X132347351Y-59565893D01*
X132546169Y-59673488D01*
X132546172Y-59673489D01*
X132759982Y-59746890D01*
X132759984Y-59746890D01*
X132759986Y-59746891D01*
X132982967Y-59784100D01*
X132982968Y-59784100D01*
X133209032Y-59784100D01*
X133209033Y-59784100D01*
X133432014Y-59746891D01*
X133645831Y-59673488D01*
X133844649Y-59565893D01*
X134023046Y-59427040D01*
X134151354Y-59287661D01*
X134176149Y-59260727D01*
X134176149Y-59260726D01*
X134176156Y-59260719D01*
X134262193Y-59129028D01*
X134315338Y-59083675D01*
X134384569Y-59074251D01*
X134447905Y-59103753D01*
X134469804Y-59129025D01*
X134555844Y-59260719D01*
X134555849Y-59260724D01*
X134555850Y-59260727D01*
X134697235Y-59414310D01*
X134708954Y-59427040D01*
X134887351Y-59565893D01*
X135086169Y-59673488D01*
X135086172Y-59673489D01*
X135299982Y-59746890D01*
X135299984Y-59746890D01*
X135299986Y-59746891D01*
X135522967Y-59784100D01*
X135522968Y-59784100D01*
X135749032Y-59784100D01*
X135749033Y-59784100D01*
X135972014Y-59746891D01*
X136185831Y-59673488D01*
X136384649Y-59565893D01*
X136563046Y-59427040D01*
X136691354Y-59287661D01*
X136716149Y-59260727D01*
X136716149Y-59260726D01*
X136716156Y-59260719D01*
X136802193Y-59129028D01*
X136855338Y-59083675D01*
X136924569Y-59074251D01*
X136987905Y-59103753D01*
X137009804Y-59129025D01*
X137095844Y-59260719D01*
X137095849Y-59260724D01*
X137095850Y-59260727D01*
X137237235Y-59414310D01*
X137248954Y-59427040D01*
X137427351Y-59565893D01*
X137626169Y-59673488D01*
X137626172Y-59673489D01*
X137839982Y-59746890D01*
X137839984Y-59746890D01*
X137839986Y-59746891D01*
X138062967Y-59784100D01*
X138062968Y-59784100D01*
X138289032Y-59784100D01*
X138289033Y-59784100D01*
X138512014Y-59746891D01*
X138725831Y-59673488D01*
X138924649Y-59565893D01*
X139103046Y-59427040D01*
X139231354Y-59287661D01*
X139256149Y-59260727D01*
X139256151Y-59260724D01*
X139256156Y-59260719D01*
X139379802Y-59071465D01*
X139470611Y-58864441D01*
X139526107Y-58645293D01*
X139533574Y-58555175D01*
X139544775Y-58420006D01*
X140871225Y-58420006D01*
X140889892Y-58645289D01*
X140945388Y-58864439D01*
X141036198Y-59071466D01*
X141159842Y-59260716D01*
X141159850Y-59260727D01*
X141301235Y-59414310D01*
X141312954Y-59427040D01*
X141491351Y-59565893D01*
X141690169Y-59673488D01*
X141690172Y-59673489D01*
X141903982Y-59746890D01*
X141903984Y-59746890D01*
X141903986Y-59746891D01*
X142126967Y-59784100D01*
X142126968Y-59784100D01*
X142353032Y-59784100D01*
X142353033Y-59784100D01*
X142576014Y-59746891D01*
X142789831Y-59673488D01*
X142988649Y-59565893D01*
X143167046Y-59427040D01*
X143295354Y-59287661D01*
X143320149Y-59260727D01*
X143320149Y-59260726D01*
X143320156Y-59260719D01*
X143406193Y-59129028D01*
X143459338Y-59083675D01*
X143528569Y-59074251D01*
X143591905Y-59103753D01*
X143613804Y-59129025D01*
X143699844Y-59260719D01*
X143699849Y-59260724D01*
X143699850Y-59260727D01*
X143841235Y-59414310D01*
X143852954Y-59427040D01*
X144031351Y-59565893D01*
X144230169Y-59673488D01*
X144230172Y-59673489D01*
X144443982Y-59746890D01*
X144443984Y-59746890D01*
X144443986Y-59746891D01*
X144666967Y-59784100D01*
X144666968Y-59784100D01*
X144893032Y-59784100D01*
X144893033Y-59784100D01*
X145116014Y-59746891D01*
X145329831Y-59673488D01*
X145528649Y-59565893D01*
X145707046Y-59427040D01*
X145835354Y-59287661D01*
X145860149Y-59260727D01*
X145860149Y-59260726D01*
X145860156Y-59260719D01*
X145946193Y-59129028D01*
X145999338Y-59083675D01*
X146068569Y-59074251D01*
X146131905Y-59103753D01*
X146153804Y-59129025D01*
X146239844Y-59260719D01*
X146239849Y-59260724D01*
X146239850Y-59260727D01*
X146381235Y-59414310D01*
X146392954Y-59427040D01*
X146571351Y-59565893D01*
X146770169Y-59673488D01*
X146770172Y-59673489D01*
X146983982Y-59746890D01*
X146983984Y-59746890D01*
X146983986Y-59746891D01*
X147206967Y-59784100D01*
X147206968Y-59784100D01*
X147433032Y-59784100D01*
X147433033Y-59784100D01*
X147656014Y-59746891D01*
X147869831Y-59673488D01*
X148068649Y-59565893D01*
X148247046Y-59427040D01*
X148375354Y-59287661D01*
X148400149Y-59260727D01*
X148400149Y-59260726D01*
X148400156Y-59260719D01*
X148486193Y-59129028D01*
X148539338Y-59083675D01*
X148608569Y-59074251D01*
X148671905Y-59103753D01*
X148693804Y-59129025D01*
X148779844Y-59260719D01*
X148779849Y-59260724D01*
X148779850Y-59260727D01*
X148921235Y-59414310D01*
X148932954Y-59427040D01*
X149111351Y-59565893D01*
X149310169Y-59673488D01*
X149310172Y-59673489D01*
X149523982Y-59746890D01*
X149523984Y-59746890D01*
X149523986Y-59746891D01*
X149746967Y-59784100D01*
X149746968Y-59784100D01*
X149973032Y-59784100D01*
X149973033Y-59784100D01*
X150196014Y-59746891D01*
X150409831Y-59673488D01*
X150608649Y-59565893D01*
X150787046Y-59427040D01*
X150915354Y-59287661D01*
X150940149Y-59260727D01*
X150940149Y-59260726D01*
X150940156Y-59260719D01*
X151026193Y-59129028D01*
X151079338Y-59083675D01*
X151148569Y-59074251D01*
X151211905Y-59103753D01*
X151233804Y-59129025D01*
X151319844Y-59260719D01*
X151319849Y-59260724D01*
X151319850Y-59260727D01*
X151461235Y-59414310D01*
X151472954Y-59427040D01*
X151651351Y-59565893D01*
X151850169Y-59673488D01*
X151850172Y-59673489D01*
X152063982Y-59746890D01*
X152063984Y-59746890D01*
X152063986Y-59746891D01*
X152286967Y-59784100D01*
X152286968Y-59784100D01*
X152513032Y-59784100D01*
X152513033Y-59784100D01*
X152736014Y-59746891D01*
X152949831Y-59673488D01*
X153148649Y-59565893D01*
X153327046Y-59427040D01*
X153455354Y-59287661D01*
X153480149Y-59260727D01*
X153480149Y-59260726D01*
X153480156Y-59260719D01*
X153566193Y-59129028D01*
X153619338Y-59083675D01*
X153688569Y-59074251D01*
X153751905Y-59103753D01*
X153773804Y-59129025D01*
X153859844Y-59260719D01*
X153859849Y-59260724D01*
X153859850Y-59260727D01*
X154001235Y-59414310D01*
X154012954Y-59427040D01*
X154191351Y-59565893D01*
X154390169Y-59673488D01*
X154390172Y-59673489D01*
X154603982Y-59746890D01*
X154603984Y-59746890D01*
X154603986Y-59746891D01*
X154826967Y-59784100D01*
X154826968Y-59784100D01*
X155053032Y-59784100D01*
X155053033Y-59784100D01*
X155276014Y-59746891D01*
X155489831Y-59673488D01*
X155688649Y-59565893D01*
X155867046Y-59427040D01*
X155995354Y-59287661D01*
X156020149Y-59260727D01*
X156020149Y-59260726D01*
X156020156Y-59260719D01*
X156106193Y-59129028D01*
X156159338Y-59083675D01*
X156228569Y-59074251D01*
X156291905Y-59103753D01*
X156313804Y-59129025D01*
X156399844Y-59260719D01*
X156399849Y-59260724D01*
X156399850Y-59260727D01*
X156541235Y-59414310D01*
X156552954Y-59427040D01*
X156731351Y-59565893D01*
X156930169Y-59673488D01*
X156930172Y-59673489D01*
X157143982Y-59746890D01*
X157143984Y-59746890D01*
X157143986Y-59746891D01*
X157366967Y-59784100D01*
X157366968Y-59784100D01*
X157593032Y-59784100D01*
X157593033Y-59784100D01*
X157816014Y-59746891D01*
X158029831Y-59673488D01*
X158228649Y-59565893D01*
X158407046Y-59427040D01*
X158535354Y-59287661D01*
X158560149Y-59260727D01*
X158560149Y-59260726D01*
X158560156Y-59260719D01*
X158646193Y-59129028D01*
X158699338Y-59083675D01*
X158768569Y-59074251D01*
X158831905Y-59103753D01*
X158853804Y-59129025D01*
X158939844Y-59260719D01*
X158939849Y-59260724D01*
X158939850Y-59260727D01*
X159081235Y-59414310D01*
X159092954Y-59427040D01*
X159271351Y-59565893D01*
X159470169Y-59673488D01*
X159470172Y-59673489D01*
X159683982Y-59746890D01*
X159683984Y-59746890D01*
X159683986Y-59746891D01*
X159906967Y-59784100D01*
X159906968Y-59784100D01*
X160133032Y-59784100D01*
X160133033Y-59784100D01*
X160356014Y-59746891D01*
X160569831Y-59673488D01*
X160768649Y-59565893D01*
X160947046Y-59427040D01*
X161075354Y-59287661D01*
X161100149Y-59260727D01*
X161100151Y-59260724D01*
X161100156Y-59260719D01*
X161223802Y-59071465D01*
X161314611Y-58864441D01*
X161370107Y-58645293D01*
X161377574Y-58555175D01*
X161388775Y-58420006D01*
X163731225Y-58420006D01*
X163749892Y-58645289D01*
X163805388Y-58864439D01*
X163896198Y-59071466D01*
X164019842Y-59260716D01*
X164019850Y-59260727D01*
X164161235Y-59414310D01*
X164172954Y-59427040D01*
X164351351Y-59565893D01*
X164550169Y-59673488D01*
X164550172Y-59673489D01*
X164763982Y-59746890D01*
X164763984Y-59746890D01*
X164763986Y-59746891D01*
X164986967Y-59784100D01*
X164986968Y-59784100D01*
X165213032Y-59784100D01*
X165213033Y-59784100D01*
X165436014Y-59746891D01*
X165649831Y-59673488D01*
X165848649Y-59565893D01*
X166027046Y-59427040D01*
X166155354Y-59287661D01*
X166180149Y-59260727D01*
X166180149Y-59260726D01*
X166180156Y-59260719D01*
X166266193Y-59129028D01*
X166319338Y-59083675D01*
X166388569Y-59074251D01*
X166451905Y-59103753D01*
X166473804Y-59129025D01*
X166559844Y-59260719D01*
X166559849Y-59260724D01*
X166559850Y-59260727D01*
X166701235Y-59414310D01*
X166712954Y-59427040D01*
X166891351Y-59565893D01*
X167090169Y-59673488D01*
X167090172Y-59673489D01*
X167303982Y-59746890D01*
X167303984Y-59746890D01*
X167303986Y-59746891D01*
X167526967Y-59784100D01*
X167526968Y-59784100D01*
X167753032Y-59784100D01*
X167753033Y-59784100D01*
X167976014Y-59746891D01*
X168189831Y-59673488D01*
X168388649Y-59565893D01*
X168567046Y-59427040D01*
X168695354Y-59287661D01*
X168720149Y-59260727D01*
X168720149Y-59260726D01*
X168720156Y-59260719D01*
X168806193Y-59129028D01*
X168859338Y-59083675D01*
X168928569Y-59074251D01*
X168991905Y-59103753D01*
X169013804Y-59129025D01*
X169099844Y-59260719D01*
X169099849Y-59260724D01*
X169099850Y-59260727D01*
X169241235Y-59414310D01*
X169252954Y-59427040D01*
X169431351Y-59565893D01*
X169630169Y-59673488D01*
X169630172Y-59673489D01*
X169843982Y-59746890D01*
X169843984Y-59746890D01*
X169843986Y-59746891D01*
X170066967Y-59784100D01*
X170066968Y-59784100D01*
X170293032Y-59784100D01*
X170293033Y-59784100D01*
X170516014Y-59746891D01*
X170729831Y-59673488D01*
X170928649Y-59565893D01*
X171107046Y-59427040D01*
X171235354Y-59287661D01*
X171260149Y-59260727D01*
X171260149Y-59260726D01*
X171260156Y-59260719D01*
X171346193Y-59129028D01*
X171399338Y-59083675D01*
X171468569Y-59074251D01*
X171531905Y-59103753D01*
X171553804Y-59129025D01*
X171639844Y-59260719D01*
X171639849Y-59260724D01*
X171639850Y-59260727D01*
X171781235Y-59414310D01*
X171792954Y-59427040D01*
X171971351Y-59565893D01*
X172170169Y-59673488D01*
X172170172Y-59673489D01*
X172383982Y-59746890D01*
X172383984Y-59746890D01*
X172383986Y-59746891D01*
X172606967Y-59784100D01*
X172606968Y-59784100D01*
X172833032Y-59784100D01*
X172833033Y-59784100D01*
X173056014Y-59746891D01*
X173269831Y-59673488D01*
X173468649Y-59565893D01*
X173647046Y-59427040D01*
X173775354Y-59287661D01*
X173800149Y-59260727D01*
X173800149Y-59260726D01*
X173800156Y-59260719D01*
X173886193Y-59129028D01*
X173939338Y-59083675D01*
X174008569Y-59074251D01*
X174071905Y-59103753D01*
X174093804Y-59129025D01*
X174179844Y-59260719D01*
X174179849Y-59260724D01*
X174179850Y-59260727D01*
X174321235Y-59414310D01*
X174332954Y-59427040D01*
X174511351Y-59565893D01*
X174710169Y-59673488D01*
X174710172Y-59673489D01*
X174923982Y-59746890D01*
X174923984Y-59746890D01*
X174923986Y-59746891D01*
X175146967Y-59784100D01*
X175146968Y-59784100D01*
X175373032Y-59784100D01*
X175373033Y-59784100D01*
X175596014Y-59746891D01*
X175809831Y-59673488D01*
X176008649Y-59565893D01*
X176187046Y-59427040D01*
X176315354Y-59287661D01*
X176340149Y-59260727D01*
X176340149Y-59260726D01*
X176340156Y-59260719D01*
X176426193Y-59129028D01*
X176479338Y-59083675D01*
X176548569Y-59074251D01*
X176611905Y-59103753D01*
X176633804Y-59129025D01*
X176719844Y-59260719D01*
X176719849Y-59260724D01*
X176719850Y-59260727D01*
X176861235Y-59414310D01*
X176872954Y-59427040D01*
X177051351Y-59565893D01*
X177250169Y-59673488D01*
X177250172Y-59673489D01*
X177463982Y-59746890D01*
X177463984Y-59746890D01*
X177463986Y-59746891D01*
X177686967Y-59784100D01*
X177686968Y-59784100D01*
X177913032Y-59784100D01*
X177913033Y-59784100D01*
X178136014Y-59746891D01*
X178349831Y-59673488D01*
X178548649Y-59565893D01*
X178727046Y-59427040D01*
X178855354Y-59287661D01*
X178880149Y-59260727D01*
X178880149Y-59260726D01*
X178880156Y-59260719D01*
X178966193Y-59129028D01*
X179019338Y-59083675D01*
X179088569Y-59074251D01*
X179151905Y-59103753D01*
X179173804Y-59129025D01*
X179259844Y-59260719D01*
X179259849Y-59260724D01*
X179259850Y-59260727D01*
X179401235Y-59414310D01*
X179412954Y-59427040D01*
X179591351Y-59565893D01*
X179790169Y-59673488D01*
X179790172Y-59673489D01*
X180003982Y-59746890D01*
X180003984Y-59746890D01*
X180003986Y-59746891D01*
X180226967Y-59784100D01*
X180226968Y-59784100D01*
X180453032Y-59784100D01*
X180453033Y-59784100D01*
X180676014Y-59746891D01*
X180889831Y-59673488D01*
X181088649Y-59565893D01*
X181267046Y-59427040D01*
X181395354Y-59287661D01*
X181420149Y-59260727D01*
X181420149Y-59260726D01*
X181420156Y-59260719D01*
X181506193Y-59129028D01*
X181559338Y-59083675D01*
X181628569Y-59074251D01*
X181691905Y-59103753D01*
X181713804Y-59129025D01*
X181799844Y-59260719D01*
X181799849Y-59260724D01*
X181799850Y-59260727D01*
X181941235Y-59414310D01*
X181952954Y-59427040D01*
X182131351Y-59565893D01*
X182330169Y-59673488D01*
X182330172Y-59673489D01*
X182543982Y-59746890D01*
X182543984Y-59746890D01*
X182543986Y-59746891D01*
X182766967Y-59784100D01*
X182766968Y-59784100D01*
X182993032Y-59784100D01*
X182993033Y-59784100D01*
X183216014Y-59746891D01*
X183429831Y-59673488D01*
X183628649Y-59565893D01*
X183807046Y-59427040D01*
X183935354Y-59287661D01*
X183960149Y-59260727D01*
X183960151Y-59260724D01*
X183960156Y-59260719D01*
X184083802Y-59071465D01*
X184174611Y-58864441D01*
X184230107Y-58645293D01*
X184237574Y-58555175D01*
X184243160Y-58487763D01*
X184835787Y-58487763D01*
X184865413Y-58757013D01*
X184865415Y-58757024D01*
X184927402Y-58994126D01*
X184933928Y-59019088D01*
X185039870Y-59268390D01*
X185142660Y-59436817D01*
X185180979Y-59499605D01*
X185180986Y-59499615D01*
X185354253Y-59707819D01*
X185354259Y-59707824D01*
X185472879Y-59814107D01*
X185555998Y-59888582D01*
X185781910Y-60038044D01*
X186027176Y-60153020D01*
X186027183Y-60153022D01*
X186027185Y-60153023D01*
X186286557Y-60231057D01*
X186286564Y-60231058D01*
X186286569Y-60231060D01*
X186554561Y-60270500D01*
X186554566Y-60270500D01*
X186757636Y-60270500D01*
X186809133Y-60266730D01*
X186960156Y-60255677D01*
X187072758Y-60230593D01*
X187224546Y-60196782D01*
X187224548Y-60196781D01*
X187224553Y-60196780D01*
X187477558Y-60100014D01*
X187713777Y-59967441D01*
X187928177Y-59801888D01*
X188116186Y-59606881D01*
X188273799Y-59386579D01*
X188372744Y-59194129D01*
X188397649Y-59145690D01*
X188397651Y-59145684D01*
X188397656Y-59145675D01*
X188485118Y-58889305D01*
X188534319Y-58622933D01*
X188544212Y-58352235D01*
X188514586Y-58082982D01*
X188446072Y-57820912D01*
X188340130Y-57571610D01*
X188199018Y-57340390D01*
X188143857Y-57274107D01*
X188025746Y-57132180D01*
X188025740Y-57132175D01*
X187824002Y-56951418D01*
X187598092Y-56801957D01*
X187598090Y-56801956D01*
X187352824Y-56686980D01*
X187352819Y-56686978D01*
X187352814Y-56686976D01*
X187093442Y-56608942D01*
X187093428Y-56608939D01*
X186977791Y-56591921D01*
X186825439Y-56569500D01*
X186622369Y-56569500D01*
X186622364Y-56569500D01*
X186419844Y-56584323D01*
X186419831Y-56584325D01*
X186155453Y-56643217D01*
X186155446Y-56643220D01*
X185902439Y-56739987D01*
X185666226Y-56872557D01*
X185451822Y-57038112D01*
X185263822Y-57233109D01*
X185263816Y-57233116D01*
X185106202Y-57453419D01*
X185106199Y-57453424D01*
X184982350Y-57694309D01*
X184982343Y-57694327D01*
X184894884Y-57950685D01*
X184894881Y-57950699D01*
X184885335Y-58002381D01*
X184857890Y-58150971D01*
X184845681Y-58217068D01*
X184845680Y-58217075D01*
X184835787Y-58487763D01*
X184243160Y-58487763D01*
X184248775Y-58420006D01*
X184248775Y-58419993D01*
X184230107Y-58194710D01*
X184230107Y-58194707D01*
X184174611Y-57975559D01*
X184083802Y-57768535D01*
X183960156Y-57579281D01*
X183960153Y-57579278D01*
X183960149Y-57579272D01*
X183807049Y-57412963D01*
X183807048Y-57412962D01*
X183807046Y-57412960D01*
X183628649Y-57274107D01*
X183552910Y-57233119D01*
X183429832Y-57166512D01*
X183429827Y-57166510D01*
X183216017Y-57093109D01*
X183034388Y-57062801D01*
X182993033Y-57055900D01*
X182766967Y-57055900D01*
X182725612Y-57062801D01*
X182543982Y-57093109D01*
X182330172Y-57166510D01*
X182330167Y-57166512D01*
X182131352Y-57274106D01*
X181952955Y-57412959D01*
X181952950Y-57412963D01*
X181799850Y-57579272D01*
X181799842Y-57579283D01*
X181713808Y-57710968D01*
X181660662Y-57756325D01*
X181591430Y-57765748D01*
X181528095Y-57736246D01*
X181506192Y-57710968D01*
X181420157Y-57579283D01*
X181420149Y-57579272D01*
X181267049Y-57412963D01*
X181267048Y-57412962D01*
X181267046Y-57412960D01*
X181088649Y-57274107D01*
X181012910Y-57233119D01*
X180889832Y-57166512D01*
X180889827Y-57166510D01*
X180676017Y-57093109D01*
X180494388Y-57062801D01*
X180453033Y-57055900D01*
X180226967Y-57055900D01*
X180185612Y-57062801D01*
X180003982Y-57093109D01*
X179790172Y-57166510D01*
X179790167Y-57166512D01*
X179591352Y-57274106D01*
X179412955Y-57412959D01*
X179412950Y-57412963D01*
X179259850Y-57579272D01*
X179259842Y-57579283D01*
X179173808Y-57710968D01*
X179120662Y-57756325D01*
X179051430Y-57765748D01*
X178988095Y-57736246D01*
X178966192Y-57710968D01*
X178880157Y-57579283D01*
X178880149Y-57579272D01*
X178727049Y-57412963D01*
X178727048Y-57412962D01*
X178727046Y-57412960D01*
X178548649Y-57274107D01*
X178472910Y-57233119D01*
X178349832Y-57166512D01*
X178349827Y-57166510D01*
X178136017Y-57093109D01*
X177954388Y-57062801D01*
X177913033Y-57055900D01*
X177686967Y-57055900D01*
X177645612Y-57062801D01*
X177463982Y-57093109D01*
X177250172Y-57166510D01*
X177250167Y-57166512D01*
X177051352Y-57274106D01*
X176872955Y-57412959D01*
X176872950Y-57412963D01*
X176719850Y-57579272D01*
X176719842Y-57579283D01*
X176633808Y-57710968D01*
X176580662Y-57756325D01*
X176511430Y-57765748D01*
X176448095Y-57736246D01*
X176426192Y-57710968D01*
X176340157Y-57579283D01*
X176340149Y-57579272D01*
X176187049Y-57412963D01*
X176187048Y-57412962D01*
X176187046Y-57412960D01*
X176008649Y-57274107D01*
X175932910Y-57233119D01*
X175809832Y-57166512D01*
X175809827Y-57166510D01*
X175596017Y-57093109D01*
X175414388Y-57062801D01*
X175373033Y-57055900D01*
X175146967Y-57055900D01*
X175105612Y-57062801D01*
X174923982Y-57093109D01*
X174710172Y-57166510D01*
X174710167Y-57166512D01*
X174511352Y-57274106D01*
X174332955Y-57412959D01*
X174332950Y-57412963D01*
X174179850Y-57579272D01*
X174179842Y-57579283D01*
X174093808Y-57710968D01*
X174040662Y-57756325D01*
X173971430Y-57765748D01*
X173908095Y-57736246D01*
X173886192Y-57710968D01*
X173800157Y-57579283D01*
X173800149Y-57579272D01*
X173647049Y-57412963D01*
X173647048Y-57412962D01*
X173647046Y-57412960D01*
X173468649Y-57274107D01*
X173392910Y-57233119D01*
X173269832Y-57166512D01*
X173269827Y-57166510D01*
X173056017Y-57093109D01*
X172874388Y-57062801D01*
X172833033Y-57055900D01*
X172606967Y-57055900D01*
X172565612Y-57062801D01*
X172383982Y-57093109D01*
X172170172Y-57166510D01*
X172170167Y-57166512D01*
X171971352Y-57274106D01*
X171792955Y-57412959D01*
X171792950Y-57412963D01*
X171639850Y-57579272D01*
X171639842Y-57579283D01*
X171553808Y-57710968D01*
X171500662Y-57756325D01*
X171431430Y-57765748D01*
X171368095Y-57736246D01*
X171346192Y-57710968D01*
X171260157Y-57579283D01*
X171260149Y-57579272D01*
X171107049Y-57412963D01*
X171107048Y-57412962D01*
X171107046Y-57412960D01*
X170928649Y-57274107D01*
X170852910Y-57233119D01*
X170729832Y-57166512D01*
X170729827Y-57166510D01*
X170516017Y-57093109D01*
X170334388Y-57062801D01*
X170293033Y-57055900D01*
X170066967Y-57055900D01*
X170025612Y-57062801D01*
X169843982Y-57093109D01*
X169630172Y-57166510D01*
X169630167Y-57166512D01*
X169431352Y-57274106D01*
X169252955Y-57412959D01*
X169252950Y-57412963D01*
X169099850Y-57579272D01*
X169099842Y-57579283D01*
X169013808Y-57710968D01*
X168960662Y-57756325D01*
X168891430Y-57765748D01*
X168828095Y-57736246D01*
X168806192Y-57710968D01*
X168720157Y-57579283D01*
X168720149Y-57579272D01*
X168567049Y-57412963D01*
X168567048Y-57412962D01*
X168567046Y-57412960D01*
X168388649Y-57274107D01*
X168312910Y-57233119D01*
X168189832Y-57166512D01*
X168189827Y-57166510D01*
X167976017Y-57093109D01*
X167794388Y-57062801D01*
X167753033Y-57055900D01*
X167526967Y-57055900D01*
X167485612Y-57062801D01*
X167303982Y-57093109D01*
X167090172Y-57166510D01*
X167090167Y-57166512D01*
X166891352Y-57274106D01*
X166712955Y-57412959D01*
X166712950Y-57412963D01*
X166559850Y-57579272D01*
X166559842Y-57579283D01*
X166473808Y-57710968D01*
X166420662Y-57756325D01*
X166351430Y-57765748D01*
X166288095Y-57736246D01*
X166266192Y-57710968D01*
X166180157Y-57579283D01*
X166180149Y-57579272D01*
X166027049Y-57412963D01*
X166027048Y-57412962D01*
X166027046Y-57412960D01*
X165848649Y-57274107D01*
X165772910Y-57233119D01*
X165649832Y-57166512D01*
X165649827Y-57166510D01*
X165436017Y-57093109D01*
X165254388Y-57062801D01*
X165213033Y-57055900D01*
X164986967Y-57055900D01*
X164945612Y-57062801D01*
X164763982Y-57093109D01*
X164550172Y-57166510D01*
X164550167Y-57166512D01*
X164351352Y-57274106D01*
X164172955Y-57412959D01*
X164172950Y-57412963D01*
X164019850Y-57579272D01*
X164019842Y-57579283D01*
X163896198Y-57768533D01*
X163805388Y-57975560D01*
X163749892Y-58194710D01*
X163731225Y-58419993D01*
X163731225Y-58420006D01*
X161388775Y-58420006D01*
X161388775Y-58419993D01*
X161370107Y-58194710D01*
X161370107Y-58194707D01*
X161314611Y-57975559D01*
X161223802Y-57768535D01*
X161100156Y-57579281D01*
X161100153Y-57579278D01*
X161100149Y-57579272D01*
X160947049Y-57412963D01*
X160947048Y-57412962D01*
X160947046Y-57412960D01*
X160768649Y-57274107D01*
X160692910Y-57233119D01*
X160569832Y-57166512D01*
X160569827Y-57166510D01*
X160356017Y-57093109D01*
X160174388Y-57062801D01*
X160133033Y-57055900D01*
X159906967Y-57055900D01*
X159865612Y-57062801D01*
X159683982Y-57093109D01*
X159470172Y-57166510D01*
X159470167Y-57166512D01*
X159271352Y-57274106D01*
X159092955Y-57412959D01*
X159092950Y-57412963D01*
X158939850Y-57579272D01*
X158939842Y-57579283D01*
X158853808Y-57710968D01*
X158800662Y-57756325D01*
X158731430Y-57765748D01*
X158668095Y-57736246D01*
X158646192Y-57710968D01*
X158560157Y-57579283D01*
X158560149Y-57579272D01*
X158407049Y-57412963D01*
X158407048Y-57412962D01*
X158407046Y-57412960D01*
X158228649Y-57274107D01*
X158152910Y-57233119D01*
X158029832Y-57166512D01*
X158029827Y-57166510D01*
X157816017Y-57093109D01*
X157634388Y-57062801D01*
X157593033Y-57055900D01*
X157366967Y-57055900D01*
X157325612Y-57062801D01*
X157143982Y-57093109D01*
X156930172Y-57166510D01*
X156930167Y-57166512D01*
X156731352Y-57274106D01*
X156552955Y-57412959D01*
X156552950Y-57412963D01*
X156399850Y-57579272D01*
X156399842Y-57579283D01*
X156313808Y-57710968D01*
X156260662Y-57756325D01*
X156191430Y-57765748D01*
X156128095Y-57736246D01*
X156106192Y-57710968D01*
X156020157Y-57579283D01*
X156020149Y-57579272D01*
X155867049Y-57412963D01*
X155867048Y-57412962D01*
X155867046Y-57412960D01*
X155688649Y-57274107D01*
X155612910Y-57233119D01*
X155489832Y-57166512D01*
X155489827Y-57166510D01*
X155276017Y-57093109D01*
X155094388Y-57062801D01*
X155053033Y-57055900D01*
X154826967Y-57055900D01*
X154785612Y-57062801D01*
X154603982Y-57093109D01*
X154390172Y-57166510D01*
X154390167Y-57166512D01*
X154191352Y-57274106D01*
X154012955Y-57412959D01*
X154012950Y-57412963D01*
X153859850Y-57579272D01*
X153859842Y-57579283D01*
X153773808Y-57710968D01*
X153720662Y-57756325D01*
X153651430Y-57765748D01*
X153588095Y-57736246D01*
X153566192Y-57710968D01*
X153480157Y-57579283D01*
X153480149Y-57579272D01*
X153327049Y-57412963D01*
X153327048Y-57412962D01*
X153327046Y-57412960D01*
X153148649Y-57274107D01*
X153072910Y-57233119D01*
X152949832Y-57166512D01*
X152949827Y-57166510D01*
X152736017Y-57093109D01*
X152554388Y-57062801D01*
X152513033Y-57055900D01*
X152286967Y-57055900D01*
X152245612Y-57062801D01*
X152063982Y-57093109D01*
X151850172Y-57166510D01*
X151850167Y-57166512D01*
X151651352Y-57274106D01*
X151472955Y-57412959D01*
X151472950Y-57412963D01*
X151319850Y-57579272D01*
X151319842Y-57579283D01*
X151233808Y-57710968D01*
X151180662Y-57756325D01*
X151111430Y-57765748D01*
X151048095Y-57736246D01*
X151026192Y-57710968D01*
X150940157Y-57579283D01*
X150940149Y-57579272D01*
X150787049Y-57412963D01*
X150787048Y-57412962D01*
X150787046Y-57412960D01*
X150608649Y-57274107D01*
X150532910Y-57233119D01*
X150409832Y-57166512D01*
X150409827Y-57166510D01*
X150196017Y-57093109D01*
X150014388Y-57062801D01*
X149973033Y-57055900D01*
X149746967Y-57055900D01*
X149705612Y-57062801D01*
X149523982Y-57093109D01*
X149310172Y-57166510D01*
X149310167Y-57166512D01*
X149111352Y-57274106D01*
X148932955Y-57412959D01*
X148932950Y-57412963D01*
X148779850Y-57579272D01*
X148779842Y-57579283D01*
X148693808Y-57710968D01*
X148640662Y-57756325D01*
X148571430Y-57765748D01*
X148508095Y-57736246D01*
X148486192Y-57710968D01*
X148400157Y-57579283D01*
X148400149Y-57579272D01*
X148247049Y-57412963D01*
X148247048Y-57412962D01*
X148247046Y-57412960D01*
X148068649Y-57274107D01*
X147992910Y-57233119D01*
X147869832Y-57166512D01*
X147869827Y-57166510D01*
X147656017Y-57093109D01*
X147474388Y-57062801D01*
X147433033Y-57055900D01*
X147206967Y-57055900D01*
X147165612Y-57062801D01*
X146983982Y-57093109D01*
X146770172Y-57166510D01*
X146770167Y-57166512D01*
X146571352Y-57274106D01*
X146392955Y-57412959D01*
X146392950Y-57412963D01*
X146239850Y-57579272D01*
X146239842Y-57579283D01*
X146153808Y-57710968D01*
X146100662Y-57756325D01*
X146031430Y-57765748D01*
X145968095Y-57736246D01*
X145946192Y-57710968D01*
X145860157Y-57579283D01*
X145860149Y-57579272D01*
X145707049Y-57412963D01*
X145707048Y-57412962D01*
X145707046Y-57412960D01*
X145528649Y-57274107D01*
X145452910Y-57233119D01*
X145329832Y-57166512D01*
X145329827Y-57166510D01*
X145116017Y-57093109D01*
X144934388Y-57062801D01*
X144893033Y-57055900D01*
X144666967Y-57055900D01*
X144625612Y-57062801D01*
X144443982Y-57093109D01*
X144230172Y-57166510D01*
X144230167Y-57166512D01*
X144031352Y-57274106D01*
X143852955Y-57412959D01*
X143852950Y-57412963D01*
X143699850Y-57579272D01*
X143699842Y-57579283D01*
X143613808Y-57710968D01*
X143560662Y-57756325D01*
X143491430Y-57765748D01*
X143428095Y-57736246D01*
X143406192Y-57710968D01*
X143320157Y-57579283D01*
X143320149Y-57579272D01*
X143167049Y-57412963D01*
X143167048Y-57412962D01*
X143167046Y-57412960D01*
X142988649Y-57274107D01*
X142912910Y-57233119D01*
X142789832Y-57166512D01*
X142789827Y-57166510D01*
X142576017Y-57093109D01*
X142394388Y-57062801D01*
X142353033Y-57055900D01*
X142126967Y-57055900D01*
X142085612Y-57062801D01*
X141903982Y-57093109D01*
X141690172Y-57166510D01*
X141690167Y-57166512D01*
X141491352Y-57274106D01*
X141312955Y-57412959D01*
X141312950Y-57412963D01*
X141159850Y-57579272D01*
X141159842Y-57579283D01*
X141036198Y-57768533D01*
X140945388Y-57975560D01*
X140889892Y-58194710D01*
X140871225Y-58419993D01*
X140871225Y-58420006D01*
X139544775Y-58420006D01*
X139544775Y-58419993D01*
X139526107Y-58194710D01*
X139526107Y-58194707D01*
X139470611Y-57975559D01*
X139379802Y-57768535D01*
X139256156Y-57579281D01*
X139256153Y-57579278D01*
X139256149Y-57579272D01*
X139103049Y-57412963D01*
X139103048Y-57412962D01*
X139103046Y-57412960D01*
X138924649Y-57274107D01*
X138848910Y-57233119D01*
X138725832Y-57166512D01*
X138725827Y-57166510D01*
X138512017Y-57093109D01*
X138330388Y-57062801D01*
X138289033Y-57055900D01*
X138062967Y-57055900D01*
X138021612Y-57062801D01*
X137839982Y-57093109D01*
X137626172Y-57166510D01*
X137626167Y-57166512D01*
X137427352Y-57274106D01*
X137248955Y-57412959D01*
X137248950Y-57412963D01*
X137095850Y-57579272D01*
X137095842Y-57579283D01*
X137009808Y-57710968D01*
X136956662Y-57756325D01*
X136887430Y-57765748D01*
X136824095Y-57736246D01*
X136802192Y-57710968D01*
X136716157Y-57579283D01*
X136716149Y-57579272D01*
X136563049Y-57412963D01*
X136563048Y-57412962D01*
X136563046Y-57412960D01*
X136384649Y-57274107D01*
X136308910Y-57233119D01*
X136185832Y-57166512D01*
X136185827Y-57166510D01*
X135972017Y-57093109D01*
X135790388Y-57062801D01*
X135749033Y-57055900D01*
X135522967Y-57055900D01*
X135481612Y-57062801D01*
X135299982Y-57093109D01*
X135086172Y-57166510D01*
X135086167Y-57166512D01*
X134887352Y-57274106D01*
X134708955Y-57412959D01*
X134708950Y-57412963D01*
X134555850Y-57579272D01*
X134555842Y-57579283D01*
X134469808Y-57710968D01*
X134416662Y-57756325D01*
X134347430Y-57765748D01*
X134284095Y-57736246D01*
X134262192Y-57710968D01*
X134176157Y-57579283D01*
X134176149Y-57579272D01*
X134023049Y-57412963D01*
X134023048Y-57412962D01*
X134023046Y-57412960D01*
X133844649Y-57274107D01*
X133768910Y-57233119D01*
X133645832Y-57166512D01*
X133645827Y-57166510D01*
X133432017Y-57093109D01*
X133250388Y-57062801D01*
X133209033Y-57055900D01*
X132982967Y-57055900D01*
X132941612Y-57062801D01*
X132759982Y-57093109D01*
X132546172Y-57166510D01*
X132546167Y-57166512D01*
X132347352Y-57274106D01*
X132168955Y-57412959D01*
X132168950Y-57412963D01*
X132015850Y-57579272D01*
X132015842Y-57579283D01*
X131929808Y-57710968D01*
X131876662Y-57756325D01*
X131807430Y-57765748D01*
X131744095Y-57736246D01*
X131722192Y-57710968D01*
X131636157Y-57579283D01*
X131636149Y-57579272D01*
X131483049Y-57412963D01*
X131483048Y-57412962D01*
X131483046Y-57412960D01*
X131304649Y-57274107D01*
X131228910Y-57233119D01*
X131105832Y-57166512D01*
X131105827Y-57166510D01*
X130892017Y-57093109D01*
X130710388Y-57062801D01*
X130669033Y-57055900D01*
X130442967Y-57055900D01*
X130401612Y-57062801D01*
X130219982Y-57093109D01*
X130006172Y-57166510D01*
X130006167Y-57166512D01*
X129807352Y-57274106D01*
X129628955Y-57412959D01*
X129628950Y-57412963D01*
X129475850Y-57579272D01*
X129475842Y-57579283D01*
X129389808Y-57710968D01*
X129336662Y-57756325D01*
X129267430Y-57765748D01*
X129204095Y-57736246D01*
X129182192Y-57710968D01*
X129096157Y-57579283D01*
X129096149Y-57579272D01*
X128943049Y-57412963D01*
X128943048Y-57412962D01*
X128943046Y-57412960D01*
X128764649Y-57274107D01*
X128688910Y-57233119D01*
X128565832Y-57166512D01*
X128565827Y-57166510D01*
X128352017Y-57093109D01*
X128170388Y-57062801D01*
X128129033Y-57055900D01*
X127902967Y-57055900D01*
X127861612Y-57062801D01*
X127679982Y-57093109D01*
X127466172Y-57166510D01*
X127466167Y-57166512D01*
X127267352Y-57274106D01*
X127088955Y-57412959D01*
X127088950Y-57412963D01*
X126935850Y-57579272D01*
X126935842Y-57579283D01*
X126849808Y-57710968D01*
X126796662Y-57756325D01*
X126727430Y-57765748D01*
X126664095Y-57736246D01*
X126642192Y-57710968D01*
X126556157Y-57579283D01*
X126556149Y-57579272D01*
X126403049Y-57412963D01*
X126403048Y-57412962D01*
X126403046Y-57412960D01*
X126224649Y-57274107D01*
X126148910Y-57233119D01*
X126025832Y-57166512D01*
X126025827Y-57166510D01*
X125812017Y-57093109D01*
X125630388Y-57062801D01*
X125589033Y-57055900D01*
X125362967Y-57055900D01*
X125321612Y-57062801D01*
X125139982Y-57093109D01*
X124926172Y-57166510D01*
X124926167Y-57166512D01*
X124727352Y-57274106D01*
X124548955Y-57412958D01*
X124494186Y-57472453D01*
X124434298Y-57508443D01*
X124364460Y-57506342D01*
X124306845Y-57466817D01*
X124286775Y-57431802D01*
X124242954Y-57314313D01*
X124242950Y-57314306D01*
X124156790Y-57199212D01*
X124156787Y-57199209D01*
X124041693Y-57113049D01*
X124041686Y-57113045D01*
X123906979Y-57062803D01*
X123906972Y-57062801D01*
X123847444Y-57056400D01*
X123186000Y-57056400D01*
X123186000Y-57975702D01*
X123080592Y-57927565D01*
X122972334Y-57912000D01*
X122899666Y-57912000D01*
X122791408Y-57927565D01*
X122686000Y-57975702D01*
X122686000Y-57056400D01*
X122024555Y-57056400D01*
X121965027Y-57062801D01*
X121965020Y-57062803D01*
X121830313Y-57113045D01*
X121830306Y-57113049D01*
X121715212Y-57199209D01*
X121715209Y-57199212D01*
X121629049Y-57314306D01*
X121629046Y-57314312D01*
X121585224Y-57431803D01*
X121543352Y-57487736D01*
X121477887Y-57512153D01*
X121409615Y-57497301D01*
X121377813Y-57472452D01*
X121323049Y-57412963D01*
X121323048Y-57412962D01*
X121323046Y-57412960D01*
X121144649Y-57274107D01*
X121068910Y-57233119D01*
X120945832Y-57166512D01*
X120945827Y-57166510D01*
X120732017Y-57093109D01*
X120550388Y-57062801D01*
X120509033Y-57055900D01*
X120282967Y-57055900D01*
X120241612Y-57062801D01*
X120059982Y-57093109D01*
X119846172Y-57166510D01*
X119846167Y-57166512D01*
X119647352Y-57274106D01*
X119468955Y-57412959D01*
X119468950Y-57412963D01*
X119315850Y-57579272D01*
X119315842Y-57579283D01*
X119229808Y-57710968D01*
X119176662Y-57756325D01*
X119107430Y-57765748D01*
X119044095Y-57736246D01*
X119022192Y-57710968D01*
X118936157Y-57579283D01*
X118936149Y-57579272D01*
X118783049Y-57412963D01*
X118783048Y-57412962D01*
X118783046Y-57412960D01*
X118604649Y-57274107D01*
X118528910Y-57233119D01*
X118405832Y-57166512D01*
X118405827Y-57166510D01*
X118192017Y-57093109D01*
X118010388Y-57062801D01*
X117969033Y-57055900D01*
X117742967Y-57055900D01*
X117701612Y-57062801D01*
X117519982Y-57093109D01*
X117306172Y-57166510D01*
X117306167Y-57166512D01*
X117107352Y-57274106D01*
X116928955Y-57412959D01*
X116928950Y-57412963D01*
X116775850Y-57579272D01*
X116775842Y-57579283D01*
X116689808Y-57710968D01*
X116636662Y-57756325D01*
X116567430Y-57765748D01*
X116504095Y-57736246D01*
X116482192Y-57710968D01*
X116396157Y-57579283D01*
X116396149Y-57579272D01*
X116243049Y-57412963D01*
X116243048Y-57412962D01*
X116243046Y-57412960D01*
X116064649Y-57274107D01*
X115988910Y-57233119D01*
X115865832Y-57166512D01*
X115865827Y-57166510D01*
X115652017Y-57093109D01*
X115470388Y-57062801D01*
X115429033Y-57055900D01*
X115202967Y-57055900D01*
X115161612Y-57062801D01*
X114979982Y-57093109D01*
X114766172Y-57166510D01*
X114766167Y-57166512D01*
X114567352Y-57274106D01*
X114388955Y-57412959D01*
X114388950Y-57412963D01*
X114235850Y-57579272D01*
X114235842Y-57579283D01*
X114112198Y-57768533D01*
X114021388Y-57975560D01*
X113965892Y-58194710D01*
X113947225Y-58419993D01*
X113947225Y-58420006D01*
X113611735Y-58420006D01*
X113614212Y-58352235D01*
X113584586Y-58082982D01*
X113516072Y-57820912D01*
X113410130Y-57571610D01*
X113269018Y-57340390D01*
X113213857Y-57274107D01*
X113095746Y-57132180D01*
X113095740Y-57132175D01*
X112894002Y-56951418D01*
X112668092Y-56801957D01*
X112668090Y-56801956D01*
X112422824Y-56686980D01*
X112422819Y-56686978D01*
X112422814Y-56686976D01*
X112163442Y-56608942D01*
X112163428Y-56608939D01*
X112047791Y-56591921D01*
X111895439Y-56569500D01*
X111895434Y-56569500D01*
X111884500Y-56569500D01*
X111817461Y-56549815D01*
X111771706Y-56497011D01*
X111760500Y-56445500D01*
X111760500Y-53340004D01*
X203934451Y-53340004D01*
X203954616Y-53609101D01*
X204014664Y-53872188D01*
X204014666Y-53872195D01*
X204113257Y-54123398D01*
X204248185Y-54357102D01*
X204384080Y-54527509D01*
X204416442Y-54568089D01*
X204603183Y-54741358D01*
X204614259Y-54751635D01*
X204837226Y-54903651D01*
X205080359Y-55020738D01*
X205338228Y-55100280D01*
X205338229Y-55100280D01*
X205338232Y-55100281D01*
X205605063Y-55140499D01*
X205605068Y-55140499D01*
X205605071Y-55140500D01*
X205605072Y-55140500D01*
X205874928Y-55140500D01*
X205874929Y-55140500D01*
X205874936Y-55140499D01*
X206141767Y-55100281D01*
X206141768Y-55100280D01*
X206141772Y-55100280D01*
X206399641Y-55020738D01*
X206642775Y-54903651D01*
X206865741Y-54751635D01*
X207063561Y-54568085D01*
X207231815Y-54357102D01*
X207366743Y-54123398D01*
X207465334Y-53872195D01*
X207525383Y-53609103D01*
X207545549Y-53340000D01*
X207525383Y-53070897D01*
X207465334Y-52807805D01*
X207366743Y-52556602D01*
X207231815Y-52322898D01*
X207063561Y-52111915D01*
X207063560Y-52111914D01*
X207063557Y-52111910D01*
X206865741Y-51928365D01*
X206642775Y-51776349D01*
X206642769Y-51776346D01*
X206642768Y-51776345D01*
X206642767Y-51776344D01*
X206399643Y-51659263D01*
X206399645Y-51659263D01*
X206141773Y-51579720D01*
X206141767Y-51579718D01*
X205874936Y-51539500D01*
X205874929Y-51539500D01*
X205605071Y-51539500D01*
X205605063Y-51539500D01*
X205338232Y-51579718D01*
X205338226Y-51579720D01*
X205080358Y-51659262D01*
X204837230Y-51776346D01*
X204614258Y-51928365D01*
X204416442Y-52111910D01*
X204248185Y-52322898D01*
X204113258Y-52556599D01*
X204113256Y-52556603D01*
X204014666Y-52807804D01*
X204014664Y-52807811D01*
X203954616Y-53070898D01*
X203934451Y-53339995D01*
X203934451Y-53340004D01*
X111760500Y-53340004D01*
X111760500Y-43304500D01*
X111780185Y-43237461D01*
X111832989Y-43191706D01*
X111884500Y-43180500D01*
X210695500Y-43180500D01*
X210762539Y-43200185D01*
G37*
%TD.AperFunction*%
%TD*%
M02*
